<svg width="130" height="18" viewBox="0 0 130 18" fill="none" xmlns="http://www.w3.org/2000/svg">
<path d="M123.998 15.876C125.742 15.876 126.614 14.468 126.614 11.652C126.614 10.228 126.414 9.14798 126.014 8.41198C125.63 7.67598 124.974 7.30798 124.046 7.30798C123.134 7.30798 122.462 7.65998 122.03 8.36398C121.598 9.06798 121.382 10.028 121.382 11.244C121.382 13.5 121.798 14.916 122.63 15.492C122.998 15.748 123.454 15.876 123.998 15.876ZM118.478 11.58C118.478 10.396 118.654 9.37198 119.006 8.50798C119.358 7.62798 119.83 6.95598 120.422 6.49198C121.558 5.62798 122.814 5.19598 124.19 5.19598C125.15 5.19598 125.958 5.35598 126.614 5.67598C127.286 5.97998 127.806 6.33998 128.174 6.75598C128.558 7.15598 128.878 7.74798 129.134 8.53198C129.406 9.29998 129.542 10.212 129.542 11.268C129.542 13.476 129.006 15.148 127.934 16.284C126.862 17.42 125.486 17.988 123.806 17.988C122.142 17.988 120.838 17.452 119.894 16.38C118.95 15.292 118.478 13.692 118.478 11.58Z" fill="black"/>
<path d="M116.201 5.55598V15.636L117.569 15.708V17.628H111.857V15.804L112.649 15.732C113.113 15.684 113.345 15.428 113.345 14.964V8.29198C113.345 8.01998 113.297 7.83598 113.201 7.73998C113.121 7.64398 112.969 7.59598 112.745 7.59598L111.905 7.54798V5.55598H116.201ZM113.177 3.49198C112.841 3.15598 112.673 2.73198 112.673 2.21998C112.673 1.70798 112.841 1.28398 113.177 0.947982C113.513 0.595983 113.953 0.419983 114.497 0.419983C115.041 0.419983 115.481 0.595983 115.817 0.947982C116.169 1.28398 116.345 1.70798 116.345 2.21998C116.345 2.73198 116.169 3.15598 115.817 3.49198C115.481 3.81198 115.041 3.97198 114.497 3.97198C113.953 3.97198 113.513 3.81198 113.177 3.49198Z" fill="black"/>
<path d="M104.72 5.19599C105.408 5.19599 106.064 5.29199 106.688 5.48399V3.05999C106.688 2.70799 106.48 2.51599 106.064 2.48399L105.032 2.41199V0.515991H109.496V15.108C109.512 15.476 109.712 15.66 110.096 15.66L110.936 15.708V17.628H107.048V16.212L106.976 16.188C106.256 17.356 105.168 17.94 103.712 17.94C101.888 17.94 100.608 17.332 99.8721 16.116C99.2001 15.012 98.8641 13.66 98.8641 12.06C98.8641 9.97999 99.3761 8.31599 100.4 7.06799C101.44 5.81999 102.88 5.19599 104.72 5.19599ZM106.688 13.884V7.66799C106.112 7.41199 105.504 7.28399 104.864 7.28399C103.808 7.28399 103.032 7.70799 102.536 8.55599C102.056 9.40399 101.816 10.484 101.816 11.796C101.816 14.484 102.68 15.828 104.408 15.828C105.064 15.828 105.608 15.644 106.04 15.276C106.472 14.892 106.688 14.428 106.688 13.884Z" fill="black"/>
<path d="M97.7164 15.732V17.628H93.8284V16.068C92.9484 17.316 91.6524 17.94 89.9404 17.94C87.4604 17.94 86.2204 16.556 86.2204 13.788V8.244C86.2204 7.812 86.0204 7.588 85.6204 7.572L84.8524 7.524V5.556H89.0764V13.164C89.0764 14.012 89.1964 14.652 89.4364 15.084C89.6764 15.516 90.1724 15.732 90.9244 15.732C91.6764 15.732 92.2764 15.5 92.7244 15.036C93.1884 14.572 93.4204 14.012 93.4204 13.356V8.292C93.4204 8.036 93.3724 7.86 93.2764 7.764C93.1964 7.652 93.0444 7.588 92.8204 7.572L92.0524 7.524V5.556H96.2764V14.964C96.2764 15.22 96.3164 15.396 96.3964 15.492C96.4764 15.572 96.6364 15.628 96.8764 15.66L97.7164 15.732Z" fill="black"/>
<path d="M79.5623 3.01199H81.1223V5.55599H84.3143L84.0743 7.57199H81.1223V13.884C81.1223 14.588 81.2503 15.084 81.5063 15.372C81.7623 15.644 82.1543 15.78 82.6823 15.78C83.2263 15.78 83.7703 15.612 84.3143 15.276L85.0343 17.124C84.2343 17.684 83.2183 17.964 81.9863 17.964C81.2663 17.964 80.6583 17.868 80.1623 17.676C79.6663 17.5 79.2983 17.3 79.0583 17.076C78.8183 16.852 78.6343 16.524 78.5063 16.092C78.3783 15.66 78.3063 15.324 78.2903 15.084C78.2743 14.828 78.2663 14.46 78.2663 13.98V7.57199H76.5623L76.8023 5.81999C77.5543 5.75599 78.1223 5.49199 78.5063 5.02799C78.8903 4.54799 79.2423 3.87599 79.5623 3.01199Z" fill="black"/>
<path d="M70.0656 15.468C71.9856 15.468 72.9456 14.7 72.9456 13.164C72.9456 12.364 72.5216 11.772 71.6736 11.388C71.2256 11.164 70.6416 10.956 69.9216 10.764C69.2176 10.572 68.6256 10.38 68.1456 10.188C67.6816 9.98001 67.2096 9.70001 66.7296 9.34801C65.7856 8.64401 65.3136 7.56401 65.3136 6.10801C65.3136 4.63601 65.8176 3.48401 66.8256 2.65201C67.8496 1.80401 69.1776 1.38 70.8096 1.38C72.4576 1.38 73.9856 1.708 75.3936 2.36401V5.96401L72.9456 6.13201V4.74001C72.9456 4.5 72.9136 4.32401 72.8496 4.21201C72.6736 3.90801 72.1056 3.75601 71.1456 3.75601C70.2016 3.75601 69.4976 3.92401 69.0336 4.26C68.5856 4.59601 68.3616 5.11601 68.3616 5.82001C68.3616 6.33201 68.5536 6.78001 68.9376 7.16401C69.1936 7.42001 69.5696 7.63601 70.0656 7.81201C70.5776 7.97201 71.1136 8.14001 71.6736 8.31601C72.2496 8.49201 72.7536 8.68401 73.1856 8.89201C73.6336 9.10001 74.0976 9.38801 74.5776 9.75601C75.5536 10.476 76.0416 11.588 76.0416 13.092C76.0416 14.596 75.4976 15.78 74.4096 16.644C73.3376 17.508 71.9136 17.94 70.1376 17.94C68.3776 17.94 66.7936 17.612 65.3856 16.956V13.164L67.8336 12.996V14.46C67.8336 14.7 67.8656 14.876 67.9296 14.988C67.9936 15.1 68.1856 15.212 68.5056 15.324C68.8416 15.42 69.3616 15.468 70.0656 15.468Z" fill="black"/>
<path d="M56.6888 7.37998C56.3048 7.23598 55.8408 7.16398 55.2968 7.16398C54.7528 7.16398 54.3128 7.29198 53.9768 7.54798C53.6568 7.78798 53.4968 8.09198 53.4968 8.45998C53.4968 8.81198 53.5528 9.09198 53.6648 9.29998C53.7928 9.49198 53.9848 9.65998 54.2408 9.80398C54.6408 10.012 55.1208 10.196 55.6808 10.356C56.2408 10.5 56.6568 10.62 56.9288 10.716C57.2008 10.796 57.5368 10.94 57.9368 11.148C58.3528 11.356 58.6648 11.58 58.8728 11.82C59.4328 12.412 59.7128 13.172 59.7128 14.1C59.7128 15.3 59.2728 16.244 58.3928 16.932C57.5288 17.604 56.4248 17.94 55.0808 17.94C53.1288 17.94 51.6568 17.692 50.6648 17.196V13.86L52.8248 13.692V14.844C52.8248 15.548 53.4968 15.9 54.8408 15.9C56.1848 15.9 56.8568 15.412 56.8568 14.436C56.8568 14.084 56.7368 13.796 56.4968 13.572C56.2728 13.348 56.0488 13.196 55.8248 13.116C55.6008 13.036 55.3288 12.956 55.0088 12.876C54.7048 12.796 54.4008 12.716 54.0968 12.636C53.8088 12.556 53.4888 12.452 53.1368 12.324C52.8008 12.18 52.4248 11.98 52.0088 11.724C51.1928 11.196 50.7848 10.316 50.7848 9.08398C50.7848 7.83598 51.2248 6.87598 52.1048 6.20398C52.9848 5.53198 54.0888 5.19598 55.4168 5.19598C56.7608 5.19598 58.0888 5.51598 59.4008 6.15598V9.03598L57.2408 9.20398V8.19598C57.2408 7.79598 57.0568 7.52398 56.6888 7.37998Z" fill="black"/>
<path d="M47.6687 5.67599L49.0607 0.0119934C50.0367 0.123993 50.7727 0.307993 51.2687 0.563993C51.5727 0.723993 51.7247 0.971994 51.7247 1.30799C51.7247 1.64399 51.6367 1.96399 51.4607 2.26799L49.1807 6.22799L47.6687 5.67599Z" fill="black"/>
<path d="M40.3571 14.94V7.572H38.2931V5.556H40.3571V4.644C40.3571 3.076 40.7171 1.948 41.4371 1.26C42.1091 0.604001 43.0931 0.276001 44.3891 0.276001C45.6851 0.276001 46.8371 0.556001 47.8451 1.116L47.1491 3.036C46.3811 2.636 45.6611 2.436 44.9891 2.436C44.3171 2.436 43.8531 2.604 43.5971 2.94C43.3411 3.26 43.2131 3.756 43.2131 4.428V5.556H46.7651V7.572H43.2131V15.612L45.2291 15.708V17.628H38.8691V15.804L39.6611 15.732C39.9011 15.7 40.0771 15.636 40.1891 15.54C40.3011 15.428 40.3571 15.228 40.3571 14.94Z" fill="black"/>
<path d="M33.7241 5.19598C34.9241 5.19598 35.8761 5.49198 36.5801 6.08398C37.2841 6.65998 37.6361 7.47598 37.6361 8.53198C37.6361 9.23598 37.4841 9.85998 37.1801 10.404C36.8761 10.932 36.5001 11.348 36.0521 11.652C35.6041 11.956 35.0601 12.204 34.4201 12.396C33.3481 12.716 32.1401 12.876 30.7961 12.876C30.8441 13.724 31.1081 14.412 31.5881 14.94C32.0681 15.452 32.8041 15.708 33.7961 15.708C34.7881 15.708 35.7801 15.356 36.7721 14.652L37.6841 16.596C37.3641 16.884 36.8201 17.18 36.0521 17.484C35.3001 17.788 34.4361 17.94 33.4601 17.94C31.5081 17.94 30.0761 17.404 29.1641 16.332C28.2521 15.244 27.7961 13.756 27.7961 11.868C27.7961 9.97998 28.3161 8.39598 29.3561 7.11598C30.3961 5.83598 31.8521 5.19598 33.7241 5.19598ZM32.6201 10.692C33.2121 10.58 33.7561 10.348 34.2521 9.99598C34.7481 9.62798 34.9961 9.19598 34.9961 8.69998C34.9961 7.72398 34.5161 7.23598 33.5561 7.23598C32.6601 7.23598 31.9721 7.59598 31.4921 8.31598C31.0121 9.01998 30.7481 9.86798 30.7001 10.86C31.4041 10.844 32.0441 10.788 32.6201 10.692Z" fill="black"/>
<path d="M15.2535 14.94V3.25199C15.2535 2.99599 15.2055 2.81999 15.1095 2.72399C15.0295 2.62799 14.8775 2.57199 14.6535 2.55599L13.8135 2.50799V0.515991H18.0855V6.97199C18.9175 5.78799 20.0855 5.19599 21.5895 5.19599C22.8055 5.19599 23.7415 5.54799 24.3975 6.25199C25.0695 6.93999 25.4055 7.97999 25.4055 9.37199V15.636L26.7735 15.708V17.628H21.0615V15.804L21.8535 15.732C22.0935 15.7 22.2695 15.636 22.3815 15.54C22.4935 15.428 22.5495 15.228 22.5495 14.94V9.99599C22.5495 9.16399 22.4135 8.52399 22.1415 8.07599C21.8855 7.62799 21.3735 7.40399 20.6055 7.40399C19.8535 7.40399 19.2455 7.64399 18.7815 8.12399C18.3335 8.58799 18.1095 9.15599 18.1095 9.82799V15.636L19.4775 15.708V17.628H13.7655V15.804L14.5575 15.732C14.7975 15.7 14.9735 15.636 15.0855 15.54C15.1975 15.428 15.2535 15.228 15.2535 14.94Z" fill="black"/>
<path d="M9.504 4.21201C9.328 3.90801 8.672 3.75601 7.536 3.75601C6.048 3.75601 4.92 4.26001 4.152 5.26801C3.384 6.27601 3 7.73201 3 9.63601C3 13.588 4.48 15.564 7.44 15.564C7.488 15.564 7.696 15.564 8.064 15.564C8.448 15.564 8.808 15.516 9.144 15.42C9.48 15.308 9.68 15.196 9.744 15.084C9.808 14.972 9.84 14.796 9.84 14.556V12.636L12.288 12.804V16.956C11.04 17.612 9.456 17.94 7.536 17.94C5.088 17.94 3.216 17.252 1.92 15.876C0.64 14.5 0 12.452 0 9.73201C0 8.22801 0.216 6.91601 0.648 5.79601C1.08 4.67601 1.664 3.804 2.4 3.18C3.84 1.98 5.552 1.38 7.536 1.38C9.136 1.38 10.64 1.708 12.048 2.36401V6.44401L9.6 6.61201V4.74001C9.6 4.5 9.568 4.32401 9.504 4.21201Z" fill="black"/>
</svg>
