<svg xmlns="http://www.w3.org/2000/svg" width="445" height="207" viewBox="0 0 445 207"><path d="M428.162 104.56c-11.195 9.3-52.544 40.175-114.567 47.054-41.615 4.626-67.581-10.436-92.687-25-4.846-2.808-9.8-5.657-14.852-8.373a105.533 105.533 0 0018.888-8.007c19.814-10.9 31.193-26.717 32.908-45.744.939-10.454-3.18-19.261-11.612-24.795-14.936-9.806-40.535-7.68-63.7 5.3a4.922 4.922 0 00-1.887 6.66 4.84 4.84 0 006.611 1.907c19.785-11.087 41.859-13.411 53.67-5.657 5.419 3.557 7.853 8.842 7.238 15.694-3.429 38.083-53.43 47.523-53.927 47.611a4.9 4.9 0 00-2.092.947 4.858 4.858 0 00-3.854 2.834 4.927 4.927 0 002.417 6.49c8.631 3.939 16.75 8.646 25.346 13.633 23.085 13.384 46.851 27.171 82.274 27.169a148.625 148.625 0 0016.316-.927c64.7-7.176 107.968-39.5 119.689-49.234a4.933 4.933 0 00.656-6.9 4.827 4.827 0 00-6.835-.662zM195.375 56.834a4.85 4.85 0 00-6.164 3.067l-15.243 45.273a99.1 99.1 0 00-21.391-3.019c-52.739-1.487-116.149 38.48-139.811 66.733-9.119 10.894-12.991 20.223-11.505 27.717.642 3.215 3.411 10.164 15.421 10.159a36.854 36.854 0 003.879-.214c28.092-3.022 83.807-37.349 83.263-74.531a19.7 19.7 0 00-2.855-10.277 163.6 163.6 0 0127.622-7.768l-17.663 51.174a4.886 4.886 0 004.587 6.516 4.858 4.858 0 004.589-3.295l19.313-55.947a105.172 105.172 0 0112.876-.465 88.92 88.92 0 0118.542 2.518l-16 47.5a4.908 4.908 0 003.039 6.215 4.769 4.769 0 001.558.263 4.872 4.872 0 004.607-3.328l34.377-102.068a4.919 4.919 0 00-3.041-6.223zM19.538 196.8c-1.918.194-8.2.661-8.742-2.117-.4-2-.283-7.916 9.4-19.469 13.583-16.223 40.93-36.534 71.44-49.712a9.564 9.564 0 012.477 6.661c.436 30.371-49.752 61.97-74.575 64.637zm324.85-61.349a4.839 4.839 0 006.166-3.072l34.374-102.065a4.913 4.913 0 00-3.04-6.215 4.843 4.843 0 00-6.165 3.065l-34.374 102.068a4.919 4.919 0 003.039 6.221zM432.47 6.853c-14.906-9.666-40.394-7.493-63.421 5.4a4.933 4.933 0 00-1.886 6.667 4.844 4.844 0 006.613 1.9c19.666-11.02 41.644-13.371 53.44-5.726 5.494 3.567 8.008 8.889 7.462 15.826-2.851 36.268-53.568 47.48-54.078 47.587a4.906 4.906 0 00.993 9.7 4.784 4.784 0 001-.1 113.825 113.825 0 0029.147-11.358c19.914-11.235 31.194-26.808 32.631-45.053.829-10.51-3.405-19.335-11.901-24.843zM55.977 116.79c3.878.3 7.918.61 11.858 1.039.119-.056.234-.118.352-.176q7.681-3.83 15.18-7.071c-8.011-2.13-17.433-2.862-26.655-3.562-11.157-.849-23.8-1.809-26.879-5.549a2.642 2.642 0 01-.515-2.218c1.218-11.031 25.17-30.264 50.261-40.353 16.764-6.748 26.186-6.181 29.167-3.651a6.593 6.593 0 012.462 5.707c-.268 4.472-4.415 11.824-15.267 19.033a4.923 4.923 0 00-1.383 6.787 4.828 4.828 0 006.725 1.4c11.941-7.927 19.1-17.637 19.627-26.643a16.427 16.427 0 00-5.9-13.771c-9.009-7.673-26.2-3.133-39.033 2.032C53.82 58.7 21.706 79.6 19.661 98.168a12.523 12.523 0 002.7 9.566c5.7 6.941 18.639 7.924 33.616 9.056zm89.206-21.09l15.029-43.527a4.914 4.914 0 00-3-6.238 4.849 4.849 0 00-6.186 3.018L134.6 96.556a173.613 173.613 0 0110.583-.856zm125.271 41.933a25.571 25.571 0 0012.374 3.2 30.848 30.848 0 0013.651-3.408c26.556-13.079 50.143-60.167 60.085-119.958a4.865 4.865 0 10-9.593-1.626C336.24 80.4 311.735 119 292.216 128.613c-6.232 3.074-12 3.207-17.131.4-12.132-6.617-7.553-20.821 7.3-50.151 8.445-16.661 16.412-32.4 12.6-43.464-2.652-7.71-8.1-12.1-14.8-11.949-8.237.142-16.531 7.065-19.3 16.111a4.863 4.863 0 109.285 2.894c1.48-4.84 6.238-9.136 10.176-9.206 2.417-.019 4.221 1.766 5.456 5.364 2.453 7.115-5.265 22.352-12.075 35.8-11.491 22.688-25.795 50.933-3.273 63.223z" fill="#fff" fill-rule="evenodd"/></svg>