<?xml version="1.0" standalone="no"?>
<!DOCTYPE svg PUBLIC "-//W3C//DTD SVG 1.1//EN" "http://www.w3.org/Graphics/SVG/1.1/DTD/svg11.dtd" >
<svg xmlns="http://www.w3.org/2000/svg" xmlns:xlink="http://www.w3.org/1999/xlink" version="1.1">
<metadata>
Created by FontForge 20190801 at Thu May 12 11:55:39 2016
 By root
Copyright (c) 2016 by Misti's Fonts. All rights reserved.
</metadata>
<defs>
<font id="BacktoBlackDemo" horiz-adv-x="230" >
  <font-face 
    font-family="Back to Black Demo"
    font-weight="400"
    font-stretch="normal"
    units-per-em="1000"
    panose-1="0 0 0 0 0 0 0 0 0 0"
    ascent="750"
    descent="-250"
    x-height="498"
    cap-height="755"
    bbox="-366.222 -678.267 2203.14 1042.17"
    underline-thickness="50"
    underline-position="-100"
    unicode-range="U+000D-20AC"
  />
<missing-glyph horiz-adv-x="267" 
 />
    <glyph glyph-name="t_r" unicode="tr" horiz-adv-x="598" 
d="M-188 543q-1 -14 -8 -18.5t-15.5 1t-14 21t-3.5 41.5q4 42 33 64t74.5 29.5t103 5.5t119.5 -8q17 45 25 74t3 34q-7 6 6.5 14t33.5 9t41.5 -9t30.5 -40q5 -14 1 -38t-13 -54q44 -2 88 0t79 7.5t56.5 14.5t21.5 22q0 15 9 15.5t18 -7.5t12.5 -21t-8.5 -24
q-13 -13 -41.5 -24t-67.5 -20t-87.5 -14.5t-100.5 -7.5q-11 -37 -30 -82.5t-42 -94t-46.5 -98t-42.5 -95t-31.5 -84.5t-12.5 -66q0 -38 21 -38q19 -2 44 18.5t52 56t55 81.5t52 96q0 3 1 4q3 9 11 27.5t16 39t16 40t11 32.5q-23 11 -39.5 35t-16.5 48q0 31 16 53t48 22
q20 0 34.5 -16.5t15.5 -39.5q0 -13 -1.5 -36t-5.5 -38q5 -4 13.5 -5t18.5 -1q22 0 34.5 5t21.5 10.5t18 10.5t24 5q20 0 40 -10t29 -39t-3 -70.5t-33.5 -86.5t-46 -89t-41 -78.5t-19 -55t20.5 -18.5q9 1 25 16t35 38.5t39.5 52.5t38 58t31.5 55t20 43q3 8 10 10t13 0t9.5 -8
t-0.5 -13q-8 -17 -23 -46.5t-35.5 -63t-44.5 -67.5t-49.5 -62t-51.5 -46t-50 -18q-20 -1 -34.5 8t-23.5 25.5t-12 40t0 50.5q4 39 19 83t33 86.5t35 79.5t25 63q-21 -8 -47.5 -9.5t-52.5 5.5q-2 -6 -8.5 -21.5t-14 -34t-16 -37.5t-15.5 -33q0 -1 -0.5 -2t-0.5 -2
q-29 -59 -61 -113.5t-65 -96.5t-64.5 -67t-58.5 -25q-17 0 -38 2.5t-40.5 12.5t-32.5 30.5t-13 57.5q0 60 22 126.5t51.5 133t60 129.5t48.5 116q-52 0 -99 -1.5t-82.5 -8.5t-57 -20.5t-22.5 -36.5z" />
    <glyph glyph-name=".notdef" horiz-adv-x="267" 
 />
    <glyph glyph-name="NULL" horiz-adv-x="0" 
 />
    <glyph glyph-name="NULL" horiz-adv-x="0" 
 />
    <glyph glyph-name="nonmarkingreturn" unicode="&#xd;" horiz-adv-x="60" 
 />
    <glyph glyph-name="space" unicode=" " horiz-adv-x="267" 
 />
    <glyph glyph-name="n" unicode="n" horiz-adv-x="486" 
d="M385 376q-2 -34 -15 -71.5t-29.5 -73.5t-33 -68.5t-25.5 -56.5t-7.5 -38.5t21.5 -14.5q9 0 25 14.5t35 38t39.5 53t38.5 58.5t32 55.5t20 43.5q3 8 10 10t13 0t9.5 -8t-0.5 -13q-8 -17 -23 -46.5t-35.5 -63t-44.5 -67.5t-49.5 -62t-51.5 -46t-50 -18q-20 -1 -34 9.5
t-23 28.5t-12.5 40.5t-0.5 45.5q5 41 19 81t30.5 76.5t32.5 67t24 53t5.5 34.5t-23.5 11q-11 -1 -31 -17.5t-43.5 -42t-47.5 -56t-43 -58.5q-19 -39 -39.5 -77.5t-36.5 -72.5t-23.5 -60t-0.5 -40q4 -8 -6.5 -16.5t-27 -9t-34 10.5t-26.5 41q-8 24 1 63t26 83.5t38 91
t38 85.5t25 67t0 36q-7 6 6.5 14t34 9t41.5 -9t30 -40q4 -13 3 -28.5t-5 -32.5q19 22 38.5 42t39.5 35t39 24t37 9q39 1 58 -34t12 -90z" />
    <glyph glyph-name="h" unicode="h" horiz-adv-x="480" 
d="M-78 51q-6 18 3.5 58t29 93.5t45.5 115.5t53.5 125t53 122.5t44.5 106.5t28 78t3 37q-7 6 6.5 14t34 9t41.5 -9t30 -40q6 -19 -3 -55t-27 -83.5t-43 -103.5t-52 -113q35 39 71.5 66t68.5 28q39 1 58 -34t12 -90q-2 -34 -15 -71.5t-29.5 -73.5t-33 -68.5t-25.5 -56.5
t-7.5 -38.5t21.5 -14.5q9 0 25 14.5t35 38t39.5 53t38.5 58.5t32 55.5t20 43.5q3 8 10 10t13 0t9.5 -8t-0.5 -13q-8 -17 -23 -46.5t-35.5 -63t-44.5 -67.5t-49.5 -62t-51.5 -46t-50 -18q-20 -1 -34 9.5t-23 28.5t-12.5 40.5t-0.5 45.5q5 41 19 81t30.5 76.5t32.5 67t24 53
t5.5 34.5t-23.5 11q-13 -1 -37.5 -22t-51.5 -52.5t-53 -67t-42 -64.5l-13 -27v-1l-2 -4q-32 -71 -50.5 -121t-10.5 -65q4 -8 -6.5 -16.5t-27 -9t-34 10.5t-26.5 41z" />
    <glyph glyph-name="i" unicode="i" 
d="M190 551q0 -8 -16 -8t-34.5 7.5t-34.5 24t-16 41.5q0 7 6 18.5t13.5 24.5t13.5 24t6 17q0 7 15 7t33.5 -8t33.5 -24t15 -41q0 -6 -5.5 -17t-12 -23t-12 -24t-5.5 -19zM262 305q4 7 0.5 13t-9.5 8t-13 0t-10 -10q-6 -17 -20 -43t-32 -55t-38 -58t-39 -52.5t-34.5 -38.5
t-25.5 -16q-23 -2 -20.5 18.5t19 55t41 78.5t46 89t33.5 86.5t3 70.5q-9 30 -30.5 40t-41.5 9t-33.5 -9t-6.5 -14q7 -7 2.5 -26t-16 -47t-27 -62.5t-30.5 -71.5t-26.5 -74t-15.5 -70q-3 -27 0 -50.5t12 -40t23.5 -25.5t34.5 -8q24 0 50 18t51.5 46t49.5 62t44.5 67.5
t35.5 63t23 46.5z" />
    <glyph glyph-name="l" unicode="l" 
d="M262 305q-8 -17 -23 -46.5t-35.5 -63t-44.5 -67.5t-49.5 -62t-51.5 -46t-50 -18q-20 -1 -34.5 8t-23.5 25.5t-12 40t0 50.5q4 33 25 93t50 131.5t61 146t57.5 137t39.5 104.5t7 49q-7 6 6.5 14t33.5 9t41.5 -9t30.5 -40q7 -22 -4 -64.5t-32.5 -96.5t-50.5 -116.5
t-58.5 -123.5t-56 -117.5t-43 -99t-19 -67.5t14.5 -23q10 1 25.5 16t34.5 38.5t39 52.5t38 58t32 55t20 43q3 8 10 10t13 0t9.5 -8t-0.5 -13z" />
    <glyph glyph-name="m" unicode="m" horiz-adv-x="711" 
d="M613 376q-2 -34 -15 -71.5t-29.5 -73.5t-33 -68.5t-25.5 -56.5t-7.5 -38.5t21.5 -14.5q9 0 25 14.5t35 38t39.5 53t38.5 58.5t32 55.5t20 43.5q3 8 10 10t13 0t9.5 -8t-0.5 -13q-8 -17 -23 -46.5t-35.5 -63t-44.5 -67.5t-49.5 -62t-51.5 -46t-50 -18q-20 -1 -34 9.5
t-23 28.5t-12.5 40.5t-0.5 45.5q5 41 19 81t30.5 76t32.5 66.5t24 53t5.5 34.5t-23.5 12q-10 0 -26.5 -15t-36.5 -40t-41.5 -57.5t-43 -67t-40.5 -68.5t-33 -63q-18 -44 -28 -75t0 -39q7 -6 -6.5 -14t-33.5 -9t-41.5 9t-30.5 40q-9 29 2.5 70.5t32.5 87t45 89.5t40 79
t18 55.5t-21 18.5q-10 -1 -26.5 -15t-35.5 -35.5t-38.5 -48.5t-36.5 -54q-19 -41 -41.5 -83.5t-40.5 -79.5t-27.5 -65.5t-1.5 -43.5q4 -8 -6.5 -16.5t-27 -9t-34 10.5t-26.5 41q-8 24 1 63t26 83.5t38 91t38 85.5t25 67t0 36q-7 6 6.5 14t34 9t41.5 -9t30 -40q6 -18 1 -45
q32 39 67 66.5t67 28.5q39 1 58 -34t12 -90q-2 -12 -4 -24.5t-6 -25.5q22 34 45 65.5t47 55.5t47 38t45 14q39 0 58 -34.5t12 -89.5z" />
    <glyph glyph-name="t" unicode="t" 
d="M-139 543q-1 -14 -8 -18.5t-15.5 1t-14 21t-3.5 41.5q4 42 33 64t74.5 29.5t103 5.5t119.5 -8q17 45 25 74t3 34q-7 6 6.5 14t33.5 9t41.5 -9t30.5 -40q5 -14 1 -38t-13 -54q44 -2 88 0t79 7.5t56.5 14.5t21.5 22q0 15 9 15.5t18 -7.5t12.5 -21t-8.5 -24
q-13 -13 -41.5 -24.5t-68 -20t-87.5 -14.5t-100 -7q-21 -54 -50.5 -117t-59 -125.5t-57 -120t-44 -101t-20 -69.5t14.5 -24q10 1 25.5 16t34.5 38.5t39 52.5t38 58t32 55t20 43q3 8 10 10t13 0t9.5 -8t-0.5 -13q-8 -17 -23 -46.5t-35.5 -63t-44.5 -67.5t-49.5 -62t-51.5 -46
t-50 -18q-20 -1 -34.5 8t-23.5 25.5t-12 40t0 50.5q4 31 23.5 87.5t46.5 124t57.5 139t56.5 133.5q-52 0 -99 -1.5t-82.5 -8.5t-57 -20.5t-22.5 -36.5z" />
    <glyph glyph-name="a" unicode="a" horiz-adv-x="523" 
d="M253 421q0 8 4.5 15t11.5 12q-5 12 -16 12q-14 1 -31 -12.5t-36.5 -39t-40.5 -63t-42 -83.5q-13 -29 -21.5 -62.5t-9.5 -64t6 -53.5t25 -30q14 -6 29.5 3t31 28t32 46t32 56.5t30 59t27.5 54.5q14 33 27.5 62.5t22.5 53t12 40t-3 22.5q-7 6 6.5 14t33.5 9t41.5 -9
t30.5 -40q9 -29 -3 -70.5t-33.5 -86.5t-46 -89t-41 -78.5t-19 -55t20.5 -18.5q9 1 25 16t35 38.5t39.5 52.5t38 58t31.5 55t20 43q3 8 10 10t13 0t9.5 -8t-0.5 -13q-8 -17 -23 -46.5t-35.5 -63t-44.5 -67.5t-49.5 -62t-51.5 -46t-50 -18q-38 -2 -57 31t-14 84
q-19 -31 -40 -56.5t-45.5 -40.5t-52 -18t-60.5 11q-40 16 -57.5 47t-20.5 67.5t6 76t22 72.5q24 61 53.5 104.5t62.5 71t68 39.5t71 11q12 -1 25.5 -4.5t25 -11.5t19.5 -21.5t8 -33.5q0 -22 -10 -30q-8 -9 -21 -9q-12 0 -21.5 8t-9.5 21z" />
    <glyph glyph-name="d" unicode="d" horiz-adv-x="521" 
d="M253 421q0 8 4.5 15t11.5 12q-5 12 -16 12q-14 1 -31 -12.5t-36.5 -39t-40.5 -63t-42 -83.5q-13 -29 -21.5 -62.5t-9.5 -64t6 -53.5t25 -30q21 -9 44 13.5t47 60.5t46.5 84t41.5 84q19 49 42 103.5t45.5 107.5t43 102t35 87.5t21 63t1.5 29.5q-7 6 6.5 14t33.5 9t41.5 -9
t30.5 -40q7 -22 -4 -64.5t-32.5 -96.5t-50.5 -116.5t-58.5 -123.5t-56 -117.5t-43 -99t-19 -67.5t14.5 -23q10 1 25.5 16t34.5 38.5t39 52.5t38 58t32 55t20 43q3 8 10 10t13 0t9.5 -8t-0.5 -13q-8 -17 -23 -46.5t-35.5 -63t-44.5 -67.5t-49.5 -62t-51.5 -46t-50 -18
q-38 -2 -56.5 30.5t-14.5 82.5q-19 -31 -40 -55.5t-45 -39.5t-52 -18t-60 11q-40 16 -57.5 47t-20.5 67.5t6 76t22 72.5q24 61 53.5 104.5t62.5 71t68 39.5t71 11q12 -1 25.5 -4.5t25 -11.5t19.5 -21.5t8 -33.5t-9 -29q-8 -10 -22 -10q-12 0 -21.5 8t-9.5 21z" />
    <glyph glyph-name="c" unicode="c" horiz-adv-x="373" 
d="M256 421q0 8 4.5 15t11.5 12q-5 12 -16 12q-14 1 -31 -12.5t-36.5 -39t-40.5 -63t-42 -83.5q-13 -29 -21.5 -64t-10 -66t5.5 -53.5t26 -26.5q22 -4 47.5 6.5t52 31.5t52 49t48 59t40 61.5t27.5 56.5q3 8 10 10.5t15 -1.5q13 -7 7 -21q-16 -35 -39.5 -74.5t-52.5 -76.5
t-62.5 -69.5t-69 -53t-73 -26.5t-73.5 9q-40 16 -57.5 47t-20.5 67.5t6 76t22 72.5q24 61 53.5 104.5t62.5 71t68 39.5t71 11q12 -1 25.5 -4.5t25 -11.5t19.5 -21.5t8 -33.5t-9 -29q-8 -10 -22 -10q-12 0 -21.5 8t-9.5 21z" />
    <glyph glyph-name="e" unicode="e" horiz-adv-x="370" 
d="M396 325q12 -8 6 -22q-17 -36 -40.5 -75.5t-53 -77t-62.5 -69t-68.5 -51.5t-72.5 -26t-73 9q-40 16 -57.5 46.5t-20.5 67.5t6 76.5t22 72.5q24 61 53.5 103.5t62.5 69.5t68 40t71 13q37 0 54.5 -18t17.5 -47t-16 -64t-45.5 -68.5t-71.5 -61t-94 -41.5q-7 -26 -10 -51.5
t-1 -46.5t9.5 -35t22.5 -17q22 -4 47.5 6.5t52 31.5t52 49t48 59t40 61.5t27.5 56.5q3 8 10.5 11t15.5 -2zM103 262q-5 -11 -8 -20q60 21 98.5 57.5t57.5 72t19.5 61.5t-17.5 27q-27 1 -68 -52t-82 -146z" />
    <glyph glyph-name="b" unicode="b" horiz-adv-x="537" 
d="M126 80q0 -19 -17 -27q6 -12 17 -12q13 -1 30.5 12.5t37 39t40.5 62.5t42 84q13 29 21.5 63.5t10 65.5t-5.5 53.5t-26 27.5q-23 5 -47.5 -14t-49 -51t-48 -72.5t-42.5 -77.5q-18 -39 -33.5 -73.5t-25 -62t-13.5 -46.5t0 -27t-6.5 -16.5t-27 -9t-34 10.5t-26.5 41
q-6 18 3.5 58t29 93.5t45.5 115.5t53.5 125t53 122.5t44.5 106.5t28 78t3 37q-7 6 6.5 14t34 9t41.5 -9t30 -40q5 -17 -1.5 -48t-21.5 -72t-35.5 -89.5t-44.5 -99.5q33 31 71.5 43t83.5 -7q40 -17 57.5 -47.5t20.5 -67t-6 -76t-22 -72.5q-26 -65 -58 -110t-67 -72
q50 11 88.5 42.5t73.5 73.5q33 39 59.5 79.5t43.5 73.5q3 7 9 9.5t15 -2.5q7 -4 8.5 -11t-1.5 -13q-24 -49 -55.5 -95t-69.5 -89q-25 -28 -53.5 -51.5t-64 -39t-80.5 -21.5t-103 0q-12 1 -25.5 4.5t-25 11.5t-19.5 21.5t-8 33.5t8 28q9 11 23 11q12 0 21.5 -8t9.5 -21z" />
    <glyph glyph-name="k" unicode="k" horiz-adv-x="447" 
d="M-78 51q-6 18 3.5 58t29 93.5t45.5 115.5t53.5 125t53 122.5t44.5 106.5t28 78t3 37q-7 6 6.5 14t34 9t41.5 -9t30 -40q6 -21 -6 -65t-35 -101.5t-53.5 -123.5t-61.5 -131q21 17 47 37.5t52.5 42.5t51.5 44.5t44.5 41.5t31.5 34.5t12 24.5t15 5t30 -18.5t22 -37t-9 -49.5
q-12 -21 -37.5 -41t-57.5 -38t-67 -34t-67 -29q15 -23 37.5 -65t50.5 -92.5t60 -102.5t66.5 -95t69 -70.5t67.5 -28.5q9 0 7.5 -13.5t-13.5 -29.5t-34 -29.5t-53 -12.5q-47 1 -84 38t-66.5 92.5t-53 120t-43 121.5t-36 96.5t-33.5 45.5q-14 -7 -24.5 -12.5t-17.5 -10.5
q-22 -46 -40.5 -87.5t-31 -74.5t-18 -56t-0.5 -32q4 -8 -6.5 -16.5t-27 -9t-34 10.5t-26.5 41z" />
    <glyph glyph-name="p" unicode="p" horiz-adv-x="537" 
d="M126 80q0 -19 -17 -27q6 -12 17 -12q13 -1 30.5 12.5t37 39t40.5 62.5t42 84q13 29 21.5 63.5t10 65.5t-5.5 53.5t-26 27.5q-17 4 -35.5 -6t-37 -29.5t-37 -46.5t-35.5 -56q-20 -52 -47.5 -112.5t-57 -123t-57.5 -121.5t-49 -108t-31.5 -83t-4.5 -46q4 -8 -6.5 -16.5
t-27 -9t-34 10.5t-26.5 41q-6 18 3.5 58t29 93.5t45.5 115.5t53.5 125t53 122.5t44.5 106.5t28 78t3 37q-7 6 6.5 14t34 9t41.5 -9t30 -40q3 -11 1 -32q38 46 83 67.5t101 -0.5q40 -17 57.5 -47.5t20.5 -67t-6 -76t-22 -72.5q-26 -65 -58 -110t-67 -72q50 11 88.5 42.5
t73.5 73.5q33 39 59.5 79.5t43.5 73.5q3 7 9 9.5t15 -2.5q7 -4 8.5 -11t-1.5 -13q-24 -49 -55.5 -95t-69.5 -89q-25 -28 -53 -51.5t-62.5 -39t-76.5 -21.5t-94 0h-15q-12 1 -25.5 4.5t-25 11.5t-19.5 21.5t-8 33.5q0 22 9 29q10 10 22 10t21.5 -8t9.5 -21z" />
    <glyph glyph-name="j" unicode="j" horiz-adv-x="233" 
d="M-366 -244q-1 9 2.5 21.5t17.5 26.5q16 16 38.5 29t47 25t48 24.5t40.5 27.5q15 43 39 99.5t51 117t53.5 120t46 108.5t29 83t2.5 43q-5 6 9 14t35 9t41.5 -10t29.5 -42q5 -17 -5 -54.5t-28 -84.5t-41 -98.5t-44 -97t-37 -79.5t-20 -47q36 24 75 67.5t73 91t60 92.5
t36 72q3 9 10 11.5t13 0.5t9.5 -8t0.5 -13q-23 -51 -57.5 -107.5t-75.5 -108.5t-86 -93.5t-88 -63.5q-6 -15 -16 -38.5t-20.5 -47.5t-19 -45t-12.5 -31q-10 -28 -31.5 -47.5t-48.5 -30t-56 -12t-54 6t-43.5 25t-23.5 44.5zM-186 -135q-15 -12 -34 -21l-38 -18t-36.5 -20
t-28.5 -26q-7 -10 -5.5 -22t9 -21.5t19 -14.5t25.5 -1t29 19.5t28 47.5q6 14 14.5 33t17.5 44zM190 551q0 -8 -16 -8t-34.5 7.5t-34.5 24t-16 41.5q0 7 6 18.5t13.5 24.5t13.5 24t6 17q0 7 15 7t33.5 -8t33.5 -24t15 -41q0 -6 -5.5 -17t-12 -23t-12 -24t-5.5 -19z" />
    <glyph glyph-name="y" unicode="y" horiz-adv-x="461" 
d="M-138 -244q-1 9 2.5 21.5t17.5 26.5q16 16 38.5 29t47 25t48 24.5t40.5 27.5q12 37 31.5 82.5t41.5 96.5q-30 -37 -61 -61.5t-60 -25.5q-20 -1 -34.5 8t-23.5 25.5t-12 40t0 50.5q4 33 15.5 70t26.5 74t30.5 71.5t27 62.5t16 47.5t-2.5 25.5t6.5 14t33.5 9t41.5 -9
t30.5 -40q9 -29 -3 -70.5t-33.5 -86.5t-46 -89t-41 -78.5t-19 -55t20.5 -18.5q12 1 35.5 25.5t49 60t50.5 75.5t40 71q16 37 29.5 70t22 59t11.5 43.5t-2 23.5t9 14t35 9t41.5 -10t29.5 -42q5 -17 -5 -54.5t-28 -84.5t-41 -98.5t-44 -97t-37 -79.5t-20 -47q36 24 75 67.5
t73 91t60 92.5t36 72q3 9 10 11.5t13 0.5t9.5 -8t0.5 -13q-23 -51 -57.5 -107.5t-75.5 -108.5t-86 -93.5t-88 -63.5q-6 -15 -16 -38.5t-20.5 -47.5t-19 -45t-12.5 -31q-10 -28 -31.5 -47.5t-48.5 -30t-56 -12t-54 6t-43.5 25t-23.5 44.5zM42 -135q-15 -12 -34 -21l-38 -18
t-36.5 -20t-28.5 -26q-7 -10 -5.5 -22t9 -21.5t19 -14.5t25.5 -1t29 19.5t28 47.5q6 14 14.5 33t17.5 44z" />
    <glyph glyph-name="g" unicode="g" horiz-adv-x="525" 
d="M253 421q0 8 4.5 15t11.5 12q-5 12 -16 12q-14 1 -31 -12.5t-36.5 -39t-40.5 -63t-42 -83.5q-13 -29 -21.5 -62.5t-9.5 -64t6 -53.5t25 -30q22 -9 47 16.5t50 67.5t48.5 90.5t43.5 85.5q0 3 1 4q27 64 41.5 109t6.5 56q-5 6 9 14t35 9t41.5 -10t29.5 -42q5 -17 -5 -54.5
t-28 -84.5t-41 -98.5t-44 -97t-37 -79.5t-20 -47q36 24 75 67.5t73 91t60 92.5t36 72q3 9 10 11.5t13 0.5t9.5 -8t0.5 -13q-23 -51 -57.5 -107.5t-75.5 -108.5t-86 -93.5t-88 -63.5q-6 -15 -16 -38.5t-20.5 -47.5t-19 -45t-12.5 -31q-10 -28 -31.5 -47.5t-48.5 -30t-56 -12
t-54 6t-43.5 25t-23.5 44.5q-1 9 2.5 21.5t17.5 26.5q16 16 38.5 29t47 25t48 24.5t40.5 27.5q10 28 23.5 62t29.5 71q-29 -28 -63.5 -37.5t-77.5 7.5q-40 16 -57.5 47t-20.5 67.5t6 76t22 72.5q24 61 53.5 104.5t62.5 71t68 39.5t71 11q12 -1 25.5 -4.5t25 -11.5
t19.5 -21.5t8 -33.5t-9 -29q-8 -10 -22 -10q-12 0 -21.5 8t-9.5 21zM106 -135q-15 -12 -34 -21l-38 -18t-36.5 -20t-28.5 -26q-7 -10 -5.5 -22t9 -21.5t19 -14.5t25.5 -1t29 19.5t28 47.5q6 14 14.5 33t17.5 44z" />
    <glyph glyph-name="q" unicode="q" horiz-adv-x="531" 
d="M253 421q0 8 4.5 15t11.5 12q-5 12 -16 12q-14 1 -31 -12.5t-36.5 -39t-40.5 -63t-42 -83.5q-13 -29 -21.5 -62.5t-9.5 -64t6 -53.5t25 -30q21 -9 45 14.5t48 63t47 86.5t43 85q15 36 27.5 66.5t20.5 54t10.5 38.5t-1.5 19q-7 6 6.5 14t34 9t41.5 -9t30 -40
q6 -20 -4.5 -61t-31.5 -94.5t-49.5 -115.5t-58.5 -124q34 17 62.5 43.5t54.5 57.5q33 39 59.5 79.5t43.5 73.5q3 7 9 9.5t15 -2.5q7 -4 8.5 -11t-1.5 -13q-24 -49 -55.5 -95t-69.5 -89q-32 -35 -67.5 -62.5t-82.5 -41.5q-11 -23 -22 -45.5t-21 -44.5q32 -2 64.5 -1t58.5 5.5
t42.5 13t16.5 20.5q0 14 6.5 14.5t12.5 -7t8.5 -19.5t-5.5 -22q-10 -12 -32 -23t-52.5 -19t-67.5 -13t-77 -5q-24 -54 -36.5 -92.5t-5.5 -51.5q4 -8 -6.5 -16.5t-27 -9t-34 10.5t-26.5 41q-5 16 1 46t20 72q-29 -1 -53 -4t-42 -9.5t-28.5 -18t-11.5 -29.5q-1 -13 -6 -17
t-10.5 1t-10 19t-2.5 38q3 34 18.5 53.5t41 28.5t58.5 9t70 -3q11 28 22.5 57t24.5 59q-29 -29 -64 -39.5t-79 7.5q-40 16 -57.5 47t-20.5 67.5t6 76t22 72.5q24 61 53.5 104.5t62.5 71t68 39.5t71 11q12 -1 25.5 -4.5t25 -11.5t19.5 -21.5t8 -33.5t-9 -29q-8 -10 -22 -10
q-12 0 -21.5 8t-9.5 21z" />
    <glyph glyph-name="v" unicode="v" horiz-adv-x="424" 
d="M370 451q7 -29 -0.5 -74t-26.5 -95t-49 -100.5t-67.5 -91t-81.5 -65.5t-92 -25t-72 19.5t-30.5 50.5t0.5 71.5t21 83t31 85t30 77t19.5 59t-1.5 31.5q-7 6 6.5 14t33.5 9t41.5 -9t30.5 -40q9 -29 -3 -71t-33 -87.5t-44.5 -90.5t-37 -81t-11 -58t33.5 -22q30 0 57.5 30.5
t51 77t41.5 101t30 103t16 83.5t0 41t9 14t32 9t38 -9t27 -40z" />
    <glyph glyph-name="w" unicode="w" horiz-adv-x="643" 
d="M589 451q7 -29 -0.5 -74t-26.5 -95t-49 -100.5t-67.5 -91t-81.5 -65.5t-92 -25q-38 0 -60.5 12.5t-33.5 33t-11.5 48t5.5 59.5q-19 -30 -39.5 -57.5t-42 -48t-43 -32.5t-42.5 -13q-20 -1 -34.5 8t-23.5 25.5t-12 40t0 50.5q4 33 15.5 70t26.5 74t30.5 71.5t27 62.5
t16 47.5t-2.5 25.5t6.5 14t33.5 9t41.5 -9t30.5 -40q9 -29 -3 -70.5t-33.5 -86.5t-46 -89.5t-41 -79t-19 -55t20.5 -17.5q12 1 29.5 18.5t37.5 45t41 62.5t40.5 72t36.5 72t29 63q14 35 20 59t-2 32q-7 6 6.5 14t33.5 9t41.5 -9t30.5 -40q9 -29 -3 -71t-33 -87.5
t-44.5 -90.5t-37 -81t-11 -58t33.5 -22q30 0 57.5 30.5t51 77t41.5 101t30 103t16 83.5t0 41t9 14t32 9t38 -9t27 -40z" />
    <glyph glyph-name="dieresis" unicode="&#xa8;" horiz-adv-x="282" 
d="M26 595q0 17 13 29t32 12t32 -12t13 -29t-13 -29t-32 -12t-32 12t-13 29zM166 595q0 17 13 29t32 12t32 -12t13 -29t-13 -29t-32 -12t-32 12t-13 29z" />
    <glyph glyph-name="s" unicode="s" horiz-adv-x="337" 
d="M119 23l-1 -1q-22 -11 -42 -17t-34 -6q-40 0 -61.5 20.5t-28.5 48.5t-2 56t19 43q20 21 36 28t27 5q11 -1 20.5 -9t9.5 -20q0 -13 -9.5 -22t-21.5 -9q-9 0 -17 5.5t-11 14.5q-13 -15 -18 -36t-2 -40t15.5 -32.5t34.5 -14.5q8 0 23 7.5t30.5 25t27.5 45t14.5 66.5t-8.5 91
t-42 117q-10 -19 -22.5 -41.5t-22.5 -42.5q-5 -7 -12 -8t-13 1.5t-8.5 8t1.5 12.5q8 17 15 30.5t14 25.5t13 24.5t13 26.5q-11 16 -17 35t-6 40q0 9 3.5 22.5t12 27t23.5 23t39 9.5q25 0 36.5 -11t12.5 -28t-7 -37.5t-21 -40.5l-3 -6q39 -45 62.5 -86t35.5 -78t13.5 -69
t-5.5 -60q33 38 59 75t43 70q3 7 9 9.5t15 -2.5q7 -4 8.5 -11t-1.5 -13q-24 -49 -55.5 -92t-69.5 -86q-27 -30 -56.5 -54t-66.5 -40h-1z" />
    <glyph glyph-name="z" unicode="z" horiz-adv-x="469" 
d="M470 316q2 7 8.5 9.5t13.5 0.5q8 -2 11 -8t-1 -14q-10 -22 -25 -49.5t-32 -56.5q-21 -36 -47 -71t-54.5 -63t-60.5 -45.5t-65 -18.5q-24 0 -41.5 3.5t-33 8t-31 8t-36.5 3.5q-29 0 -49.5 -4t-33.5 -6.5t-18.5 -1t-5.5 12.5q0 13 14.5 37.5t38 56t54 69t62.5 77.5
t63.5 79.5t56.5 76.5q-24 1 -40 8.5t-28 16t-24 15t-29 6.5q-26 0 -45.5 -17.5t-19.5 -43.5q0 -31 22.5 -50.5t54.5 -16.5q6 1 2 -8t-14.5 -20.5t-26.5 -21t-35 -9.5q-35 0 -59.5 22t-24.5 54q0 30 10.5 56t29 45.5t43 30.5t52.5 11q21 0 36.5 -5.5t33 -12t38.5 -12t53 -5.5
q31 0 51 1.5t34.5 4t25 4t23.5 1.5q12 0 12 -10q0 -5 -6 -11.5t-20.5 -21.5t-38.5 -40.5t-59.5 -67.5t-85 -103.5t-113.5 -147.5q11 0 23 -5.5t25 -12t27 -12.5t31 -6q31 -1 62.5 19t60.5 51.5t54.5 70t45.5 75.5q10 18 18 33.5t13 30.5z" />
    <glyph glyph-name="r" unicode="r" horiz-adv-x="368" 
d="M29 295q-3 -6 -9.5 -8t-12 0t-9 7.5t-0.5 13.5q3 9 11 27.5t16 39t16 40t11 32.5q-23 11 -39.5 35t-16.5 48q0 31 16 53t48 22q20 0 34.5 -16.5t15.5 -39.5q0 -13 -1.5 -36t-5.5 -38q5 -4 13.5 -5t18.5 -1q22 0 34.5 5t21.5 10.5t18 10.5t24 5q20 0 40 -10t29 -39
t-3 -70.5t-33.5 -86.5t-46 -89t-41 -78.5t-19 -55t20.5 -18.5q9 1 25 16t35 38.5t39 52.5t38 58t32 55t20 43q3 8 10 10t13 0t9.5 -8t-0.5 -13q-8 -17 -23 -46.5t-35.5 -63t-44.5 -67.5t-49.5 -62t-51.5 -46t-50 -18q-20 -1 -34.5 8t-23.5 25.5t-12 40t0 50.5q4 39 19 83
t33 86.5t35 79.5t25 63q-21 -8 -47.5 -9.5t-52.5 5.5q-3 -7 -10.5 -25.5t-16.5 -40t-18 -42t-15 -31.5z" />
    <glyph glyph-name="f" unicode="f" horiz-adv-x="253" 
d="M97 243q73 -7 117 21q13 8 23.5 20.5t15.5 28.5q2 7 9.5 9t13.5 -2q5 -3 8 -9.5t0 -14.5q-8 -17 -19 -28.5t-25 -21.5q-28 -19 -62 -27t-64 -7q0 -35 -10.5 -89t-29.5 -114t-45.5 -120t-57.5 -105.5t-66.5 -71t-71.5 -17.5q-29 6 -34 40t6.5 87t36.5 121.5t57 144.5
t67.5 156t68.5 156q33 75 61.5 141.5t49.5 117.5t31.5 84.5t6.5 43.5q-4 9 10 17t34 9t39.5 -10.5t26.5 -41.5q6 -26 -1 -64.5t-22 -83t-36 -92t-42 -91.5t-40 -82.5t-31 -63.5zM-131 -265q12 -9 33.5 13.5t47 64.5t50.5 97t44 110t28.5 104.5t3.5 80.5q-21 -45 -47 -96
t-52 -102.5t-49 -99t-39 -84.5t-22 -61t2 -27z" />
    <glyph glyph-name="o" unicode="o" horiz-adv-x="425" 
d="M318 430q0 -16 -6 -23q-8 -15 -25 -15q-12 0 -21.5 8t-9.5 21q0 8 4.5 15t11.5 12q-8 14 -18.5 14t-22.5 -8.5t-24.5 -23t-24.5 -29.5q-21 -27 -40.5 -62.5t-34.5 -73t-24 -74t-9.5 -66.5t8.5 -49.5t30 -23.5q15 -3 33.5 13.5t37 42.5t36 56.5t30.5 56.5q-21 9 -29 29.5
t-5 41.5t16 37t33 16q7 0 18 -1t19 -10.5t9 -30.5t-11 -61q40 1 64 11t37.5 22t18 23.5t6.5 14.5q3 7 9.5 8.5t12.5 -1.5t9 -9.5t0 -14.5q-8 -19 -25 -35t-39.5 -27t-50 -17t-55.5 -5q-14 -31 -35.5 -69t-49.5 -70.5t-61.5 -53.5t-71.5 -18q-50 5 -78.5 42t-30.5 90
q-1 40 8 83.5t27 85.5t44 79.5t58.5 65.5t71 43t80.5 13q19 -1 31.5 -8.5t20.5 -18t12 -23t6 -23.5z" />
    <glyph glyph-name="colon" unicode=":" horiz-adv-x="255" 
d="M23 41q0 17 13 29t32 12t32 -12t13 -29t-13 -29t-32 -12t-32 12t-13 29zM117 381q0 17 13 29t32 12t32 -12t13 -29t-13 -29t-32 -12t-32 12t-13 29z" />
    <glyph glyph-name="period" unicode="." horiz-adv-x="206" 
d="M45 10q0 -7 -13.5 -7t-29.5 6.5t-29.5 20.5t-13.5 36q0 6 5 16t11.5 21t11.5 20.5t5 14.5q0 6 13 6t28.5 -7t28.5 -21t13 -35q0 -5 -4.5 -14.5t-10.5 -20t-10.5 -20.5t-4.5 -16z" />
    <glyph glyph-name="grave" unicode="`" horiz-adv-x="162" 
d="M99 734q-3 -12 5.5 -40.5t17.5 -60t13.5 -57.5t-4.5 -32q-14 -9 -35 3t-40.5 35t-32.5 53.5t-12 58.5q0 17 14.5 28t31.5 16t30 4t12 -8z" />
    <glyph glyph-name="acute" unicode="&#xb4;" horiz-adv-x="162" 
d="M63 734q-2 7 11.5 8t30.5 -4t31.5 -16t14.5 -28q1 -28 -12 -58.5t-32.5 -53.5t-40.5 -35t-35 -3q-9 6 -4.5 32t13.5 57.5t17.5 60t5.5 40.5z" />
    <glyph glyph-name="comma" unicode="," horiz-adv-x="255" 
d="M34 114q-3 6 9.5 10.5t29.5 4t32 -7.5t18 -24q6 -38 -5.5 -73.5t-31 -61.5t-43 -38t-43.5 -2q-10 5 1.5 21.5t25 42t20 58t-12.5 70.5z" />
    <glyph glyph-name="semicolon" unicode=";" horiz-adv-x="255" 
d="M117 381q0 17 13 29t32 12t32 -12t13 -29t-13 -29t-32 -12t-32 12t-13 29zM34 114q-3 6 9.5 10.5t29.5 4t32 -7.5t18 -24q6 -38 -5.5 -73.5t-31 -61.5t-43 -38t-43.5 -2q-10 5 1.5 21.5t25 42t20 58t-12.5 70.5z" />
    <glyph glyph-name="quotesingle" unicode="'" horiz-adv-x="171" 
d="M73 627q-2 7 11.5 8t30.5 -4t31.5 -16t14.5 -28q1 -28 -14 -68t-36 -75t-43.5 -56.5t-36.5 -12.5q-6 4 -5 22t6.5 43.5t13 55t14 56t11 47t2.5 28.5z" />
    <glyph glyph-name="quotedbl" unicode="&#x22;" horiz-adv-x="388" 
d="M82 627q-2 7 11.5 8t30.5 -4t31.5 -16t14.5 -28q1 -28 -14 -68t-36 -75t-43.5 -56.5t-36.5 -12.5q-6 4 -5 22t6.5 43.5t13 55t14 56t11 47t2.5 28.5zM282 627q-2 7 11.5 8t30.5 -4t31.5 -16t14.5 -28q1 -28 -14 -68t-36 -75t-43.5 -56.5t-36.5 -12.5q-6 4 -5 22t6.5 43.5
t13 55t14 56t11 47t2.5 28.5z" />
    <glyph glyph-name="exclam" unicode="!" horiz-adv-x="387" 
d="M82 279q-8 24 5 69t36 98.5t51 110.5t50.5 105.5t34.5 82.5t4 42q-7 6 6.5 14t34 9t41.5 -9t30 -40q8 -26 -6 -70t-38.5 -95.5t-55 -105.5t-55 -101.5t-38.5 -84t-6 -51.5q4 -8 -6.5 -16.5t-27 -9t-34 10.5t-26.5 41zM89 10q0 -7 -13.5 -7t-29.5 6.5t-29.5 20.5t-13.5 36
q0 6 5 16t11.5 21t11.5 20.5t5 14.5q0 6 13 6t28.5 -7t28.5 -21t13 -35q0 -5 -4.5 -14.5t-10.5 -20t-10.5 -20.5t-4.5 -16z" />
    <glyph glyph-name="x" unicode="x" horiz-adv-x="540" 
d="M-21 -1q-3 0 -5.5 0.5t-5.5 0.5q-1 1 -2 1q-8 4 -13 10.5t-5 16.5q0 13 9.5 22t21.5 9q16 0 24 -15q18 10 39.5 29.5t45.5 45t50.5 55.5t53.5 62q-7 42 -13 82.5t-12 71.5t-13 50t-17 19q-7 0 -17.5 -11t-22.5 -27.5t-23.5 -36t-20.5 -36l-15 -27.5t-6 -10
q-5 -9 -12 -12.5t-12.5 -2.5t-8.5 6.5t2 14.5q30 58 51.5 95t39.5 58t36 29t40 8q27 0 48 -11.5t37 -31t27 -46.5t19 -57q29 33 57 62t53 51t46.5 35t38.5 14q6 2 11 2q11 0 20 -9t9 -22t-9 -21t-20 -8q-9 0 -16 4h-1q-14 0 -32.5 -13t-41.5 -35t-49 -51.5t-54 -62.5
q8 -46 12 -91.5t7 -82t7.5 -59t13.5 -22.5q6 0 18 10t27 27.5t32 39.5t34 46q16 23 30 46.5t24 42.5t16.5 32.5t7.5 16.5q3 10 10 12.5t14 0.5q15 -5 9 -21q-11 -23 -27.5 -54.5t-37.5 -65.5t-45 -67t-49 -59t-49.5 -42t-45.5 -16q-24 0 -42 15t-32 39.5t-24.5 56.5
t-17.5 68q-30 -35 -60 -66t-58 -55.5t-53 -40t-46 -18.5q-2 -1 -7 -1z" />
    <glyph glyph-name="A" unicode="A" horiz-adv-x="927" 
d="M956 320q19 -5 14 -24q-6 -19 -24 -28q-20 -12 -59 -11t-103 15h-1q-34 -85 -64 -168.5t-50 -161.5q-6 -24 -10.5 -59t-4 -73t6.5 -74.5t21 -64.5t39.5 -43t61.5 -9q10 1 16 -2.5t7.5 -9t-2 -11.5t-12.5 -9q-53 -17 -105 -8t-92.5 39t-65 78t-22.5 109q0 66 24 161
q22 81 53.5 167t66.5 173q-41 11 -82 23.5t-81 24.5q-32 -56 -66.5 -108t-72.5 -97q-113 -130 -239 -131h-2q-101 0 -156 73q-24 32 -34.5 73.5t-6.5 89.5q4 52 24.5 101.5t54.5 88.5q36 42 86 66q50 26 114 28q69 3 109 -28q35 -28 40 -73v-3q33 -8 64 -15t67 -18
q42 72 84.5 145t88.5 127q23 27 44.5 47t44.5 34q52 32 106 32q43 0 63 -30q16 -25 14.5 -67.5t-21.5 -111.5q-17 -58 -42.5 -125.5t-54.5 -141.5q27 -5 48 -8.5t38 -4.5q23 -2 32.5 0.5t13.5 4.5q1 0 2 1v1q3 8 10 13t15 3zM147 64q40 0 80.5 27t79.5 70.5t75 96.5t67 106
q-31 9 -59 16t-57 14q-5 -15 -12 -26q-24 -35 -61 -46q-35 -11 -53.5 -5t-25.5 13q-18 17 -9 47q6 20 25.5 36.5t46.5 24.5q19 6 53 2q-4 17 -18.5 34.5t-40.5 18.5q-44 1 -77.5 -21t-56.5 -56.5t-36 -75t-17 -76.5q-3 -29 -2.5 -64t9.5 -65t30 -50.5t59 -20.5zM508 390
q40 -11 79.5 -23t79.5 -23q28 72 52.5 137t39.5 119q7 24 13 46t9 38.5t1.5 27.5t-10.5 13q-14 4 -33.5 -10.5t-42.5 -40.5t-48.5 -61.5t-50.5 -74t-48 -77t-41 -71.5z" />
    <glyph glyph-name="hungarumlaut" unicode="&#x2dd;" horiz-adv-x="324" 
d="M63 734q-2 7 11.5 8t30.5 -4t31.5 -16t14.5 -28q1 -28 -12 -58.5t-32.5 -53.5t-40.5 -35t-35 -3q-9 6 -4.5 32t13.5 57.5t17.5 60t5.5 40.5zM225 734q-2 7 11.5 8t30.5 -4t31.5 -16t14.5 -28q1 -28 -12 -58.5t-32.5 -53.5t-40.5 -35t-35 -3q-9 6 -4.5 32t13.5 57.5
t17.5 60t5.5 40.5z" />
    <glyph glyph-name="agrave" unicode="&#xe0;" horiz-adv-x="523" 
d="M253 421q0 8 4.5 15t11.5 12q-5 12 -16 12q-14 1 -31 -12.5t-36.5 -39t-40.5 -63t-42 -83.5q-13 -29 -21.5 -62.5t-9.5 -64t6 -53.5t25 -30q14 -6 29.5 3t31 28t32 46t32 56.5t30 59t27.5 54.5q14 33 27.5 62.5t22.5 53t12 40t-3 22.5q-7 6 6.5 14t33.5 9t41.5 -9
t30.5 -40q9 -29 -3 -70.5t-33.5 -86.5t-46 -89t-41 -78.5t-19 -55t20.5 -18.5q9 1 25 16t35 38.5t39.5 52.5t38 58t31.5 55t20 43q3 8 10 10t13 0t9.5 -8t-0.5 -13q-8 -17 -23 -46.5t-35.5 -63t-44.5 -67.5t-49.5 -62t-51.5 -46t-50 -18q-38 -2 -57 31t-14 84
q-19 -31 -40 -56.5t-45.5 -40.5t-52 -18t-60.5 11q-40 16 -57.5 47t-20.5 67.5t6 76t22 72.5q24 61 53.5 104.5t62.5 71t68 39.5t71 11q12 -1 25.5 -4.5t25 -11.5t19.5 -21.5t8 -33.5q0 -22 -10 -30q-8 -9 -21 -9q-12 0 -21.5 8t-9.5 21zM278 734q-3 -12 5.5 -40.5t17.5 -60
t13.5 -57.5t-4.5 -32q-14 -9 -35 3t-40.5 35t-32.5 53.5t-12 58.5q0 17 14.5 28t31.5 16t30 4t12 -8z" />
    <glyph glyph-name="aacute" unicode="&#xe1;" horiz-adv-x="523" 
d="M253 421q0 -13 9.5 -21t21.5 -8q13 0 21 9q10 8 10 30q0 20 -8 33.5t-19.5 21.5t-25 11.5t-25.5 4.5q-36 1 -71 -11t-68 -39.5t-62.5 -71t-53.5 -104.5q-13 -33 -22 -72.5t-6 -76t20.5 -67.5t57.5 -47q33 -14 60.5 -11t52 18t45.5 40.5t40 56.5q-5 -51 14 -84t57 -31
q24 0 50 18t51.5 46t49.5 62t44.5 67.5t35.5 63t23 46.5q4 7 0.5 13t-9.5 8t-13 0t-10 -10q-6 -17 -20 -43t-31.5 -55t-38 -58t-39.5 -52.5t-35 -38.5t-25 -16q-23 -2 -20.5 18.5t19 55t41 78.5t46 89t33.5 86.5t3 70.5q-9 30 -30.5 40t-41.5 9t-33.5 -9t-6.5 -14
q6 -6 3 -22.5t-12 -40t-22.5 -53t-27.5 -62.5q-13 -25 -27.5 -54.5t-30 -59t-32 -56.5t-32 -46t-31 -28t-29.5 -3q-18 7 -25 30t-6 53.5t9.5 64t21.5 62.5q21 46 42 83.5t40.5 63t36.5 39t31 12.5q11 0 16 -12q-7 -5 -11.5 -12t-4.5 -15zM244 734q-2 7 11.5 8t30.5 -4
t31.5 -16t14.5 -28q1 -28 -12 -58.5t-32.5 -53.5t-40.5 -35t-35 -3q-9 6 -4.5 32t13.5 57.5t17.5 60t5.5 40.5z" />
    <glyph glyph-name="egrave" unicode="&#xe8;" horiz-adv-x="370" 
d="M396 325q12 -8 6 -22q-17 -36 -40.5 -75.5t-53 -77t-62.5 -69t-68.5 -51.5t-72.5 -26t-73 9q-40 16 -57.5 46.5t-20.5 67.5t6 76.5t22 72.5q24 61 53.5 103.5t62.5 69.5t68 40t71 13q37 0 54.5 -18t17.5 -47t-16 -64t-45.5 -68.5t-71.5 -61t-94 -41.5q-7 -26 -10 -51.5
t-1 -46.5t9.5 -35t22.5 -17q22 -4 47.5 6.5t52 31.5t52 49t48 59t40 61.5t27.5 56.5q3 8 10.5 11t15.5 -2zM103 262q-5 -11 -8 -20q60 21 98.5 57.5t57.5 72t19.5 61.5t-17.5 27q-27 1 -68 -52t-82 -146zM202 734q-3 -12 5.5 -40.5t17.5 -60t13.5 -57.5t-4.5 -32
q-14 -9 -35 3t-40.5 35t-32.5 53.5t-12 58.5q0 17 14.5 28t31.5 16t30 4t12 -8z" />
    <glyph glyph-name="eacute" unicode="&#xe9;" horiz-adv-x="370" 
d="M396 325q-8 5 -15.5 2t-10.5 -11q-10 -26 -27.5 -56.5t-40 -61.5t-48 -59t-52 -49t-52 -31.5t-47.5 -6.5q-15 3 -22.5 17t-9.5 35t1 46.5t10 51.5q52 14 94 41.5t71.5 61t45.5 68.5t16 64t-17.5 47t-54.5 18q-36 0 -71 -13t-68 -40t-62.5 -69.5t-53.5 -103.5
q-13 -33 -22 -72.5t-6 -76.5t20.5 -67.5t57.5 -46.5q36 -15 73 -9t72.5 26t68.5 51.5t62.5 69t53 77t40.5 75.5q6 14 -6 22zM103 262q41 93 82 146t68 52q18 -1 17.5 -27t-19.5 -61.5t-57.5 -72t-98.5 -57.5q3 9 8 20zM168 734q-2 7 11.5 8t30.5 -4t31.5 -16t14.5 -28
q1 -28 -12 -58.5t-32.5 -53.5t-40.5 -35t-35 -3q-9 6 -4.5 32t13.5 57.5t17.5 60t5.5 40.5z" />
    <glyph glyph-name="edieresis" unicode="&#xeb;" horiz-adv-x="370" 
d="M396 325q12 -8 6 -22q-17 -36 -40.5 -75.5t-53 -77t-62.5 -69t-68.5 -51.5t-72.5 -26t-73 9q-40 16 -57.5 46.5t-20.5 67.5t6 76.5t22 72.5q24 61 53.5 103.5t62.5 69.5t68 40t71 13q37 0 54.5 -18t17.5 -47t-16 -64t-45.5 -68.5t-71.5 -61t-94 -41.5q-7 -26 -10 -51.5
t-1 -46.5t9.5 -35t22.5 -17q22 -4 47.5 6.5t52 31.5t52 49t48 59t40 61.5t27.5 56.5q3 8 10.5 11t15.5 -2zM103 262q-5 -11 -8 -20q60 21 98.5 57.5t57.5 72t19.5 61.5t-17.5 27q-27 1 -68 -52t-82 -146zM70 595q0 17 13 29t32 12t32 -12t13 -29t-13 -29t-32 -12t-32 12
t-13 29zM210 595q0 17 13 29t32 12t32 -12t13 -29t-13 -29t-32 -12t-32 12t-13 29z" />
    <glyph glyph-name="ograve" unicode="&#xf2;" horiz-adv-x="425" 
d="M318 430q0 -16 -6 -23q-8 -15 -25 -15q-12 0 -21.5 8t-9.5 21q0 8 4.5 15t11.5 12q-8 14 -18.5 14t-22.5 -8.5t-24.5 -23t-24.5 -29.5q-21 -27 -40.5 -62.5t-34.5 -73t-24 -74t-9.5 -66.5t8.5 -49.5t30 -23.5q15 -3 33.5 13.5t37 42.5t36 56.5t30.5 56.5q-21 9 -29 29.5
t-5 41.5t16 37t33 16q7 0 18 -1t19 -10.5t9 -30.5t-11 -61q40 1 64 11t37.5 22t18 23.5t6.5 14.5q3 7 9.5 8.5t12.5 -1.5t9 -9.5t0 -14.5q-8 -19 -25 -35t-39.5 -27t-50 -17t-55.5 -5q-14 -31 -35.5 -69t-49.5 -70.5t-61.5 -53.5t-71.5 -18q-50 5 -78.5 42t-30.5 90
q-1 40 8 83.5t27 85.5t44 79.5t58.5 65.5t71 43t80.5 13q19 -1 31.5 -8.5t20.5 -18t12 -23t6 -23.5zM229 734q-3 -12 5.5 -40.5t17.5 -60t13.5 -57.5t-4.5 -32q-14 -9 -35 3t-40.5 35t-32.5 53.5t-12 58.5q0 17 14.5 28t31.5 16t30 4t12 -8z" />
    <glyph glyph-name="oacute" unicode="&#xf3;" horiz-adv-x="425" 
d="M318 430q-2 11 -6 23.5t-12 23t-20.5 18t-31.5 8.5q-42 2 -80.5 -13t-71 -43t-58.5 -65.5t-44 -79.5t-27 -85.5t-8 -83.5q2 -53 30.5 -90t78.5 -42q38 -3 71.5 18t61.5 53.5t49.5 70.5t35.5 69q28 -1 55.5 5t50 17t39.5 27t25 35q3 8 0 14.5t-9 9.5t-12.5 1.5t-9.5 -8.5
q-2 -3 -6.5 -14.5t-18 -23.5t-37.5 -22t-64 -11q12 40 11 61t-9 30.5t-19 10.5t-18 1q-20 0 -33 -16t-16 -37t5 -41.5t29 -29.5q-13 -26 -30.5 -56.5t-36 -56.5t-37 -42.5t-33.5 -13.5q-21 4 -30 23.5t-8.5 49.5t9.5 66.5t24 74t34.5 73t40.5 62.5q12 15 24.5 29.5t24.5 23
t22.5 8.5t18.5 -14q-7 -5 -11.5 -12t-4.5 -15q0 -13 9.5 -21t21.5 -8q17 0 25 15q6 7 6 23zM195 734q-2 7 11.5 8t30.5 -4t31.5 -16t14.5 -28q1 -28 -12 -58.5t-32.5 -53.5t-40.5 -35t-35 -3q-9 6 -4.5 32t13.5 57.5t17.5 60t5.5 40.5z" />
    <glyph glyph-name="odieresis" unicode="&#xf6;" horiz-adv-x="425" 
d="M318 430q0 -16 -6 -23q-8 -15 -25 -15q-12 0 -21.5 8t-9.5 21q0 8 4.5 15t11.5 12q-8 14 -18.5 14t-22.5 -8.5t-24.5 -23t-24.5 -29.5q-21 -27 -40.5 -62.5t-34.5 -73t-24 -74t-9.5 -66.5t8.5 -49.5t30 -23.5q15 -3 33.5 13.5t37 42.5t36 56.5t30.5 56.5q-21 9 -29 29.5
t-5 41.5t16 37t33 16q7 0 18 -1t19 -10.5t9 -30.5t-11 -61q40 1 64 11t37.5 22t18 23.5t6.5 14.5q3 7 9.5 8.5t12.5 -1.5t9 -9.5t0 -14.5q-8 -19 -25 -35t-39.5 -27t-50 -17t-55.5 -5q-14 -31 -35.5 -69t-49.5 -70.5t-61.5 -53.5t-71.5 -18q-50 5 -78.5 42t-30.5 90
q-1 40 8 83.5t27 85.5t44 79.5t58.5 65.5t71 43t80.5 13q19 -1 31.5 -8.5t20.5 -18t12 -23t6 -23.5zM97 595q0 17 13 29t32 12t32 -12t13 -29t-13 -29t-32 -12t-32 12t-13 29zM237 595q0 17 13 29t32 12t32 -12t13 -29t-13 -29t-32 -12t-32 12t-13 29z" />
    <glyph glyph-name="ugrave" unicode="&#xf9;" horiz-adv-x="459" 
d="M492 305q-8 -17 -23 -46.5t-35.5 -63t-44.5 -67.5t-49.5 -62t-51.5 -46t-50 -18q-20 -1 -34.5 8t-23.5 25.5t-12 40t0 50.5q0 5 1 9.5t2 9.5q-19 -28 -39.5 -53.5t-41.5 -45.5t-42 -32t-40 -12q-20 -1 -34.5 8t-23.5 25.5t-12 40t0 50.5q4 33 15.5 70t26.5 74t30.5 71.5
t27 62.5t16 47t-2.5 26q-7 6 6.5 14t33.5 9t41.5 -9t30.5 -40q9 -29 -3 -70.5t-33.5 -86.5t-46 -89t-41 -78.5t-19 -55t20.5 -18.5q12 1 35 25t48.5 59.5t50 75t40.5 70.5q15 35 29.5 67t25 58.5t14.5 44.5t-3 24t6.5 14t33.5 9t41.5 -9t30.5 -40q9 -29 -3 -70.5
t-33.5 -86.5t-46 -89t-41 -78.5t-19 -55t20.5 -18.5q9 1 25 16t35 38.5t39 52.5t38 58t32 55t20 43q3 8 10 10t13 0t9.5 -8t-0.5 -13zM216 734q-3 -12 5.5 -40.5t17.5 -60t13.5 -57.5t-4.5 -32q-14 -9 -35 3t-40.5 35t-32.5 53.5t-12 58.5q0 17 14.5 28t31.5 16t30 4t12 -8z
" />
    <glyph glyph-name="uacute" unicode="&#xfa;" horiz-adv-x="459" 
d="M492 305q4 7 0.5 13t-9.5 8t-13 0t-10 -10q-6 -17 -20 -43t-32 -55t-38 -58t-39 -52.5t-35 -38.5t-25 -16q-23 -2 -20.5 18.5t19 55t41 78.5t46 89t33.5 86.5t3 70.5q-9 30 -30.5 40t-41.5 9t-33.5 -9t-6.5 -14t3 -24t-14.5 -44.5t-25 -58.5t-29.5 -67
q-16 -31 -40.5 -70.5t-50 -75t-48.5 -59.5t-35 -25q-23 -2 -20.5 18.5t19 55t41 78.5t46 89t33.5 86.5t3 70.5q-9 30 -30.5 40t-41.5 9t-33.5 -9t-6.5 -14q7 -7 2.5 -26t-16 -47t-27 -62.5t-30.5 -71.5t-26.5 -74t-15.5 -70q-3 -27 0 -50.5t12 -40t23.5 -25.5t34.5 -8
q19 0 40 12t42 32t41.5 45.5t39.5 53.5q-1 -5 -2 -9.5t-1 -9.5q-3 -27 0 -50.5t12 -40t23.5 -25.5t34.5 -8q24 0 50 18t51.5 46t49.5 62t44.5 67.5t35.5 63t23 46.5zM242 734q-2 7 11.5 8t30.5 -4t31.5 -16t14.5 -28q1 -28 -12 -58.5t-32.5 -53.5t-40.5 -35t-35 -3
q-9 6 -4.5 32t13.5 57.5t17.5 60t5.5 40.5z" />
    <glyph glyph-name="udieresis" unicode="&#xfc;" horiz-adv-x="459" 
d="M492 305q-8 -17 -23 -46.5t-35.5 -63t-44.5 -67.5t-49.5 -62t-51.5 -46t-50 -18q-20 -1 -34.5 8t-23.5 25.5t-12 40t0 50.5q0 5 1 9.5t2 9.5q-19 -28 -39.5 -53.5t-41.5 -45.5t-42 -32t-40 -12q-20 -1 -34.5 8t-23.5 25.5t-12 40t0 50.5q4 33 15.5 70t26.5 74t30.5 71.5
t27 62.5t16 47t-2.5 26q-7 6 6.5 14t33.5 9t41.5 -9t30.5 -40q9 -29 -3 -70.5t-33.5 -86.5t-46 -89t-41 -78.5t-19 -55t20.5 -18.5q12 1 35 25t48.5 59.5t50 75t40.5 70.5q15 35 29.5 67t25 58.5t14.5 44.5t-3 24t6.5 14t33.5 9t41.5 -9t30.5 -40q9 -29 -3 -70.5
t-33.5 -86.5t-46 -89t-41 -78.5t-19 -55t20.5 -18.5q9 1 25 16t35 38.5t39 52.5t38 58t32 55t20 43q3 8 10 10t13 0t9.5 -8t-0.5 -13zM114 595q0 17 13 29t32 12t32 -12t13 -29t-13 -29t-32 -12t-32 12t-13 29zM254 595q0 17 13 29t32 12t32 -12t13 -29t-13 -29t-32 -12
t-32 12t-13 29z" />
    <glyph glyph-name="ydieresis" unicode="&#xff;" horiz-adv-x="461" 
d="M-138 -244q-1 9 2.5 21.5t17.5 26.5q16 16 38.5 29t47 25t48 24.5t40.5 27.5q12 37 31.5 82.5t41.5 96.5q-30 -37 -61 -61.5t-60 -25.5q-20 -1 -34.5 8t-23.5 25.5t-12 40t0 50.5q4 33 15.5 70t26.5 74t30.5 71.5t27 62.5t16 47.5t-2.5 25.5t6.5 14t33.5 9t41.5 -9
t30.5 -40q9 -29 -3 -70.5t-33.5 -86.5t-46 -89t-41 -78.5t-19 -55t20.5 -18.5q12 1 35.5 25.5t49 60t50.5 75.5t40 71q16 37 29.5 70t22 59t11.5 43.5t-2 23.5t9 14t35 9t41.5 -10t29.5 -42q5 -17 -5 -54.5t-28 -84.5t-41 -98.5t-44 -97t-37 -79.5t-20 -47q36 24 75 67.5
t73 91t60 92.5t36 72q3 9 10 11.5t13 0.5t9.5 -8t0.5 -13q-23 -51 -57.5 -107.5t-75.5 -108.5t-86 -93.5t-88 -63.5q-6 -15 -16 -38.5t-20.5 -47.5t-19 -45t-12.5 -31q-10 -28 -31.5 -47.5t-48.5 -30t-56 -12t-54 6t-43.5 25t-23.5 44.5zM42 -135q-15 -12 -34 -21l-38 -18
t-36.5 -20t-28.5 -26q-7 -10 -5.5 -22t9 -21.5t19 -14.5t25.5 -1t29 19.5t28 47.5q6 14 14.5 33t17.5 44zM115 595q0 17 13 29t32 12t32 -12t13 -29t-13 -29t-32 -12t-32 12t-13 29zM255 595q0 17 13 29t32 12t32 -12t13 -29t-13 -29t-32 -12t-32 12t-13 29z" />
    <glyph glyph-name="yacute" unicode="&#xfd;" horiz-adv-x="461" 
d="M-138 -244q-1 9 2.5 21.5t17.5 26.5q16 16 38.5 29t47 25t48 24.5t40.5 27.5q12 37 31.5 82.5t41.5 96.5q-30 -37 -61 -61.5t-60 -25.5q-20 -1 -34.5 8t-23.5 25.5t-12 40t0 50.5q4 33 15.5 70t26.5 74t30.5 71.5t27 62.5t16 47.5t-2.5 25.5t6.5 14t33.5 9t41.5 -9
t30.5 -40q9 -29 -3 -70.5t-33.5 -86.5t-46 -89t-41 -78.5t-19 -55t20.5 -18.5q12 1 35.5 25.5t49 60t50.5 75.5t40 71q16 37 29.5 70t22 59t11.5 43.5t-2 23.5t9 14t35 9t41.5 -10t29.5 -42q5 -17 -5 -54.5t-28 -84.5t-41 -98.5t-44 -97t-37 -79.5t-20 -47q36 24 75 67.5
t73 91t60 92.5t36 72q3 9 10 11.5t13 0.5t9.5 -8t0.5 -13q-23 -51 -57.5 -107.5t-75.5 -108.5t-86 -93.5t-88 -63.5q-6 -15 -16 -38.5t-20.5 -47.5t-19 -45t-12.5 -31q-10 -28 -31.5 -47.5t-48.5 -30t-56 -12t-54 6t-43.5 25t-23.5 44.5zM42 -135q-15 -12 -34 -21l-38 -18
t-36.5 -20t-28.5 -26q-7 -10 -5.5 -22t9 -21.5t19 -14.5t25.5 -1t29 19.5t28 47.5q6 14 14.5 33t17.5 44zM233 734q-2 7 11.5 8t30.5 -4t31.5 -16t14.5 -28q1 -28 -12 -58.5t-32.5 -53.5t-40.5 -35t-35 -3q-9 6 -4.5 32t13.5 57.5t17.5 60t5.5 40.5z" />
    <glyph glyph-name="adieresis" unicode="&#xe4;" horiz-adv-x="523" 
d="M253 421q0 8 4.5 15t11.5 12q-5 12 -16 12q-14 1 -31 -12.5t-36.5 -39t-40.5 -63t-42 -83.5q-13 -29 -21.5 -62.5t-9.5 -64t6 -53.5t25 -30q14 -6 29.5 3t31 28t32 46t32 56.5t30 59t27.5 54.5q14 33 27.5 62.5t22.5 53t12 40t-3 22.5q-7 6 6.5 14t33.5 9t41.5 -9
t30.5 -40q9 -29 -3 -70.5t-33.5 -86.5t-46 -89t-41 -78.5t-19 -55t20.5 -18.5q9 1 25 16t35 38.5t39.5 52.5t38 58t31.5 55t20 43q3 8 10 10t13 0t9.5 -8t-0.5 -13q-8 -17 -23 -46.5t-35.5 -63t-44.5 -67.5t-49.5 -62t-51.5 -46t-50 -18q-38 -2 -57 31t-14 84
q-19 -31 -40 -56.5t-45.5 -40.5t-52 -18t-60.5 11q-40 16 -57.5 47t-20.5 67.5t6 76t22 72.5q24 61 53.5 104.5t62.5 71t68 39.5t71 11q12 -1 25.5 -4.5t25 -11.5t19.5 -21.5t8 -33.5q0 -22 -10 -30q-8 -9 -21 -9q-12 0 -21.5 8t-9.5 21zM146 595q0 17 13 29t32 12t32 -12
t13 -29t-13 -29t-32 -12t-32 12t-13 29zM286 595q0 17 13 29t32 12t32 -12t13 -29t-13 -29t-32 -12t-32 12t-13 29z" />
    <glyph glyph-name="dotaccent" unicode="&#x2d9;" horiz-adv-x="149" 
d="M29 595q0 17 13 29t32 12t32 -12t13 -29t-13 -29t-32 -12t-32 12t-13 29z" />
    <glyph glyph-name="macron" unicode="&#xaf;" horiz-adv-x="381" 
d="M37 645q11 9 36.5 11t57.5 1t66.5 -4t64 -5t49 -1.5t22.5 6.5q2 4 9 -1.5t11.5 -15.5t3 -23t-14.5 -23q-12 -9 -37 -10.5t-56.5 0.5t-65 7t-63 8t-50.5 3t-27 -7q-3 -4 -9.5 0t-10 12.5t-1.5 19.5t15 22z" />
    <glyph glyph-name="sacute" unicode="&#x15b;" horiz-adv-x="337" 
d="M119 23l-1 -1q-22 -11 -42 -17t-34 -6q-40 0 -61.5 20.5t-28.5 48.5t-2 56t19 43q20 21 36 28t27 5q11 -1 20.5 -9t9.5 -20q0 -13 -9.5 -22t-21.5 -9q-9 0 -17 5.5t-11 14.5q-13 -15 -18 -36t-2 -40t15.5 -32.5t34.5 -14.5q8 0 23 7.5t30.5 25t27.5 45t14.5 66.5t-8.5 91
t-42 117q-10 -19 -22.5 -41.5t-22.5 -42.5q-5 -7 -12 -8t-13 1.5t-8.5 8t1.5 12.5q8 17 15 30.5t14 25.5t13 24.5t13 26.5q-11 16 -17 35t-6 40q0 9 3.5 22.5t12 27t23.5 23t39 9.5q25 0 36.5 -11t12.5 -28t-7 -37.5t-21 -40.5l-3 -6q39 -45 62.5 -86t35.5 -78t13.5 -69
t-5.5 -60q33 38 59 75t43 70q3 7 9 9.5t15 -2.5q7 -4 8.5 -11t-1.5 -13q-24 -49 -55.5 -92t-69.5 -86q-27 -30 -56.5 -54t-66.5 -40h-1zM131 814q-2 7 11.5 8t30.5 -4t31.5 -16t14.5 -28q1 -28 -12 -58.5t-32.5 -53.5t-40.5 -35t-35 -3q-9 6 -4.5 32t13.5 57.5t17.5 60
t5.5 40.5z" />
    <glyph glyph-name="zdotaccent" unicode="&#x17c;" horiz-adv-x="469" 
d="M470 316q2 7 8.5 9.5t13.5 0.5q8 -2 11 -8t-1 -14q-10 -22 -25 -49.5t-32 -56.5q-21 -36 -47 -71t-54.5 -63t-60.5 -45.5t-65 -18.5q-24 0 -41.5 3.5t-33 8t-31 8t-36.5 3.5q-29 0 -49.5 -4t-33.5 -6.5t-18.5 -1t-5.5 12.5q0 13 14.5 37.5t38 56t54 69t62.5 77.5
t63.5 79.5t56.5 76.5q-24 1 -40 8.5t-28 16t-24 15t-29 6.5q-26 0 -45.5 -17.5t-19.5 -43.5q0 -31 22.5 -50.5t54.5 -16.5q6 1 2 -8t-14.5 -20.5t-26.5 -21t-35 -9.5q-35 0 -59.5 22t-24.5 54q0 30 10.5 56t29 45.5t43 30.5t52.5 11q21 0 36.5 -5.5t33 -12t38.5 -12t53 -5.5
q31 0 51 1.5t34.5 4t25 4t23.5 1.5q12 0 12 -10q0 -5 -6 -11.5t-20.5 -21.5t-38.5 -40.5t-59.5 -67.5t-85 -103.5t-113.5 -147.5q11 0 23 -5.5t25 -12t27 -12.5t31 -6q31 -1 62.5 19t60.5 51.5t54.5 70t45.5 75.5q10 18 18 33.5t13 30.5zM189 595q0 17 13 29t32 12t32 -12
t13 -29t-13 -29t-32 -12t-32 12t-13 29z" />
    <glyph glyph-name="zacute" unicode="&#x17a;" horiz-adv-x="469" 
d="M470 316q-5 -15 -13 -30.5t-18 -33.5q-20 -37 -45.5 -75.5t-54.5 -70t-60.5 -51.5t-62.5 -19q-17 0 -31 6t-27 12.5t-25 12t-23 5.5q64 86 113.5 147.5t85 103.5t59.5 67.5t38.5 40.5t20.5 21.5t6 11.5q0 10 -12 10q-13 0 -23.5 -1.5t-25 -4t-34.5 -4t-51 -1.5
q-32 0 -53 5.5t-38.5 12t-33 12t-36.5 5.5q-28 0 -52.5 -11t-43 -30.5t-29 -45.5t-10.5 -56q0 -32 24.5 -54t59.5 -22q19 0 35 9.5t26.5 21t14.5 20.5t-2 8q-32 -3 -54.5 16.5t-22.5 50.5q0 26 19.5 43.5t45.5 17.5q17 0 29 -6.5t24 -15t28 -16t40 -8.5q-25 -37 -56.5 -76.5
t-63.5 -79.5t-62.5 -77.5t-54 -69t-38 -56t-14.5 -37.5q0 -11 5.5 -12.5t18.5 1t33.5 6.5t49.5 4q21 0 36.5 -3.5t31 -8t33 -8t41.5 -3.5q33 1 65 18.5t60.5 45.5t54.5 63t47 71q17 29 32 56.5t25 49.5q4 8 1 14t-11 8q-7 2 -13.5 -0.5t-8.5 -9.5zM217 734q-2 7 11.5 8
t30.5 -4t31.5 -16t14.5 -28q1 -28 -12 -58.5t-32.5 -53.5t-40.5 -35t-35 -3q-9 6 -4.5 32t13.5 57.5t17.5 60t5.5 40.5z" />
    <glyph glyph-name="cacute" unicode="&#x107;" horiz-adv-x="373" 
d="M256 421q0 -13 9.5 -21t21.5 -8q14 0 22 10q9 9 9 29t-8 33.5t-19.5 21.5t-25 11.5t-25.5 4.5q-36 1 -71 -11t-68 -39.5t-62.5 -71t-53.5 -104.5q-13 -33 -22 -72.5t-6 -76t20.5 -67.5t57.5 -47q36 -15 73.5 -9t73 26.5t69 53t62.5 69.5t52.5 76.5t39.5 74.5q6 14 -7 21
q-8 4 -15 1.5t-10 -10.5q-10 -26 -27.5 -56.5t-40 -61.5t-48 -59t-52 -49t-52 -31.5t-47.5 -6.5q-19 4 -26 26.5t-5.5 53.5t10 66t21.5 64q21 46 42 83.5t40.5 63t36.5 39t31 12.5q11 0 16 -12q-7 -5 -11.5 -12t-4.5 -15zM169 734q-2 7 11.5 8t30.5 -4t31.5 -16t14.5 -28
q1 -28 -12 -58.5t-32.5 -53.5t-40.5 -35t-35 -3q-9 6 -4.5 32t13.5 57.5t17.5 60t5.5 40.5z" />
    <glyph glyph-name="racute" unicode="&#x155;" horiz-adv-x="368" 
d="M29 295q6 11 15 31.5t18 42t16.5 40t10.5 25.5q26 -7 52.5 -5.5t47.5 9.5q-8 -26 -25 -63t-35 -79.5t-33 -86.5t-19 -83q-3 -27 0 -50.5t12 -40t23.5 -25.5t34.5 -8q24 0 50 18t51.5 46t49.5 62t44.5 67.5t35.5 63t23 46.5q4 7 0.5 13t-9.5 8t-13 0t-10 -10
q-6 -17 -20 -43t-32 -55t-38 -58t-39 -52.5t-35 -38.5t-25 -16q-23 -2 -20.5 18.5t19 55t41 78.5t46 89t33.5 86.5t3 70.5t-29 39t-40 10q-15 0 -24 -5t-18 -10.5t-21.5 -10.5t-34.5 -5q-10 0 -18.5 1t-13.5 5q4 15 5.5 38t1.5 36q-1 23 -15.5 39.5t-34.5 16.5
q-32 0 -48 -22t-16 -53q0 -24 16.5 -48t39.5 -35q-3 -13 -11 -32.5t-16 -40t-16 -39t-11 -27.5q-3 -8 0.5 -13.5t9 -7.5t12 0t9.5 8zM187 734q-2 7 11.5 8t30.5 -4t31.5 -16t14.5 -28q1 -28 -12 -58.5t-32.5 -53.5t-40.5 -35t-35 -3q-9 6 -4.5 32t13.5 57.5t17.5 60
t5.5 40.5z" />
    <glyph glyph-name="uhungarumlaut" unicode="&#x171;" horiz-adv-x="459" 
d="M492 305q4 7 0.5 13t-9.5 8t-13 0t-10 -10q-6 -17 -20 -43t-32 -55t-38 -58t-39 -52.5t-35 -38.5t-25 -16q-23 -2 -20.5 18.5t19 55t41 78.5t46 89t33.5 86.5t3 70.5q-9 30 -30.5 40t-41.5 9t-33.5 -9t-6.5 -14t3 -24t-14.5 -44.5t-25 -58.5t-29.5 -67
q-16 -31 -40.5 -70.5t-50 -75t-48.5 -59.5t-35 -25q-23 -2 -20.5 18.5t19 55t41 78.5t46 89t33.5 86.5t3 70.5q-9 30 -30.5 40t-41.5 9t-33.5 -9t-6.5 -14q7 -7 2.5 -26t-16 -47t-27 -62.5t-30.5 -71.5t-26.5 -74t-15.5 -70q-3 -27 0 -50.5t12 -40t23.5 -25.5t34.5 -8
q19 0 40 12t42 32t41.5 45.5t39.5 53.5q-1 -5 -2 -9.5t-1 -9.5q-3 -27 0 -50.5t12 -40t23.5 -25.5t34.5 -8q24 0 50 18t51.5 46t49.5 62t44.5 67.5t35.5 63t23 46.5zM141 734q-2 7 11.5 8t30.5 -4t31.5 -16t14.5 -28q1 -28 -12 -58.5t-32.5 -53.5t-40.5 -35t-35 -3
q-9 6 -4.5 32t13.5 57.5t17.5 60t5.5 40.5zM303 734q-2 7 11.5 8t30.5 -4t31.5 -16t14.5 -28q1 -28 -12 -58.5t-32.5 -53.5t-40.5 -35t-35 -3q-9 6 -4.5 32t13.5 57.5t17.5 60t5.5 40.5z" />
    <glyph glyph-name="ohungarumlaut" unicode="&#x151;" horiz-adv-x="425" 
d="M318 430q-2 11 -6 23.5t-12 23t-20.5 18t-31.5 8.5q-42 2 -80.5 -13t-71 -43t-58.5 -65.5t-44 -79.5t-27 -85.5t-8 -83.5q2 -53 30.5 -90t78.5 -42q38 -3 71.5 18t61.5 53.5t49.5 70.5t35.5 69q28 -1 55.5 5t50 17t39.5 27t25 35q3 8 0 14.5t-9 9.5t-12.5 1.5t-9.5 -8.5
q-2 -3 -6.5 -14.5t-18 -23.5t-37.5 -22t-64 -11q12 40 11 61t-9 30.5t-19 10.5t-18 1q-20 0 -33 -16t-16 -37t5 -41.5t29 -29.5q-13 -26 -30.5 -56.5t-36 -56.5t-37 -42.5t-33.5 -13.5q-21 4 -30 23.5t-8.5 49.5t9.5 66.5t24 74t34.5 73t40.5 62.5q12 15 24.5 29.5t24.5 23
t22.5 8.5t18.5 -14q-7 -5 -11.5 -12t-4.5 -15q0 -13 9.5 -21t21.5 -8q17 0 25 15q6 7 6 23zM124 734q-2 7 11.5 8t30.5 -4t31.5 -16t14.5 -28q1 -28 -12 -58.5t-32.5 -53.5t-40.5 -35t-35 -3q-9 6 -4.5 32t13.5 57.5t17.5 60t5.5 40.5zM286 734q-2 7 11.5 8t30.5 -4
t31.5 -16t14.5 -28q1 -28 -12 -58.5t-32.5 -53.5t-40.5 -35t-35 -3q-9 6 -4.5 32t13.5 57.5t17.5 60t5.5 40.5z" />
    <glyph glyph-name="nacute" unicode="&#x144;" horiz-adv-x="486" 
d="M385 376q7 55 -12 90t-58 34q-18 0 -37 -9t-39 -24t-39.5 -35t-38.5 -42q4 17 5 32.5t-3 28.5q-9 30 -30 40t-41.5 9t-34 -9t-6.5 -14q8 -8 0 -36t-25 -67t-38 -85.5t-38 -91t-26 -83.5t-1 -63q9 -30 26.5 -41t34 -10.5t27 9t6.5 16.5q-7 14 0.5 40t23.5 60t36.5 72.5
t39.5 77.5q19 28 43 58.5t47.5 56t43.5 42t31 17.5q21 1 23.5 -11t-5.5 -34.5t-24 -53t-32.5 -67t-30.5 -76.5t-19 -81q-3 -23 0.5 -45.5t12.5 -40.5t23 -28.5t34 -9.5q24 0 50 18t51.5 46t49.5 62t44.5 67.5t35.5 63t23 46.5q4 7 0.5 13t-9.5 8t-13 0t-10 -10
q-6 -17 -20 -43.5t-32 -55.5t-38.5 -58.5t-39.5 -53t-35 -38t-25 -14.5q-20 0 -21.5 14.5t7.5 38.5t25.5 56.5t33 68.5t29.5 73.5t15 71.5zM246 734q-2 7 11.5 8t30.5 -4t31.5 -16t14.5 -28q1 -28 -12 -58.5t-32.5 -53.5t-40.5 -35t-35 -3q-9 6 -4.5 32t13.5 57.5t17.5 60
t5.5 40.5z" />
    <glyph glyph-name="uni0163" unicode="&#x163;" 
d="M-85 -58q-3 6 9.5 10.5t29.5 4t32 -7.5t18 -24q6 -38 -5.5 -73.5t-31 -61.5t-43 -38t-43.5 -2q-10 5 1.5 21.5t25 42t20 58t-12.5 70.5zM-139 543q-1 -14 -8 -18.5t-15.5 1t-14 21t-3.5 41.5q4 42 33 64t74.5 29.5t103 5.5t119.5 -8q17 45 25 74t3 34q-7 6 6.5 14t33.5 9
t41.5 -9t30.5 -40q5 -14 1 -38t-13 -54q44 -2 88 0t79 7.5t56.5 14.5t21.5 22q0 15 9 15.5t18 -7.5t12.5 -21t-8.5 -24q-13 -13 -41.5 -24.5t-68 -20t-87.5 -14.5t-100 -7q-21 -54 -50.5 -117t-59 -125.5t-57 -120t-44 -101t-20 -69.5t14.5 -24q10 1 25.5 16t34.5 38.5
t39 52.5t38 58t32 55t20 43q3 8 10 10t13 0t9.5 -8t-0.5 -13q-8 -17 -23 -46.5t-35.5 -63t-44.5 -67.5t-49.5 -62t-51.5 -46t-50 -18q-20 -1 -34.5 8t-23.5 25.5t-12 40t0 50.5q4 31 23.5 87.5t46.5 124t57.5 139t56.5 133.5q-52 0 -99 -1.5t-82.5 -8.5t-57 -20.5
t-22.5 -36.5z" />
    <glyph glyph-name="tcaron" unicode="&#x165;" 
d="M402 907q-3 6 9.5 10.5t29.5 4t32 -7.5t18 -24q6 -38 -5.5 -73.5t-31 -61.5t-43 -38t-43.5 -2q-10 5 1.5 21.5t25 42t20 58t-12.5 70.5zM-139 543q1 23 22.5 36.5t57 20.5t82.5 8.5t99 1.5q-26 -62 -56.5 -133.5t-57.5 -139t-46.5 -124t-23.5 -87.5q-3 -27 0 -50.5
t12 -40t23.5 -25.5t34.5 -8q24 0 50 18t51.5 46t49.5 62t44.5 67.5t35.5 63t23 46.5q4 7 0.5 13t-9.5 8t-13 0t-10 -10q-6 -17 -20 -43t-32 -55t-38 -58t-39 -52.5t-34.5 -38.5t-25.5 -16q-18 -2 -14.5 24t20 69.5t44 101t57 120t59 125.5t50.5 117q52 1 100 7t87.5 14.5
t68 20t41.5 24.5q12 11 8.5 24t-12.5 21t-18 7.5t-9 -15.5q0 -13 -21.5 -22t-56.5 -14.5t-79 -7.5t-88 0q9 30 13 54t-1 38q-9 30 -30.5 40t-41.5 9t-33.5 -9t-6.5 -14q5 -5 -3 -34t-25 -74q-62 6 -119.5 8t-103 -5.5t-74.5 -29.5t-33 -64q-2 -26 3.5 -41.5t14 -21t15.5 -1
t8 18.5z" />
    <glyph glyph-name="uni0146" unicode="&#x146;" horiz-adv-x="486" 
d="M85 -58q-3 6 9.5 10.5t29.5 4t32 -7.5t18 -24q6 -38 -5.5 -73.5t-31 -61.5t-43 -38t-43.5 -2q-10 5 1.5 21.5t25 42t20 58t-12.5 70.5zM385 376q-2 -34 -15 -71.5t-29.5 -73.5t-33 -68.5t-25.5 -56.5t-7.5 -38.5t21.5 -14.5q9 0 25 14.5t35 38t39.5 53t38.5 58.5t32 55.5
t20 43.5q3 8 10 10t13 0t9.5 -8t-0.5 -13q-8 -17 -23 -46.5t-35.5 -63t-44.5 -67.5t-49.5 -62t-51.5 -46t-50 -18q-20 -1 -34 9.5t-23 28.5t-12.5 40.5t-0.5 45.5q5 41 19 81t30.5 76.5t32.5 67t24 53t5.5 34.5t-23.5 11q-11 -1 -31 -17.5t-43.5 -42t-47.5 -56t-43 -58.5
q-19 -39 -39.5 -77.5t-36.5 -72.5t-23.5 -60t-0.5 -40q4 -8 -6.5 -16.5t-27 -9t-34 10.5t-26.5 41q-8 24 1 63t26 83.5t38 91t38 85.5t25 67t0 36q-7 6 6.5 14t34 9t41.5 -9t30 -40q4 -13 3 -28.5t-5 -32.5q19 22 38.5 42t39.5 35t39 24t37 9q39 1 58 -34t12 -90z" />
    <glyph glyph-name="uni013C" unicode="&#x13c;" 
d="M-85 -58q-3 6 9.5 10.5t29.5 4t32 -7.5t18 -24q6 -38 -5.5 -73.5t-31 -61.5t-43 -38t-43.5 -2q-10 5 1.5 21.5t25 42t20 58t-12.5 70.5zM262 305q-8 -17 -23 -46.5t-35.5 -63t-44.5 -67.5t-49.5 -62t-51.5 -46t-50 -18q-20 -1 -34.5 8t-23.5 25.5t-12 40t0 50.5
q4 33 25 93t50 131.5t61 146t57.5 137t39.5 104.5t7 49q-7 6 6.5 14t33.5 9t41.5 -9t30.5 -40q7 -22 -4 -64.5t-32.5 -96.5t-50.5 -116.5t-58.5 -123.5t-56 -117.5t-43 -99t-19 -67.5t14.5 -23q10 1 25.5 16t34.5 38.5t39 52.5t38 58t32 55t20 43q3 8 10 10t13 0t9.5 -8
t-0.5 -13z" />
    <glyph glyph-name="edotaccent" unicode="&#x117;" horiz-adv-x="370" 
d="M396 325q12 -8 6 -22q-17 -36 -40.5 -75.5t-53 -77t-62.5 -69t-68.5 -51.5t-72.5 -26t-73 9q-40 16 -57.5 46.5t-20.5 67.5t6 76.5t22 72.5q24 61 53.5 103.5t62.5 69.5t68 40t71 13q37 0 54.5 -18t17.5 -47t-16 -64t-45.5 -68.5t-71.5 -61t-94 -41.5q-7 -26 -10 -51.5
t-1 -46.5t9.5 -35t22.5 -17q22 -4 47.5 6.5t52 31.5t52 49t48 59t40 61.5t27.5 56.5q3 8 10.5 11t15.5 -2zM103 262q-5 -11 -8 -20q60 21 98.5 57.5t57.5 72t19.5 61.5t-17.5 27q-27 1 -68 -52t-82 -146zM140 595q0 17 13 29t32 12t32 -12t13 -29t-13 -29t-32 -12t-32 12
t-13 29z" />
    <glyph glyph-name="amacron" unicode="&#x101;" horiz-adv-x="523" 
d="M253 421q0 8 4.5 15t11.5 12q-5 12 -16 12q-14 1 -31 -12.5t-36.5 -39t-40.5 -63t-42 -83.5q-13 -29 -21.5 -62.5t-9.5 -64t6 -53.5t25 -30q14 -6 29.5 3t31 28t32 46t32 56.5t30 59t27.5 54.5q14 33 27.5 62.5t22.5 53t12 40t-3 22.5q-7 6 6.5 14t33.5 9t41.5 -9
t30.5 -40q9 -29 -3 -70.5t-33.5 -86.5t-46 -89t-41 -78.5t-19 -55t20.5 -18.5q9 1 25 16t35 38.5t39.5 52.5t38 58t31.5 55t20 43q3 8 10 10t13 0t9.5 -8t-0.5 -13q-8 -17 -23 -46.5t-35.5 -63t-44.5 -67.5t-49.5 -62t-51.5 -46t-50 -18q-38 -2 -57 31t-14 84
q-19 -31 -40 -56.5t-45.5 -40.5t-52 -18t-60.5 11q-40 16 -57.5 47t-20.5 67.5t6 76t22 72.5q24 61 53.5 104.5t62.5 71t68 39.5t71 11q12 -1 25.5 -4.5t25 -11.5t19.5 -21.5t8 -33.5q0 -22 -10 -30q-8 -9 -21 -9q-12 0 -21.5 8t-9.5 21zM108 645q11 9 36.5 11t57.5 1
t66.5 -4t64 -5t49 -1.5t22.5 6.5q2 4 9 -1.5t11.5 -15.5t3 -23t-14.5 -23q-12 -9 -37 -10.5t-56.5 0.5t-65 7t-63 8t-50.5 3t-27 -7q-3 -4 -9.5 0t-10 12.5t-1.5 19.5t15 22z" />
    <glyph glyph-name="emacron" unicode="&#x113;" horiz-adv-x="370" 
d="M396 325q12 -8 6 -22q-17 -36 -40.5 -75.5t-53 -77t-62.5 -69t-68.5 -51.5t-72.5 -26t-73 9q-40 16 -57.5 46.5t-20.5 67.5t6 76.5t22 72.5q24 61 53.5 103.5t62.5 69.5t68 40t71 13q37 0 54.5 -18t17.5 -47t-16 -64t-45.5 -68.5t-71.5 -61t-94 -41.5q-7 -26 -10 -51.5
t-1 -46.5t9.5 -35t22.5 -17q22 -4 47.5 6.5t52 31.5t52 49t48 59t40 61.5t27.5 56.5q3 8 10.5 11t15.5 -2zM103 262q-5 -11 -8 -20q60 21 98.5 57.5t57.5 72t19.5 61.5t-17.5 27q-27 1 -68 -52t-82 -146zM32 645q11 9 36.5 11t57.5 1t66.5 -4t64 -5t49 -1.5t22.5 6.5
q2 4 9 -1.5t11.5 -15.5t3 -23t-14.5 -23q-12 -9 -37 -10.5t-56.5 0.5t-65 7t-63 8t-50.5 3t-27 -7q-3 -4 -9.5 0t-10 12.5t-1.5 19.5t15 22z" />
    <glyph glyph-name="omacron" unicode="&#x14d;" horiz-adv-x="425" 
d="M318 430q0 -16 -6 -23q-8 -15 -25 -15q-12 0 -21.5 8t-9.5 21q0 8 4.5 15t11.5 12q-8 14 -18.5 14t-22.5 -8.5t-24.5 -23t-24.5 -29.5q-21 -27 -40.5 -62.5t-34.5 -73t-24 -74t-9.5 -66.5t8.5 -49.5t30 -23.5q15 -3 33.5 13.5t37 42.5t36 56.5t30.5 56.5q-21 9 -29 29.5
t-5 41.5t16 37t33 16q7 0 18 -1t19 -10.5t9 -30.5t-11 -61q40 1 64 11t37.5 22t18 23.5t6.5 14.5q3 7 9.5 8.5t12.5 -1.5t9 -9.5t0 -14.5q-8 -19 -25 -35t-39.5 -27t-50 -17t-55.5 -5q-14 -31 -35.5 -69t-49.5 -70.5t-61.5 -53.5t-71.5 -18q-50 5 -78.5 42t-30.5 90
q-1 40 8 83.5t27 85.5t44 79.5t58.5 65.5t71 43t80.5 13q19 -1 31.5 -8.5t20.5 -18t12 -23t6 -23.5zM59 645q11 9 36.5 11t57.5 1t66.5 -4t64 -5t49 -1.5t22.5 6.5q2 4 9 -1.5t11.5 -15.5t3 -23t-14.5 -23q-12 -9 -37 -10.5t-56.5 0.5t-65 7t-63 8t-50.5 3t-27 -7
q-3 -4 -9.5 0t-10 12.5t-1.5 19.5t15 22z" />
    <glyph glyph-name="umacron" unicode="&#x16b;" horiz-adv-x="459" 
d="M492 305q-8 -17 -23 -46.5t-35.5 -63t-44.5 -67.5t-49.5 -62t-51.5 -46t-50 -18q-20 -1 -34.5 8t-23.5 25.5t-12 40t0 50.5q0 5 1 9.5t2 9.5q-19 -28 -39.5 -53.5t-41.5 -45.5t-42 -32t-40 -12q-20 -1 -34.5 8t-23.5 25.5t-12 40t0 50.5q4 33 15.5 70t26.5 74t30.5 71.5
t27 62.5t16 47t-2.5 26q-7 6 6.5 14t33.5 9t41.5 -9t30.5 -40q9 -29 -3 -70.5t-33.5 -86.5t-46 -89t-41 -78.5t-19 -55t20.5 -18.5q12 1 35 25t48.5 59.5t50 75t40.5 70.5q15 35 29.5 67t25 58.5t14.5 44.5t-3 24t6.5 14t33.5 9t41.5 -9t30.5 -40q9 -29 -3 -70.5
t-33.5 -86.5t-46 -89t-41 -78.5t-19 -55t20.5 -18.5q9 1 25 16t35 38.5t39 52.5t38 58t32 55t20 43q3 8 10 10t13 0t9.5 -8t-0.5 -13zM76 645q11 9 36.5 11t57.5 1t66.5 -4t64 -5t49 -1.5t22.5 6.5q2 4 9 -1.5t11.5 -15.5t3 -23t-14.5 -23q-12 -9 -37 -10.5t-56.5 0.5t-65 7
t-63 8t-50.5 3t-27 -7q-3 -4 -9.5 0t-10 12.5t-1.5 19.5t15 22z" />
    <glyph glyph-name="uni0123" unicode="&#x123;" horiz-adv-x="525" 
d="M268 554q1 -7 -12 -8t-29 4t-29 15.5t-11 27.5q4 38 24 69.5t45.5 51.5t51.5 25.5t43 -9.5q5 -5 -0.5 -12t-16.5 -17.5t-25 -24.5t-25 -32t-16.5 -40.5t0.5 -49.5zM253 421q0 8 4.5 15t11.5 12q-5 12 -16 12q-14 1 -31 -12.5t-36.5 -39t-40.5 -63t-42 -83.5
q-13 -29 -21.5 -62.5t-9.5 -64t6 -53.5t25 -30q22 -9 47 16.5t50 67.5t48.5 90.5t43.5 85.5q0 3 1 4q27 64 41.5 109t6.5 56q-5 6 9 14t35 9t41.5 -10t29.5 -42q5 -17 -5 -54.5t-28 -84.5t-41 -98.5t-44 -97t-37 -79.5t-20 -47q36 24 75 67.5t73 91t60 92.5t36 72
q3 9 10 11.5t13 0.5t9.5 -8t0.5 -13q-23 -51 -57.5 -107.5t-75.5 -108.5t-86 -93.5t-88 -63.5q-6 -15 -16 -38.5t-20.5 -47.5t-19 -45t-12.5 -31q-10 -28 -31.5 -47.5t-48.5 -30t-56 -12t-54 6t-43.5 25t-23.5 44.5q-1 9 2.5 21.5t17.5 26.5q16 16 38.5 29t47 25t48 24.5
t40.5 27.5q10 28 23.5 62t29.5 71q-29 -28 -63.5 -37.5t-77.5 7.5q-40 16 -57.5 47t-20.5 67.5t6 76t22 72.5q24 61 53.5 104.5t62.5 71t68 39.5t71 11q12 -1 25.5 -4.5t25 -11.5t19.5 -21.5t8 -33.5t-9 -29q-8 -10 -22 -10q-12 0 -21.5 8t-9.5 21zM106 -135
q-15 -12 -34 -21l-38 -18t-36.5 -20t-28.5 -26q-7 -10 -5.5 -22t9 -21.5t19 -14.5t25.5 -1t29 19.5t28 47.5q6 14 14.5 33t17.5 44z" />
    <glyph glyph-name="uni0137" unicode="&#x137;" horiz-adv-x="447" 
d="M105 -58q-3 6 9.5 10.5t29.5 4t32 -7.5t18 -24q6 -38 -5.5 -73.5t-31 -61.5t-43 -38t-43.5 -2q-10 5 1.5 21.5t25 42t20 58t-12.5 70.5zM-78 51q-6 18 3.5 58t29 93.5t45.5 115.5t53.5 125t53 122.5t44.5 106.5t28 78t3 37q-7 6 6.5 14t34 9t41.5 -9t30 -40q6 -21 -6 -65
t-35 -101.5t-53.5 -123.5t-61.5 -131q21 17 47 37.5t52.5 42.5t51.5 44.5t44.5 41.5t31.5 34.5t12 24.5t15 5t30 -18.5t22 -37t-9 -49.5q-12 -21 -37.5 -41t-57.5 -38t-67 -34t-67 -29q15 -23 37.5 -65t50.5 -92.5t60 -102.5t66.5 -95t69 -70.5t67.5 -28.5q9 0 7.5 -13.5
t-13.5 -29.5t-34 -29.5t-53 -12.5q-47 1 -84 38t-66.5 92.5t-53 120t-43 121.5t-36 96.5t-33.5 45.5q-14 -7 -24.5 -12.5t-17.5 -10.5q-22 -46 -40.5 -87.5t-31 -74.5t-18 -56t-0.5 -32q4 -8 -6.5 -16.5t-27 -9t-34 10.5t-26.5 41z" />
    <glyph glyph-name="uni0157" unicode="&#x157;" horiz-adv-x="368" 
d="M-65 -58q-3 6 9.5 10.5t29.5 4t32 -7.5t18 -24q6 -38 -5.5 -73.5t-31 -61.5t-43 -38t-43.5 -2q-10 5 1.5 21.5t25 42t20 58t-12.5 70.5zM29 295q-3 -6 -9.5 -8t-12 0t-9 7.5t-0.5 13.5q3 9 11 27.5t16 39t16 40t11 32.5q-23 11 -39.5 35t-16.5 48q0 31 16 53t48 22
q20 0 34.5 -16.5t15.5 -39.5q0 -13 -1.5 -36t-5.5 -38q5 -4 13.5 -5t18.5 -1q22 0 34.5 5t21.5 10.5t18 10.5t24 5q20 0 40 -10t29 -39t-3 -70.5t-33.5 -86.5t-46 -89t-41 -78.5t-19 -55t20.5 -18.5q9 1 25 16t35 38.5t39 52.5t38 58t32 55t20 43q3 8 10 10t13 0t9.5 -8
t-0.5 -13q-8 -17 -23 -46.5t-35.5 -63t-44.5 -67.5t-49.5 -62t-51.5 -46t-50 -18q-20 -1 -34.5 8t-23.5 25.5t-12 40t0 50.5q4 39 19 83t33 86.5t35 79.5t25 63q-21 -8 -47.5 -9.5t-52.5 5.5q-3 -7 -10.5 -25.5t-16.5 -40t-18 -42t-15 -31.5z" />
    <glyph glyph-name="uni0219" unicode="&#x219;" horiz-adv-x="337" 
d="M-45 -58q-3 6 9.5 10.5t29.5 4t32 -7.5t18 -24q6 -38 -5.5 -73.5t-31 -61.5t-43 -38t-43.5 -2q-10 5 1.5 21.5t25 42t20 58t-12.5 70.5zM119 23l-1 -1q-22 -11 -42 -17t-34 -6q-40 0 -61.5 20.5t-28.5 48.5t-2 56t19 43q20 21 36 28t27 5q11 -1 20.5 -9t9.5 -20
q0 -13 -9.5 -22t-21.5 -9q-9 0 -17 5.5t-11 14.5q-13 -15 -18 -36t-2 -40t15.5 -32.5t34.5 -14.5q8 0 23 7.5t30.5 25t27.5 45t14.5 66.5t-8.5 91t-42 117q-10 -19 -22.5 -41.5t-22.5 -42.5q-5 -7 -12 -8t-13 1.5t-8.5 8t1.5 12.5q8 17 15 30.5t14 25.5t13 24.5t13 26.5
q-11 16 -17 35t-6 40q0 9 3.5 22.5t12 27t23.5 23t39 9.5q25 0 36.5 -11t12.5 -28t-7 -37.5t-21 -40.5l-3 -6q39 -45 62.5 -86t35.5 -78t13.5 -69t-5.5 -60q33 38 59 75t43 70q3 7 9 9.5t15 -2.5q7 -4 8.5 -11t-1.5 -13q-24 -49 -55.5 -92t-69.5 -86q-27 -30 -56.5 -54
t-66.5 -40h-1z" />
    <glyph glyph-name="dotlessi" unicode="&#x131;" 
d="M262 305q-8 -17 -23 -46.5t-35.5 -63t-44.5 -67.5t-49.5 -62t-51.5 -46t-50 -18q-20 -1 -34.5 8t-23.5 25.5t-12 40t0 50.5q4 33 15.5 70t26.5 74t30.5 71.5t27 62.5t16 47t-2.5 26q-7 6 6.5 14t33.5 9t41.5 -9t30.5 -40q9 -29 -3 -70.5t-33.5 -86.5t-46 -89t-41 -78.5
t-19 -55t20.5 -18.5q10 1 25.5 16t34.5 38.5t39 52.5t38 58t32 55t20 43q3 8 10 10t13 0t9.5 -8t-0.5 -13z" />
    <glyph glyph-name="igrave" unicode="&#xec;" 
d="M262 305q-8 -17 -23 -46.5t-35.5 -63t-44.5 -67.5t-49.5 -62t-51.5 -46t-50 -18q-20 -1 -34.5 8t-23.5 25.5t-12 40t0 50.5q4 33 15.5 70t26.5 74t30.5 71.5t27 62.5t16 47t-2.5 26q-7 6 6.5 14t33.5 9t41.5 -9t30.5 -40q9 -29 -3 -70.5t-33.5 -86.5t-46 -89t-41 -78.5
t-19 -55t20.5 -18.5q10 1 25.5 16t34.5 38.5t39 52.5t38 58t32 55t20 43q3 8 10 10t13 0t9.5 -8t-0.5 -13zM132 734q-3 -12 5.5 -40.5t17.5 -60t13.5 -57.5t-4.5 -32q-14 -9 -35 3t-40.5 35t-32.5 53.5t-12 58.5q0 17 14.5 28t31.5 16t30 4t12 -8z" />
    <glyph glyph-name="iacute" unicode="&#xed;" 
d="M262 305q4 7 0.5 13t-9.5 8t-13 0t-10 -10q-6 -17 -20 -43t-32 -55t-38 -58t-39 -52.5t-34.5 -38.5t-25.5 -16q-23 -2 -20.5 18.5t19 55t41 78.5t46 89t33.5 86.5t3 70.5q-9 30 -30.5 40t-41.5 9t-33.5 -9t-6.5 -14q7 -7 2.5 -26t-16 -47t-27 -62.5t-30.5 -71.5
t-26.5 -74t-15.5 -70q-3 -27 0 -50.5t12 -40t23.5 -25.5t34.5 -8q24 0 50 18t51.5 46t49.5 62t44.5 67.5t35.5 63t23 46.5zM138 734q-2 7 11.5 8t30.5 -4t31.5 -16t14.5 -28q1 -28 -12 -58.5t-32.5 -53.5t-40.5 -35t-35 -3q-9 6 -4.5 32t13.5 57.5t17.5 60t5.5 40.5z" />
    <glyph glyph-name="idieresis" unicode="&#xef;" 
d="M262 305q-8 -17 -23 -46.5t-35.5 -63t-44.5 -67.5t-49.5 -62t-51.5 -46t-50 -18q-20 -1 -34.5 8t-23.5 25.5t-12 40t0 50.5q4 33 15.5 70t26.5 74t30.5 71.5t27 62.5t16 47t-2.5 26q-7 6 6.5 14t33.5 9t41.5 -9t30.5 -40q9 -29 -3 -70.5t-33.5 -86.5t-46 -89t-41 -78.5
t-19 -55t20.5 -18.5q10 1 25.5 16t34.5 38.5t39 52.5t38 58t32 55t20 43q3 8 10 10t13 0t9.5 -8t-0.5 -13zM0 595q0 17 13 29t32 12t32 -12t13 -29t-13 -29t-32 -12t-32 12t-13 29zM140 595q0 17 13 29t32 12t32 -12t13 -29t-13 -29t-32 -12t-32 12t-13 29z" />
    <glyph glyph-name="oe" unicode="&#x153;" horiz-adv-x="654" 
d="M681 325q12 -8 6 -22q-17 -36 -40.5 -75.5t-53 -77t-62.5 -69t-68.5 -51.5t-72.5 -26t-73 9q-40 15 -57.5 45t-20.5 67q-16 -25 -34.5 -48.5t-40.5 -40.5t-46 -27t-50 -8q-50 5 -78.5 42t-30.5 90q-1 40 8 83.5t27 85.5t44 79.5t58.5 65.5t71 43t80.5 13q19 -1 31.5 -8.5
t20.5 -18t12 -23t6 -23.5q0 -16 -6 -23q-8 -15 -25 -15q-12 0 -21.5 8t-9.5 21q0 8 4.5 15t11.5 12q-8 14 -18.5 14t-22.5 -8.5t-24.5 -23t-24.5 -29.5q-21 -27 -40.5 -62.5t-34.5 -73t-24 -74t-9.5 -66.5t8.5 -49.5t30 -23.5q15 -3 33.5 13.5t37 42.5t36 56.5t30.5 56.5
q-21 9 -29 29.5t-5 41.5t16 37t33 16q5 0 14 -1t17 -6q47 87 106 125t121 39q37 0 54.5 -18t17.5 -47t-16 -64t-45.5 -68.5t-71.5 -61t-94 -41.5q-7 -26 -10 -51.5t-1 -46.5t9.5 -35t22.5 -17q22 -4 47.5 6.5t52 31.5t52 49t48 59t40 61.5t27.5 56.5q3 8 10.5 11t15.5 -2z
M388 262q-5 -11 -8 -20q60 21 98.5 57.5t57.5 72t19.5 61.5t-17.5 27q-27 1 -68 -52t-82 -146z" />
    <glyph glyph-name="asciitilde" unicode="~" horiz-adv-x="564" 
d="M61 204q-7 -22 -13.5 -27.5t-9.5 4.5t0.5 35.5t15.5 65.5q21 67 47.5 96.5t57.5 34t65 -9t69 -32.5q25 -19 61.5 -34t72.5 -19.5t64.5 5.5t39.5 40q7 23 12.5 22t7 -14.5t-2.5 -34t-16 -36.5q-14 -18 -38 -33.5t-59.5 -22.5t-82.5 -3t-107 26q-31 9 -59.5 14t-52.5 0
t-43 -22.5t-29 -54.5z" />
    <glyph glyph-name="tilde" unicode="&#x2dc;" horiz-adv-x="342" 
d="M37 535q-8 -27 -13.5 -14.5t9.5 61.5q13 40 29 58t35 21t39.5 -5t41.5 -20q15 -11 37 -20t44 -12t39.5 3t23.5 24q4 14 7.5 13.5t4.5 -8.5t-1.5 -20.5t-9.5 -22.5q-8 -11 -23 -20.5t-36.5 -13.5t-50 -1.5t-64.5 15.5q-19 5 -36.5 8t-32 0t-26 -13.5t-17.5 -32.5z" />
    <glyph glyph-name="atilde" unicode="&#xe3;" horiz-adv-x="523" 
d="M253 421q0 8 4.5 15t11.5 12q-5 12 -16 12q-14 1 -31 -12.5t-36.5 -39t-40.5 -63t-42 -83.5q-13 -29 -21.5 -62.5t-9.5 -64t6 -53.5t25 -30q14 -6 29.5 3t31 28t32 46t32 56.5t30 59t27.5 54.5q14 33 27.5 62.5t22.5 53t12 40t-3 22.5q-7 6 6.5 14t33.5 9t41.5 -9
t30.5 -40q9 -29 -3 -70.5t-33.5 -86.5t-46 -89t-41 -78.5t-19 -55t20.5 -18.5q9 1 25 16t35 38.5t39.5 52.5t38 58t31.5 55t20 43q3 8 10 10t13 0t9.5 -8t-0.5 -13q-8 -17 -23 -46.5t-35.5 -63t-44.5 -67.5t-49.5 -62t-51.5 -46t-50 -18q-38 -2 -57 31t-14 84
q-19 -31 -40 -56.5t-45.5 -40.5t-52 -18t-60.5 11q-40 16 -57.5 47t-20.5 67.5t6 76t22 72.5q24 61 53.5 104.5t62.5 71t68 39.5t71 11q12 -1 25.5 -4.5t25 -11.5t19.5 -21.5t8 -33.5q0 -22 -10 -30q-8 -9 -21 -9q-12 0 -21.5 8t-9.5 21zM121 535q-8 -27 -13.5 -14.5
t9.5 61.5q13 40 29 58t35 21t39.5 -5t41.5 -20q15 -11 37 -20t44 -12t39.5 3t23.5 24q4 14 7.5 13.5t4.5 -8.5t-1.5 -20.5t-9.5 -22.5q-8 -11 -23 -20.5t-36.5 -13.5t-50 -1.5t-64.5 15.5q-19 5 -36.5 8t-32 0t-26 -13.5t-17.5 -32.5z" />
    <glyph glyph-name="otilde" unicode="&#xf5;" horiz-adv-x="425" 
d="M318 430q0 -16 -6 -23q-8 -15 -25 -15q-12 0 -21.5 8t-9.5 21q0 8 4.5 15t11.5 12q-8 14 -18.5 14t-22.5 -8.5t-24.5 -23t-24.5 -29.5q-21 -27 -40.5 -62.5t-34.5 -73t-24 -74t-9.5 -66.5t8.5 -49.5t30 -23.5q15 -3 33.5 13.5t37 42.5t36 56.5t30.5 56.5q-21 9 -29 29.5
t-5 41.5t16 37t33 16q7 0 18 -1t19 -10.5t9 -30.5t-11 -61q40 1 64 11t37.5 22t18 23.5t6.5 14.5q3 7 9.5 8.5t12.5 -1.5t9 -9.5t0 -14.5q-8 -19 -25 -35t-39.5 -27t-50 -17t-55.5 -5q-14 -31 -35.5 -69t-49.5 -70.5t-61.5 -53.5t-71.5 -18q-50 5 -78.5 42t-30.5 90
q-1 40 8 83.5t27 85.5t44 79.5t58.5 65.5t71 43t80.5 13q19 -1 31.5 -8.5t20.5 -18t12 -23t6 -23.5zM72 535q-8 -27 -13.5 -14.5t9.5 61.5q13 40 29 58t35 21t39.5 -5t41.5 -20q15 -11 37 -20t44 -12t39.5 3t23.5 24q4 14 7.5 13.5t4.5 -8.5t-1.5 -20.5t-9.5 -22.5
q-8 -11 -23 -20.5t-36.5 -13.5t-50 -1.5t-64.5 15.5q-19 5 -36.5 8t-32 0t-26 -13.5t-17.5 -32.5z" />
    <glyph glyph-name="ntilde" unicode="&#xf1;" horiz-adv-x="486" 
d="M385 376q-2 -34 -15 -71.5t-29.5 -73.5t-33 -68.5t-25.5 -56.5t-7.5 -38.5t21.5 -14.5q9 0 25 14.5t35 38t39.5 53t38.5 58.5t32 55.5t20 43.5q3 8 10 10t13 0t9.5 -8t-0.5 -13q-8 -17 -23 -46.5t-35.5 -63t-44.5 -67.5t-49.5 -62t-51.5 -46t-50 -18q-20 -1 -34 9.5
t-23 28.5t-12.5 40.5t-0.5 45.5q5 41 19 81t30.5 76.5t32.5 67t24 53t5.5 34.5t-23.5 11q-11 -1 -31 -17.5t-43.5 -42t-47.5 -56t-43 -58.5q-19 -39 -39.5 -77.5t-36.5 -72.5t-23.5 -60t-0.5 -40q4 -8 -6.5 -16.5t-27 -9t-34 10.5t-26.5 41q-8 24 1 63t26 83.5t38 91
t38 85.5t25 67t0 36q-7 6 6.5 14t34 9t41.5 -9t30 -40q4 -13 3 -28.5t-5 -32.5q19 22 38.5 42t39.5 35t39 24t37 9q39 1 58 -34t12 -90zM102 535q-8 -27 -13.5 -14.5t9.5 61.5q13 40 29 58t35 21t39.5 -5t41.5 -20q15 -11 37 -20t44 -12t39.5 3t23.5 24q4 14 7.5 13.5
t4.5 -8.5t-1.5 -20.5t-9.5 -22.5q-8 -11 -23 -20.5t-36.5 -13.5t-50 -1.5t-64.5 15.5q-19 5 -36.5 8t-32 0t-26 -13.5t-17.5 -32.5z" />
    <glyph glyph-name="oslash" unicode="&#xf8;" horiz-adv-x="425" 
d="M347 491q-2 7 8.5 9.5t23 -0.5t24 -12.5t11.5 -26.5q1 -19 -28.5 -59.5t-76.5 -91.5q3 -23 -10 -68q40 1 64 11t37.5 22t18 23.5t6.5 14.5q3 7 9.5 8.5t12.5 -1.5t9 -9.5t0 -14.5q-8 -19 -25 -35t-39.5 -27t-50 -17t-55.5 -5q-14 -31 -35.5 -69t-49.5 -70.5t-61.5 -53.5
t-71.5 -18t-65 27q-38 -27 -49 -21q-3 2 4.5 14.5t22.5 32.5q-21 35 -22 79q-1 40 8 83.5t27 85.5t44 79.5t58.5 65.5t71 43t80.5 13q32 -2 47.5 -21.5t20.5 -39.5q15 19 23.5 31.5t7.5 17.5zM78 169q50 57 103 116.5t95 108.5q-8 3 -14 10t-6 17q0 8 4.5 15t11.5 12
q-8 14 -18.5 14t-22.5 -8.5t-24.5 -23t-24.5 -29.5q-18 -23 -34.5 -51t-30 -59t-24 -62.5t-15.5 -59.5zM233 230q-39 -39 -79.5 -76t-76.5 -68q9 -30 35 -34q15 -3 33.5 13.5t37 42.5t36 56.5t30.5 56.5q-8 3 -16 9z" />
    <glyph glyph-name="imacron" unicode="&#x12b;" 
d="M262 305q-8 -17 -23 -46.5t-35.5 -63t-44.5 -67.5t-49.5 -62t-51.5 -46t-50 -18q-20 -1 -34.5 8t-23.5 25.5t-12 40t0 50.5q4 33 15.5 70t26.5 74t30.5 71.5t27 62.5t16 47t-2.5 26q-7 6 6.5 14t33.5 9t41.5 -9t30.5 -40q9 -29 -3 -70.5t-33.5 -86.5t-46 -89t-41 -78.5
t-19 -55t20.5 -18.5q10 1 25.5 16t34.5 38.5t39 52.5t38 58t32 55t20 43q3 8 10 10t13 0t9.5 -8t-0.5 -13zM-38 645q11 9 36.5 11t57.5 1t66.5 -4t64 -5t49 -1.5t22.5 6.5q2 4 9 -1.5t11.5 -15.5t3 -23t-14.5 -23q-12 -9 -37 -10.5t-56.5 0.5t-65 7t-63 8t-50.5 3t-27 -7
q-3 -4 -9.5 0t-10 12.5t-1.5 19.5t15 22z" />
    <glyph glyph-name="lslash" unicode="&#x142;" 
d="M262 305q-8 -17 -23 -46.5t-35.5 -63t-44.5 -67.5t-49.5 -62t-51.5 -46t-50 -18q-20 -1 -34.5 8t-23.5 25.5t-12 40t0 50.5q2 18 10 44.5t19.5 59.5t26 70.5t31.5 77.5q-29 4 -48.5 11t-21.5 18q-2 9 26 16.5t69 15.5q26 62 51.5 122t44.5 108.5t28.5 80t3.5 37.5
q-7 6 6.5 14t33.5 9t41.5 -9t30.5 -40q5 -17 -1 -47t-19.5 -69t-33.5 -85t-42 -94q18 5 30 9t15 9q4 6 13 1t16 -16t8.5 -25.5t-9.5 -26.5q-14 -16 -45 -25t-69 -14q-31 -64 -59 -123t-46 -104.5t-21.5 -72.5t14.5 -25q10 1 25.5 16t34.5 38.5t39 52.5t38 58t32 55t20 43
q3 8 10 10t13 0t9.5 -8t-0.5 -13z" />
    <glyph glyph-name="ae" unicode="&#xe6;" horiz-adv-x="670" 
d="M696 325q12 -8 6 -22q-17 -36 -40.5 -75.5t-53 -77t-62.5 -69t-68.5 -51.5t-72.5 -26t-73 9q-23 9 -38.5 23.5t-25 32.5t-13 39t-2.5 44l-23 -35q-19 -31 -40 -56.5t-45.5 -40.5t-52 -18t-60.5 11q-40 16 -57.5 47t-20.5 67.5t6 76t22 72.5q24 61 53.5 104.5t62.5 71
t68 39.5t71 11q12 -1 25.5 -4.5t25 -11.5t19.5 -21.5t8 -33.5q0 -22 -10 -30q-8 -9 -21 -9q-12 0 -21.5 8t-9.5 21q0 8 4.5 15t11.5 12q-5 12 -16 12q-14 1 -31 -12.5t-36.5 -39t-40.5 -63t-42 -83.5q-13 -29 -21.5 -62.5t-9.5 -64t6 -53.5t25 -30q14 -6 29.5 3t31 28t32 46
t32 56.5t30 59t27.5 54.5q14 33 27.5 62.5t22.5 53t12 40t-3 22.5q-6 5 3 12t25.5 10t35.5 -1t33 -20q23 12 47.5 17.5t48.5 6.5q37 0 54.5 -18t17.5 -47t-16 -64t-45.5 -68.5t-71.5 -61t-94 -41.5q-7 -26 -10 -51.5t-1 -46.5t9.5 -35t22.5 -17q22 -4 47.5 6.5t52 31.5
t52 49t48 59t40 61.5t27.5 56.5q3 8 10.5 11t15.5 -2zM403 262q-5 -11 -8 -20q60 21 98.5 57.5t57.5 72t19.5 61.5t-17.5 27q-27 1 -68 -52t-82 -146z" />
    <glyph glyph-name="dcaron" unicode="&#x10f;" horiz-adv-x="521" 
d="M614 720q-3 6 9.5 10.5t29.5 4t32 -7.5t18 -24q6 -38 -5.5 -73.5t-31 -61.5t-43 -38t-43.5 -2q-10 5 1.5 21.5t25 42t20 58t-12.5 70.5zM253 421q0 8 4.5 15t11.5 12q-5 12 -16 12q-14 1 -31 -12.5t-36.5 -39t-40.5 -63t-42 -83.5q-13 -29 -21.5 -62.5t-9.5 -64t6 -53.5
t25 -30q21 -9 44 13.5t47 60.5t46.5 84t41.5 84q19 49 42 103.5t45.5 107.5t43 102t35 87.5t21 63t1.5 29.5q-7 6 6.5 14t33.5 9t41.5 -9t30.5 -40q7 -22 -4 -64.5t-32.5 -96.5t-50.5 -116.5t-58.5 -123.5t-56 -117.5t-43 -99t-19 -67.5t14.5 -23q10 1 25.5 16t34.5 38.5
t39 52.5t38 58t32 55t20 43q3 8 10 10t13 0t9.5 -8t-0.5 -13q-8 -17 -23 -46.5t-35.5 -63t-44.5 -67.5t-49.5 -62t-51.5 -46t-50 -18q-38 -2 -56.5 30.5t-14.5 82.5q-19 -31 -40 -55.5t-45 -39.5t-52 -18t-60 11q-40 16 -57.5 47t-20.5 67.5t6 76t22 72.5q24 61 53.5 104.5
t62.5 71t68 39.5t71 11q12 -1 25.5 -4.5t25 -11.5t19.5 -21.5t8 -33.5t-9 -29q-8 -10 -22 -10q-12 0 -21.5 8t-9.5 21z" />
    <glyph glyph-name="lacute" unicode="&#x13a;" 
d="M262 305q4 7 0.5 13t-9.5 8t-13 0t-10 -10q-6 -17 -20 -43t-32 -55t-38 -58t-39 -52.5t-34.5 -38.5t-25.5 -16q-17 -2 -14.5 23t19 67.5t43 99t56 117.5t58.5 123.5t50.5 116.5t32.5 96.5t4 64.5q-9 30 -30.5 40t-41.5 9t-33.5 -9t-6.5 -14q7 -7 -7 -49t-39.5 -104.5
t-57.5 -137t-61 -146t-50 -131.5t-25 -93q-3 -27 0 -50.5t12 -40t23.5 -25.5t34.5 -8q24 0 50 18t51.5 46t49.5 62t44.5 67.5t35.5 63t23 46.5zM281 1026q-2 7 11.5 8t30.5 -4t31.5 -16t14.5 -28q1 -28 -12 -58.5t-32.5 -53.5t-40.5 -35t-35 -3q-9 6 -4.5 32t13.5 57.5
t17.5 60t5.5 40.5z" />
    <glyph glyph-name="lcaron" unicode="&#x13e;" 
d="M334 720q-3 6 9.5 10.5t29.5 4t32 -7.5t18 -24q6 -38 -5.5 -73.5t-31 -61.5t-43 -38t-43.5 -2q-10 5 1.5 21.5t25 42t20 58t-12.5 70.5zM262 305q-8 -17 -23 -46.5t-35.5 -63t-44.5 -67.5t-49.5 -62t-51.5 -46t-50 -18q-20 -1 -34.5 8t-23.5 25.5t-12 40t0 50.5
q4 33 25 93t50 131.5t61 146t57.5 137t39.5 104.5t7 49q-7 6 6.5 14t33.5 9t41.5 -9t30.5 -40q7 -22 -4 -64.5t-32.5 -96.5t-50.5 -116.5t-58.5 -123.5t-56 -117.5t-43 -99t-19 -67.5t14.5 -23q10 1 25.5 16t34.5 38.5t39 52.5t38 58t32 55t20 43q3 8 10 10t13 0t9.5 -8
t-0.5 -13z" />
    <glyph glyph-name="circumflex" unicode="&#x2c6;" horiz-adv-x="833" 
d="M325 688q5 1 21 -18t34.5 -43t35.5 -44.5t25 -21.5q12 -2 9 -7t-14.5 -10t-27.5 -6.5t-31 4.5q-20 9 -37 22t-35 34q-29 -26 -49 -36t-41 -20q-17 -8 -32 -2t-24 15.5t-11 18t7 6.5q4 -1 17.5 6.5t31 19t38 25.5t38 26.5t30 21t15.5 9.5z" />
    <glyph glyph-name="caron" unicode="&#x2c7;" horiz-adv-x="361" 
d="M159 525q-5 -1 -21 18t-34.5 43t-36 44.5t-24.5 21.5q-12 1 -9 6.5t14.5 10.5t27.5 6.5t31 -4.5q20 -9 37 -22t35 -34q29 26 49 36t41 20q17 7 32 1.5t24 -15t11 -18t-7 -6.5q-4 1 -17.5 -6.5t-31 -19t-38 -25.5t-38 -26.5t-30 -21t-15.5 -9.5z" />
    <glyph glyph-name="acircumflex" unicode="&#xe2;" horiz-adv-x="523" 
d="M253 421q0 8 4.5 15t11.5 12q-5 12 -16 12q-14 1 -31 -12.5t-36.5 -39t-40.5 -63t-42 -83.5q-13 -29 -21.5 -62.5t-9.5 -64t6 -53.5t25 -30q14 -6 29.5 3t31 28t32 46t32 56.5t30 59t27.5 54.5q14 33 27.5 62.5t22.5 53t12 40t-3 22.5q-7 6 6.5 14t33.5 9t41.5 -9
t30.5 -40q9 -29 -3 -70.5t-33.5 -86.5t-46 -89t-41 -78.5t-19 -55t20.5 -18.5q9 1 25 16t35 38.5t39.5 52.5t38 58t31.5 55t20 43q3 8 10 10t13 0t9.5 -8t-0.5 -13q-8 -17 -23 -46.5t-35.5 -63t-44.5 -67.5t-49.5 -62t-51.5 -46t-50 -18q-38 -2 -57 31t-14 84
q-19 -31 -40 -56.5t-45.5 -40.5t-52 -18t-60.5 11q-40 16 -57.5 47t-20.5 67.5t6 76t22 72.5q24 61 53.5 104.5t62.5 71t68 39.5t71 11q12 -1 25.5 -4.5t25 -11.5t19.5 -21.5t8 -33.5q0 -22 -10 -30q-8 -9 -21 -9q-12 0 -21.5 8t-9.5 21zM284 688q5 1 21 -18t34.5 -43
t35.5 -44.5t25 -21.5q12 -2 9 -7t-14.5 -10t-27.5 -6.5t-31 4.5q-20 9 -37 22t-35 34q-29 -26 -49 -36t-41 -20q-17 -8 -32 -2t-24 15.5t-11 18t7 6.5q4 -1 17.5 6.5t31 19t38 25.5t38 26.5t30 21t15.5 9.5z" />
    <glyph glyph-name="ecircumflex" unicode="&#xea;" horiz-adv-x="370" 
d="M396 325q12 -8 6 -22q-17 -36 -40.5 -75.5t-53 -77t-62.5 -69t-68.5 -51.5t-72.5 -26t-73 9q-40 16 -57.5 46.5t-20.5 67.5t6 76.5t22 72.5q24 61 53.5 103.5t62.5 69.5t68 40t71 13q37 0 54.5 -18t17.5 -47t-16 -64t-45.5 -68.5t-71.5 -61t-94 -41.5q-7 -26 -10 -51.5
t-1 -46.5t9.5 -35t22.5 -17q22 -4 47.5 6.5t52 31.5t52 49t48 59t40 61.5t27.5 56.5q3 8 10.5 11t15.5 -2zM103 262q-5 -11 -8 -20q60 21 98.5 57.5t57.5 72t19.5 61.5t-17.5 27q-27 1 -68 -52t-82 -146zM208 688q5 1 21 -18t34.5 -43t35.5 -44.5t25 -21.5q12 -2 9 -7
t-14.5 -10t-27.5 -6.5t-31 4.5q-20 9 -37 22t-35 34q-29 -26 -49 -36t-41 -20q-17 -8 -32 -2t-24 15.5t-11 18t7 6.5q4 -1 17.5 6.5t31 19t38 25.5t38 26.5t30 21t15.5 9.5z" />
    <glyph glyph-name="ocircumflex" unicode="&#xf4;" horiz-adv-x="425" 
d="M318 430q0 -16 -6 -23q-8 -15 -25 -15q-12 0 -21.5 8t-9.5 21q0 8 4.5 15t11.5 12q-8 14 -18.5 14t-22.5 -8.5t-24.5 -23t-24.5 -29.5q-21 -27 -40.5 -62.5t-34.5 -73t-24 -74t-9.5 -66.5t8.5 -49.5t30 -23.5q15 -3 33.5 13.5t37 42.5t36 56.5t30.5 56.5q-21 9 -29 29.5
t-5 41.5t16 37t33 16q7 0 18 -1t19 -10.5t9 -30.5t-11 -61q40 1 64 11t37.5 22t18 23.5t6.5 14.5q3 7 9.5 8.5t12.5 -1.5t9 -9.5t0 -14.5q-8 -19 -25 -35t-39.5 -27t-50 -17t-55.5 -5q-14 -31 -35.5 -69t-49.5 -70.5t-61.5 -53.5t-71.5 -18q-50 5 -78.5 42t-30.5 90
q-1 40 8 83.5t27 85.5t44 79.5t58.5 65.5t71 43t80.5 13q19 -1 31.5 -8.5t20.5 -18t12 -23t6 -23.5zM235 688q5 1 21 -18t34.5 -43t35.5 -44.5t25 -21.5q12 -2 9 -7t-14.5 -10t-27.5 -6.5t-31 4.5q-20 9 -37 22t-35 34q-29 -26 -49 -36t-41 -20q-17 -8 -32 -2t-24 15.5
t-11 18t7 6.5q4 -1 17.5 6.5t31 19t38 25.5t38 26.5t30 21t15.5 9.5z" />
    <glyph glyph-name="ucircumflex" unicode="&#xfb;" horiz-adv-x="459" 
d="M492 305q-8 -17 -23 -46.5t-35.5 -63t-44.5 -67.5t-49.5 -62t-51.5 -46t-50 -18q-20 -1 -34.5 8t-23.5 25.5t-12 40t0 50.5q0 5 1 9.5t2 9.5q-19 -28 -39.5 -53.5t-41.5 -45.5t-42 -32t-40 -12q-20 -1 -34.5 8t-23.5 25.5t-12 40t0 50.5q4 33 15.5 70t26.5 74t30.5 71.5
t27 62.5t16 47t-2.5 26q-7 6 6.5 14t33.5 9t41.5 -9t30.5 -40q9 -29 -3 -70.5t-33.5 -86.5t-46 -89t-41 -78.5t-19 -55t20.5 -18.5q12 1 35 25t48.5 59.5t50 75t40.5 70.5q15 35 29.5 67t25 58.5t14.5 44.5t-3 24t6.5 14t33.5 9t41.5 -9t30.5 -40q9 -29 -3 -70.5
t-33.5 -86.5t-46 -89t-41 -78.5t-19 -55t20.5 -18.5q9 1 25 16t35 38.5t39 52.5t38 58t32 55t20 43q3 8 10 10t13 0t9.5 -8t-0.5 -13zM252 688q5 1 21 -18t34.5 -43t35.5 -44.5t25 -21.5q12 -2 9 -7t-14.5 -10t-27.5 -6.5t-31 4.5q-20 9 -37 22t-35 34q-29 -26 -49 -36
t-41 -20q-17 -8 -32 -2t-24 15.5t-11 18t7 6.5q4 -1 17.5 6.5t31 19t38 25.5t38 26.5t30 21t15.5 9.5z" />
    <glyph glyph-name="scaron" unicode="&#x161;" horiz-adv-x="337" 
d="M119 23l-1 -1q-22 -11 -42 -17t-34 -6q-40 0 -61.5 20.5t-28.5 48.5t-2 56t19 43q20 21 36 28t27 5q11 -1 20.5 -9t9.5 -20q0 -13 -9.5 -22t-21.5 -9q-9 0 -17 5.5t-11 14.5q-13 -15 -18 -36t-2 -40t15.5 -32.5t34.5 -14.5q8 0 23 7.5t30.5 25t27.5 45t14.5 66.5t-8.5 91
t-42 117q-10 -19 -22.5 -41.5t-22.5 -42.5q-5 -7 -12 -8t-13 1.5t-8.5 8t1.5 12.5q8 17 15 30.5t14 25.5t13 24.5t13 26.5q-11 16 -17 35t-6 40q0 9 3.5 22.5t12 27t23.5 23t39 9.5q25 0 36.5 -11t12.5 -28t-7 -37.5t-21 -40.5l-3 -6q39 -45 62.5 -86t35.5 -78t13.5 -69
t-5.5 -60q33 38 59 75t43 70q3 7 9 9.5t15 -2.5q7 -4 8.5 -11t-1.5 -13q-24 -49 -55.5 -92t-69.5 -86q-27 -30 -56.5 -54t-66.5 -40h-1zM111 613q-5 -1 -21 18t-34.5 43t-36 44.5t-24.5 21.5q-12 1 -9 6.5t14.5 10.5t27.5 6.5t31 -4.5q20 -9 37 -22t35 -34q29 26 49 36
t41 20q17 7 32 1.5t24 -15t11 -18t-7 -6.5q-4 1 -17.5 -6.5t-31 -19t-38 -25.5t-38 -26.5t-30 -21t-15.5 -9.5z" />
    <glyph glyph-name="zcaron" unicode="&#x17e;" horiz-adv-x="469" 
d="M470 316q2 7 8.5 9.5t13.5 0.5q8 -2 11 -8t-1 -14q-10 -22 -25 -49.5t-32 -56.5q-21 -36 -47 -71t-54.5 -63t-60.5 -45.5t-65 -18.5q-24 0 -41.5 3.5t-33 8t-31 8t-36.5 3.5q-29 0 -49.5 -4t-33.5 -6.5t-18.5 -1t-5.5 12.5q0 13 14.5 37.5t38 56t54 69t62.5 77.5
t63.5 79.5t56.5 76.5q-24 1 -40 8.5t-28 16t-24 15t-29 6.5q-26 0 -45.5 -17.5t-19.5 -43.5q0 -31 22.5 -50.5t54.5 -16.5q6 1 2 -8t-14.5 -20.5t-26.5 -21t-35 -9.5q-35 0 -59.5 22t-24.5 54q0 30 10.5 56t29 45.5t43 30.5t52.5 11q21 0 36.5 -5.5t33 -12t38.5 -12t53 -5.5
q31 0 51 1.5t34.5 4t25 4t23.5 1.5q12 0 12 -10q0 -5 -6 -11.5t-20.5 -21.5t-38.5 -40.5t-59.5 -67.5t-85 -103.5t-113.5 -147.5q11 0 23 -5.5t25 -12t27 -12.5t31 -6q31 -1 62.5 19t60.5 51.5t54.5 70t45.5 75.5q10 18 18 33.5t13 30.5zM212 525q-5 -1 -21 18t-34.5 43
t-36 44.5t-24.5 21.5q-12 1 -9 6.5t14.5 10.5t27.5 6.5t31 -4.5q20 -9 37 -22t35 -34q29 26 49 36t41 20q17 7 32 1.5t24 -15t11 -18t-7 -6.5q-4 1 -17.5 -6.5t-31 -19t-38 -25.5t-38 -26.5t-30 -21t-15.5 -9.5z" />
    <glyph glyph-name="ccaron" unicode="&#x10d;" horiz-adv-x="373" 
d="M256 421q0 8 4.5 15t11.5 12q-5 12 -16 12q-14 1 -31 -12.5t-36.5 -39t-40.5 -63t-42 -83.5q-13 -29 -21.5 -64t-10 -66t5.5 -53.5t26 -26.5q22 -4 47.5 6.5t52 31.5t52 49t48 59t40 61.5t27.5 56.5q3 8 10 10.5t15 -1.5q13 -7 7 -21q-16 -35 -39.5 -74.5t-52.5 -76.5
t-62.5 -69.5t-69 -53t-73 -26.5t-73.5 9q-40 16 -57.5 47t-20.5 67.5t6 76t22 72.5q24 61 53.5 104.5t62.5 71t68 39.5t71 11q12 -1 25.5 -4.5t25 -11.5t19.5 -21.5t8 -33.5t-9 -29q-8 -10 -22 -10q-12 0 -21.5 8t-9.5 21zM164 525q-5 -1 -21 18t-34.5 43t-36 44.5
t-24.5 21.5q-12 1 -9 6.5t14.5 10.5t27.5 6.5t31 -4.5q20 -9 37 -22t35 -34q29 26 49 36t41 20q17 7 32 1.5t24 -15t11 -18t-7 -6.5q-4 1 -17.5 -6.5t-31 -19t-38 -25.5t-38 -26.5t-30 -21t-15.5 -9.5z" />
    <glyph glyph-name="ecaron" unicode="&#x11b;" horiz-adv-x="370" 
d="M396 325q12 -8 6 -22q-17 -36 -40.5 -75.5t-53 -77t-62.5 -69t-68.5 -51.5t-72.5 -26t-73 9q-40 16 -57.5 46.5t-20.5 67.5t6 76.5t22 72.5q24 61 53.5 103.5t62.5 69.5t68 40t71 13q37 0 54.5 -18t17.5 -47t-16 -64t-45.5 -68.5t-71.5 -61t-94 -41.5q-7 -26 -10 -51.5
t-1 -46.5t9.5 -35t22.5 -17q22 -4 47.5 6.5t52 31.5t52 49t48 59t40 61.5t27.5 56.5q3 8 10.5 11t15.5 -2zM103 262q-5 -11 -8 -20q60 21 98.5 57.5t57.5 72t19.5 61.5t-17.5 27q-27 1 -68 -52t-82 -146zM162 525q-5 -1 -21 18t-34.5 43t-36 44.5t-24.5 21.5q-12 1 -9 6.5
t14.5 10.5t27.5 6.5t31 -4.5q20 -9 37 -22t35 -34q29 26 49 36t41 20q17 7 32 1.5t24 -15t11 -18t-7 -6.5q-4 1 -17.5 -6.5t-31 -19t-38 -25.5t-38 -26.5t-30 -21t-15.5 -9.5z" />
    <glyph glyph-name="ncaron" unicode="&#x148;" horiz-adv-x="486" 
d="M385 376q-2 -34 -15 -71.5t-29.5 -73.5t-33 -68.5t-25.5 -56.5t-7.5 -38.5t21.5 -14.5q9 0 25 14.5t35 38t39.5 53t38.5 58.5t32 55.5t20 43.5q3 8 10 10t13 0t9.5 -8t-0.5 -13q-8 -17 -23 -46.5t-35.5 -63t-44.5 -67.5t-49.5 -62t-51.5 -46t-50 -18q-20 -1 -34 9.5
t-23 28.5t-12.5 40.5t-0.5 45.5q5 41 19 81t30.5 76.5t32.5 67t24 53t5.5 34.5t-23.5 11q-11 -1 -31 -17.5t-43.5 -42t-47.5 -56t-43 -58.5q-19 -39 -39.5 -77.5t-36.5 -72.5t-23.5 -60t-0.5 -40q4 -8 -6.5 -16.5t-27 -9t-34 10.5t-26.5 41q-8 24 1 63t26 83.5t38 91
t38 85.5t25 67t0 36q-7 6 6.5 14t34 9t41.5 -9t30 -40q4 -13 3 -28.5t-5 -32.5q19 22 38.5 42t39.5 35t39 24t37 9q39 1 58 -34t12 -90zM220 525q-5 -1 -21 18t-34.5 43t-36 44.5t-24.5 21.5q-12 1 -9 6.5t14.5 10.5t27.5 6.5t31 -4.5q20 -9 37 -22t35 -34q29 26 49 36
t41 20q17 7 32 1.5t24 -15t11 -18t-7 -6.5q-4 1 -17.5 -6.5t-31 -19t-38 -25.5t-38 -26.5t-30 -21t-15.5 -9.5z" />
    <glyph glyph-name="icircumflex" unicode="&#xee;" 
d="M262 305q-8 -17 -23 -46.5t-35.5 -63t-44.5 -67.5t-49.5 -62t-51.5 -46t-50 -18q-20 -1 -34.5 8t-23.5 25.5t-12 40t0 50.5q4 33 15.5 70t26.5 74t30.5 71.5t27 62.5t16 47t-2.5 26q-7 6 6.5 14t33.5 9t41.5 -9t30.5 -40q9 -29 -3 -70.5t-33.5 -86.5t-46 -89t-41 -78.5
t-19 -55t20.5 -18.5q10 1 25.5 16t34.5 38.5t39 52.5t38 58t32 55t20 43q3 8 10 10t13 0t9.5 -8t-0.5 -13zM138 688q5 1 21 -18t34.5 -43t35.5 -44.5t25 -21.5q12 -2 9 -7t-14.5 -10t-27.5 -6.5t-31 4.5q-20 9 -37 22t-35 34q-29 -26 -49 -36t-41 -20q-17 -8 -32 -2
t-24 15.5t-11 18t7 6.5q4 -1 17.5 6.5t31 19t38 25.5t38 26.5t30 21t15.5 9.5z" />
    <glyph glyph-name="rcaron" unicode="&#x159;" horiz-adv-x="368" 
d="M29 295q-3 -6 -9.5 -8t-12 0t-9 7.5t-0.5 13.5q3 9 11 27.5t16 39t16 40t11 32.5q-23 11 -39.5 35t-16.5 48q0 31 16 53t48 22q20 0 34.5 -16.5t15.5 -39.5q0 -13 -1.5 -36t-5.5 -38q5 -4 13.5 -5t18.5 -1q22 0 34.5 5t21.5 10.5t18 10.5t24 5q20 0 40 -10t29 -39
t-3 -70.5t-33.5 -86.5t-46 -89t-41 -78.5t-19 -55t20.5 -18.5q9 1 25 16t35 38.5t39 52.5t38 58t32 55t20 43q3 8 10 10t13 0t9.5 -8t-0.5 -13q-8 -17 -23 -46.5t-35.5 -63t-44.5 -67.5t-49.5 -62t-51.5 -46t-50 -18q-20 -1 -34.5 8t-23.5 25.5t-12 40t0 50.5q4 39 19 83
t33 86.5t35 79.5t25 63q-21 -8 -47.5 -9.5t-52.5 5.5q-3 -7 -10.5 -25.5t-16.5 -40t-18 -42t-15 -31.5zM171 555q-5 -1 -21 18t-34.5 43t-36 44.5t-24.5 21.5q-12 1 -9 6.5t14.5 10.5t27.5 6.5t31 -4.5q20 -9 37 -22t35 -34q29 26 49 36t41 20q17 7 32 1.5t24 -15t11 -18
t-7 -6.5q-4 1 -17.5 -6.5t-31 -19t-38 -25.5t-38 -26.5t-30 -21t-15.5 -9.5z" />
    <glyph glyph-name="breve" unicode="&#x2d8;" horiz-adv-x="361" 
d="M159 525q-36 3 -57 21t-32 40t-14 42t-3 28q0 10 3.5 18t9.5 11t13.5 -1t14.5 -18q4 -8 10.5 -17.5t16 -18.5t21.5 -15.5t26 -7.5q19 -2 36 3t31.5 13t26.5 17t22 15q23 16 32 6.5t0 -26.5q-3 -5 -15.5 -24t-33 -39t-48 -35t-60.5 -12z" />
    <glyph glyph-name="B" unicode="B" horiz-adv-x="931" 
d="M954 153q2 -8 -3 -15t-13 -9q-55 -13 -111.5 -30.5t-113.5 -37.5q1 -1 1 -2q26 -53 32 -114q9 -89 -37.5 -167t-144.5 -138q-53 -32 -115.5 -55t-124.5 -32q-38 -6 -71 -6q-10 0 -19 0.5t-17 1.5q-51 6 -80 27q-36 28 -41 59t2 54q11 40 45 79.5t78 75t91 65t84 50.5
q72 41 154 77q-6 13 -12 25t-14 23q-23 -4 -44.5 -4t-43.5 2q-34 4 -55 27q-18 22 -13 52q3 17 14 34t31 29l2 2q30 19 75 19q47 0 94 -30q49 41 83 96q11 18 21 40.5t16.5 49t7 55.5t-8.5 61q-17 63 -54 104t-85.5 61.5t-104.5 19.5t-111 -23q-54 -22 -95 -60t-69 -83.5
t-44 -95t-19.5 -94t5 -80.5t28.5 -54q7 -7 4.5 -15t-11.5 -15.5t-22.5 -12.5t-28.5 -5.5t-30 5t-26 20.5q-35 43 -40 97.5t12.5 111t53 110.5t81.5 96q41 38 92 67t98 46t97.5 24.5t101 6t98 -12.5t88.5 -31q59 -29 97 -73t53 -101q21 -76 -5 -159q-25 -76 -84 -141
q-24 -29 -53 -52t-61 -42q7 -10 14 -19.5t12 -20.5q120 43 237 72q8 2 14.5 -2.5t7.5 -12.5zM137 -318q-6 -29 2 -46.5t25 -26t41 -9.5t49.5 3.5t50 12.5t44.5 17q71 32 121 75q21 18 41.5 41t36.5 51.5t24 63t4 73.5q-3 33 -12 63q-41 -18 -78.5 -37t-72.5 -39
q-57 -32 -105.5 -64.5t-83.5 -63.5q-73 -64 -87 -114zM180 54q-8 24 4.5 69t35 99t50 111t50 105.5t34 82.5t3.5 42q-5 4 2 9.5t20 9t29.5 4.5t31.5 -3t26 -15t13 -31q4 -38 -9.5 -82t-36 -90.5t-49 -93.5t-49.5 -91t-38 -83t-13 -69q0 -9 -12.5 -17.5t-30 -8.5t-35 11
t-26.5 41z" />
    <glyph glyph-name="R" unicode="R" horiz-adv-x="957" 
d="M866 506q18 -51 17 -103q-1 -48 -17.5 -97t-47.5 -94q-35 -52 -83 -93.5t-105 -67.5q-21 -11 -42.5 -17.5t-42.5 -11.5q39 -26 76.5 -62t75.5 -75t76 -77t78.5 -67.5t83.5 -47t90 -15.5q9 0 7.5 -19t-13.5 -42.5t-34 -43t-53 -20.5q-43 -1 -86.5 29t-87 77t-86.5 103.5
t-83.5 109t-78.5 92.5t-72 55l-20 4t-19 6q-7 2 -11 7.5t-3 13.5q2 16 18 18q46 3 90 21t83 46.5t69.5 66.5t49.5 83q30 70 29.5 142.5t-30 132t-87 99t-142.5 44.5q-63 -1 -118 -28t-98.5 -69.5t-73 -96.5t-42 -109t-6 -105.5t35.5 -86.5q6 -8 -3 -19t-25.5 -18.5t-36 -8.5
t-33.5 10q-33 32 -47.5 70.5t-13.5 79t14 81t34 77.5q31 55 80 103.5t106.5 84.5t120 57t121.5 22q44 1 87.5 -5.5t85 -22.5t81 -43.5t75.5 -69.5q19 -23 33.5 -48.5t23.5 -51.5zM129 -198q-6 18 2 59t24 96t38.5 120t46 130t46 126.5t38.5 110.5t23 81t1 38q-5 4 2.5 9.5
t21.5 9t32 4.5t34 -3t28 -15t14 -31q4 -38 -12.5 -100.5t-43.5 -137t-59.5 -154.5t-60 -152t-45.5 -129.5t-16 -87.5q0 -9 -14 -17.5t-33 -8.5t-38.5 11t-28.5 41z" />
    <glyph glyph-name="P" unicode="P" horiz-adv-x="951" 
d="M860 506q18 -51 17 -103q-1 -48 -17.5 -97t-47.5 -94q-35 -52 -83 -93.5t-105 -67.5q-57 -27 -115 -33q-8 -1 -16.5 -1.5t-16.5 -0.5q-45 0 -83 13q-7 2 -11 7.5t-3 13.5q2 16 18 18q46 3 90 21t83 46.5t69.5 66.5t49.5 83q30 70 29.5 142.5t-30 132t-87 99t-142.5 44.5
q-63 -1 -118 -28t-98.5 -69.5t-73 -96.5t-42 -109t-6 -105.5t35.5 -86.5q6 -8 -3 -19t-25.5 -18.5t-36 -8.5t-33.5 10q-33 32 -47.5 70.5t-13.5 79t14 81t34 77.5q31 55 80 103.5t106.5 84.5t120 57t121.5 22q44 1 87.5 -5.5t85 -22.5t81 -43.5t75.5 -69.5
q19 -23 33.5 -48.5t23.5 -51.5zM123 -198q-6 18 2 59t24 96t38.5 120t46 130t46 126.5t38.5 110.5t23 81t1 38q-5 4 2.5 9.5t21.5 9t32 4.5t34 -3t28 -15t14 -31q4 -38 -12.5 -100.5t-43.5 -137t-59.5 -154.5t-60 -152t-45.5 -129.5t-16 -87.5q0 -9 -14 -17.5t-33 -8.5
t-38.5 11t-28.5 41z" />
    <glyph glyph-name="M" unicode="M" horiz-adv-x="1452" 
d="M1419 743q10 9 29.5 13.5t42.5 5.5t45 -1.5t36 -9t16.5 -16.5t-13.5 -23q-56 -47 -102 -119.5t-81.5 -158.5t-59.5 -181t-36 -187.5t-11 -176.5t16 -149t45 -105.5t75 -44.5q10 -1 13.5 -7t2 -13t-7 -13t-14.5 -7q-82 -9 -137 21.5t-88 87.5t-46 135t-12 165t14.5 176.5
t33.5 169.5t44.5 145t48.5 103q-48 -48 -96 -101t-95 -108q-94 -112 -162 -209q35 -89 39 -155q5 -67 -17 -126q-21 -54 -59 -86q-34 -26 -70 -26q-15 0 -26 4q-2 0 -9.5 3.5t-15 8t-13.5 10t-6 10.5q-24 53 27 176q16 40 45 90q-16 51 -42 106t-53 109q-10 -20 -20 -39.5
t-21 -39.5q-67 -124 -145 -208q-45 -48 -92 -80.5t-96 -48.5q-45 -16 -86 -20.5t-85 5.5q-34 8 -63 26t-50 44q-23 29 -36 66.5t-14 79.5t10 83t32 76q49 80 135 116q98 41 224 17q8 -2 12.5 -7.5t4.5 -13.5q-2 -17 -18 -19q-67 -8 -113.5 -37t-73.5 -69.5t-36.5 -87
t-2.5 -88.5t29.5 -74.5t58 -44.5t83 1.5t106.5 62.5q48 40 88 94.5t70.5 106t50 92t25.5 53.5q-36 69 -62.5 129t-32.5 111q-6 61 9 115q15 51 48 87q21 23 47 34.5t52 10.5q5 0 11 -2h1q27 0 46 -24q20 -24 24 -68t-7 -104q-6 -33 -18 -78t-30 -97l38 -76
q21 -41 41.5 -81.5t37.5 -82.5q32 45 69.5 92.5t80.5 98.5q46 54 94.5 106.5t96.5 100.5t92.5 90t83.5 76z" />
    <glyph glyph-name="O" unicode="O" horiz-adv-x="1099" 
d="M1009 484q18 -103 -9 -222q-13 -58 -36 -115t-55 -108q-63 -104 -155 -181q-49 -40 -105.5 -70t-117 -46.5t-123.5 -19t-125 11.5q-57 12 -105 38t-83 64t-58 90t-32 115q-8 62 -2.5 127.5t23.5 132.5q19 65 50 129t73 122q43 59 92 106.5t103 81.5q31 20 67.5 23.5
t63.5 -3.5t35.5 -22t-15.5 -31q-53 -35 -99.5 -81t-85.5 -100t-68 -113.5t-47 -122.5q-17 -62 -21.5 -123t3 -117t27 -104t50.5 -83q47 -53 107.5 -72t124.5 -11.5t127 36.5t115 73q43 35 80.5 78.5t66.5 92.5q30 49 52 103t34 108t14.5 106t-6.5 99q-9 52 -32.5 99.5
t-57 77.5t-75.5 36.5t-90 -21.5q-48 -27 -89 -72t-66 -97q-23 -51 -31 -106.5t1 -108.5q3 -22 9 -41.5t15 -39t21 -40t28 -45.5q8 -13 3 -24.5t-19 -19.5t-33.5 -12t-40.5 -2.5t-40.5 10t-31.5 24.5q-34 45 -53.5 90t-27.5 94q-9 55 -1 116q5 32 13 62.5t22 59.5t32.5 56.5
t41.5 52.5q44 47 97 78q50 28 103 38.5t104 1.5q45 -8 84.5 -29.5t71.5 -56.5q31 -34 51.5 -78t30.5 -95z" />
    <glyph glyph-name="Q" unicode="Q" horiz-adv-x="1099" 
d="M1009 484q18 -103 -9 -222q-13 -58 -36 -115t-55 -108q-63 -104 -155 -181q-10 -8 -19.5 -15t-19.5 -14q75 -27 148.5 -56.5t140.5 -50.5t126 -26.5t106 16.5q8 4 13.5 -14.5t3.5 -44.5t-14.5 -52.5t-41.5 -39.5q-27 -12 -65 -7.5t-84 20t-98 40t-108 52t-114 55
t-115 50.5q-78 -35 -162 -45.5t-168 8.5q-57 12 -105 38t-83 64t-58 90t-32 115q-8 62 -2.5 127.5t23.5 132.5q19 65 50 129t73 122q43 59 92 106.5t103 81.5q31 20 67.5 23.5t63.5 -3.5t35.5 -22t-15.5 -31q-53 -35 -99.5 -81t-85.5 -100t-68 -113.5t-47 -122.5
q-17 -62 -21.5 -123t3 -117t27 -104t50.5 -83l10.5 -10.5l10.5 -10.5q44 25 91 35t96.5 8.5t101 -13t102.5 -27.5q17 11 32.5 21.5t29.5 22.5q43 35 80.5 78.5t66.5 92.5q30 49 52 103t34 108t14.5 106t-6.5 99q-9 52 -32.5 99.5t-57 77.5t-75.5 36.5t-90 -21.5
q-48 -27 -89 -72t-66 -97q-23 -51 -31 -106.5t1 -108.5q3 -22 9 -41.5t15 -39t21 -40t28 -45.5q8 -13 3 -24.5t-19 -19.5t-33.5 -12t-40.5 -2.5t-40.5 10t-31.5 24.5q-34 45 -53.5 90t-27.5 94q-9 55 -1 116q5 32 13 62.5t22 59.5t32.5 56.5t41.5 52.5q44 47 97 78
q50 28 103 38.5t104 1.5q45 -8 84.5 -29.5t71.5 -56.5q31 -34 51.5 -78t30.5 -95zM553 -206q-66 22 -127.5 29.5t-113.5 -9.5q54 -32 116 -35.5t125 15.5z" />
    <glyph glyph-name="Agrave" unicode="&#xc0;" horiz-adv-x="927" 
d="M956 320q19 -5 14 -24q-6 -19 -24 -28q-20 -12 -59 -11t-103 15h-1q-34 -85 -64 -168.5t-50 -161.5q-6 -24 -10.5 -59t-4 -73t6.5 -74.5t21 -64.5t39.5 -43t61.5 -9q10 1 16 -2.5t7.5 -9t-2 -11.5t-12.5 -9q-53 -17 -105 -8t-92.5 39t-65 78t-22.5 109q0 66 24 161
q22 81 53.5 167t66.5 173q-41 11 -82 23.5t-81 24.5q-32 -56 -66.5 -108t-72.5 -97q-113 -130 -239 -131h-2q-101 0 -156 73q-24 32 -34.5 73.5t-6.5 89.5q4 52 24.5 101.5t54.5 88.5q36 42 86 66q50 26 114 28q69 3 109 -28q35 -28 40 -73v-3q33 -8 64 -15t67 -18
q42 72 84.5 145t88.5 127q23 27 44.5 47t44.5 34q52 32 106 32q43 0 63 -30q16 -25 14.5 -67.5t-21.5 -111.5q-17 -58 -42.5 -125.5t-54.5 -141.5q27 -5 48 -8.5t38 -4.5q23 -2 32.5 0.5t13.5 4.5q1 0 2 1v1q3 8 10 13t15 3zM147 64q40 0 80.5 27t79.5 70.5t75 96.5t67 106
q-31 9 -59 16t-57 14q-5 -15 -12 -26q-24 -35 -61 -46q-35 -11 -53.5 -5t-25.5 13q-18 17 -9 47q6 20 25.5 36.5t46.5 24.5q19 6 53 2q-4 17 -18.5 34.5t-40.5 18.5q-44 1 -77.5 -21t-56.5 -56.5t-36 -75t-17 -76.5q-3 -29 -2.5 -64t9.5 -65t30 -50.5t59 -20.5zM508 390
q40 -11 79.5 -23t79.5 -23q28 72 52.5 137t39.5 119q7 24 13 46t9 38.5t1.5 27.5t-10.5 13q-14 4 -33.5 -10.5t-42.5 -40.5t-48.5 -61.5t-50.5 -74t-48 -77t-41 -71.5zM860 1034q-3 -12 5.5 -40.5t17.5 -60t13.5 -57.5t-4.5 -32q-14 -9 -35 3t-40.5 35t-32.5 53.5t-12 58.5
q0 17 14.5 28t31.5 16t30 4t12 -8z" />
    <glyph glyph-name="Aacute" unicode="&#xc1;" horiz-adv-x="927" 
d="M956 320q-8 2 -15 -3t-10 -13v-1q-1 -1 -2 -1q-4 -2 -13.5 -4.5t-32.5 -0.5q-17 1 -38 4.5t-48 8.5q29 74 54.5 141.5t42.5 125.5q20 69 21.5 111.5t-14.5 67.5q-20 30 -63 30q-54 0 -106 -32q-23 -14 -44.5 -34t-44.5 -47q-46 -54 -88.5 -127t-84.5 -145q-36 11 -67 18
t-64 15v3q-5 45 -40 73q-40 31 -109 28q-64 -2 -114 -28q-50 -24 -86 -66q-34 -39 -54.5 -88.5t-24.5 -101.5q-4 -48 6.5 -89.5t34.5 -73.5q55 -73 156 -73h2q126 1 239 131q38 45 72.5 97t66.5 108q40 -12 81 -24.5t82 -23.5q-35 -87 -66.5 -173t-53.5 -167
q-24 -95 -24 -161q-2 -61 22.5 -109t65 -78t92.5 -39t105 8q9 3 12.5 9t2 11.5t-7.5 9t-16 2.5q-37 -6 -61.5 9t-39.5 43t-21 64.5t-6.5 74.5t4 73t10.5 59q20 78 50 161.5t64 168.5h1q64 -14 103 -15t59 11q18 9 24 28q5 19 -14 24zM147 64q-38 0 -59 20.5t-30 50.5
t-9.5 65t2.5 64q4 36 17 76.5t36 75t56.5 56.5t77.5 21q26 -1 40.5 -18.5t18.5 -34.5q-34 4 -53 -2q-27 -8 -46.5 -24.5t-25.5 -36.5q-9 -30 9 -47q7 -7 25.5 -13t53.5 5q37 11 61 46q7 11 12 26q29 -7 57 -14t59 -16q-31 -53 -67 -106t-75 -96.5t-79.5 -70.5t-80.5 -27z
M508 390q18 33 41 71.5t48 77t50.5 74t48.5 61.5t42.5 40.5t33.5 10.5q9 -2 10.5 -13t-1.5 -27.5t-9 -38.5t-13 -46q-15 -54 -39.5 -119t-52.5 -137q-40 11 -79.5 23t-79.5 23zM846 1034q-2 7 11.5 8t30.5 -4t31.5 -16t14.5 -28q1 -28 -12 -58.5t-32.5 -53.5t-40.5 -35
t-35 -3q-9 6 -4.5 32t13.5 57.5t17.5 60t5.5 40.5z" />
    <glyph glyph-name="Acircumflex" unicode="&#xc2;" horiz-adv-x="927" 
d="M956 320q19 -5 14 -24q-6 -19 -24 -28q-20 -12 -59 -11t-103 15h-1q-34 -85 -64 -168.5t-50 -161.5q-6 -24 -10.5 -59t-4 -73t6.5 -74.5t21 -64.5t39.5 -43t61.5 -9q10 1 16 -2.5t7.5 -9t-2 -11.5t-12.5 -9q-53 -17 -105 -8t-92.5 39t-65 78t-22.5 109q0 66 24 161
q22 81 53.5 167t66.5 173q-41 11 -82 23.5t-81 24.5q-32 -56 -66.5 -108t-72.5 -97q-113 -130 -239 -131h-2q-101 0 -156 73q-24 32 -34.5 73.5t-6.5 89.5q4 52 24.5 101.5t54.5 88.5q36 42 86 66q50 26 114 28q69 3 109 -28q35 -28 40 -73v-3q33 -8 64 -15t67 -18
q42 72 84.5 145t88.5 127q23 27 44.5 47t44.5 34q52 32 106 32q43 0 63 -30q16 -25 14.5 -67.5t-21.5 -111.5q-17 -58 -42.5 -125.5t-54.5 -141.5q27 -5 48 -8.5t38 -4.5q23 -2 32.5 0.5t13.5 4.5q1 0 2 1v1q3 8 10 13t15 3zM147 64q40 0 80.5 27t79.5 70.5t75 96.5t67 106
q-31 9 -59 16t-57 14q-5 -15 -12 -26q-24 -35 -61 -46q-35 -11 -53.5 -5t-25.5 13q-18 17 -9 47q6 20 25.5 36.5t46.5 24.5q19 6 53 2q-4 17 -18.5 34.5t-40.5 18.5q-44 1 -77.5 -21t-56.5 -56.5t-36 -75t-17 -76.5q-3 -29 -2.5 -64t9.5 -65t30 -50.5t59 -20.5zM508 390
q40 -11 79.5 -23t79.5 -23q28 72 52.5 137t39.5 119q7 24 13 46t9 38.5t1.5 27.5t-10.5 13q-14 4 -33.5 -10.5t-42.5 -40.5t-48.5 -61.5t-50.5 -74t-48 -77t-41 -71.5zM847 988q5 1 21 -18t34.5 -43t35.5 -44.5t25 -21.5q12 -2 9 -7t-14.5 -10t-27.5 -6.5t-31 4.5
q-20 9 -37 22t-35 34q-29 -26 -49 -36t-41 -20q-17 -8 -32 -2t-24 15.5t-11 18t7 6.5q4 -1 17.5 6.5t31 19t38 25.5t38 26.5t30 21t15.5 9.5z" />
    <glyph glyph-name="Atilde" unicode="&#xc3;" horiz-adv-x="927" 
d="M956 320q19 -5 14 -24q-6 -19 -24 -28q-20 -12 -59 -11t-103 15h-1q-34 -85 -64 -168.5t-50 -161.5q-6 -24 -10.5 -59t-4 -73t6.5 -74.5t21 -64.5t39.5 -43t61.5 -9q10 1 16 -2.5t7.5 -9t-2 -11.5t-12.5 -9q-53 -17 -105 -8t-92.5 39t-65 78t-22.5 109q0 66 24 161
q22 81 53.5 167t66.5 173q-41 11 -82 23.5t-81 24.5q-32 -56 -66.5 -108t-72.5 -97q-113 -130 -239 -131h-2q-101 0 -156 73q-24 32 -34.5 73.5t-6.5 89.5q4 52 24.5 101.5t54.5 88.5q36 42 86 66q50 26 114 28q69 3 109 -28q35 -28 40 -73v-3q33 -8 64 -15t67 -18
q42 72 84.5 145t88.5 127q23 27 44.5 47t44.5 34q52 32 106 32q43 0 63 -30q16 -25 14.5 -67.5t-21.5 -111.5q-17 -58 -42.5 -125.5t-54.5 -141.5q27 -5 48 -8.5t38 -4.5q23 -2 32.5 0.5t13.5 4.5q1 0 2 1v1q3 8 10 13t15 3zM147 64q40 0 80.5 27t79.5 70.5t75 96.5t67 106
q-31 9 -59 16t-57 14q-5 -15 -12 -26q-24 -35 -61 -46q-35 -11 -53.5 -5t-25.5 13q-18 17 -9 47q6 20 25.5 36.5t46.5 24.5q19 6 53 2q-4 17 -18.5 34.5t-40.5 18.5q-44 1 -77.5 -21t-56.5 -56.5t-36 -75t-17 -76.5q-3 -29 -2.5 -64t9.5 -65t30 -50.5t59 -20.5zM508 390
q40 -11 79.5 -23t79.5 -23q28 72 52.5 137t39.5 119q7 24 13 46t9 38.5t1.5 27.5t-10.5 13q-14 4 -33.5 -10.5t-42.5 -40.5t-48.5 -61.5t-50.5 -74t-48 -77t-41 -71.5zM723 835q-8 -27 -13.5 -14.5t9.5 61.5q13 40 29 58t35 21t39.5 -5t41.5 -20q15 -11 37 -20t44 -12
t39.5 3t23.5 24q4 14 7.5 13.5t4.5 -8.5t-1.5 -20.5t-9.5 -22.5q-8 -11 -23 -20.5t-36.5 -13.5t-50 -1.5t-64.5 15.5q-19 5 -36.5 8t-32 0t-26 -13.5t-17.5 -32.5z" />
    <glyph glyph-name="Adieresis" unicode="&#xc4;" horiz-adv-x="927" 
d="M956 320q19 -5 14 -24q-6 -19 -24 -28q-20 -12 -59 -11t-103 15h-1q-34 -85 -64 -168.5t-50 -161.5q-6 -24 -10.5 -59t-4 -73t6.5 -74.5t21 -64.5t39.5 -43t61.5 -9q10 1 16 -2.5t7.5 -9t-2 -11.5t-12.5 -9q-53 -17 -105 -8t-92.5 39t-65 78t-22.5 109q0 66 24 161
q22 81 53.5 167t66.5 173q-41 11 -82 23.5t-81 24.5q-32 -56 -66.5 -108t-72.5 -97q-113 -130 -239 -131h-2q-101 0 -156 73q-24 32 -34.5 73.5t-6.5 89.5q4 52 24.5 101.5t54.5 88.5q36 42 86 66q50 26 114 28q69 3 109 -28q35 -28 40 -73v-3q33 -8 64 -15t67 -18
q42 72 84.5 145t88.5 127q23 27 44.5 47t44.5 34q52 32 106 32q43 0 63 -30q16 -25 14.5 -67.5t-21.5 -111.5q-17 -58 -42.5 -125.5t-54.5 -141.5q27 -5 48 -8.5t38 -4.5q23 -2 32.5 0.5t13.5 4.5q1 0 2 1v1q3 8 10 13t15 3zM147 64q40 0 80.5 27t79.5 70.5t75 96.5t67 106
q-31 9 -59 16t-57 14q-5 -15 -12 -26q-24 -35 -61 -46q-35 -11 -53.5 -5t-25.5 13q-18 17 -9 47q6 20 25.5 36.5t46.5 24.5q19 6 53 2q-4 17 -18.5 34.5t-40.5 18.5q-44 1 -77.5 -21t-56.5 -56.5t-36 -75t-17 -76.5q-3 -29 -2.5 -64t9.5 -65t30 -50.5t59 -20.5zM508 390
q40 -11 79.5 -23t79.5 -23q28 72 52.5 137t39.5 119q7 24 13 46t9 38.5t1.5 27.5t-10.5 13q-14 4 -33.5 -10.5t-42.5 -40.5t-48.5 -61.5t-50.5 -74t-48 -77t-41 -71.5zM728 895q0 17 13 29t32 12t32 -12t13 -29t-13 -29t-32 -12t-32 12t-13 29zM868 895q0 17 13 29t32 12
t32 -12t13 -29t-13 -29t-32 -12t-32 12t-13 29z" />
    <glyph glyph-name="Abreve" unicode="&#x102;" horiz-adv-x="927" 
d="M956 320q19 -5 14 -24q-6 -19 -24 -28q-20 -12 -59 -11t-103 15h-1q-34 -85 -64 -168.5t-50 -161.5q-6 -24 -10.5 -59t-4 -73t6.5 -74.5t21 -64.5t39.5 -43t61.5 -9q10 1 16 -2.5t7.5 -9t-2 -11.5t-12.5 -9q-53 -17 -105 -8t-92.5 39t-65 78t-22.5 109q0 66 24 161
q22 81 53.5 167t66.5 173q-41 11 -82 23.5t-81 24.5q-32 -56 -66.5 -108t-72.5 -97q-113 -130 -239 -131h-2q-101 0 -156 73q-24 32 -34.5 73.5t-6.5 89.5q4 52 24.5 101.5t54.5 88.5q36 42 86 66q50 26 114 28q69 3 109 -28q35 -28 40 -73v-3q33 -8 64 -15t67 -18
q42 72 84.5 145t88.5 127q23 27 44.5 47t44.5 34q52 32 106 32q43 0 63 -30q16 -25 14.5 -67.5t-21.5 -111.5q-17 -58 -42.5 -125.5t-54.5 -141.5q27 -5 48 -8.5t38 -4.5q23 -2 32.5 0.5t13.5 4.5q1 0 2 1v1q3 8 10 13t15 3zM147 64q40 0 80.5 27t79.5 70.5t75 96.5t67 106
q-31 9 -59 16t-57 14q-5 -15 -12 -26q-24 -35 -61 -46q-35 -11 -53.5 -5t-25.5 13q-18 17 -9 47q6 20 25.5 36.5t46.5 24.5q19 6 53 2q-4 17 -18.5 34.5t-40.5 18.5q-44 1 -77.5 -21t-56.5 -56.5t-36 -75t-17 -76.5q-3 -29 -2.5 -64t9.5 -65t30 -50.5t59 -20.5zM508 390
q40 -11 79.5 -23t79.5 -23q28 72 52.5 137t39.5 119q7 24 13 46t9 38.5t1.5 27.5t-10.5 13q-14 4 -33.5 -10.5t-42.5 -40.5t-48.5 -61.5t-50.5 -74t-48 -77t-41 -71.5zM842 825q-36 3 -57 21t-32 40t-14 42t-3 28q0 10 3.5 18t9.5 11t13.5 -1t14.5 -18q4 -8 10.5 -17.5
t16 -18.5t21.5 -15.5t26 -7.5q19 -2 36 3t31.5 13t26.5 17t22 15q23 16 32 6.5t0 -26.5q-3 -5 -15.5 -24t-33 -39t-48 -35t-60.5 -12z" />
    <glyph glyph-name="Amacron" unicode="&#x100;" horiz-adv-x="927" 
d="M956 320q19 -5 14 -24q-6 -19 -24 -28q-20 -12 -59 -11t-103 15h-1q-34 -85 -64 -168.5t-50 -161.5q-6 -24 -10.5 -59t-4 -73t6.5 -74.5t21 -64.5t39.5 -43t61.5 -9q10 1 16 -2.5t7.5 -9t-2 -11.5t-12.5 -9q-53 -17 -105 -8t-92.5 39t-65 78t-22.5 109q0 66 24 161
q22 81 53.5 167t66.5 173q-41 11 -82 23.5t-81 24.5q-32 -56 -66.5 -108t-72.5 -97q-113 -130 -239 -131h-2q-101 0 -156 73q-24 32 -34.5 73.5t-6.5 89.5q4 52 24.5 101.5t54.5 88.5q36 42 86 66q50 26 114 28q69 3 109 -28q35 -28 40 -73v-3q33 -8 64 -15t67 -18
q42 72 84.5 145t88.5 127q23 27 44.5 47t44.5 34q52 32 106 32q43 0 63 -30q16 -25 14.5 -67.5t-21.5 -111.5q-17 -58 -42.5 -125.5t-54.5 -141.5q27 -5 48 -8.5t38 -4.5q23 -2 32.5 0.5t13.5 4.5q1 0 2 1v1q3 8 10 13t15 3zM147 64q40 0 80.5 27t79.5 70.5t75 96.5t67 106
q-31 9 -59 16t-57 14q-5 -15 -12 -26q-24 -35 -61 -46q-35 -11 -53.5 -5t-25.5 13q-18 17 -9 47q6 20 25.5 36.5t46.5 24.5q19 6 53 2q-4 17 -18.5 34.5t-40.5 18.5q-44 1 -77.5 -21t-56.5 -56.5t-36 -75t-17 -76.5q-3 -29 -2.5 -64t9.5 -65t30 -50.5t59 -20.5zM508 390
q40 -11 79.5 -23t79.5 -23q28 72 52.5 137t39.5 119q7 24 13 46t9 38.5t1.5 27.5t-10.5 13q-14 4 -33.5 -10.5t-42.5 -40.5t-48.5 -61.5t-50.5 -74t-48 -77t-41 -71.5zM710 945q11 9 36.5 11t57.5 1t66.5 -4t64 -5t49 -1.5t22.5 6.5q2 4 9 -1.5t11.5 -15.5t3 -23t-14.5 -23
q-12 -9 -37 -10.5t-56.5 0.5t-65 7t-63 8t-50.5 3t-27 -7q-3 -4 -9.5 0t-10 12.5t-1.5 19.5t15 22z" />
    <glyph glyph-name="Ograve" unicode="&#xd2;" horiz-adv-x="1099" 
d="M1009 484q18 -103 -9 -222q-13 -58 -36 -115t-55 -108q-63 -104 -155 -181q-49 -40 -105.5 -70t-117 -46.5t-123.5 -19t-125 11.5q-57 12 -105 38t-83 64t-58 90t-32 115q-8 62 -2.5 127.5t23.5 132.5q19 65 50 129t73 122q43 59 92 106.5t103 81.5q31 20 67.5 23.5
t63.5 -3.5t35.5 -22t-15.5 -31q-53 -35 -99.5 -81t-85.5 -100t-68 -113.5t-47 -122.5q-17 -62 -21.5 -123t3 -117t27 -104t50.5 -83q47 -53 107.5 -72t124.5 -11.5t127 36.5t115 73q43 35 80.5 78.5t66.5 92.5q30 49 52 103t34 108t14.5 106t-6.5 99q-9 52 -32.5 99.5
t-57 77.5t-75.5 36.5t-90 -21.5q-48 -27 -89 -72t-66 -97q-23 -51 -31 -106.5t1 -108.5q3 -22 9 -41.5t15 -39t21 -40t28 -45.5q8 -13 3 -24.5t-19 -19.5t-33.5 -12t-40.5 -2.5t-40.5 10t-31.5 24.5q-34 45 -53.5 90t-27.5 94q-9 55 -1 116q5 32 13 62.5t22 59.5t32.5 56.5
t41.5 52.5q44 47 97 78q50 28 103 38.5t104 1.5q45 -8 84.5 -29.5t71.5 -56.5q31 -34 51.5 -78t30.5 -95zM676 1034q-3 -12 5.5 -40.5t17.5 -60t13.5 -57.5t-4.5 -32q-14 -9 -35 3t-40.5 35t-32.5 53.5t-12 58.5q0 17 14.5 28t31.5 16t30 4t12 -8z" />
    <glyph glyph-name="Oacute" unicode="&#xd3;" horiz-adv-x="1099" 
d="M1009 484q-10 51 -30.5 95t-51.5 78q-32 35 -71.5 56.5t-84.5 29.5q-51 9 -104 -1.5t-103 -38.5q-53 -31 -97 -78q-23 -25 -41.5 -52.5t-32.5 -56.5t-22 -59.5t-13 -62.5q-8 -61 1 -116q8 -49 27.5 -94t53.5 -90q12 -16 31.5 -24.5t40.5 -10t40.5 2.5t33.5 12t19 19.5
t-3 24.5q-16 25 -28 45.5t-21 40t-15 39t-9 41.5q-9 53 -1 108.5t31 106.5q25 52 66 97t89 72q48 28 90 21.5t75.5 -36.5t57 -77.5t32.5 -99.5q9 -47 6.5 -99t-14.5 -106t-34 -108t-52 -103q-29 -49 -66.5 -92.5t-80.5 -78.5q-52 -44 -115 -73t-127 -36.5t-124.5 11.5
t-107.5 72q-31 35 -50.5 83t-27 104t-3 117t21.5 123q18 63 47 122.5t68 113.5t85.5 100t99.5 81q24 16 15.5 31t-35.5 22t-63.5 3.5t-67.5 -23.5q-54 -34 -103 -81.5t-92 -106.5q-42 -58 -73 -122t-50 -129q-18 -67 -23.5 -132.5t2.5 -127.5q9 -63 32 -115t58 -90t83 -64
t105 -38q62 -14 125 -11.5t123.5 19t117 46.5t105.5 70q92 77 155 181q32 51 55 108t36 115q27 119 9 222zM642 1034q-2 7 11.5 8t30.5 -4t31.5 -16t14.5 -28q1 -28 -12 -58.5t-32.5 -53.5t-40.5 -35t-35 -3q-9 6 -4.5 32t13.5 57.5t17.5 60t5.5 40.5z" />
    <glyph glyph-name="Ocircumflex" unicode="&#xd4;" horiz-adv-x="1099" 
d="M1009 484q18 -103 -9 -222q-13 -58 -36 -115t-55 -108q-63 -104 -155 -181q-49 -40 -105.5 -70t-117 -46.5t-123.5 -19t-125 11.5q-57 12 -105 38t-83 64t-58 90t-32 115q-8 62 -2.5 127.5t23.5 132.5q19 65 50 129t73 122q43 59 92 106.5t103 81.5q31 20 67.5 23.5
t63.5 -3.5t35.5 -22t-15.5 -31q-53 -35 -99.5 -81t-85.5 -100t-68 -113.5t-47 -122.5q-17 -62 -21.5 -123t3 -117t27 -104t50.5 -83q47 -53 107.5 -72t124.5 -11.5t127 36.5t115 73q43 35 80.5 78.5t66.5 92.5q30 49 52 103t34 108t14.5 106t-6.5 99q-9 52 -32.5 99.5
t-57 77.5t-75.5 36.5t-90 -21.5q-48 -27 -89 -72t-66 -97q-23 -51 -31 -106.5t1 -108.5q3 -22 9 -41.5t15 -39t21 -40t28 -45.5q8 -13 3 -24.5t-19 -19.5t-33.5 -12t-40.5 -2.5t-40.5 10t-31.5 24.5q-34 45 -53.5 90t-27.5 94q-9 55 -1 116q5 32 13 62.5t22 59.5t32.5 56.5
t41.5 52.5q44 47 97 78q50 28 103 38.5t104 1.5q45 -8 84.5 -29.5t71.5 -56.5q31 -34 51.5 -78t30.5 -95zM702 988q5 1 21 -18t34.5 -43t35.5 -44.5t25 -21.5q12 -2 9 -7t-14.5 -10t-27.5 -6.5t-31 4.5q-20 9 -37 22t-35 34q-29 -26 -49 -36t-41 -20q-17 -8 -32 -2t-24 15.5
t-11 18t7 6.5q4 -1 17.5 6.5t31 19t38 25.5t38 26.5t30 21t15.5 9.5z" />
    <glyph glyph-name="Otilde" unicode="&#xd5;" horiz-adv-x="1099" 
d="M1009 484q18 -103 -9 -222q-13 -58 -36 -115t-55 -108q-63 -104 -155 -181q-49 -40 -105.5 -70t-117 -46.5t-123.5 -19t-125 11.5q-57 12 -105 38t-83 64t-58 90t-32 115q-8 62 -2.5 127.5t23.5 132.5q19 65 50 129t73 122q43 59 92 106.5t103 81.5q31 20 67.5 23.5
t63.5 -3.5t35.5 -22t-15.5 -31q-53 -35 -99.5 -81t-85.5 -100t-68 -113.5t-47 -122.5q-17 -62 -21.5 -123t3 -117t27 -104t50.5 -83q47 -53 107.5 -72t124.5 -11.5t127 36.5t115 73q43 35 80.5 78.5t66.5 92.5q30 49 52 103t34 108t14.5 106t-6.5 99q-9 52 -32.5 99.5
t-57 77.5t-75.5 36.5t-90 -21.5q-48 -27 -89 -72t-66 -97q-23 -51 -31 -106.5t1 -108.5q3 -22 9 -41.5t15 -39t21 -40t28 -45.5q8 -13 3 -24.5t-19 -19.5t-33.5 -12t-40.5 -2.5t-40.5 10t-31.5 24.5q-34 45 -53.5 90t-27.5 94q-9 55 -1 116q5 32 13 62.5t22 59.5t32.5 56.5
t41.5 52.5q44 47 97 78q50 28 103 38.5t104 1.5q45 -8 84.5 -29.5t71.5 -56.5q31 -34 51.5 -78t30.5 -95zM489 835q-8 -27 -13.5 -14.5t9.5 61.5q13 40 29 58t35 21t39.5 -5t41.5 -20q15 -11 37 -20t44 -12t39.5 3t23.5 24q4 14 7.5 13.5t4.5 -8.5t-1.5 -20.5t-9.5 -22.5
q-8 -11 -23 -20.5t-36.5 -13.5t-50 -1.5t-64.5 15.5q-19 5 -36.5 8t-32 0t-26 -13.5t-17.5 -32.5z" />
    <glyph glyph-name="Odieresis" unicode="&#xd6;" horiz-adv-x="1099" 
d="M1009 484q18 -103 -9 -222q-13 -58 -36 -115t-55 -108q-63 -104 -155 -181q-49 -40 -105.5 -70t-117 -46.5t-123.5 -19t-125 11.5q-57 12 -105 38t-83 64t-58 90t-32 115q-8 62 -2.5 127.5t23.5 132.5q19 65 50 129t73 122q43 59 92 106.5t103 81.5q31 20 67.5 23.5
t63.5 -3.5t35.5 -22t-15.5 -31q-53 -35 -99.5 -81t-85.5 -100t-68 -113.5t-47 -122.5q-17 -62 -21.5 -123t3 -117t27 -104t50.5 -83q47 -53 107.5 -72t124.5 -11.5t127 36.5t115 73q43 35 80.5 78.5t66.5 92.5q30 49 52 103t34 108t14.5 106t-6.5 99q-9 52 -32.5 99.5
t-57 77.5t-75.5 36.5t-90 -21.5q-48 -27 -89 -72t-66 -97q-23 -51 -31 -106.5t1 -108.5q3 -22 9 -41.5t15 -39t21 -40t28 -45.5q8 -13 3 -24.5t-19 -19.5t-33.5 -12t-40.5 -2.5t-40.5 10t-31.5 24.5q-34 45 -53.5 90t-27.5 94q-9 55 -1 116q5 32 13 62.5t22 59.5t32.5 56.5
t41.5 52.5q44 47 97 78q50 28 103 38.5t104 1.5q45 -8 84.5 -29.5t71.5 -56.5q31 -34 51.5 -78t30.5 -95zM554 895q0 17 13 29t32 12t32 -12t13 -29t-13 -29t-32 -12t-32 12t-13 29zM694 895q0 17 13 29t32 12t32 -12t13 -29t-13 -29t-32 -12t-32 12t-13 29z" />
    <glyph glyph-name="Ohungarumlaut" unicode="&#x150;" horiz-adv-x="1099" 
d="M1009 484q-10 51 -30.5 95t-51.5 78q-32 35 -71.5 56.5t-84.5 29.5q-51 9 -104 -1.5t-103 -38.5q-53 -31 -97 -78q-23 -25 -41.5 -52.5t-32.5 -56.5t-22 -59.5t-13 -62.5q-8 -61 1 -116q8 -49 27.5 -94t53.5 -90q12 -16 31.5 -24.5t40.5 -10t40.5 2.5t33.5 12t19 19.5
t-3 24.5q-16 25 -28 45.5t-21 40t-15 39t-9 41.5q-9 53 -1 108.5t31 106.5q25 52 66 97t89 72q48 28 90 21.5t75.5 -36.5t57 -77.5t32.5 -99.5q9 -47 6.5 -99t-14.5 -106t-34 -108t-52 -103q-29 -49 -66.5 -92.5t-80.5 -78.5q-52 -44 -115 -73t-127 -36.5t-124.5 11.5
t-107.5 72q-31 35 -50.5 83t-27 104t-3 117t21.5 123q18 63 47 122.5t68 113.5t85.5 100t99.5 81q24 16 15.5 31t-35.5 22t-63.5 3.5t-67.5 -23.5q-54 -34 -103 -81.5t-92 -106.5q-42 -58 -73 -122t-50 -129q-18 -67 -23.5 -132.5t2.5 -127.5q9 -63 32 -115t58 -90t83 -64
t105 -38q62 -14 125 -11.5t123.5 19t117 46.5t105.5 70q92 77 155 181q32 51 55 108t36 115q27 119 9 222zM561 1034q-2 7 11.5 8t30.5 -4t31.5 -16t14.5 -28q1 -28 -12 -58.5t-32.5 -53.5t-40.5 -35t-35 -3q-9 6 -4.5 32t13.5 57.5t17.5 60t5.5 40.5zM723 1034q-2 7 11.5 8
t30.5 -4t31.5 -16t14.5 -28q1 -28 -12 -58.5t-32.5 -53.5t-40.5 -35t-35 -3q-9 6 -4.5 32t13.5 57.5t17.5 60t5.5 40.5z" />
    <glyph glyph-name="Omacron" unicode="&#x14c;" horiz-adv-x="1099" 
d="M1009 484q18 -103 -9 -222q-13 -58 -36 -115t-55 -108q-63 -104 -155 -181q-49 -40 -105.5 -70t-117 -46.5t-123.5 -19t-125 11.5q-57 12 -105 38t-83 64t-58 90t-32 115q-8 62 -2.5 127.5t23.5 132.5q19 65 50 129t73 122q43 59 92 106.5t103 81.5q31 20 67.5 23.5
t63.5 -3.5t35.5 -22t-15.5 -31q-53 -35 -99.5 -81t-85.5 -100t-68 -113.5t-47 -122.5q-17 -62 -21.5 -123t3 -117t27 -104t50.5 -83q47 -53 107.5 -72t124.5 -11.5t127 36.5t115 73q43 35 80.5 78.5t66.5 92.5q30 49 52 103t34 108t14.5 106t-6.5 99q-9 52 -32.5 99.5
t-57 77.5t-75.5 36.5t-90 -21.5q-48 -27 -89 -72t-66 -97q-23 -51 -31 -106.5t1 -108.5q3 -22 9 -41.5t15 -39t21 -40t28 -45.5q8 -13 3 -24.5t-19 -19.5t-33.5 -12t-40.5 -2.5t-40.5 10t-31.5 24.5q-34 45 -53.5 90t-27.5 94q-9 55 -1 116q5 32 13 62.5t22 59.5t32.5 56.5
t41.5 52.5q44 47 97 78q50 28 103 38.5t104 1.5q45 -8 84.5 -29.5t71.5 -56.5q31 -34 51.5 -78t30.5 -95zM526 945q11 9 36.5 11t57.5 1t66.5 -4t64 -5t49 -1.5t22.5 6.5q2 4 9 -1.5t11.5 -15.5t3 -23t-14.5 -23q-12 -9 -37 -10.5t-56.5 0.5t-65 7t-63 8t-50.5 3t-27 -7
q-3 -4 -9.5 0t-10 12.5t-1.5 19.5t15 22z" />
    <glyph glyph-name="Oslash" unicode="&#xd8;" horiz-adv-x="1099" 
d="M1009 484q18 -103 -9 -222q-13 -58 -36 -115t-55 -108q-63 -104 -155 -181q-49 -40 -105.5 -70t-117 -46.5t-123.5 -19t-125 11.5q-99 21 -167 82q-42 -32 -67 -48.5t-30 -13.5q-4 2 14.5 26t53.5 64q-65 76 -82 197q-8 62 -2.5 127.5t23.5 132.5q19 65 50 129t73 122
q43 59 92 106.5t103 81.5q31 20 67.5 23.5t63.5 -3.5t35.5 -22t-15.5 -31q-53 -35 -99.5 -81t-85.5 -100t-68 -113.5t-47 -122.5q-24 -87 -23.5 -170.5t24.5 -152.5l193 211q-21 48 -30 100q-9 55 -1 116q5 32 13 62.5t22 59.5t32.5 56.5t41.5 52.5q44 47 97 78
q50 28 103 38.5t104 1.5q55 -9 97 -37q24 30 24 35q-1 4 8 3.5t23.5 -4.5t31.5 -11.5t32 -17.5t25 -21t10 -22q0 -8 -13.5 -27t-37.5 -47q26 -51 38 -110zM443 91q-59 -52 -114 -99.5t-104 -88.5q13 -22 29 -40q47 -53 107.5 -72t124.5 -11.5t127 36.5t115 73
q43 35 80.5 78.5t66.5 92.5q30 49 52 103t34 108t14.5 106t-6.5 99q-5 23 -11.5 45t-15.5 42q-32 -35 -75 -78t-93 -90.5t-105 -99t-112 -102.5q8 -17 19.5 -35.5t25.5 -39.5q8 -13 3 -24t-18 -19t-32.5 -12.5t-40 -3t-39.5 9t-32 22.5zM524 324q49 54 96.5 105t89 96.5
t76 84t58.5 67.5q-29 14 -61.5 13t-68.5 -22q-48 -27 -89 -72t-66 -97q-38 -84 -35 -175z" />
    <glyph glyph-name="uni0156" unicode="&#x156;" horiz-adv-x="957" 
d="M866 506q18 -51 17 -103q-1 -48 -17.5 -97t-47.5 -94q-35 -52 -83 -93.5t-105 -67.5q-21 -11 -42.5 -17.5t-42.5 -11.5q39 -26 76.5 -62t75.5 -75t76 -77t78.5 -67.5t83.5 -47t90 -15.5q9 0 7.5 -19t-13.5 -42.5t-34 -43t-53 -20.5q-43 -1 -86.5 29t-87 77t-86.5 103.5
t-83.5 109t-78.5 92.5t-72 55l-20 4t-19 6q-7 2 -11 7.5t-3 13.5q2 16 18 18q46 3 90 21t83 46.5t69.5 66.5t49.5 83q30 70 29.5 142.5t-30 132t-87 99t-142.5 44.5q-63 -1 -118 -28t-98.5 -69.5t-73 -96.5t-42 -109t-6 -105.5t35.5 -86.5q6 -8 -3 -19t-25.5 -18.5t-36 -8.5
t-33.5 10q-33 32 -47.5 70.5t-13.5 79t14 81t34 77.5q31 55 80 103.5t106.5 84.5t120 57t121.5 22q44 1 87.5 -5.5t85 -22.5t81 -43.5t75.5 -69.5q19 -23 33.5 -48.5t23.5 -51.5zM129 -198q-6 18 2 59t24 96t38.5 120t46 130t46 126.5t38.5 110.5t23 81t1 38q-5 4 2.5 9.5
t21.5 9t32 4.5t34 -3t28 -15t14 -31q4 -38 -12.5 -100.5t-43.5 -137t-59.5 -154.5t-60 -152t-45.5 -129.5t-16 -87.5q0 -9 -14 -17.5t-33 -8.5t-38.5 11t-28.5 41zM375 -268q-3 6 9.5 10.5t29.5 4t32 -7.5t18 -24q6 -38 -5.5 -73.5t-31 -61.5t-43 -38t-43.5 -2
q-10 5 1.5 21.5t25 42t20 58t-12.5 70.5z" />
    <glyph glyph-name="Rcaron" unicode="&#x158;" horiz-adv-x="957" 
d="M866 506q18 -51 17 -103q-1 -48 -17.5 -97t-47.5 -94q-35 -52 -83 -93.5t-105 -67.5q-21 -11 -42.5 -17.5t-42.5 -11.5q39 -26 76.5 -62t75.5 -75t76 -77t78.5 -67.5t83.5 -47t90 -15.5q9 0 7.5 -19t-13.5 -42.5t-34 -43t-53 -20.5q-43 -1 -86.5 29t-87 77t-86.5 103.5
t-83.5 109t-78.5 92.5t-72 55l-20 4t-19 6q-7 2 -11 7.5t-3 13.5q2 16 18 18q46 3 90 21t83 46.5t69.5 66.5t49.5 83q30 70 29.5 142.5t-30 132t-87 99t-142.5 44.5q-63 -1 -118 -28t-98.5 -69.5t-73 -96.5t-42 -109t-6 -105.5t35.5 -86.5q6 -8 -3 -19t-25.5 -18.5t-36 -8.5
t-33.5 10q-33 32 -47.5 70.5t-13.5 79t14 81t34 77.5q31 55 80 103.5t106.5 84.5t120 57t121.5 22q44 1 87.5 -5.5t85 -22.5t81 -43.5t75.5 -69.5q19 -23 33.5 -48.5t23.5 -51.5zM129 -198q-6 18 2 59t24 96t38.5 120t46 130t46 126.5t38.5 110.5t23 81t1 38q-5 4 2.5 9.5
t21.5 9t32 4.5t34 -3t28 -15t14 -31q4 -38 -12.5 -100.5t-43.5 -137t-59.5 -154.5t-60 -152t-45.5 -129.5t-16 -87.5q0 -9 -14 -17.5t-33 -8.5t-38.5 11t-28.5 41zM596 825q-5 -1 -21 18t-34.5 43t-36 44.5t-24.5 21.5q-12 1 -9 6.5t14.5 10.5t27.5 6.5t31 -4.5
q20 -9 37 -22t35 -34q29 26 49 36t41 20q17 7 32 1.5t24 -15t11 -18t-7 -6.5q-4 1 -17.5 -6.5t-31 -19t-38 -25.5t-38 -26.5t-30 -21t-15.5 -9.5z" />
    <glyph glyph-name="Racute" unicode="&#x154;" horiz-adv-x="957" 
d="M866 506q-9 26 -23.5 51.5t-33.5 48.5q-36 42 -75.5 69.5t-81 43.5t-85 22.5t-87.5 5.5q-59 -1 -121.5 -22t-120 -57t-106.5 -84.5t-80 -103.5q-21 -37 -34 -77.5t-14 -81t13.5 -79t47.5 -70.5q14 -11 33.5 -10t36 8.5t25.5 18.5t3 19q-29 36 -35.5 86.5t6 105.5t42 109
t73 96.5t98.5 69.5t118 28q85 -5 142.5 -44.5t87 -99t30 -132t-29.5 -142.5q-19 -45 -49.5 -83t-69.5 -66.5t-83 -46.5t-90 -21q-16 -2 -18 -18q-1 -8 3 -13.5t11 -7.5q9 -4 19 -6l20 -4q34 -15 72 -55t78.5 -92.5t83.5 -109t86.5 -103.5t87 -77t86.5 -29q31 1 53 20.5
t34 43t13.5 42.5t-7.5 19q-47 -2 -90 15.5t-83.5 47t-78.5 67.5t-76 77t-75.5 75t-76.5 62q21 5 42.5 11.5t42.5 17.5q57 26 105 67.5t83 93.5q31 45 47.5 94t17.5 97q1 52 -17 103zM129 -198q9 -30 28.5 -41t38.5 -11t33 8.5t14 17.5q-2 30 16 87.5t45.5 129.5t60 152
t59.5 154.5t43.5 137t12.5 100.5q-2 20 -14 31t-28 15t-34 3t-32 -4.5t-21.5 -9t-2.5 -9.5q6 -6 -1 -38t-23 -81t-38.5 -110.5t-46 -126.5t-46 -130t-38.5 -120t-24 -96t-2 -59zM581 1034q-2 7 11.5 8t30.5 -4t31.5 -16t14.5 -28q1 -28 -12 -58.5t-32.5 -53.5t-40.5 -35
t-35 -3q-9 6 -4.5 32t13.5 57.5t17.5 60t5.5 40.5z" />
    <glyph glyph-name="dcroat" unicode="&#x111;" horiz-adv-x="521" 
d="M253 421q0 8 4.5 15t11.5 12q-5 12 -16 12q-14 1 -31 -12.5t-36.5 -39t-40.5 -63t-42 -83.5q-13 -29 -21.5 -62.5t-9.5 -64t6 -53.5t25 -30q21 -9 44 13.5t47 60.5t46.5 84t41.5 84q29 73 64 154.5t64 153.5q-36 5 -63 6t-34 -7q-3 -4 -9.5 0t-10 12.5t-1.5 19.5t15 22
q14 11 50 12t79 -2q20 51 30 83.5t4 38.5q-7 6 6.5 14t33.5 9t41.5 -9t30.5 -40q5 -16 0 -43t-16 -62q15 0 25 1t12 6q2 4 9 -1.5t11.5 -15.5t3 -23t-14.5 -23q-10 -8 -29 -10.5t-43 -1.5q-22 -54 -51 -115.5t-57.5 -121t-54 -114.5t-41 -96.5t-18 -65.5t14.5 -22
q10 1 25.5 16t34.5 38.5t39 52.5t38 58t32 55t20 43q3 8 10 10t13 0t9.5 -8t-0.5 -13q-8 -17 -23 -46.5t-35.5 -63t-44.5 -67.5t-49.5 -62t-51.5 -46t-50 -18q-38 -2 -56.5 30.5t-14.5 82.5q-19 -31 -40 -55.5t-45 -39.5t-52 -18t-60 11q-40 16 -57.5 47t-20.5 67.5t6 76
t22 72.5q24 61 53.5 104.5t62.5 71t68 39.5t71 11q12 -1 25.5 -4.5t25 -11.5t19.5 -21.5t8 -33.5t-9 -29q-8 -10 -22 -10q-12 0 -21.5 8t-9.5 21z" />
    <glyph glyph-name="abreve" unicode="&#x103;" horiz-adv-x="523" 
d="M253 421q0 8 4.5 15t11.5 12q-5 12 -16 12q-14 1 -31 -12.5t-36.5 -39t-40.5 -63t-42 -83.5q-13 -29 -21.5 -62.5t-9.5 -64t6 -53.5t25 -30q14 -6 29.5 3t31 28t32 46t32 56.5t30 59t27.5 54.5q14 33 27.5 62.5t22.5 53t12 40t-3 22.5q-7 6 6.5 14t33.5 9t41.5 -9
t30.5 -40q9 -29 -3 -70.5t-33.5 -86.5t-46 -89t-41 -78.5t-19 -55t20.5 -18.5q9 1 25 16t35 38.5t39.5 52.5t38 58t31.5 55t20 43q3 8 10 10t13 0t9.5 -8t-0.5 -13q-8 -17 -23 -46.5t-35.5 -63t-44.5 -67.5t-49.5 -62t-51.5 -46t-50 -18q-38 -2 -57 31t-14 84
q-19 -31 -40 -56.5t-45.5 -40.5t-52 -18t-60.5 11q-40 16 -57.5 47t-20.5 67.5t6 76t22 72.5q24 61 53.5 104.5t62.5 71t68 39.5t71 11q12 -1 25.5 -4.5t25 -11.5t19.5 -21.5t8 -33.5q0 -22 -10 -30q-8 -9 -21 -9q-12 0 -21.5 8t-9.5 21zM230 525q-36 3 -57 21t-32 40
t-14 42t-3 28q0 10 3.5 18t9.5 11t13.5 -1t14.5 -18q4 -8 10.5 -17.5t16 -18.5t21.5 -15.5t26 -7.5q19 -2 36 3t31.5 13t26.5 17t22 15q23 16 32 6.5t0 -26.5q-3 -5 -15.5 -24t-33 -39t-48 -35t-60.5 -12z" />
    <glyph glyph-name="gbreve" unicode="&#x11f;" horiz-adv-x="525" 
d="M253 421q0 8 4.5 15t11.5 12q-5 12 -16 12q-14 1 -31 -12.5t-36.5 -39t-40.5 -63t-42 -83.5q-13 -29 -21.5 -62.5t-9.5 -64t6 -53.5t25 -30q22 -9 47 16.5t50 67.5t48.5 90.5t43.5 85.5q0 3 1 4q27 64 41.5 109t6.5 56q-5 6 9 14t35 9t41.5 -10t29.5 -42q5 -17 -5 -54.5
t-28 -84.5t-41 -98.5t-44 -97t-37 -79.5t-20 -47q36 24 75 67.5t73 91t60 92.5t36 72q3 9 10 11.5t13 0.5t9.5 -8t0.5 -13q-23 -51 -57.5 -107.5t-75.5 -108.5t-86 -93.5t-88 -63.5q-6 -15 -16 -38.5t-20.5 -47.5t-19 -45t-12.5 -31q-10 -28 -31.5 -47.5t-48.5 -30t-56 -12
t-54 6t-43.5 25t-23.5 44.5q-1 9 2.5 21.5t17.5 26.5q16 16 38.5 29t47 25t48 24.5t40.5 27.5q10 28 23.5 62t29.5 71q-29 -28 -63.5 -37.5t-77.5 7.5q-40 16 -57.5 47t-20.5 67.5t6 76t22 72.5q24 61 53.5 104.5t62.5 71t68 39.5t71 11q12 -1 25.5 -4.5t25 -11.5
t19.5 -21.5t8 -33.5t-9 -29q-8 -10 -22 -10q-12 0 -21.5 8t-9.5 21zM106 -135q-15 -12 -34 -21l-38 -18t-36.5 -20t-28.5 -26q-7 -10 -5.5 -22t9 -21.5t19 -14.5t25.5 -1t29 19.5t28 47.5q6 14 14.5 33t17.5 44zM231 525q-36 3 -57 21t-32 40t-14 42t-3 28q0 10 3.5 18
t9.5 11t13.5 -1t14.5 -18q4 -8 10.5 -17.5t16 -18.5t21.5 -15.5t26 -7.5q19 -2 36 3t31.5 13t26.5 17t22 15q23 16 32 6.5t0 -26.5q-3 -5 -15.5 -24t-33 -39t-48 -35t-60.5 -12z" />
    <glyph glyph-name="C" unicode="C" horiz-adv-x="767" 
d="M790 311q8 -3 10 -10.5t-3 -15.5q-18 -36 -39 -73t-43 -72.5t-44 -68t-43 -59.5q-77 -101 -158 -167q-76 -61 -150 -88q-26 -11 -54.5 -16t-55.5 -5q-32 0 -63 8t-57 25q-46 27 -73 70t-38 93.5t-7.5 105.5t17.5 106q25 88 55 163.5t69.5 141t89.5 124t114 112.5
q21 18 55.5 36t75 27t82.5 3t78 -37q28 -24 45 -69.5t17 -98t-19.5 -106t-63.5 -92.5q-14 -12 -37 -8.5t-42.5 15t-28.5 27t6 27.5q28 22 49.5 57t33.5 73t13 73.5t-11 58.5q-11 19 -36 14.5t-59.5 -29t-74.5 -66.5t-80 -98q-30 -42 -56 -90.5t-46.5 -96t-36 -91.5
t-24.5 -78q-18 -66 -18 -123t14.5 -100.5t42.5 -71t66 -34t84.5 9.5t99.5 59q40 33 81.5 78t82 99.5t79 117t73.5 130.5q10 18 28 10z" />
    <glyph glyph-name="U" unicode="U" horiz-adv-x="1342" 
d="M1251 743q9 9 28.5 14t42 6t45 -1.5t36.5 -9t17 -17t-13 -23.5q-56 -47 -102 -119.5t-81.5 -158.5t-59.5 -181t-36 -187.5t-11 -176.5t16 -149t45 -105.5t75 -44.5q10 -1 14 -7.5t2.5 -13.5t-7.5 -13t-15 -6q-84 -4 -140 28.5t-89 91t-45.5 137.5t-9.5 169q3 77 14.5 158
t32.5 162l-36 -57q-98 -154 -193 -267q-108 -128 -202 -189q-74 -48 -134 -48q-8 0 -15.5 1t-15.5 3q-41 9 -50 43q-7 22 -0.5 54t28.5 78q18 39 43 83.5t54 92.5q24 42 49 86t48 88.5t42 88.5t31 86q50 181 -77 253q-42 23 -100 23.5t-121 -22.5q-50 -18 -91.5 -50.5
t-73.5 -73t-53 -84t-30 -82.5q-10 -42 -5.5 -76t20 -56t41.5 -30t59 3q14 4 15 -10.5t-11 -35t-37 -40.5t-63 -26q-51 -8 -83 12.5t-46 58.5t-11.5 89.5t20.5 105.5q26 78 78 142.5t127 115.5q77 54 157 81t160 32q49 3 98 -4t90.5 -26t72.5 -51t44 -79q19 -65 -7 -159
q-12 -42 -30.5 -85t-41.5 -86.5t-48 -86t-49 -82.5q-24 -41 -47 -80t-39.5 -72.5t-24.5 -60.5t-3 -44q8 -26 34 -16t62 43t78.5 82t83 102t76 103t57.5 84q38 58 72 118t65 118q36 78 82.5 143.5t91.5 112.5z" />
    <glyph glyph-name="Ccaron" unicode="&#x10c;" horiz-adv-x="767" 
d="M790 311q8 -3 10 -10.5t-3 -15.5q-18 -36 -39 -73t-43 -72.5t-44 -68t-43 -59.5q-77 -101 -158 -167q-76 -61 -150 -88q-26 -11 -54.5 -16t-55.5 -5q-32 0 -63 8t-57 25q-46 27 -73 70t-38 93.5t-7.5 105.5t17.5 106q25 88 55 163.5t69.5 141t89.5 124t114 112.5
q21 18 55.5 36t75 27t82.5 3t78 -37q28 -24 45 -69.5t17 -98t-19.5 -106t-63.5 -92.5q-14 -12 -37 -8.5t-42.5 15t-28.5 27t6 27.5q28 22 49.5 57t33.5 73t13 73.5t-11 58.5q-11 19 -36 14.5t-59.5 -29t-74.5 -66.5t-80 -98q-30 -42 -56 -90.5t-46.5 -96t-36 -91.5
t-24.5 -78q-18 -66 -18 -123t14.5 -100.5t42.5 -71t66 -34t84.5 9.5t99.5 59q40 33 81.5 78t82 99.5t79 117t73.5 130.5q10 18 28 10zM531 825q-5 -1 -21 18t-34.5 43t-36 44.5t-24.5 21.5q-12 1 -9 6.5t14.5 10.5t27.5 6.5t31 -4.5q20 -9 37 -22t35 -34q29 26 49 36t41 20
q17 7 32 1.5t24 -15t11 -18t-7 -6.5q-4 1 -17.5 -6.5t-31 -19t-38 -25.5t-38 -26.5t-30 -21t-15.5 -9.5z" />
    <glyph glyph-name="Udieresis" unicode="&#xdc;" horiz-adv-x="1342" 
d="M1251 743q9 9 28.5 14t42 6t45 -1.5t36.5 -9t17 -17t-13 -23.5q-56 -47 -102 -119.5t-81.5 -158.5t-59.5 -181t-36 -187.5t-11 -176.5t16 -149t45 -105.5t75 -44.5q10 -1 14 -7.5t2.5 -13.5t-7.5 -13t-15 -6q-84 -4 -140 28.5t-89 91t-45.5 137.5t-9.5 169q3 77 14.5 158
t32.5 162l-36 -57q-98 -154 -193 -267q-108 -128 -202 -189q-74 -48 -134 -48q-8 0 -15.5 1t-15.5 3q-41 9 -50 43q-7 22 -0.5 54t28.5 78q18 39 43 83.5t54 92.5q24 42 49 86t48 88.5t42 88.5t31 86q50 181 -77 253q-42 23 -100 23.5t-121 -22.5q-50 -18 -91.5 -50.5
t-73.5 -73t-53 -84t-30 -82.5q-10 -42 -5.5 -76t20 -56t41.5 -30t59 3q14 4 15 -10.5t-11 -35t-37 -40.5t-63 -26q-51 -8 -83 12.5t-46 58.5t-11.5 89.5t20.5 105.5q26 78 78 142.5t127 115.5q77 54 157 81t160 32q49 3 98 -4t90.5 -26t72.5 -51t44 -79q19 -65 -7 -159
q-12 -42 -30.5 -85t-41.5 -86.5t-48 -86t-49 -82.5q-24 -41 -47 -80t-39.5 -72.5t-24.5 -60.5t-3 -44q8 -26 34 -16t62 43t78.5 82t83 102t76 103t57.5 84q38 59 72.5 119t65.5 118q35 78 81.5 143.5t91.5 111.5zM1026 825q0 17 13 29t32 12t32 -12t13 -29t-13 -29t-32 -12
t-32 12t-13 29zM886 825q0 17 13 29t32 12t32 -12t13 -29t-13 -29t-32 -12t-32 12t-13 29z" />
    <glyph glyph-name="Cacute" unicode="&#x106;" horiz-adv-x="767" 
d="M790 311q-18 8 -28 -10q-35 -68 -73.5 -130.5t-79 -117t-82 -99.5t-81.5 -78q-53 -43 -99.5 -59t-84.5 -9.5t-66 34t-42.5 71t-14.5 100.5t18 123q9 34 24.5 78t36 91.5t46.5 96t56 90.5q40 56 80 98t74.5 66.5t59.5 29t36 -14.5q12 -23 11 -58.5t-13 -73.5t-33.5 -73
t-49.5 -57q-15 -12 -6 -27.5t28.5 -27t42.5 -15t37 8.5q44 39 63.5 92.5t19.5 106t-17 98t-45 69.5q-36 31 -78 37t-82.5 -3t-75 -27t-55.5 -36q-64 -54 -114 -112.5t-89.5 -124t-69.5 -141t-55 -163.5q-14 -51 -17.5 -106t7.5 -105.5t38 -93.5t73 -70q26 -17 57 -25t63 -8
q27 0 55.5 5t54.5 16q74 27 150 88q81 66 158 167q21 27 43 59.5t44 68t43 72.5t39 73q5 8 3 15.5t-10 10.5zM506 1034q-2 7 11.5 8t30.5 -4t31.5 -16t14.5 -28q1 -28 -12 -58.5t-32.5 -53.5t-40.5 -35t-35 -3q-9 6 -4.5 32t13.5 57.5t17.5 60t5.5 40.5z" />
    <glyph glyph-name="Uacute" unicode="&#xda;" horiz-adv-x="1342" 
d="M1251 743q-45 -46 -91.5 -111.5t-81.5 -143.5q-31 -58 -65.5 -118t-72.5 -119q-22 -34 -57.5 -84t-76 -103t-83 -102t-78.5 -82t-62 -43t-34 16q-5 17 3 44t24.5 60.5t39.5 72.5t47 80q24 40 49 82.5t48 86t41.5 86.5t30.5 85q26 94 7 159q-13 47 -44 79t-72.5 51
t-90.5 26t-98 4q-80 -5 -160 -32t-157 -81q-75 -51 -127 -115.5t-78 -142.5q-18 -54 -20.5 -105.5t11.5 -89.5t46 -58.5t83 -12.5q38 6 63 26t37 40.5t11 35t-15 10.5q-33 -11 -59 -3t-41.5 30t-20 56t5.5 76q9 39 30 82.5t53 84t73.5 73t91.5 50.5q63 23 121 22.5
t100 -23.5q127 -72 77 -253q-12 -42 -31 -86t-42 -88.5t-48 -88.5t-49 -86q-29 -48 -54 -92.5t-43 -83.5q-22 -46 -28.5 -78t0.5 -54q9 -34 50 -43q8 -2 15.5 -3t15.5 -1q60 0 134 48q94 61 202 189q95 113 193 267l36 57q-21 -81 -32.5 -162t-14.5 -158q-3 -90 9.5 -169
t45.5 -137.5t89 -91t140 -28.5q9 0 15 6t7.5 13t-2.5 13.5t-14 7.5q-45 4 -75 44.5t-45 105.5t-16 149t11 176.5t36 187.5t59.5 181t81.5 158.5t102 119.5q16 13 13 23.5t-17 17t-36.5 9t-45 1.5t-42 -6t-28.5 -14zM1014 964q-2 7 11.5 8t30.5 -4t31.5 -16t14.5 -28
q1 -28 -12 -58.5t-32.5 -53.5t-40.5 -35t-35 -3q-9 6 -4.5 32t13.5 57.5t17.5 60t5.5 40.5z" />
    <glyph glyph-name="Uhungarumlaut" unicode="&#x170;" horiz-adv-x="1342" 
d="M1251 743q-45 -47 -91.5 -112.5t-82.5 -143.5q-31 -58 -65 -118t-72 -118q-22 -34 -57.5 -84t-76 -103t-83 -102t-78.5 -82t-62 -43t-34 16q-5 17 3 44t24.5 60.5t39.5 72.5t47 80q24 40 49 82.5t48 86t41.5 86.5t30.5 85q26 94 7 159q-13 47 -44 79t-72.5 51t-90.5 26
t-98 4q-80 -5 -160 -32t-157 -81q-75 -51 -127 -115.5t-78 -142.5q-18 -54 -20.5 -105.5t11.5 -89.5t46 -58.5t83 -12.5q38 6 63 26t37 40.5t11 35t-15 10.5q-33 -11 -59 -3t-41.5 30t-20 56t5.5 76q9 39 30 82.5t53 84t73.5 73t91.5 50.5q63 23 121 22.5t100 -23.5
q127 -72 77 -253q-12 -42 -31 -86t-42 -88.5t-48 -88.5t-49 -86q-29 -48 -54 -92.5t-43 -83.5q-22 -46 -28.5 -78t0.5 -54q9 -34 50 -43q8 -2 15.5 -3t15.5 -1q60 0 134 48q94 61 202 189q95 113 193 267l36 57q-21 -81 -32.5 -162t-14.5 -158q-3 -90 9.5 -169t45.5 -137.5
t89 -91t140 -28.5q9 0 15 6t7.5 13t-2.5 13.5t-14 7.5q-45 4 -75 44.5t-45 105.5t-16 149t11 176.5t36 187.5t59.5 181t81.5 158.5t102 119.5q16 13 13 23.5t-17 17t-36.5 9t-45 1.5t-42 -6t-28.5 -14zM1105 964q-2 7 11.5 8t30.5 -4t31.5 -16t14.5 -28q1 -28 -12 -58.5
t-32.5 -53.5t-40.5 -35t-35 -3q-9 6 -4.5 32t13.5 57.5t17.5 60t5.5 40.5zM943 964q-2 7 11.5 8t30.5 -4t31.5 -16t14.5 -28q1 -28 -12 -58.5t-32.5 -53.5t-40.5 -35t-35 -3q-9 6 -4.5 32t13.5 57.5t17.5 60t5.5 40.5z" />
    <glyph glyph-name="Ugrave" unicode="&#xd9;" horiz-adv-x="1342" 
d="M1251 743q9 9 28.5 14t42 6t45 -1.5t36.5 -9t17 -17t-13 -23.5q-56 -47 -102 -119.5t-81.5 -158.5t-59.5 -181t-36 -187.5t-11 -176.5t16 -149t45 -105.5t75 -44.5q10 -1 14 -7.5t2.5 -13.5t-7.5 -13t-15 -6q-84 -4 -140 28.5t-89 91t-45.5 137.5t-9.5 169q3 77 14.5 158
t32.5 162l-36 -57q-98 -154 -193 -267q-108 -128 -202 -189q-74 -48 -134 -48q-8 0 -15.5 1t-15.5 3q-41 9 -50 43q-7 22 -0.5 54t28.5 78q18 39 43 83.5t54 92.5q24 42 49 86t48 88.5t42 88.5t31 86q50 181 -77 253q-42 23 -100 23.5t-121 -22.5q-50 -18 -91.5 -50.5
t-73.5 -73t-53 -84t-30 -82.5q-10 -42 -5.5 -76t20 -56t41.5 -30t59 3q14 4 15 -10.5t-11 -35t-37 -40.5t-63 -26q-51 -8 -83 12.5t-46 58.5t-11.5 89.5t20.5 105.5q26 78 78 142.5t127 115.5q77 54 157 81t160 32q49 3 98 -4t90.5 -26t72.5 -51t44 -79q19 -65 -7 -159
q-12 -42 -30.5 -85t-41.5 -86.5t-48 -86t-49 -82.5q-24 -41 -47 -80t-39.5 -72.5t-24.5 -60.5t-3 -44q8 -26 34 -16t62 43t78.5 82t83 102t76 103t57.5 84q38 58 72 118t65 118q36 78 82.5 143.5t91.5 112.5zM1029 964q-3 -12 5.5 -40.5t17.5 -60t13.5 -57.5t-4.5 -32
q-14 -9 -35 3t-40.5 35t-32.5 53.5t-12 58.5q0 17 14.5 28t31.5 16t30 4t12 -8z" />
    <glyph glyph-name="Ucircumflex" unicode="&#xdb;" horiz-adv-x="1342" 
d="M1251 743q9 9 28.5 14t42 6t45 -1.5t36.5 -9t17 -17t-13 -23.5q-56 -47 -102 -119.5t-81.5 -158.5t-59.5 -181t-36 -187.5t-11 -176.5t16 -149t45 -105.5t75 -44.5q10 -1 14 -7.5t2.5 -13.5t-7.5 -13t-15 -6q-84 -4 -140 28.5t-89 91t-45.5 137.5t-9.5 169q3 77 14.5 158
t32.5 162l-36 -57q-98 -154 -193 -267q-108 -128 -202 -189q-74 -48 -134 -48q-8 0 -15.5 1t-15.5 3q-41 9 -50 43q-7 22 -0.5 54t28.5 78q18 39 43 83.5t54 92.5q24 42 49 86t48 88.5t42 88.5t31 86q50 181 -77 253q-42 23 -100 23.5t-121 -22.5q-50 -18 -91.5 -50.5
t-73.5 -73t-53 -84t-30 -82.5q-10 -42 -5.5 -76t20 -56t41.5 -30t59 3q14 4 15 -10.5t-11 -35t-37 -40.5t-63 -26q-51 -8 -83 12.5t-46 58.5t-11.5 89.5t20.5 105.5q26 78 78 142.5t127 115.5q77 54 157 81t160 32q49 3 98 -4t90.5 -26t72.5 -51t44 -79q19 -65 -7 -159
q-12 -42 -30.5 -85t-41.5 -86.5t-48 -86t-49 -82.5q-24 -41 -47 -80t-39.5 -72.5t-24.5 -60.5t-3 -44q8 -26 34 -16t62 43t78.5 82t83 102t76 103t57.5 84q38 58 72 118t65 118q36 78 82.5 143.5t91.5 112.5zM1023 918q5 1 21 -18t34.5 -43t35.5 -44.5t25 -21.5q12 -2 9 -7
t-14.5 -10t-27.5 -6.5t-31 4.5q-20 9 -37 22t-35 34q-29 -26 -49 -36t-41 -20q-17 -8 -32 -2t-24 15.5t-11 18t7 6.5q4 -1 17.5 6.5t31 19t38 25.5t38 26.5t30 21t15.5 9.5z" />
    <glyph glyph-name="N" unicode="N" horiz-adv-x="1270" 
d="M1404 747q26 -5 35 -24.5t6 -40t-14 -34.5t-26 -9q-58 21 -104.5 7.5t-84 -50t-68 -91t-56 -115t-48 -121.5t-43.5 -111l10 -14q29 -45 44 -85t18 -79q5 -67 -17 -126q-21 -54 -59 -86q-34 -26 -70 -26q-15 0 -26 4q-8 2 -14 6h-1q-7 2 -15 7.5t-14 18.5q-24 53 27 176
q8 20 16.5 42.5t17.5 48.5q-20 38 -51 77t-66 81q-33 39 -66 81q-11 -26 -24.5 -52t-27.5 -52q-67 -124 -145 -208q-45 -48 -92 -80.5t-96 -48.5q-62 -21 -115 -21q-29 0 -56 6q-34 8 -63 26t-50 44q-23 29 -36 66.5t-14 79.5t10 83t32 76q49 80 135 116q98 41 224 17
q8 -2 12.5 -7.5t4.5 -13.5q-2 -17 -18 -19q-55 -6 -95.5 -28t-68 -53t-43 -66.5t-20.5 -68.5q-5 -32 0.5 -68.5t23 -66t46 -46t70.5 -8.5q46 9 92.5 41t88.5 76.5t78 95t60 95.5q34 62 59 122l-25 36q-63 99 -75 186q-9 61 6 115q16 52 47 86q45 51 102 48q5 0 11 -2h1
q27 0 46 -24q20 -24 24 -68t-7 -104q-6 -32 -17 -74.5t-28 -92.5q23 -35 51.5 -70.5t57.5 -70.5q18 -22 36.5 -43.5t35.5 -44.5q22 51 46.5 114.5t53 128.5t62.5 125t74.5 104t88.5 66t106 11z" />
    <glyph glyph-name="Ntilde" unicode="&#xd1;" horiz-adv-x="1270" 
d="M1404 747q26 -5 35 -24.5t6 -40t-14 -34.5t-26 -9q-58 21 -104.5 7.5t-84 -50t-68 -91t-56 -115t-48 -121.5t-43.5 -111l10 -14q29 -45 44 -85t18 -79q5 -67 -17 -126q-21 -54 -59 -86q-34 -26 -70 -26q-15 0 -26 4q-8 2 -14 6h-1q-7 2 -15 7.5t-14 18.5q-24 53 27 176
q8 20 16.5 42.5t17.5 48.5q-20 38 -51 77t-66 81q-33 39 -66 81q-11 -26 -24.5 -52t-27.5 -52q-67 -124 -145 -208q-45 -48 -92 -80.5t-96 -48.5q-62 -21 -115 -21q-29 0 -56 6q-34 8 -63 26t-50 44q-23 29 -36 66.5t-14 79.5t10 83t32 76q49 80 135 116q98 41 224 17
q8 -2 12.5 -7.5t4.5 -13.5q-2 -17 -18 -19q-55 -6 -95.5 -28t-68 -53t-43 -66.5t-20.5 -68.5q-5 -32 0.5 -68.5t23 -66t46 -46t70.5 -8.5q46 9 92.5 41t88.5 76.5t78 95t60 95.5q34 62 59 122l-25 36q-63 99 -75 186q-9 61 6 115q16 52 47 86q45 51 102 48q5 0 11 -2h1
q27 0 46 -24q20 -24 24 -68t-7 -104q-6 -32 -17 -74.5t-28 -92.5q23 -35 51.5 -70.5t57.5 -70.5q18 -22 36.5 -43.5t35.5 -44.5q22 51 46.5 114.5t53 128.5t62.5 125t74.5 104t88.5 66t106 11zM934 765q-8 -27 -13.5 -14.5t9.5 61.5q13 40 29 58t35 21t39.5 -5t41.5 -20
q15 -11 37 -20t44 -12t39.5 3t23.5 24q4 14 7.5 13.5t4.5 -8.5t-1.5 -20.5t-9.5 -22.5q-8 -11 -23 -20.5t-36.5 -13.5t-50 -1.5t-64.5 15.5q-19 5 -36.5 8t-32 0t-26 -13.5t-17.5 -32.5z" />
    <glyph glyph-name="Nacute" unicode="&#x143;" horiz-adv-x="1270" 
d="M1404 747q-58 11 -106 -11t-88.5 -66t-74.5 -104t-62.5 -125t-53 -128.5t-46.5 -114.5q-17 23 -35.5 44.5t-36.5 43.5q-29 35 -57.5 70.5t-51.5 70.5q17 50 28 92.5t17 74.5q11 60 7 104t-24 68q-19 24 -46 24h-1q-6 2 -11 2q-57 3 -102 -48q-31 -34 -47 -86
q-15 -54 -6 -115q12 -87 75 -186l25 -36q-25 -60 -59 -122q-24 -45 -60 -95.5t-78 -95t-88.5 -76.5t-92.5 -41q-42 -8 -70.5 8.5t-46 46t-23 66t-0.5 68.5q5 33 20.5 68.5t43 66.5t68 53t95.5 28q16 2 18 19q0 8 -4.5 13.5t-12.5 7.5q-126 24 -224 -17q-86 -36 -135 -116
q-21 -35 -32 -76t-10 -83t14 -79.5t36 -66.5q21 -26 50 -44t63 -26q27 -6 56 -6q53 0 115 21q49 16 96 48.5t92 80.5q78 84 145 208q14 26 27.5 52t24.5 52q33 -42 66 -81q35 -42 66 -81t51 -77q-9 -26 -17.5 -48.5t-16.5 -42.5q-51 -123 -27 -176q6 -13 14 -18.5t15 -7.5h1
q6 -4 14 -6q11 -4 26 -4q36 0 70 26q38 32 59 86q22 59 17 126q-3 39 -18 79t-44 85l-10 14q21 50 43.5 111t48 121.5t56 115t68 91t84 50t104.5 -7.5q15 -5 26 9t14 34.5t-6 40t-35 24.5zM1018 964q-2 7 11.5 8t30.5 -4t31.5 -16t14.5 -28q1 -28 -12 -58.5t-32.5 -53.5
t-40.5 -35t-35 -3q-9 6 -4.5 32t13.5 57.5t17.5 60t5.5 40.5z" />
    <glyph glyph-name="Ncaron" unicode="&#x147;" horiz-adv-x="1270" 
d="M1404 747q26 -5 35 -24.5t6 -40t-14 -34.5t-26 -9q-58 21 -104.5 7.5t-84 -50t-68 -91t-56 -115t-48 -121.5t-43.5 -111l10 -14q29 -45 44 -85t18 -79q5 -67 -17 -126q-21 -54 -59 -86q-34 -26 -70 -26q-15 0 -26 4q-8 2 -14 6h-1q-7 2 -15 7.5t-14 18.5q-24 53 27 176
q8 20 16.5 42.5t17.5 48.5q-20 38 -51 77t-66 81q-33 39 -66 81q-11 -26 -24.5 -52t-27.5 -52q-67 -124 -145 -208q-45 -48 -92 -80.5t-96 -48.5q-62 -21 -115 -21q-29 0 -56 6q-34 8 -63 26t-50 44q-23 29 -36 66.5t-14 79.5t10 83t32 76q49 80 135 116q98 41 224 17
q8 -2 12.5 -7.5t4.5 -13.5q-2 -17 -18 -19q-55 -6 -95.5 -28t-68 -53t-43 -66.5t-20.5 -68.5q-5 -32 0.5 -68.5t23 -66t46 -46t70.5 -8.5q46 9 92.5 41t88.5 76.5t78 95t60 95.5q34 62 59 122l-25 36q-63 99 -75 186q-9 61 6 115q16 52 47 86q45 51 102 48q5 0 11 -2h1
q27 0 46 -24q20 -24 24 -68t-7 -104q-6 -32 -17 -74.5t-28 -92.5q23 -35 51.5 -70.5t57.5 -70.5q18 -22 36.5 -43.5t35.5 -44.5q22 51 46.5 114.5t53 128.5t62.5 125t74.5 104t88.5 66t106 11zM1042 755q-5 -1 -21 18t-34.5 43t-36 44.5t-24.5 21.5q-12 1 -9 6.5t14.5 10.5
t27.5 6.5t31 -4.5q20 -9 37 -22t35 -34q29 26 49 36t41 20q17 7 32 1.5t24 -15t11 -18t-7 -6.5q-4 1 -17.5 -6.5t-31 -19t-38 -25.5t-38 -26.5t-30 -21t-15.5 -9.5z" />
    <glyph glyph-name="uni0145" unicode="&#x145;" horiz-adv-x="1270" 
d="M1404 747q26 -5 35 -24.5t6 -40t-14 -34.5t-26 -9q-58 21 -104.5 7.5t-84 -50t-68 -91t-56 -115t-48 -121.5t-43.5 -111l10 -14q29 -45 44 -85t18 -79q5 -67 -17 -126q-21 -54 -59 -86q-34 -26 -70 -26q-15 0 -26 4q-8 2 -14 6h-1q-7 2 -15 7.5t-14 18.5q-24 53 27 176
q8 20 16.5 42.5t17.5 48.5q-20 38 -51 77t-66 81q-33 39 -66 81q-11 -26 -24.5 -52t-27.5 -52q-67 -124 -145 -208q-45 -48 -92 -80.5t-96 -48.5q-62 -21 -115 -21q-29 0 -56 6q-34 8 -63 26t-50 44q-23 29 -36 66.5t-14 79.5t10 83t32 76q49 80 135 116q98 41 224 17
q8 -2 12.5 -7.5t4.5 -13.5q-2 -17 -18 -19q-55 -6 -95.5 -28t-68 -53t-43 -66.5t-20.5 -68.5q-5 -32 0.5 -68.5t23 -66t46 -46t70.5 -8.5q46 9 92.5 41t88.5 76.5t78 95t60 95.5q34 62 59 122l-25 36q-63 99 -75 186q-9 61 6 115q16 52 47 86q45 51 102 48q5 0 11 -2h1
q27 0 46 -24q20 -24 24 -68t-7 -104q-6 -32 -17 -74.5t-28 -92.5q23 -35 51.5 -70.5t57.5 -70.5q18 -22 36.5 -43.5t35.5 -44.5q22 51 46.5 114.5t53 128.5t62.5 125t74.5 104t88.5 66t106 11zM565 -268q-3 6 9.5 10.5t29.5 4t32 -7.5t18 -24q6 -38 -5.5 -73.5t-31 -61.5
t-43 -38t-43.5 -2q-10 5 1.5 21.5t25 42t20 58t-12.5 70.5z" />
    <glyph glyph-name="Umacron" unicode="&#x16a;" horiz-adv-x="1342" 
d="M1251 743q9 9 28.5 14t42 6t45 -1.5t36.5 -9t17 -17t-13 -23.5q-56 -47 -102 -119.5t-81.5 -158.5t-59.5 -181t-36 -187.5t-11 -176.5t16 -149t45 -105.5t75 -44.5q10 -1 14 -7.5t2.5 -13.5t-7.5 -13t-15 -6q-84 -4 -140 28.5t-89 91t-45.5 137.5t-9.5 169q3 77 14.5 158
t32.5 162l-36 -57q-98 -154 -193 -267q-108 -128 -202 -189q-74 -48 -134 -48q-8 0 -15.5 1t-15.5 3q-41 9 -50 43q-7 22 -0.5 54t28.5 78q18 39 43 83.5t54 92.5q24 42 49 86t48 88.5t42 88.5t31 86q50 181 -77 253q-42 23 -100 23.5t-121 -22.5q-50 -18 -91.5 -50.5
t-73.5 -73t-53 -84t-30 -82.5q-10 -42 -5.5 -76t20 -56t41.5 -30t59 3q14 4 15 -10.5t-11 -35t-37 -40.5t-63 -26q-51 -8 -83 12.5t-46 58.5t-11.5 89.5t20.5 105.5q26 78 78 142.5t127 115.5q77 54 157 81t160 32q49 3 98 -4t90.5 -26t72.5 -51t44 -79q19 -65 -7 -159
q-12 -42 -30.5 -85t-41.5 -86.5t-48 -86t-49 -82.5q-24 -41 -47 -80t-39.5 -72.5t-24.5 -60.5t-3 -44q8 -26 34 -16t62 43t78.5 82t83 102t76 103t57.5 84q38 58 72 118t65 118q36 78 82.5 143.5t91.5 112.5zM848 895q11 9 36.5 11t57.5 1t66.5 -4t64 -5t49 -1.5t22.5 6.5
q2 4 9 -1.5t11.5 -15.5t3 -23t-14.5 -23q-12 -9 -37 -10.5t-56.5 0.5t-65 7t-63 8t-50.5 3t-27 -7q-3 -4 -9.5 0t-10 12.5t-1.5 19.5t15 22z" />
    <glyph glyph-name="S" unicode="S" horiz-adv-x="850" 
d="M626 731q47 -20 87.5 -56.5t65 -82t28.5 -95t-21 -94.5q-8 -14 -28.5 -18t-41 0t-33 13.5t-4.5 22.5q31 49 32 96t-16 84.5t-46.5 60.5t-60.5 23q-21 0 -29 -22t-7 -55.5t8 -75t16.5 -80.5t19 -71.5t14.5 -47.5q17 -51 33.5 -103.5t25.5 -106.5q21 -123 -13 -216
q-17 -48 -55 -86t-94 -62q-73 -31 -155 -31q-41 0 -87 3.5t-84 14.5q-73 18 -123 71q-43 47 -52 115q-8 63 15 125q23 64 67 106q48 46 108 54q31 5 72 -6t75 -37.5t51 -66.5t-1 -93q-6 -18 -28 -23t-44.5 -1.5t-38 14.5t-7.5 26q17 34 16 62.5t-14 49t-33.5 30t-41.5 6.5
q-47 -7 -85 -42.5t-58 -91.5q-20 -57 -12.5 -110t41.5 -89q39 -43 99.5 -60t126.5 -3q64 14 110 50t65 88q17 48 18 97.5t-8 100t-24.5 101.5t-32.5 102q-22 66 -39.5 127t-19.5 120q-3 55 17 98q8 20 21.5 36t30.5 27q15 10 37.5 15t46.5 4.5t47.5 -5t42.5 -12.5z" />
    <glyph glyph-name="Scaron" unicode="&#x160;" horiz-adv-x="850" 
d="M626 731q47 -20 87.5 -56.5t65 -82t28.5 -95t-21 -94.5q-8 -14 -28.5 -18t-41 0t-33 13.5t-4.5 22.5q31 49 32 96t-16 84.5t-46.5 60.5t-60.5 23q-21 0 -29 -22t-7 -55.5t8 -75t16.5 -80.5t19 -71.5t14.5 -47.5q17 -51 33.5 -103.5t25.5 -106.5q21 -123 -13 -216
q-17 -48 -55 -86t-94 -62q-73 -31 -155 -31q-41 0 -87 3.5t-84 14.5q-73 18 -123 71q-43 47 -52 115q-8 63 15 125q23 64 67 106q48 46 108 54q31 5 72 -6t75 -37.5t51 -66.5t-1 -93q-6 -18 -28 -23t-44.5 -1.5t-38 14.5t-7.5 26q17 34 16 62.5t-14 49t-33.5 30t-41.5 6.5
q-47 -7 -85 -42.5t-58 -91.5q-20 -57 -12.5 -110t41.5 -89q39 -43 99.5 -60t126.5 -3q64 14 110 50t65 88q17 48 18 97.5t-8 100t-24.5 101.5t-32.5 102q-22 66 -39.5 127t-19.5 120q-3 55 17 98q8 20 21.5 36t30.5 27q15 10 37.5 15t46.5 4.5t47.5 -5t42.5 -12.5zM642 825
q-5 -1 -21 18t-34.5 43t-36 44.5t-24.5 21.5q-12 1 -9 6.5t14.5 10.5t27.5 6.5t31 -4.5q20 -9 37 -22t35 -34q29 26 49 36t41 20q17 7 32 1.5t24 -15t11 -18t-7 -6.5q-4 1 -17.5 -6.5t-31 -19t-38 -25.5t-38 -26.5t-30 -21t-15.5 -9.5z" />
    <glyph glyph-name="Sacute" unicode="&#x15a;" horiz-adv-x="850" 
d="M626 731q-19 8 -42.5 12.5t-47.5 5t-46.5 -4.5t-37.5 -15q-17 -11 -30.5 -27t-21.5 -36q-20 -43 -17 -98q2 -59 19.5 -120t39.5 -127q17 -51 32.5 -102t24.5 -101.5t8 -100t-18 -97.5q-19 -52 -65 -88t-110 -50q-66 -14 -126.5 3t-99.5 60q-34 36 -41.5 89t12.5 110
q20 56 58 91.5t85 42.5q21 3 41.5 -6.5t33.5 -30t14 -49t-16 -62.5q-8 -15 7.5 -26t38 -14.5t44.5 1.5t28 23q18 53 1 93t-51 66.5t-75 37.5t-72 6q-60 -8 -108 -54q-44 -42 -67 -106q-23 -62 -15 -125q9 -68 52 -115q50 -53 123 -71q38 -11 84 -14.5t87 -3.5q82 0 155 31
q56 24 94 62t55 86q34 93 13 216q-9 54 -25.5 106.5t-33.5 103.5q-5 15 -14.5 47.5t-19 71.5t-16.5 80.5t-8 75t7 55.5t29 22q31 0 60.5 -23t46.5 -60.5t16 -84.5t-32 -96q-8 -13 4.5 -22.5t33 -13.5t41 0t28.5 18q25 45 21 94.5t-28.5 95t-65 82t-87.5 56.5zM648 1034
q-2 7 11.5 8t30.5 -4t31.5 -16t14.5 -28q1 -28 -12 -58.5t-32.5 -53.5t-40.5 -35t-35 -3q-9 6 -4.5 32t13.5 57.5t17.5 60t5.5 40.5z" />
    <glyph glyph-name="uni0218" unicode="&#x218;" horiz-adv-x="850" 
d="M175 -358q-3 6 9.5 10.5t29.5 4t32 -7.5t18 -24q6 -38 -5.5 -73.5t-31 -61.5t-43 -38t-43.5 -2q-10 5 1.5 21.5t25 42t20 58t-12.5 70.5zM626 731q47 -20 87.5 -56.5t65 -82t28.5 -95t-21 -94.5q-8 -14 -28.5 -18t-41 0t-33 13.5t-4.5 22.5q31 49 32 96t-16 84.5
t-46.5 60.5t-60.5 23q-21 0 -29 -22t-7 -55.5t8 -75t16.5 -80.5t19 -71.5t14.5 -47.5q17 -51 33.5 -103.5t25.5 -106.5q21 -123 -13 -216q-17 -48 -55 -86t-94 -62q-73 -31 -155 -31q-41 0 -87 3.5t-84 14.5q-73 18 -123 71q-43 47 -52 115q-8 63 15 125q23 64 67 106
q48 46 108 54q31 5 72 -6t75 -37.5t51 -66.5t-1 -93q-6 -18 -28 -23t-44.5 -1.5t-38 14.5t-7.5 26q17 34 16 62.5t-14 49t-33.5 30t-41.5 6.5q-47 -7 -85 -42.5t-58 -91.5q-20 -57 -12.5 -110t41.5 -89q39 -43 99.5 -60t126.5 -3q64 14 110 50t65 88q17 48 18 97.5t-8 100
t-24.5 101.5t-32.5 102q-22 66 -39.5 127t-19.5 120q-3 55 17 98q8 20 21.5 36t30.5 27q15 10 37.5 15t46.5 4.5t47.5 -5t42.5 -12.5z" />
    <glyph glyph-name="E" unicode="E" horiz-adv-x="820" 
d="M635 738q45 -16 82 -48t59.5 -71.5t28 -82t-11.5 -79.5q-5 -11 -18.5 -16t-29.5 -6t-32.5 2t-28.5 9t-16 14.5t5 18.5q22 25 30 55t6 59t-15 53.5t-33 38t-48 13.5t-60 -21q-34 -21 -58.5 -53t-38.5 -70t-16.5 -79t9.5 -80q0 -1 0.5 -1t0.5 -1q40 5 71 2q18 -1 35.5 -6
t32 -13t24.5 -19t12 -24q1 -8 -1 -18t-12 -21q-8 -7 -18 -13.5t-24 -11.5l-18 -7q-43 -13 -89 -9.5t-86 22.5q-1 0 -1.5 0.5t-1.5 0.5q-45 -29 -74 -63q-29 -36 -49.5 -76t-29.5 -81q-5 -21 -6 -42t2 -41q5 -44 27 -80q32 -54 74 -79.5t88 -26.5t91.5 21t84.5 65
q22 24 36.5 54t17.5 59.5t-6 56.5t-33 46q-21 16 -48.5 20.5t-53.5 -3.5t-46 -28.5t-26 -53.5q-2 -14 -20.5 -19.5t-39 -4.5t-37.5 8.5t-16 21.5q1 28 20 52t48 41t65 26.5t71 9.5t66.5 -10.5t51.5 -33.5q24 -27 34.5 -60.5t7.5 -69t-18.5 -71t-43.5 -67.5
q-33 -38 -77.5 -65t-91.5 -39q-24 -5 -48 -8.5t-49 -3.5t-49.5 3.5t-47.5 9.5q-112 32 -170 128q-50 86 -27 193q10 45 32.5 89.5t55.5 83.5q27 32 67 60.5t89 50.5q-5 8 -8.5 16.5t-6.5 18.5q-14 45 -11.5 92.5t19.5 93.5q17 45 46 81.5t67 59.5q18 11 43.5 21.5t55.5 15.5
t64 3.5t70 -13.5z" />
    <glyph glyph-name="Egrave" unicode="&#xc8;" horiz-adv-x="820" 
d="M635 738q45 -16 82 -48t59.5 -71.5t28 -82t-11.5 -79.5q-5 -11 -18.5 -16t-29.5 -6t-32.5 2t-28.5 9t-16 14.5t5 18.5q22 25 30 55t6 59t-15 53.5t-33 38t-48 13.5t-60 -21q-34 -21 -58.5 -53t-38.5 -70t-16.5 -79t9.5 -80q0 -1 0.5 -1t0.5 -1q40 5 71 2q18 -1 35.5 -6
t32 -13t24.5 -19t12 -24q1 -8 -1 -18t-12 -21q-8 -7 -18 -13.5t-24 -11.5l-18 -7q-43 -13 -89 -9.5t-86 22.5q-1 0 -1.5 0.5t-1.5 0.5q-45 -29 -74 -63q-29 -36 -49.5 -76t-29.5 -81q-5 -21 -6 -42t2 -41q5 -44 27 -80q32 -54 74 -79.5t88 -26.5t91.5 21t84.5 65
q22 24 36.5 54t17.5 59.5t-6 56.5t-33 46q-21 16 -48.5 20.5t-53.5 -3.5t-46 -28.5t-26 -53.5q-2 -14 -20.5 -19.5t-39 -4.5t-37.5 8.5t-16 21.5q1 28 20 52t48 41t65 26.5t71 9.5t66.5 -10.5t51.5 -33.5q24 -27 34.5 -60.5t7.5 -69t-18.5 -71t-43.5 -67.5
q-33 -38 -77.5 -65t-91.5 -39q-24 -5 -48 -8.5t-49 -3.5t-49.5 3.5t-47.5 9.5q-112 32 -170 128q-50 86 -27 193q10 45 32.5 89.5t55.5 83.5q27 32 67 60.5t89 50.5q-5 8 -8.5 16.5t-6.5 18.5q-14 45 -11.5 92.5t19.5 93.5q17 45 46 81.5t67 59.5q18 11 43.5 21.5t55.5 15.5
t64 3.5t70 -13.5zM587 1034q-3 -12 5.5 -40.5t17.5 -60t13.5 -57.5t-4.5 -32q-14 -9 -35 3t-40.5 35t-32.5 53.5t-12 58.5q0 17 14.5 28t31.5 16t30 4t12 -8z" />
    <glyph glyph-name="Eacute" unicode="&#xc9;" horiz-adv-x="820" 
d="M635 738q-36 12 -70 13.5t-64 -3.5t-55.5 -15.5t-43.5 -21.5q-38 -23 -67 -59.5t-46 -81.5q-17 -46 -19.5 -93.5t11.5 -92.5q3 -10 6.5 -18.5t8.5 -16.5q-49 -22 -89 -50.5t-67 -60.5q-33 -39 -55.5 -83.5t-32.5 -89.5q-23 -107 27 -193q58 -96 170 -128q23 -6 47.5 -9.5
t49.5 -3.5t49 3.5t48 8.5q47 12 91.5 39t77.5 65q28 32 43.5 67.5t18.5 71t-7.5 69t-34.5 60.5q-20 23 -51.5 33.5t-66.5 10.5t-71 -9.5t-65 -26.5t-48 -41t-20 -52q-1 -14 16 -21.5t37.5 -8.5t39 4.5t20.5 19.5q6 33 26 53.5t46 28.5t53.5 3.5t48.5 -20.5q24 -19 33 -46
t6 -56.5t-17.5 -59.5t-36.5 -54q-39 -43 -84.5 -65t-91.5 -21t-88 26.5t-74 79.5q-22 36 -27 80q-3 20 -2 41t6 42q9 41 29.5 81t49.5 76q29 34 74 63q1 0 1.5 -0.5t1.5 -0.5q40 -19 86 -22.5t89 9.5l18 7q14 5 24 11.5t18 13.5q10 11 12 21t1 18q-2 13 -12 24t-24.5 19
t-32 13t-35.5 6q-31 3 -71 -2q0 1 -0.5 1t-0.5 1q-12 39 -9.5 80t16.5 79t38.5 70t58.5 53q32 21 60 21t48 -13.5t33 -38t15 -53.5t-6 -59t-30 -55q-9 -10 -5 -18.5t16 -14.5t28.5 -9t32.5 -2t29.5 6t18.5 16q17 37 11.5 79.5t-28 82t-59.5 71.5t-82 48zM633 1034
q-2 7 11.5 8t30.5 -4t31.5 -16t14.5 -28q1 -28 -12 -58.5t-32.5 -53.5t-40.5 -35t-35 -3q-9 6 -4.5 32t13.5 57.5t17.5 60t5.5 40.5z" />
    <glyph glyph-name="Ecircumflex" unicode="&#xca;" horiz-adv-x="820" 
d="M635 738q45 -16 82 -48t59.5 -71.5t28 -82t-11.5 -79.5q-5 -11 -18.5 -16t-29.5 -6t-32.5 2t-28.5 9t-16 14.5t5 18.5q22 25 30 55t6 59t-15 53.5t-33 38t-48 13.5t-60 -21q-34 -21 -58.5 -53t-38.5 -70t-16.5 -79t9.5 -80q0 -1 0.5 -1t0.5 -1q40 5 71 2q18 -1 35.5 -6
t32 -13t24.5 -19t12 -24q1 -8 -1 -18t-12 -21q-8 -7 -18 -13.5t-24 -11.5l-18 -7q-43 -13 -89 -9.5t-86 22.5q-1 0 -1.5 0.5t-1.5 0.5q-45 -29 -74 -63q-29 -36 -49.5 -76t-29.5 -81q-5 -21 -6 -42t2 -41q5 -44 27 -80q32 -54 74 -79.5t88 -26.5t91.5 21t84.5 65
q22 24 36.5 54t17.5 59.5t-6 56.5t-33 46q-21 16 -48.5 20.5t-53.5 -3.5t-46 -28.5t-26 -53.5q-2 -14 -20.5 -19.5t-39 -4.5t-37.5 8.5t-16 21.5q1 28 20 52t48 41t65 26.5t71 9.5t66.5 -10.5t51.5 -33.5q24 -27 34.5 -60.5t7.5 -69t-18.5 -71t-43.5 -67.5
q-33 -38 -77.5 -65t-91.5 -39q-24 -5 -48 -8.5t-49 -3.5t-49.5 3.5t-47.5 9.5q-112 32 -170 128q-50 86 -27 193q10 45 32.5 89.5t55.5 83.5q27 32 67 60.5t89 50.5q-5 8 -8.5 16.5t-6.5 18.5q-14 45 -11.5 92.5t19.5 93.5q17 45 46 81.5t67 59.5q18 11 43.5 21.5t55.5 15.5
t64 3.5t70 -13.5zM642 988q5 1 21 -18t34.5 -43t35.5 -44.5t25 -21.5q12 -2 9 -7t-14.5 -10t-27.5 -6.5t-31 4.5q-20 9 -37 22t-35 34q-29 -26 -49 -36t-41 -20q-17 -8 -32 -2t-24 15.5t-11 18t7 6.5q4 -1 17.5 6.5t31 19t38 25.5t38 26.5t30 21t15.5 9.5z" />
    <glyph glyph-name="Edieresis" unicode="&#xcb;" horiz-adv-x="820" 
d="M635 738q45 -16 82 -48t59.5 -71.5t28 -82t-11.5 -79.5q-5 -11 -18.5 -16t-29.5 -6t-32.5 2t-28.5 9t-16 14.5t5 18.5q22 25 30 55t6 59t-15 53.5t-33 38t-48 13.5t-60 -21q-34 -21 -58.5 -53t-38.5 -70t-16.5 -79t9.5 -80q0 -1 0.5 -1t0.5 -1q40 5 71 2q18 -1 35.5 -6
t32 -13t24.5 -19t12 -24q1 -8 -1 -18t-12 -21q-8 -7 -18 -13.5t-24 -11.5l-18 -7q-43 -13 -89 -9.5t-86 22.5q-1 0 -1.5 0.5t-1.5 0.5q-45 -29 -74 -63q-29 -36 -49.5 -76t-29.5 -81q-5 -21 -6 -42t2 -41q5 -44 27 -80q32 -54 74 -79.5t88 -26.5t91.5 21t84.5 65
q22 24 36.5 54t17.5 59.5t-6 56.5t-33 46q-21 16 -48.5 20.5t-53.5 -3.5t-46 -28.5t-26 -53.5q-2 -14 -20.5 -19.5t-39 -4.5t-37.5 8.5t-16 21.5q1 28 20 52t48 41t65 26.5t71 9.5t66.5 -10.5t51.5 -33.5q24 -27 34.5 -60.5t7.5 -69t-18.5 -71t-43.5 -67.5
q-33 -38 -77.5 -65t-91.5 -39q-24 -5 -48 -8.5t-49 -3.5t-49.5 3.5t-47.5 9.5q-112 32 -170 128q-50 86 -27 193q10 45 32.5 89.5t55.5 83.5q27 32 67 60.5t89 50.5q-5 8 -8.5 16.5t-6.5 18.5q-14 45 -11.5 92.5t19.5 93.5q17 45 46 81.5t67 59.5q18 11 43.5 21.5t55.5 15.5
t64 3.5t70 -13.5zM635 895q0 17 13 29t32 12t32 -12t13 -29t-13 -29t-32 -12t-32 12t-13 29zM495 895q0 17 13 29t32 12t32 -12t13 -29t-13 -29t-32 -12t-32 12t-13 29z" />
    <glyph glyph-name="Ecaron" unicode="&#x11a;" horiz-adv-x="820" 
d="M635 738q45 -16 82 -48t59.5 -71.5t28 -82t-11.5 -79.5q-5 -11 -18.5 -16t-29.5 -6t-32.5 2t-28.5 9t-16 14.5t5 18.5q22 25 30 55t6 59t-15 53.5t-33 38t-48 13.5t-60 -21q-34 -21 -58.5 -53t-38.5 -70t-16.5 -79t9.5 -80q0 -1 0.5 -1t0.5 -1q40 5 71 2q18 -1 35.5 -6
t32 -13t24.5 -19t12 -24q1 -8 -1 -18t-12 -21q-8 -7 -18 -13.5t-24 -11.5l-18 -7q-43 -13 -89 -9.5t-86 22.5q-1 0 -1.5 0.5t-1.5 0.5q-45 -29 -74 -63q-29 -36 -49.5 -76t-29.5 -81q-5 -21 -6 -42t2 -41q5 -44 27 -80q32 -54 74 -79.5t88 -26.5t91.5 21t84.5 65
q22 24 36.5 54t17.5 59.5t-6 56.5t-33 46q-21 16 -48.5 20.5t-53.5 -3.5t-46 -28.5t-26 -53.5q-2 -14 -20.5 -19.5t-39 -4.5t-37.5 8.5t-16 21.5q1 28 20 52t48 41t65 26.5t71 9.5t66.5 -10.5t51.5 -33.5q24 -27 34.5 -60.5t7.5 -69t-18.5 -71t-43.5 -67.5
q-33 -38 -77.5 -65t-91.5 -39q-24 -5 -48 -8.5t-49 -3.5t-49.5 3.5t-47.5 9.5q-112 32 -170 128q-50 86 -27 193q10 45 32.5 89.5t55.5 83.5q27 32 67 60.5t89 50.5q-5 8 -8.5 16.5t-6.5 18.5q-14 45 -11.5 92.5t19.5 93.5q17 45 46 81.5t67 59.5q18 11 43.5 21.5t55.5 15.5
t64 3.5t70 -13.5zM627 825q-5 -1 -21 18t-34.5 43t-36 44.5t-24.5 21.5q-12 1 -9 6.5t14.5 10.5t27.5 6.5t31 -4.5q20 -9 37 -22t35 -34q29 26 49 36t41 20q17 7 32 1.5t24 -15t11 -18t-7 -6.5q-4 1 -17.5 -6.5t-31 -19t-38 -25.5t-38 -26.5t-30 -21t-15.5 -9.5z" />
    <glyph glyph-name="Edotaccent" unicode="&#x116;" horiz-adv-x="820" 
d="M635 738q45 -16 82 -48t59.5 -71.5t28 -82t-11.5 -79.5q-5 -11 -18.5 -16t-29.5 -6t-32.5 2t-28.5 9t-16 14.5t5 18.5q22 25 30 55t6 59t-15 53.5t-33 38t-48 13.5t-60 -21q-34 -21 -58.5 -53t-38.5 -70t-16.5 -79t9.5 -80q0 -1 0.5 -1t0.5 -1q40 5 71 2q18 -1 35.5 -6
t32 -13t24.5 -19t12 -24q1 -8 -1 -18t-12 -21q-8 -7 -18 -13.5t-24 -11.5l-18 -7q-43 -13 -89 -9.5t-86 22.5q-1 0 -1.5 0.5t-1.5 0.5q-45 -29 -74 -63q-29 -36 -49.5 -76t-29.5 -81q-5 -21 -6 -42t2 -41q5 -44 27 -80q32 -54 74 -79.5t88 -26.5t91.5 21t84.5 65
q22 24 36.5 54t17.5 59.5t-6 56.5t-33 46q-21 16 -48.5 20.5t-53.5 -3.5t-46 -28.5t-26 -53.5q-2 -14 -20.5 -19.5t-39 -4.5t-37.5 8.5t-16 21.5q1 28 20 52t48 41t65 26.5t71 9.5t66.5 -10.5t51.5 -33.5q24 -27 34.5 -60.5t7.5 -69t-18.5 -71t-43.5 -67.5
q-33 -38 -77.5 -65t-91.5 -39q-24 -5 -48 -8.5t-49 -3.5t-49.5 3.5t-47.5 9.5q-112 32 -170 128q-50 86 -27 193q10 45 32.5 89.5t55.5 83.5q27 32 67 60.5t89 50.5q-5 8 -8.5 16.5t-6.5 18.5q-14 45 -11.5 92.5t19.5 93.5q17 45 46 81.5t67 59.5q18 11 43.5 21.5t55.5 15.5
t64 3.5t70 -13.5zM605 895q0 17 13 29t32 12t32 -12t13 -29t-13 -29t-32 -12t-32 12t-13 29z" />
    <glyph glyph-name="Emacron" unicode="&#x112;" horiz-adv-x="820" 
d="M635 738q45 -16 82 -48t59.5 -71.5t28 -82t-11.5 -79.5q-5 -11 -18.5 -16t-29.5 -6t-32.5 2t-28.5 9t-16 14.5t5 18.5q22 25 30 55t6 59t-15 53.5t-33 38t-48 13.5t-60 -21q-34 -21 -58.5 -53t-38.5 -70t-16.5 -79t9.5 -80q0 -1 0.5 -1t0.5 -1q40 5 71 2q18 -1 35.5 -6
t32 -13t24.5 -19t12 -24q1 -8 -1 -18t-12 -21q-8 -7 -18 -13.5t-24 -11.5l-18 -7q-43 -13 -89 -9.5t-86 22.5q-1 0 -1.5 0.5t-1.5 0.5q-45 -29 -74 -63q-29 -36 -49.5 -76t-29.5 -81q-5 -21 -6 -42t2 -41q5 -44 27 -80q32 -54 74 -79.5t88 -26.5t91.5 21t84.5 65
q22 24 36.5 54t17.5 59.5t-6 56.5t-33 46q-21 16 -48.5 20.5t-53.5 -3.5t-46 -28.5t-26 -53.5q-2 -14 -20.5 -19.5t-39 -4.5t-37.5 8.5t-16 21.5q1 28 20 52t48 41t65 26.5t71 9.5t66.5 -10.5t51.5 -33.5q24 -27 34.5 -60.5t7.5 -69t-18.5 -71t-43.5 -67.5
q-33 -38 -77.5 -65t-91.5 -39q-24 -5 -48 -8.5t-49 -3.5t-49.5 3.5t-47.5 9.5q-112 32 -170 128q-50 86 -27 193q10 45 32.5 89.5t55.5 83.5q27 32 67 60.5t89 50.5q-5 8 -8.5 16.5t-6.5 18.5q-14 45 -11.5 92.5t19.5 93.5q17 45 46 81.5t67 59.5q18 11 43.5 21.5t55.5 15.5
t64 3.5t70 -13.5zM467 945q11 9 36.5 11t57.5 1t66.5 -4t64 -5t49 -1.5t22.5 6.5q2 4 9 -1.5t11.5 -15.5t3 -23t-14.5 -23q-12 -9 -37 -10.5t-56.5 0.5t-65 7t-63 8t-50.5 3t-27 -7q-3 -4 -9.5 0t-10 12.5t-1.5 19.5t15 22z" />
    <glyph glyph-name="AE" unicode="&#xc6;" horiz-adv-x="1327" 
d="M1142 738q45 -16 82 -48t59.5 -71.5t28 -82t-11.5 -79.5q-5 -11 -18.5 -16t-29.5 -6t-32.5 2t-28.5 9t-16 14.5t5 18.5q21 25 29.5 55t6.5 59t-15 53.5t-33 38t-48 13.5t-60 -21q-34 -21 -58.5 -53t-38.5 -70t-16.5 -79t9.5 -80q0 -1 0.5 -1t0.5 -1q40 5 71 2
q18 -1 35.5 -6t32 -13t24.5 -19t12 -24q1 -8 -1 -18t-12 -21q-8 -7 -18 -13.5t-24 -11.5l-18 -7q-43 -13 -89 -9.5t-86 22.5q-1 0 -1.5 0.5t-1.5 0.5q-45 -29 -74 -63q-29 -36 -49.5 -76t-29.5 -81q-5 -21 -6 -42t2 -41q5 -44 27 -80q32 -54 74 -79.5t88 -26.5t91.5 21
t84.5 65q22 24 36.5 54t17.5 59.5t-6 56.5t-33 46q-21 16 -48.5 20.5t-53.5 -3.5t-46 -28.5t-26 -53.5q-2 -14 -20.5 -19.5t-39 -4.5t-37.5 8.5t-16 21.5q1 28 20 52t48 41t65 26.5t71 9.5t66.5 -10.5t51.5 -33.5q24 -27 34.5 -60.5t7.5 -69t-18.5 -71t-43.5 -67.5
q-33 -38 -77.5 -65t-91.5 -39q-24 -5 -48 -8.5t-49 -3.5t-49.5 3.5t-47.5 9.5q-112 32 -170 128q-50 86 -27 193q10 45 32.5 89.5t55.5 83.5q25 29 58 54l-54 14q-41 11 -82 23.5t-81 24.5q-32 -56 -66.5 -108t-72.5 -97q-113 -130 -239 -131h-2q-101 0 -156 73
q-24 32 -34.5 73.5t-6.5 89.5q4 52 24.5 101.5t54.5 88.5q36 42 86 66q50 26 114 28q69 3 109 -28q35 -28 40 -73v-3q33 -8 64 -15t67 -18q42 72 84.5 145t88.5 127q23 27 44.5 47t44.5 34q52 32 106 32q43 0 63 -30q10 -17 13 -42q19 11 44 20.5t54.5 14.5t62 3t67.5 -14z
M147 64q40 0 80.5 27t79.5 70.5t75 96.5t67 106q-31 9 -59 16t-57 14q-5 -15 -12 -26q-24 -35 -61 -46q-35 -11 -53.5 -5t-25.5 13q-18 17 -9 47q6 20 25.5 36.5t46.5 24.5q19 6 53 2q-4 17 -18.5 34.5t-40.5 18.5q-44 1 -77.5 -21t-56.5 -56.5t-36 -75t-17 -76.5
q-3 -29 -2.5 -64t9.5 -65t30 -50.5t59 -20.5zM508 390q40 -11 79.5 -23t79.5 -23q28 72 52.5 137t39.5 119q7 24 13 46t9 38.5t1.5 27.5t-10.5 13q-14 4 -33.5 -10.5t-42.5 -40.5t-48.5 -61.5t-50.5 -74t-48 -77t-41 -71.5z" />
    <glyph glyph-name="OE" unicode="&#x152;" horiz-adv-x="1429" 
d="M1244 738q45 -16 82 -48t59.5 -71.5t28 -82t-11.5 -79.5q-5 -11 -18.5 -16t-29.5 -6t-32.5 2t-28.5 9t-16 14.5t5 18.5q21 25 29.5 55t6 59t-15 53.5t-32.5 38t-48 13.5t-60 -21q-34 -21 -58.5 -53t-38.5 -70t-16.5 -79t9.5 -80q0 -1 0.5 -1t0.5 -1q40 5 71 2
q18 -1 35.5 -6t32 -13t24.5 -19t12 -24q1 -8 -1 -18t-12 -21q-8 -7 -18 -13.5t-24 -11.5l-18 -7q-43 -13 -89 -9.5t-86 22.5q-1 0 -1.5 0.5t-1.5 0.5q-45 -29 -74 -63q-29 -36 -49.5 -76t-29.5 -81q-5 -21 -6 -42t2 -41q5 -44 27 -80q32 -54 74 -79.5t88 -26.5t91.5 21
t84.5 65q22 24 36.5 54t17.5 59.5t-6 56.5t-33 46q-21 16 -48.5 20.5t-53.5 -3.5t-46 -28.5t-26 -53.5q-2 -14 -20.5 -19.5t-39 -4.5t-37.5 8.5t-16 21.5q1 28 20 52t48 41t65 26.5t71 9.5t66.5 -10.5t51.5 -33.5q24 -27 34.5 -60.5t7.5 -69t-18.5 -71t-43.5 -67.5
q-33 -38 -77.5 -65t-91.5 -39q-24 -5 -48 -8.5t-49 -3.5t-49.5 3.5t-47.5 9.5q-84 24 -140 87q-47 -33 -100 -57.5t-108.5 -37.5t-113 -14t-113.5 12q-57 12 -105 38t-83 64t-58 90t-32 115q-8 62 -2.5 127.5t23.5 132.5q19 65 50 129t73 122q43 59 92 106.5t103 81.5
q31 20 67.5 23.5t63.5 -3.5t35.5 -22t-15.5 -31q-53 -35 -99.5 -81t-85.5 -100t-68 -113.5t-47 -122.5q-17 -62 -21.5 -123t3 -117t27 -104t50.5 -83q43 -49 98 -68.5t114 -16.5t118 26t110 59l-6 9q-50 86 -27 193q10 45 32.5 89.5t55.5 83.5q27 32 67 60.5t89 50.5
q-5 8 -8.5 16.5t-6.5 18.5q-14 45 -11.5 92.5t19.5 93.5q7 20 18 40q-18 27 -40 46t-48 28t-54.5 5.5t-59.5 -21.5q-48 -27 -89 -72t-66 -97q-23 -51 -31 -106.5t1 -108.5q3 -22 9 -41.5t15 -39t21 -40t28 -45.5q8 -13 3 -24.5t-19 -19.5t-33.5 -12t-40.5 -2.5t-40.5 10
t-31.5 24.5q-34 45 -53.5 90t-27.5 94q-9 55 -1 116q5 32 13 62.5t22 59.5t32.5 56.5t41.5 52.5q44 47 97 78q50 28 103 38.5t104 1.5q45 -8 84.5 -29.5t71.5 -56.5l11 -13q31 41 73 67q18 11 43.5 21.5t55.5 15.5t64 3.5t70 -13.5z" />
    <glyph glyph-name="I" unicode="I" horiz-adv-x="715" 
d="M660 489q-9 -81 -24.5 -159t-38.5 -147q-54 -172 -143 -280q-105 -129 -248 -161q-26 -6 -52 -6t-50.5 5.5t-45 17t-33.5 28.5q-21 24 -24 58q-3 17 0.5 36t11.5 39q8 21 22.5 42t32.5 40q24 22 63 40t77.5 23t68 -7.5t32.5 -49.5q1 -17 -13 -29t-31.5 -16.5t-33 -0.5
t-16.5 21q-2 31 -15 39.5t-31 3t-38 -20.5t-37 -31q-16 -14 -27 -30.5t-17 -33.5q-7 -17 -7.5 -38t6 -39t20.5 -30.5t38 -12.5q55 -1 101.5 26.5t85.5 76t71.5 115.5t58.5 145q21 62 36.5 131.5t24.5 146.5q9 66 11.5 121.5t2.5 97.5q-78 -35 -148.5 -79t-118.5 -104
q-17 -22 -30.5 -52.5t-11.5 -57.5q3 -28 24 -42q16 -12 34.5 -11.5t35 9.5t28 25t14.5 36q2 12 15.5 14.5t28 -3t26 -17.5t8.5 -27q-4 -23 -30 -41.5t-59.5 -28t-68.5 -8t-58 17.5q-33 24 -38 68q-2 19 2.5 38.5t12 38t17.5 35t20 28.5q60 78 178 143q12 7 38 22t58 32.5
t65.5 34t61.5 26t45.5 8.5t18.5 -17q2 -54 1 -117.5t-8 -131.5z" />
    <glyph glyph-name="Igrave" unicode="&#xcc;" horiz-adv-x="715" 
d="M660 489q-9 -81 -24.5 -159t-38.5 -147q-54 -172 -143 -280q-105 -129 -248 -161q-26 -6 -52 -6t-50.5 5.5t-45 17t-33.5 28.5q-21 24 -24 58q-3 17 0.5 36t11.5 39q8 21 22.5 42t32.5 40q24 22 63 40t77.5 23t68 -7.5t32.5 -49.5q1 -17 -13 -29t-31.5 -16.5t-33 -0.5
t-16.5 21q-2 31 -15 39.5t-31 3t-38 -20.5t-37 -31q-16 -14 -27 -30.5t-17 -33.5q-7 -17 -7.5 -38t6 -39t20.5 -30.5t38 -12.5q55 -1 101.5 26.5t85.5 76t71.5 115.5t58.5 145q21 62 36.5 131.5t24.5 146.5q9 66 11.5 121.5t2.5 97.5q-78 -35 -148.5 -79t-118.5 -104
q-17 -22 -30.5 -52.5t-11.5 -57.5q3 -28 24 -42q16 -12 34.5 -11.5t35 9.5t28 25t14.5 36q2 12 15.5 14.5t28 -3t26 -17.5t8.5 -27q-4 -23 -30 -41.5t-59.5 -28t-68.5 -8t-58 17.5q-33 24 -38 68q-2 19 2.5 38.5t12 38t17.5 35t20 28.5q60 78 178 143q12 7 38 22t58 32.5
t65.5 34t61.5 26t45.5 8.5t18.5 -17q2 -54 1 -117.5t-8 -131.5zM424 1034q-3 -12 5.5 -40.5t17.5 -60t13.5 -57.5t-4.5 -32q-14 -9 -35 3t-40.5 35t-32.5 53.5t-12 58.5q0 17 14.5 28t31.5 16t30 4t12 -8z" />
    <glyph glyph-name="Iacute" unicode="&#xcd;" horiz-adv-x="715" 
d="M660 489q7 68 8 131.5t-1 117.5q-1 16 -18.5 17t-45.5 -8.5t-61.5 -26t-65.5 -34t-58 -32.5t-38 -22q-118 -65 -178 -143q-10 -12 -20 -28.5t-17.5 -35t-12 -38t-2.5 -38.5q5 -44 38 -68q23 -16 58 -17.5t68.5 8t59.5 28t30 41.5q3 15 -8.5 27t-26 17.5t-28 3
t-15.5 -14.5q-3 -20 -14.5 -36t-28 -25t-35 -9.5t-34.5 11.5q-21 14 -24 42q-2 27 11.5 57.5t30.5 52.5q48 60 118.5 104t148.5 79q0 -42 -2.5 -97.5t-11.5 -121.5q-9 -77 -24.5 -146.5t-36.5 -131.5q-26 -78 -58.5 -145t-71.5 -115.5t-85.5 -76t-101.5 -26.5
q-24 0 -38 12.5t-20.5 30.5t-6 39t7.5 38q6 17 17 33.5t27 30.5q17 16 37 31t38 20.5t31 -3t15 -39.5q1 -17 16.5 -21t33 0.5t31.5 16.5t13 29q-3 37 -32.5 49.5t-68 7.5t-77.5 -23t-63 -40q-18 -19 -32.5 -40t-22.5 -42q-8 -20 -11.5 -39t-0.5 -36q3 -34 24 -58
q13 -17 33.5 -28.5t45 -17t50.5 -5.5t52 6q143 32 248 161q89 108 143 280q23 69 38.5 147t24.5 159zM470 1034q-2 7 11.5 8t30.5 -4t31.5 -16t14.5 -28q1 -28 -12 -58.5t-32.5 -53.5t-40.5 -35t-35 -3q-9 6 -4.5 32t13.5 57.5t17.5 60t5.5 40.5z" />
    <glyph glyph-name="Icircumflex" unicode="&#xce;" horiz-adv-x="715" 
d="M660 489q-9 -81 -24.5 -159t-38.5 -147q-54 -172 -143 -280q-105 -129 -248 -161q-26 -6 -52 -6t-50.5 5.5t-45 17t-33.5 28.5q-21 24 -24 58q-3 17 0.5 36t11.5 39q8 21 22.5 42t32.5 40q24 22 63 40t77.5 23t68 -7.5t32.5 -49.5q1 -17 -13 -29t-31.5 -16.5t-33 -0.5
t-16.5 21q-2 31 -15 39.5t-31 3t-38 -20.5t-37 -31q-16 -14 -27 -30.5t-17 -33.5q-7 -17 -7.5 -38t6 -39t20.5 -30.5t38 -12.5q55 -1 101.5 26.5t85.5 76t71.5 115.5t58.5 145q21 62 36.5 131.5t24.5 146.5q9 66 11.5 121.5t2.5 97.5q-78 -35 -148.5 -79t-118.5 -104
q-17 -22 -30.5 -52.5t-11.5 -57.5q3 -28 24 -42q16 -12 34.5 -11.5t35 9.5t28 25t14.5 36q2 12 15.5 14.5t28 -3t26 -17.5t8.5 -27q-4 -23 -30 -41.5t-59.5 -28t-68.5 -8t-58 17.5q-33 24 -38 68q-2 19 2.5 38.5t12 38t17.5 35t20 28.5q60 78 178 143q12 7 38 22t58 32.5
t65.5 34t61.5 26t45.5 8.5t18.5 -17q2 -54 1 -117.5t-8 -131.5zM510 988q5 1 21 -18t34.5 -43t35.5 -44.5t25 -21.5q12 -2 9 -7t-14.5 -10t-27.5 -6.5t-31 4.5q-20 9 -37 22t-35 34q-29 -26 -49 -36t-41 -20q-17 -8 -32 -2t-24 15.5t-11 18t7 6.5q4 -1 17.5 6.5t31 19
t38 25.5t38 26.5t30 21t15.5 9.5z" />
    <glyph glyph-name="Idieresis" unicode="&#xcf;" horiz-adv-x="715" 
d="M660 489q-9 -81 -24.5 -159t-38.5 -147q-54 -172 -143 -280q-105 -129 -248 -161q-26 -6 -52 -6t-50.5 5.5t-45 17t-33.5 28.5q-21 24 -24 58q-3 17 0.5 36t11.5 39q8 21 22.5 42t32.5 40q24 22 63 40t77.5 23t68 -7.5t32.5 -49.5q1 -17 -13 -29t-31.5 -16.5t-33 -0.5
t-16.5 21q-2 31 -15 39.5t-31 3t-38 -20.5t-37 -31q-16 -14 -27 -30.5t-17 -33.5q-7 -17 -7.5 -38t6 -39t20.5 -30.5t38 -12.5q55 -1 101.5 26.5t85.5 76t71.5 115.5t58.5 145q21 62 36.5 131.5t24.5 146.5q9 66 11.5 121.5t2.5 97.5q-78 -35 -148.5 -79t-118.5 -104
q-17 -22 -30.5 -52.5t-11.5 -57.5q3 -28 24 -42q16 -12 34.5 -11.5t35 9.5t28 25t14.5 36q2 12 15.5 14.5t28 -3t26 -17.5t8.5 -27q-4 -23 -30 -41.5t-59.5 -28t-68.5 -8t-58 17.5q-33 24 -38 68q-2 19 2.5 38.5t12 38t17.5 35t20 28.5q60 78 178 143q12 7 38 22t58 32.5
t65.5 34t61.5 26t45.5 8.5t18.5 -17q2 -54 1 -117.5t-8 -131.5zM402 895q0 17 13 29t32 12t32 -12t13 -29t-13 -29t-32 -12t-32 12t-13 29zM542 895q0 17 13 29t32 12t32 -12t13 -29t-13 -29t-32 -12t-32 12t-13 29z" />
    <glyph glyph-name="Imacron" unicode="&#x12a;" horiz-adv-x="715" 
d="M660 489q-9 -81 -24.5 -159t-38.5 -147q-54 -172 -143 -280q-105 -129 -248 -161q-26 -6 -52 -6t-50.5 5.5t-45 17t-33.5 28.5q-21 24 -24 58q-3 17 0.5 36t11.5 39q8 21 22.5 42t32.5 40q24 22 63 40t77.5 23t68 -7.5t32.5 -49.5q1 -17 -13 -29t-31.5 -16.5t-33 -0.5
t-16.5 21q-2 31 -15 39.5t-31 3t-38 -20.5t-37 -31q-16 -14 -27 -30.5t-17 -33.5q-7 -17 -7.5 -38t6 -39t20.5 -30.5t38 -12.5q55 -1 101.5 26.5t85.5 76t71.5 115.5t58.5 145q21 62 36.5 131.5t24.5 146.5q9 66 11.5 121.5t2.5 97.5q-78 -35 -148.5 -79t-118.5 -104
q-17 -22 -30.5 -52.5t-11.5 -57.5q3 -28 24 -42q16 -12 34.5 -11.5t35 9.5t28 25t14.5 36q2 12 15.5 14.5t28 -3t26 -17.5t8.5 -27q-4 -23 -30 -41.5t-59.5 -28t-68.5 -8t-58 17.5q-33 24 -38 68q-2 19 2.5 38.5t12 38t17.5 35t20 28.5q60 78 178 143q12 7 38 22t58 32.5
t65.5 34t61.5 26t45.5 8.5t18.5 -17q2 -54 1 -117.5t-8 -131.5zM344 945q11 9 36.5 11t57.5 1t66.5 -4t64 -5t49 -1.5t22.5 6.5q2 4 9 -1.5t11.5 -15.5t3 -23t-14.5 -23q-12 -9 -37 -10.5t-56.5 0.5t-65 7t-63 8t-50.5 3t-27 -7q-3 -4 -9.5 0t-10 12.5t-1.5 19.5t15 22z" />
    <glyph glyph-name="Idotaccent" unicode="&#x130;" horiz-adv-x="715" 
d="M660 489q-9 -81 -24.5 -159t-38.5 -147q-54 -172 -143 -280q-105 -129 -248 -161q-26 -6 -52 -6t-50.5 5.5t-45 17t-33.5 28.5q-21 24 -24 58q-3 17 0.5 36t11.5 39q8 21 22.5 42t32.5 40q24 22 63 40t77.5 23t68 -7.5t32.5 -49.5q1 -17 -13 -29t-31.5 -16.5t-33 -0.5
t-16.5 21q-2 31 -15 39.5t-31 3t-38 -20.5t-37 -31q-16 -14 -27 -30.5t-17 -33.5q-7 -17 -7.5 -38t6 -39t20.5 -30.5t38 -12.5q55 -1 101.5 26.5t85.5 76t71.5 115.5t58.5 145q21 62 36.5 131.5t24.5 146.5q9 66 11.5 121.5t2.5 97.5q-78 -35 -148.5 -79t-118.5 -104
q-17 -22 -30.5 -52.5t-11.5 -57.5q3 -28 24 -42q16 -12 34.5 -11.5t35 9.5t28 25t14.5 36q2 12 15.5 14.5t28 -3t26 -17.5t8.5 -27q-4 -23 -30 -41.5t-59.5 -28t-68.5 -8t-58 17.5q-33 24 -38 68q-2 19 2.5 38.5t12 38t17.5 35t20 28.5q60 78 178 143q12 7 38 22t58 32.5
t65.5 34t61.5 26t45.5 8.5t18.5 -17q2 -54 1 -117.5t-8 -131.5zM412 895q0 17 13 29t32 12t32 -12t13 -29t-13 -29t-32 -12t-32 12t-13 29z" />
    <glyph glyph-name="D" unicode="D" horiz-adv-x="1096" 
d="M1140 153q1 -8 -5 -15t-14 -9l-5 -1l-203 -48q-21 -72 -51.5 -134.5t-69.5 -113.5q-54 -68 -122 -123t-147 -93q-69 -34 -139.5 -53t-135.5 -21q-33 0 -65 3t-57 12q-55 20 -72 58q-34 69 7 139t162 137q103 55 266 110q60 20 123.5 38.5t128.5 35.5q10 32 17 64.5
t12 67.5q18 116 8 213.5t-52 164.5q-37 59 -89.5 89t-111 33t-116.5 -18.5t-106 -66.5q-39 -36 -70 -81.5t-54 -94t-37.5 -95.5t-19.5 -86.5t-0.5 -68t19.5 -39.5q16 -12 9.5 -25.5t-25 -21.5t-44 -6t-47.5 22q-34 31 -41 84t10 116t57 130.5t100.5 126t140 101.5t176.5 59
q117 19 213.5 0.5t160 -82t89 -175t1.5 -277.5q-3 -23 -7.5 -44.5t-9.5 -42.5l191 45l4 1q9 2 15.5 -2.5t5.5 -12.5zM91 -362q14 -29 38.5 -41t54.5 -12t63.5 9t65.5 22t60 27.5t48 26.5q109 64 186.5 152.5t120.5 209.5q-61 -16 -119.5 -33.5t-113.5 -35.5
q-335 -111 -400 -224q-29 -49 -4 -101zM221 54q-8 24 4.5 69t35 99t50 111t50 105.5t34 82.5t3.5 42q-5 4 2 9.5t20 9t29.5 4.5t31.5 -3t26 -15t13 -31q4 -38 -9.5 -82t-36 -90.5t-49 -93.5t-49.5 -91t-38 -83t-13 -69q0 -9 -12.5 -17.5t-30 -8.5t-35 11t-26.5 41z" />
    <glyph glyph-name="Dcroat" unicode="&#x110;" horiz-adv-x="1096" 
d="M1140 153q1 -8 -5 -15t-14 -9l-5 -1l-203 -48q-21 -72 -51.5 -134.5t-69.5 -113.5q-54 -68 -122 -123t-147 -93q-69 -34 -139.5 -53t-135.5 -21q-33 0 -65 3t-57 12q-55 20 -72 58q-34 69 7 139t162 137q103 55 266 110q60 20 123.5 38.5t128.5 35.5q10 32 17 64.5
t12 67.5q18 116 8 213.5t-52 164.5q-37 59 -89.5 89t-111 33t-116.5 -18.5t-106 -66.5q-39 -36 -70 -81.5t-54 -94t-37.5 -95.5t-19.5 -86.5t-0.5 -68t19.5 -39.5q16 -12 9.5 -25.5t-25 -21.5t-44 -6t-47.5 22q-34 31 -41 84t10 116t57 130.5t100.5 126t140 101.5t176.5 59
q117 19 213.5 0.5t160 -82t89 -175t1.5 -277.5q-3 -23 -7.5 -44.5t-9.5 -42.5l191 45l4 1q9 2 15.5 -2.5t5.5 -12.5zM91 -362q14 -29 38.5 -41t54.5 -12t63.5 9t65.5 22t60 27.5t48 26.5q109 64 186.5 152.5t120.5 209.5q-61 -16 -119.5 -33.5t-113.5 -35.5
q-335 -111 -400 -224q-29 -49 -4 -101zM209 312q11 9 37.5 11.5t59.5 0.5q20 43 39.5 83t33 72.5t19.5 55t0 28.5q-5 4 2 9.5t20 9t29.5 4.5t31.5 -3t26 -15t13 -31q2 -24 -3 -51t-14.5 -55.5t-23.5 -58t-30 -59.5q23 -1 38.5 0.5t17.5 6.5q2 4 9 -1.5t11.5 -15.5t3 -23
t-14.5 -23t-40.5 -11.5t-61.5 1.5q-18 -32 -34 -62.5t-28 -58.5t-19 -52.5t-6 -45.5q0 -9 -12.5 -17.5t-30 -8.5t-35 11t-26.5 41q-5 14 -2 36t11 49.5t20.5 59t27.5 64.5q-24 2 -41 1.5t-22 -6.5q-3 -4 -9.5 0t-10 12.5t-1.5 19.5t15 22z" />
    <glyph glyph-name="Dcaron" unicode="&#x10e;" horiz-adv-x="1096" 
d="M1140 153q1 -8 -5 -15t-14 -9l-5 -1l-203 -48q-21 -72 -51.5 -134.5t-69.5 -113.5q-54 -68 -122 -123t-147 -93q-69 -34 -139.5 -53t-135.5 -21q-33 0 -65 3t-57 12q-55 20 -72 58q-34 69 7 139t162 137q103 55 266 110q60 20 123.5 38.5t128.5 35.5q10 32 17 64.5
t12 67.5q18 116 8 213.5t-52 164.5q-37 59 -89.5 89t-111 33t-116.5 -18.5t-106 -66.5q-39 -36 -70 -81.5t-54 -94t-37.5 -95.5t-19.5 -86.5t-0.5 -68t19.5 -39.5q16 -12 9.5 -25.5t-25 -21.5t-44 -6t-47.5 22q-34 31 -41 84t10 116t57 130.5t100.5 126t140 101.5t176.5 59
q117 19 213.5 0.5t160 -82t89 -175t1.5 -277.5q-3 -23 -7.5 -44.5t-9.5 -42.5l191 45l4 1q9 2 15.5 -2.5t5.5 -12.5zM91 -362q14 -29 38.5 -41t54.5 -12t63.5 9t65.5 22t60 27.5t48 26.5q109 64 186.5 152.5t120.5 209.5q-61 -16 -119.5 -33.5t-113.5 -35.5
q-335 -111 -400 -224q-29 -49 -4 -101zM221 54q-8 24 4.5 69t35 99t50 111t50 105.5t34 82.5t3.5 42q-5 4 2 9.5t20 9t29.5 4.5t31.5 -3t26 -15t13 -31q4 -38 -9.5 -82t-36 -90.5t-49 -93.5t-49.5 -91t-38 -83t-13 -69q0 -9 -12.5 -17.5t-30 -8.5t-35 11t-26.5 41zM635 825
q-5 -1 -21 18t-34.5 43t-36 44.5t-24.5 21.5q-12 1 -9 6.5t14.5 10.5t27.5 6.5t31 -4.5q20 -9 37 -22t35 -34q29 26 49 36t41 20q17 7 32 1.5t24 -15t11 -18t-7 -6.5q-4 1 -17.5 -6.5t-31 -19t-38 -25.5t-38 -26.5t-30 -21t-15.5 -9.5z" />
    <glyph glyph-name="Eth" unicode="&#xd0;" horiz-adv-x="1096" 
d="M1140 153q1 -8 -5 -15t-14 -9l-5 -1l-203 -48q-21 -72 -51.5 -134.5t-69.5 -113.5q-54 -68 -122 -123t-147 -93q-69 -34 -139.5 -53t-135.5 -21q-33 0 -65 3t-57 12q-55 20 -72 58q-34 69 7 139t162 137q103 55 266 110q60 20 123.5 38.5t128.5 35.5q10 32 17 64.5
t12 67.5q18 116 8 213.5t-52 164.5q-37 59 -89.5 89t-111 33t-116.5 -18.5t-106 -66.5q-39 -36 -70 -81.5t-54 -94t-37.5 -95.5t-19.5 -86.5t-0.5 -68t19.5 -39.5q16 -12 9.5 -25.5t-25 -21.5t-44 -6t-47.5 22q-34 31 -41 84t10 116t57 130.5t100.5 126t140 101.5t176.5 59
q117 19 213.5 0.5t160 -82t89 -175t1.5 -277.5q-3 -23 -7.5 -44.5t-9.5 -42.5l191 45l4 1q9 2 15.5 -2.5t5.5 -12.5zM91 -362q14 -29 38.5 -41t54.5 -12t63.5 9t65.5 22t60 27.5t48 26.5q109 64 186.5 152.5t120.5 209.5q-61 -16 -119.5 -33.5t-113.5 -35.5
q-335 -111 -400 -224q-29 -49 -4 -101zM209 312q11 9 37.5 11.5t59.5 0.5q20 43 39.5 83t33 72.5t19.5 55t0 28.5q-5 4 2 9.5t20 9t29.5 4.5t31.5 -3t26 -15t13 -31q2 -24 -3 -51t-14.5 -55.5t-23.5 -58t-30 -59.5q23 -1 38.5 0.5t17.5 6.5q2 4 9 -1.5t11.5 -15.5t3 -23
t-14.5 -23t-40.5 -11.5t-61.5 1.5q-18 -32 -34 -62.5t-28 -58.5t-19 -52.5t-6 -45.5q0 -9 -12.5 -17.5t-30 -8.5t-35 11t-26.5 41q-5 14 -2 36t11 49.5t20.5 59t27.5 64.5q-24 2 -41 1.5t-22 -6.5q-3 -4 -9.5 0t-10 12.5t-1.5 19.5t15 22z" />
    <glyph glyph-name="quotesinglbase" unicode="&#x201a;" horiz-adv-x="186" 
d="M66 114q-3 6 9.5 10.5t29.5 4t32 -7.5t18 -24q6 -38 -5.5 -73.5t-31 -61.5t-43 -38t-43.5 -2q-10 5 1.5 21.5t25 42t20 58t-12.5 70.5z" />
    <glyph glyph-name="quotedblbase" unicode="&#x201e;" horiz-adv-x="355" 
d="M81 114q-3 6 9.5 10.5t29.5 4t32 -7.5t18 -24q6 -38 -5.5 -73.5t-31 -61.5t-43 -38t-43.5 -2q-10 5 1.5 21.5t25 42t20 58t-12.5 70.5zM221 114q-3 6 9.5 10.5t29.5 4t32 -7.5t18 -24q6 -38 -5.5 -73.5t-31 -61.5t-43 -38t-43.5 -2q-10 5 1.5 21.5t25 42t20 58
t-12.5 70.5z" />
    <glyph glyph-name="quotedblright" unicode="&#x201d;" horiz-adv-x="355" 
d="M81 622q-3 6 9.5 10.5t29.5 4t32 -7.5t18 -24q6 -38 -5.5 -73.5t-31 -61.5t-43 -38t-43.5 -2q-10 5 1.5 21.5t25 42t20 58t-12.5 70.5zM221 622q-3 6 9.5 10.5t29.5 4t32 -7.5t18 -24q6 -38 -5.5 -73.5t-31 -61.5t-43 -38t-43.5 -2q-10 5 1.5 21.5t25 42t20 58
t-12.5 70.5z" />
    <glyph glyph-name="quotedblleft" unicode="&#x201c;" horiz-adv-x="356" 
d="M275 431q3 -6 -9.5 -10.5t-29.5 -4t-32 7.5t-18 24q-6 37 5 73t30.5 62t43.5 38t44 2q10 -5 -1.5 -21.5t-25 -42t-20 -58.5t12.5 -70zM135 431q3 -6 -9.5 -10.5t-29.5 -4t-32 7.5t-18 24q-6 37 5 73t30.5 62t43.5 38t44 2q10 -5 -1.5 -21.5t-25 -42t-20 -58.5t12.5 -70z
" />
    <glyph glyph-name="quoteright" unicode="&#x2019;" horiz-adv-x="186" 
d="M66 613q-3 6 9.5 10.5t29.5 4t32 -7.5t18 -24q6 -38 -5.5 -73.5t-31 -61.5t-43 -38t-43.5 -2q-10 5 1.5 21.5t25 42t20 58t-12.5 70.5z" />
    <glyph glyph-name="quoteleft" unicode="&#x2018;" horiz-adv-x="188" 
d="M122 431q3 -6 -9.5 -10.5t-29.5 -4t-32 7.5t-18 24q-6 37 5 73t30.5 62t43.5 38t44 2q10 -5 -1.5 -21.5t-25 -42t-20 -58.5t12.5 -70z" />
    <glyph glyph-name="hyphen" unicode="-" horiz-adv-x="526" 
d="M454 357q5 5 11.5 -11t10 -39.5t0.5 -46.5t-17 -32q-16 -10 -56 -13.5t-90.5 -1.5t-105 8t-100 15t-74.5 20t-29 22q0 7 31.5 14.5t80 14.5t105 13.5t106.5 13t85.5 12t41.5 11.5z" />
    <glyph glyph-name="equal" unicode="=" horiz-adv-x="541" 
d="M459 527q5 5 11.5 -11t10 -39.5t0.5 -46.5t-17 -32q-16 -10 -56 -13.5t-90.5 -1.5t-105 8t-100 15t-74.5 20t-29 22q0 7 31.5 14.5t80 14.5t105 13.5t106.5 13t85.5 12t41.5 11.5zM459 317q5 5 11.5 -11t10 -39.5t0.5 -46.5t-17 -32q-16 -10 -56 -13.5t-90.5 -1.5t-105 8
t-100 15t-74.5 20t-29 22q0 7 31.5 14.5t80 14.5t105 13.5t106.5 13t85.5 12t41.5 11.5z" />
    <glyph glyph-name="less" unicode="&#x3c;" horiz-adv-x="293" 
d="M194 144q-3 7 -18.5 20.5t-36 30.5t-44 36t-42.5 36t-31.5 31.5t-11.5 21.5q-1 8 11.5 22t31.5 31t42.5 36t44 36t36 31t18.5 21q3 6 14.5 -1t22 -21t15.5 -31.5t-5 -31.5q-9 -13 -24 -26t-34 -25t-40.5 -23t-41.5 -18q20 -8 41.5 -18t40.5 -22t34 -25t24 -26
q10 -14 5 -31.5t-15.5 -31.5t-22 -21t-14.5 -1z" />
    <glyph glyph-name="greater" unicode="&#x3e;" horiz-adv-x="293" 
d="M99 144q-3 -6 -14.5 1t-22 21t-15.5 31.5t5 31.5q9 13 24 26t34 25t40.5 22t41.5 18q-20 7 -41.5 18t-40.5 23t-34 25t-24 26q-10 14 -5 31.5t15.5 31.5t22 21t14.5 1q3 -7 18.5 -21t36 -31t44 -36t42.5 -36t31.5 -31t11.5 -22q1 -8 -11.5 -22t-31.5 -31t-42.5 -36
t-44 -36t-36 -30.5t-18.5 -20.5z" />
    <glyph glyph-name="plus" unicode="+" horiz-adv-x="515" 
d="M459 357q5 5 11.5 -11t10 -39.5t0.5 -46.5t-17 -32q-17 -11 -59 -14t-96 -1q-5 -36 -11 -69t-13 -58t-14.5 -39.5t-15.5 -14.5q-5 0 -10 15.5t-10 41.5t-10 60t-9 71q-41 4 -78.5 10.5t-66 14t-45.5 16t-17 17.5q0 5 16 10t43 10t62.5 10t73.5 10q-4 31 -7.5 59.5
t-7 50.5t-7 36.5t-6.5 17.5q-5 5 11 11.5t39.5 10t46.5 0.5t32 -17q11 -17 14 -59.5t1 -96.5q54 7 93.5 13.5t45.5 12.5z" />
    <glyph glyph-name="asciicircum" unicode="^" horiz-adv-x="427" 
d="M37 469q7 3 20.5 18.5t30.5 36t36 44t36 42.5t31.5 31.5t21.5 11.5q8 1 22 -11.5t31 -31.5t36 -42.5t36 -44t31 -36t21 -18.5q6 -3 -1 -14.5t-21 -22t-31.5 -15.5t-31.5 5q-13 9 -26 24t-25 34t-23 40.5t-18 41.5q-8 -20 -18 -41.5t-22 -40.5t-25 -34t-26 -24
q-14 -10 -31.5 -5t-31.5 15.5t-21 22t-1 14.5z" />
    <glyph glyph-name="slash" unicode="/" horiz-adv-x="492" 
d="M353 692q-1 4 8 3.5t23.5 -4.5t31.5 -11.5t32 -17.5t25 -21t10 -22q1 -14 -17 -48.5t-47 -81.5t-67.5 -102t-79 -109.5t-81 -105t-73.5 -88t-56.5 -58.5t-30.5 -16q-5 3 7 32.5t34 76.5t52 106t61.5 120.5t62 121.5t54.5 108t38 79.5t13 37.5z" />
    <glyph glyph-name="bar" unicode="|" horiz-adv-x="246" 
d="M44 600q-3 3 5.5 7t23 7t33 5t36 0.5t31.5 -6t20 -14.5q7 -12 8.5 -51t-1 -94t-9.5 -121.5t-15.5 -134t-19 -131t-21.5 -112.5t-21.5 -78.5t-18.5 -29.5q-6 0 -10 32t-7.5 83.5t-6 117.5t-5 135.5t-5 136.5t-5 120.5t-5.5 88t-7 39.5z" />
    <glyph glyph-name="asterisk" unicode="*" horiz-adv-x="300" 
d="M63 571q13 0 30 -9.5t36 -23.5q2 20 1.5 35t-6.5 21q-4 3 0 9.5t12.5 10t19.5 1.5t22 -15q6 -8 8.5 -20t3.5 -28q27 19 46 19q17 -1 25 -8.5t10 -16.5t-0.5 -16t-7.5 -6q-11 2 -28 -12t-38 -34q24 -22 42.5 -36.5t26.5 -9.5q4 2 6 -6.5t0 -19.5t-10.5 -20.5t-25.5 -9.5
q-13 -1 -27 6.5t-29 20.5q-2 -20 -1 -33.5t7 -15.5q4 -2 -1.5 -9t-15.5 -11.5t-23 -3.5t-23 15q-7 8 -9.5 21.5t-2.5 30.5q-13 -10 -25 -16t-23 -5q-17 0 -25.5 9.5t-10.5 20.5t0 19.5t6 6.5q7 -5 25.5 9.5t42.5 36.5q-20 20 -37 34t-28 12q-5 -1 -7.5 6t-0.5 16t10 16.5
t25 8.5z" />
    <glyph glyph-name="percent" unicode="%" horiz-adv-x="580" 
d="M393 692q-1 4 8 3.5t23.5 -4.5t31.5 -11.5t32 -17.5t25 -21t10 -22q1 -14 -17 -48.5t-47 -81.5t-67.5 -102t-79 -109.5t-81 -105t-73.5 -88t-56.5 -58.5t-30.5 -16q-5 3 7 32.5t34 76.5t52 106t61.5 120.5t62 121.5t54.5 108t38 79.5t13 37.5zM37 598q0 40 27.5 68
t67.5 28t68 -28t28 -68t-28 -67.5t-68 -27.5t-67.5 27.5t-27.5 67.5zM347 98q0 40 27.5 68t67.5 28t68 -28t28 -68t-28 -67.5t-68 -27.5t-67.5 27.5t-27.5 67.5z" />
    <glyph glyph-name="numbersign" unicode="#" horiz-adv-x="669" 
d="M619 278q6 3 7 -11.5t-3.5 -34t-14 -38t-24.5 -22.5q-16 -5 -58 1t-98 19q-23 -46 -42.5 -74t-29.5 -25q-7 2 -5 34t9 82l-64 18t-62 19q-15 -33 -30 -62t-28 -50t-23.5 -32t-16.5 -9q-4 1 -4.5 16t1.5 39.5t6 57.5t10 70q-51 19 -81.5 35.5t-27.5 26.5q2 5 34.5 3.5
t83.5 -7.5q6 35 11.5 70t10.5 68q-31 11 -57.5 21.5t-45.5 20t-29 17.5t-8 14q1 3 13 4t32 0t47 -4t59 -7q6 42 8.5 70.5t0.5 34.5q-3 6 17 7t47 -3.5t51 -14.5t29 -26q3 -11 0 -34t-11 -53q19 -3 37 -6t36 -5q8 54 12.5 91t1.5 44q-3 6 17 7t47 -3.5t51 -14.5t29 -26
q4 -14 -1.5 -44.5t-17.5 -72.5q30 -4 49.5 -5t24.5 1q6 3 7 -11.5t-3.5 -34t-14 -38t-24.5 -22.5q-10 -3 -29.5 -2t-45.5 6q-17 -49 -36 -92q59 -8 99.5 -12.5t46.5 -0.5zM307 431q-19 -56 -41 -111l108 -15l16 103z" />
    <glyph glyph-name="underscore" unicode="_" horiz-adv-x="709" 
d="M634 -64q5 5 11.5 -14.5t10 -46.5t0.5 -53t-17 -35q-12 -8 -45.5 -11t-80.5 -2t-103 5t-112.5 10.5t-109.5 14.5t-94 17t-65.5 18.5t-24.5 17.5q0 6 26 11.5t69 10.5t98 10.5t113 10t114.5 9.5t101.5 9.5t74.5 9t33.5 8.5z" />
    <glyph glyph-name="L" unicode="L" horiz-adv-x="604" 
d="M319 74q-100 -64 -232 -70q-26 -4 -47.5 0.5t-35.5 18.5q-11 12 -13.5 29t5.5 36q11 26 38.5 46.5t69.5 31.5q34 9 67.5 6.5t68.5 -13.5q24 37 43.5 87t37 105.5t35 113t36 110.5t40 97.5t48.5 73.5q15 16 37 23t45 7t44.5 -4.5t35.5 -12.5t17.5 -17t-8.5 -17
q-27 -17 -45.5 -60t-35 -100.5t-33.5 -124t-40.5 -130t-57 -118.5t-82.5 -90q46 -34 97 -69.5t107 -66.5t117 -55.5t126 -36.5t135 -9t143 26q10 3 15.5 -18.5t1 -50t-23 -55t-57.5 -34.5q-58 -12 -117.5 2t-120 43t-121 69t-119 82t-114 80.5t-107.5 64.5z" />
    <glyph glyph-name="Lacute" unicode="&#x139;" horiz-adv-x="604" 
d="M319 74q-100 -64 -232 -70q-26 -4 -47.5 0.5t-35.5 18.5q-11 12 -13.5 29t5.5 36q11 26 38.5 46.5t69.5 31.5q34 9 67.5 6.5t68.5 -13.5q24 37 43.5 87t37 105.5t35 113t36 110.5t40 97.5t48.5 73.5q15 16 37 23t45 7t44.5 -4.5t35.5 -12.5t17.5 -17t-8.5 -17
q-27 -17 -45.5 -60t-35 -100.5t-33.5 -124t-40.5 -130t-57 -118.5t-82.5 -90q46 -34 97 -69.5t107 -66.5t117 -55.5t126 -36.5t135 -9t143 26q10 3 15.5 -18.5t1 -50t-23 -55t-57.5 -34.5q-58 -12 -117.5 2t-120 43t-121 69t-119 82t-114 80.5t-107.5 64.5zM627 1009
q-2 7 11.5 8t30.5 -4t31.5 -16t14.5 -28q1 -28 -12 -58.5t-32.5 -53.5t-40.5 -35t-35 -3q-9 6 -4.5 32t13.5 57.5t17.5 60t5.5 40.5z" />
    <glyph glyph-name="Lslash" unicode="&#x141;" horiz-adv-x="604" 
d="M319 74q-100 -64 -232 -70q-26 -4 -47.5 0.5t-35.5 18.5q-11 12 -13.5 29t5.5 36q11 26 38.5 46.5t69.5 31.5q34 9 67.5 6.5t68.5 -13.5q27 42 48.5 99.5t41.5 122.5q-35 2 -59 8.5t-26 17.5q-2 8 28 16.5t75 17.5q14 46 28.5 90.5t30 84.5t34 73.5t39.5 56.5
q15 16 37 23t45 7t44.5 -4.5t35.5 -12.5t17.5 -17t-8.5 -17q-18 -12 -32.5 -35.5t-26.5 -56t-22.5 -71.5t-21.5 -82q26 6 31 14q4 6 13 1t16 -16t8.5 -25.5t-9.5 -26.5q-11 -11 -33 -20t-51 -15q-13 -43 -28.5 -85t-35 -80t-45 -70t-57.5 -55q46 -34 97 -69.5t107 -66.5
t117 -55.5t126 -36.5t135 -9t143 26q10 3 15.5 -18.5t1 -50t-23 -55t-57.5 -34.5q-58 -12 -117.5 2t-120 43t-121 69t-119 82t-114 80.5t-107.5 64.5z" />
    <glyph glyph-name="Lcaron" unicode="&#x13d;" horiz-adv-x="604" 
d="M319 74q-100 -64 -232 -70q-26 -4 -47.5 0.5t-35.5 18.5q-11 12 -13.5 29t5.5 36q11 26 38.5 46.5t69.5 31.5q34 9 67.5 6.5t68.5 -13.5q24 37 43.5 87t37 105.5t35 113t36 110.5t40 97.5t48.5 73.5q15 16 37 23t45 7t44.5 -4.5t35.5 -12.5t17.5 -17t-8.5 -17
q-27 -17 -45.5 -60t-35 -100.5t-33.5 -124t-40.5 -130t-57 -118.5t-82.5 -90q46 -34 97 -69.5t107 -66.5t117 -55.5t126 -36.5t135 -9t143 26q10 3 15.5 -18.5t1 -50t-23 -55t-57.5 -34.5q-58 -12 -117.5 2t-120 43t-121 69t-119 82t-114 80.5t-107.5 64.5zM703 688
q-3 6 9.5 10.5t29.5 4t32 -7.5t18 -24q6 -38 -5.5 -73.5t-31 -61.5t-43 -38t-43.5 -2q-10 5 1.5 21.5t25 42t20 58t-12.5 70.5z" />
    <glyph glyph-name="uni013B" unicode="&#x13b;" horiz-adv-x="604" 
d="M305 -118q-3 6 9.5 10.5t29.5 4t32 -7.5t18 -24q6 -38 -5.5 -73.5t-31 -61.5t-43 -38t-43.5 -2q-10 5 1.5 21.5t25 42t20 58t-12.5 70.5zM319 74q-100 -64 -232 -70q-26 -4 -47.5 0.5t-35.5 18.5q-11 12 -13.5 29t5.5 36q11 26 38.5 46.5t69.5 31.5q34 9 67.5 6.5
t68.5 -13.5q24 37 43.5 87t37 105.5t35 113t36 110.5t40 97.5t48.5 73.5q15 16 37 23t45 7t44.5 -4.5t35.5 -12.5t17.5 -17t-8.5 -17q-27 -17 -45.5 -60t-35 -100.5t-33.5 -124t-40.5 -130t-57 -118.5t-82.5 -90q46 -34 97 -69.5t107 -66.5t117 -55.5t126 -36.5t135 -9
t143 26q10 3 15.5 -18.5t1 -50t-23 -55t-57.5 -34.5q-58 -12 -117.5 2t-120 43t-121 69t-119 82t-114 80.5t-107.5 64.5z" />
    <glyph glyph-name="J" unicode="J" horiz-adv-x="873" 
d="M901 151q0 -8 -6 -14.5t-14 -7.5l-16.5 -2.5t-44.5 -7t-67 -12t-84 -17.5l-2 -4q-32 -100 -75.5 -182.5t-97.5 -147.5q-130 -152 -314 -193q-26 -6 -52.5 -6.5t-52.5 7.5q-23 7 -42 19.5t-32 30.5q-25 33 -27 79q-1 46 23 100q47 99 198 179q58 31 130 59t159 53
q11 32 19.5 62t16.5 58q32 127 47 258q6 51 9.5 98.5t3.5 91.5q-50 -22 -99.5 -46.5t-95.5 -52.5t-86.5 -61t-71.5 -72q-11 -13 -21 -29.5t-17.5 -34t-11.5 -35.5t-3 -34q3 -34 28 -52q21 -16 42.5 -12t38.5 19t28 36t11 39q0 15 14 17t30 -4t27 -18.5t7 -26.5
q-9 -29 -35 -53.5t-59 -38t-68 -13.5t-63 21q-38 29 -41 78q-2 22 3.5 44.5t15 44t21 40.5t23.5 34q38 47 90.5 88.5t122.5 80.5q9 5 37.5 22.5t65.5 38.5t78.5 42t76 34t57.5 12.5t24 -21.5q1 -16 1.5 -44.5t0 -67t-3 -84t-7.5 -96.5q-16 -168 -59 -314q43 9 80 15.5
t63.5 11t41.5 6.5l15 2q9 2 14.5 -3.5t5.5 -13.5zM34 -360q17 -18 51.5 -13.5t74 22.5t77.5 45t61 53q60 66 100.5 140t69.5 152q-180 -54 -290 -119.5t-146 -138.5q-40 -85 2 -141z" />
    <glyph glyph-name="Z" unicode="Z" horiz-adv-x="883" 
d="M1212 -119q14 13 34.5 7.5t37 -19t25 -31t-1.5 -27.5q-81 -83 -159.5 -120.5t-153.5 -43t-146 15.5t-136 54.5t-124 73.5t-110 73q-66 42 -125.5 77.5t-110.5 55.5l-21 8h-2q-8 0 -12 4q-25 7 -43.5 7.5t-32 -3t-23 -9.5t-16.5 -13q-6 -6 -15 -6.5t-14 4.5t-4.5 13
t6.5 15q50 54 112.5 118t129 130t134 131.5t129 124t112.5 106.5l85 80q-94 -28 -168 -33.5t-133.5 -1t-107 11.5t-88.5 4q-23 -2 -44 -12t-37.5 -25.5t-27.5 -35.5t-12 -42q-2 -26 7 -47.5t26 -35.5t41 -20t52 -1q10 2 2.5 -14t-27 -37t-49 -39.5t-62.5 -21.5
q-30 -2 -55.5 6t-44.5 24t-28.5 39t-7.5 51q3 51 25 98t56 83t78.5 58.5t92.5 24.5q28 1 59.5 -5t69 -13t81.5 -13t97.5 -4.5t117 12.5t140.5 38q3 4 18.5 7t36 4t42 0t37.5 -5.5t22.5 -12.5t-2.5 -21q-4 -5 -41 -39.5t-95.5 -89t-133 -124.5t-152.5 -145t-155 -151
t-140 -143q1 0 1.5 -0.5t1.5 -0.5q55 -21 115.5 -58t126.5 -79q50 -32 103 -63t109 -54t115 -33.5t121 -1.5t127.5 40.5t134.5 94.5z" />
    <glyph glyph-name="Zdotaccent" unicode="&#x17b;" horiz-adv-x="883" 
d="M1212 -119q14 13 34.5 7.5t37 -19t25 -31t-1.5 -27.5q-81 -83 -159.5 -120.5t-153.5 -43t-146 15.5t-136 54.5t-124 73.5t-110 73q-66 42 -125.5 77.5t-110.5 55.5l-21 8h-2q-8 0 -12 4q-25 7 -43.5 7.5t-32 -3t-23 -9.5t-16.5 -13q-6 -6 -15 -6.5t-14 4.5t-4.5 13
t6.5 15q50 54 112.5 118t129 130t134 131.5t129 124t112.5 106.5l85 80q-94 -28 -168 -33.5t-133.5 -1t-107 11.5t-88.5 4q-23 -2 -44 -12t-37.5 -25.5t-27.5 -35.5t-12 -42q-2 -26 7 -47.5t26 -35.5t41 -20t52 -1q10 2 2.5 -14t-27 -37t-49 -39.5t-62.5 -21.5
q-30 -2 -55.5 6t-44.5 24t-28.5 39t-7.5 51q3 51 25 98t56 83t78.5 58.5t92.5 24.5q28 1 59.5 -5t69 -13t81.5 -13t97.5 -4.5t117 12.5t140.5 38q3 4 18.5 7t36 4t42 0t37.5 -5.5t22.5 -12.5t-2.5 -21q-4 -5 -41 -39.5t-95.5 -89t-133 -124.5t-152.5 -145t-155 -151
t-140 -143q1 0 1.5 -0.5t1.5 -0.5q55 -21 115.5 -58t126.5 -79q50 -32 103 -63t109 -54t115 -33.5t121 -1.5t127.5 40.5t134.5 94.5zM516 895q0 17 13 29t32 12t32 -12t13 -29t-13 -29t-32 -12t-32 12t-13 29z" />
    <glyph glyph-name="Zcaron" unicode="&#x17d;" horiz-adv-x="883" 
d="M1212 -119q14 13 34.5 7.5t37 -19t25 -31t-1.5 -27.5q-81 -83 -159.5 -120.5t-153.5 -43t-146 15.5t-136 54.5t-124 73.5t-110 73q-66 42 -125.5 77.5t-110.5 55.5l-21 8h-2q-8 0 -12 4q-25 7 -43.5 7.5t-32 -3t-23 -9.5t-16.5 -13q-6 -6 -15 -6.5t-14 4.5t-4.5 13
t6.5 15q50 54 112.5 118t129 130t134 131.5t129 124t112.5 106.5l85 80q-94 -28 -168 -33.5t-133.5 -1t-107 11.5t-88.5 4q-23 -2 -44 -12t-37.5 -25.5t-27.5 -35.5t-12 -42q-2 -26 7 -47.5t26 -35.5t41 -20t52 -1q10 2 2.5 -14t-27 -37t-49 -39.5t-62.5 -21.5
q-30 -2 -55.5 6t-44.5 24t-28.5 39t-7.5 51q3 51 25 98t56 83t78.5 58.5t92.5 24.5q28 1 59.5 -5t69 -13t81.5 -13t97.5 -4.5t117 12.5t140.5 38q3 4 18.5 7t36 4t42 0t37.5 -5.5t22.5 -12.5t-2.5 -21q-4 -5 -41 -39.5t-95.5 -89t-133 -124.5t-152.5 -145t-155 -151
t-140 -143q1 0 1.5 -0.5t1.5 -0.5q55 -21 115.5 -58t126.5 -79q50 -32 103 -63t109 -54t115 -33.5t121 -1.5t127.5 40.5t134.5 94.5zM539 825q-5 -1 -21 18t-34.5 43t-36 44.5t-24.5 21.5q-12 1 -9 6.5t14.5 10.5t27.5 6.5t31 -4.5q20 -9 37 -22t35 -34q29 26 49 36t41 20
q17 7 32 1.5t24 -15t11 -18t-7 -6.5q-4 1 -17.5 -6.5t-31 -19t-38 -25.5t-38 -26.5t-30 -21t-15.5 -9.5z" />
    <glyph glyph-name="H" unicode="H" horiz-adv-x="1190" 
d="M1914 760q-7 -26 -30 -43t-46 -24.5t-37.5 -5t-4.5 15.5q25 34 15.5 56.5t-41 33.5t-79.5 9.5t-100 -16.5q-111 -32 -208 -93.5t-175.5 -147t-136.5 -192t-91 -228.5q122 28 196 85q16 11 28 -2q5 -7 3 -15t-9 -13q-87 -69 -227 -96q-12 -71 -5.5 -136t27.5 -122
q5 -14 -4 -23.5t-26 -15.5t-39 -7.5t-42 0.5t-36 9t-20 18q-18 44 -24.5 83t-7 71t1.5 58t2 45q-50 -2 -102 0.5t-109 7.5q-12 -23 -24.5 -43.5t-26.5 -40.5q-35 -48 -77.5 -86t-89.5 -64q-65 -35 -127 -40q-4 -1 -8 -1h-9q-36 0 -66 12q-1 1 -2 1q-16 7 -25 15
q-23 17 -35 42t-11 55q1 31 14.5 63t38.5 60q20 24 48.5 43t60.5 32q27 11 56 16.5t60 6.5q21 0 40 -2t39 -5q15 36 24.5 71.5t16.5 71.5t13 71.5t14 71.5q-16 11 -29 23.5t-27 25.5q-2 3 -4.5 5.5l-4.5 4.5q-26 26 -53 49.5t-61 37.5q-39 16 -78 14.5t-70 -18.5t-50.5 -49
t-20.5 -76q0 -13 -17 -19.5t-37.5 -6.5t-37 7.5t-15.5 22.5q2 35 19 64.5t44.5 52t63 37.5t73.5 21.5t75.5 3t69.5 -16.5q39 -16 68.5 -41.5t56.5 -52.5l10 -9q8 -9 17 -17.5t19 -16.5q5 17 11 35t14 35q24 57 65 99t94 62q44 17 86.5 14t76.5 -24q14 -6 24.5 -17t15.5 -26
q11 -28 3 -63q-6 -29 -24 -64q-14 -26 -32 -48.5t-40 -39.5q-48 -40 -110 -54q-8 -2 -15 -3t-15 -2q-13 -64 -28 -130.5t-44 -130.5q54 -5 104 -7t97 0q12 91 50 177.5t97 163.5t135.5 143.5t166 118t189 85t204.5 46.5q58 7 109.5 6t88.5 -10.5t56.5 -28t12.5 -45.5z
M127 -73q-1 -21 7 -40.5t25 -28.5q26 -14 55 -6.5t57.5 28t55 50t47 60.5t34.5 59.5t18 47.5q-30 6 -64 6h-3q-56 -2 -101 -19q-56 -23 -91 -63q-19 -21 -29.5 -46t-10.5 -48zM873 585q5 24 -2 42q-8 20 -23 25q-9 3 -18 3q-12 0 -25 -5q-15 -6 -32 -19q-7 -7 -14 -14.5
t-12 -15.5q-12 -17 -19.5 -35.5t-14.5 -36.5q-9 -29 -16 -58t-13 -58q8 0 19 3q50 11 91 44q35 30 59 74q8 14 12.5 27t7.5 24z" />
    <glyph glyph-name="G" unicode="G" horiz-adv-x="941" 
d="M957 114q-1 -8 -6.5 -14.5t-14.5 -8.5q-1 0 -17 -2.5t-44.5 -7t-67 -11.5t-83.5 -17q-14 -46 -32 -91t-40 -88q-70 -137 -166 -221q-109 -97 -249 -128q-26 -6 -51 -6q-31 0 -53 7q-47 13 -76 50q-25 33 -27 79q-3 48 23 101q47 99 199 179q57 30 129 58t159 53
q24 72 39.5 140.5t25.5 125.5q-21 -32 -43 -61.5t-44 -55.5q-65 -79 -132 -132q-57 -45 -110 -68.5t-101 -23.5q-5 0 -9.5 0.5t-9.5 0.5q-80 9 -122 77q-12 23 -19 49t-8 56q-1 63 23 133q19 54 42.5 103t52.5 95q52 82 117 147q29 29 64.5 54.5t73.5 42t77 21.5t76 -7
q46 -15 79 -43.5t50 -63t16.5 -71.5t-21.5 -70q-6 -9 -19 -11t-28.5 -0.5t-32 6.5t-29 11t-18.5 12.5t-1 11.5q25 25 34.5 53t7 52t-14.5 42t-29 25q-25 10 -53.5 -2t-59 -40.5t-61 -70.5t-58.5 -91.5t-53 -104.5t-44 -109q-27 -79 -25 -134.5t26 -81.5t67 -20t98 50
q65 51 130 131t127 181q4 7 18.5 12.5t34 9.5t41.5 6t39.5 0t29 -7.5t10.5 -16.5q-6 -66 -19 -146.5t-38 -167.5q43 9 79 15.5t62.5 11t42 7l15.5 2.5q19 2 21 -17zM91 -397q11 -14 35.5 -15t57 9t69.5 31t73 51q38 32 70.5 75t58 88t43 87t25.5 72q-180 -54 -289.5 -119
t-144.5 -139q-20 -42 -19.5 -78t21.5 -62z" />
    <glyph glyph-name="Gbreve" unicode="&#x11e;" horiz-adv-x="941" 
d="M957 114q-1 -8 -6.5 -14.5t-14.5 -8.5q-1 0 -17 -2.5t-44.5 -7t-67 -11.5t-83.5 -17q-14 -46 -32 -91t-40 -88q-70 -137 -166 -221q-109 -97 -249 -128q-26 -6 -51 -6q-31 0 -53 7q-47 13 -76 50q-25 33 -27 79q-3 48 23 101q47 99 199 179q57 30 129 58t159 53
q24 72 39.5 140.5t25.5 125.5q-21 -32 -43 -61.5t-44 -55.5q-65 -79 -132 -132q-57 -45 -110 -68.5t-101 -23.5q-5 0 -9.5 0.5t-9.5 0.5q-80 9 -122 77q-12 23 -19 49t-8 56q-1 63 23 133q19 54 42.5 103t52.5 95q52 82 117 147q29 29 64.5 54.5t73.5 42t77 21.5t76 -7
q46 -15 79 -43.5t50 -63t16.5 -71.5t-21.5 -70q-6 -9 -19 -11t-28.5 -0.5t-32 6.5t-29 11t-18.5 12.5t-1 11.5q25 25 34.5 53t7 52t-14.5 42t-29 25q-25 10 -53.5 -2t-59 -40.5t-61 -70.5t-58.5 -91.5t-53 -104.5t-44 -109q-27 -79 -25 -134.5t26 -81.5t67 -20t98 50
q65 51 130 131t127 181q4 7 18.5 12.5t34 9.5t41.5 6t39.5 0t29 -7.5t10.5 -16.5q-6 -66 -19 -146.5t-38 -167.5q43 9 79 15.5t62.5 11t42 7l15.5 2.5q19 2 21 -17zM91 -397q11 -14 35.5 -15t57 9t69.5 31t73 51q38 32 70.5 75t58 88t43 87t25.5 72q-180 -54 -289.5 -119
t-144.5 -139q-20 -42 -19.5 -78t21.5 -62zM469 825q-36 3 -57 21t-32 40t-14 42t-3 28q0 10 3.5 18t9.5 11t13.5 -1t14.5 -18q4 -8 10.5 -17.5t16 -18.5t21.5 -15.5t26 -7.5q19 -2 36 3t31.5 13t26.5 17t22 15q23 16 32 6.5t0 -26.5q-3 -5 -15.5 -24t-33 -39t-48 -35
t-60.5 -12z" />
    <glyph glyph-name="uni0122" unicode="&#x122;" horiz-adv-x="941" 
d="M-58 -81q-3 6 9.5 10.5t29.5 4t32 -7.5t18 -24q6 -38 -5.5 -73.5t-31 -61.5t-43 -38t-43.5 -2q-10 5 1.5 21.5t25 42t20 58t-12.5 70.5zM957 114q-1 -8 -6.5 -14.5t-14.5 -8.5q-1 0 -17 -2.5t-44.5 -7t-67 -11.5t-83.5 -17q-14 -46 -32 -91t-40 -88q-70 -137 -166 -221
q-109 -97 -249 -128q-26 -6 -51 -6q-31 0 -53 7q-47 13 -76 50q-25 33 -27 79q-3 48 23 101q47 99 199 179q57 30 129 58t159 53q24 72 39.5 140.5t25.5 125.5q-21 -32 -43 -61.5t-44 -55.5q-65 -79 -132 -132q-57 -45 -110 -68.5t-101 -23.5q-5 0 -9.5 0.5t-9.5 0.5
q-80 9 -122 77q-12 23 -19 49t-8 56q-1 63 23 133q19 54 42.5 103t52.5 95q52 82 117 147q29 29 64.5 54.5t73.5 42t77 21.5t76 -7q46 -15 79 -43.5t50 -63t16.5 -71.5t-21.5 -70q-6 -9 -19 -11t-28.5 -0.5t-32 6.5t-29 11t-18.5 12.5t-1 11.5q25 25 34.5 53t7 52t-14.5 42
t-29 25q-25 10 -53.5 -2t-59 -40.5t-61 -70.5t-58.5 -91.5t-53 -104.5t-44 -109q-27 -79 -25 -134.5t26 -81.5t67 -20t98 50q65 51 130 131t127 181q4 7 18.5 12.5t34 9.5t41.5 6t39.5 0t29 -7.5t10.5 -16.5q-6 -66 -19 -146.5t-38 -167.5q43 9 79 15.5t62.5 11t42 7
l15.5 2.5q19 2 21 -17zM91 -397q11 -14 35.5 -15t57 9t69.5 31t73 51q38 32 70.5 75t58 88t43 87t25.5 72q-180 -54 -289.5 -119t-144.5 -139q-20 -42 -19.5 -78t21.5 -62z" />
    <glyph glyph-name="ogonek" unicode="&#x2db;" horiz-adv-x="220" 
d="M187 -169q6 0 4 -13.5t-10.5 -30t-22 -29.5t-30.5 -11q-26 2 -45 16t-30.5 35t-15 46.5t2.5 49.5q6 23 19.5 44.5t30 38t34.5 25.5t32 6q4 -1 -0.5 -8.5t-12 -18.5t-16.5 -25t-15 -27q-8 -19 -10 -36.5t5.5 -31t26.5 -22t53 -8.5z" />
    <glyph glyph-name="Aogonek" unicode="&#x104;" horiz-adv-x="927" 
d="M956 320q19 -5 14 -24q-6 -19 -24 -28q-20 -12 -59 -11t-103 15h-1q-34 -85 -64 -168.5t-50 -161.5q-6 -24 -10.5 -59t-4 -73t6.5 -74.5t21 -64.5t39.5 -43t61.5 -9q10 1 16 -2.5t7.5 -9t-2 -11.5t-12.5 -9q-42 -13 -85 -10q-5 -8 -10 -17t-9 -18q-8 -19 -10 -36.5
t5.5 -31t26.5 -22t53 -8.5q6 0 4 -13.5t-10.5 -30t-22 -29.5t-30.5 -11q-26 2 -45 16t-30.5 35t-15 46.5t2.5 49.5q5 22 17 42t28 37q-33 10 -62 29.5t-49.5 48t-32 64t-10.5 77.5q0 66 24 161q22 81 53.5 167t66.5 173q-41 11 -82 23.5t-81 24.5q-32 -56 -66.5 -108
t-72.5 -97q-113 -130 -239 -131h-2q-101 0 -156 73q-24 32 -34.5 73.5t-6.5 89.5q4 52 24.5 101.5t54.5 88.5q36 42 86 66q50 26 114 28q69 3 109 -28q35 -28 40 -73v-3q33 -8 64 -15t67 -18q42 72 84.5 145t88.5 127q23 27 44.5 47t44.5 34q52 32 106 32q43 0 63 -30
q16 -25 14.5 -67.5t-21.5 -111.5q-17 -58 -42.5 -125.5t-54.5 -141.5q27 -5 48 -8.5t38 -4.5q23 -2 32.5 0.5t13.5 4.5q1 0 2 1v1q3 8 10 13t15 3zM147 64q40 0 80.5 27t79.5 70.5t75 96.5t67 106q-31 9 -59 16t-57 14q-5 -15 -12 -26q-24 -35 -61 -46q-35 -11 -53.5 -5
t-25.5 13q-18 17 -9 47q6 20 25.5 36.5t46.5 24.5q19 6 53 2q-4 17 -18.5 34.5t-40.5 18.5q-44 1 -77.5 -21t-56.5 -56.5t-36 -75t-17 -76.5q-3 -29 -2.5 -64t9.5 -65t30 -50.5t59 -20.5zM508 390q40 -11 79.5 -23t79.5 -23q28 72 52.5 137t39.5 119q7 24 13 46t9 38.5
t1.5 27.5t-10.5 13q-14 4 -33.5 -10.5t-42.5 -40.5t-48.5 -61.5t-50.5 -74t-48 -77t-41 -71.5z" />
    <glyph glyph-name="Eogonek" unicode="&#x118;" horiz-adv-x="820" 
d="M635 738q45 -16 82 -48t59.5 -71.5t28 -82t-11.5 -79.5q-5 -11 -18.5 -16t-29.5 -6t-32.5 2t-28.5 9t-16 14.5t5 18.5q22 25 30 55t6 59t-15 53.5t-33 38t-48 13.5t-60 -21q-34 -21 -58.5 -53t-38.5 -70t-16.5 -79t9.5 -80q0 -1 0.5 -1t0.5 -1q40 5 71 2q18 -1 35.5 -6
t32 -13t24.5 -19t12 -24q1 -8 -1 -18t-12 -21q-8 -7 -18 -13.5t-24 -11.5l-18 -7q-43 -13 -89 -9.5t-86 22.5q-1 0 -1.5 0.5t-1.5 0.5q-45 -29 -74 -63q-29 -36 -49.5 -76t-29.5 -81q-5 -21 -6 -42t2 -41q5 -44 27 -80q32 -54 74 -79.5t88 -26.5t91.5 21t84.5 65
q22 24 36.5 54t17.5 59.5t-6 56.5t-33 46q-21 16 -48.5 20.5t-53.5 -3.5t-46 -28.5t-26 -53.5q-2 -14 -20.5 -19.5t-39 -4.5t-37.5 8.5t-16 21.5q1 28 20 52t48 41t65 26.5t71 9.5t66.5 -10.5t51.5 -33.5q24 -27 34.5 -60.5t7.5 -69t-18.5 -71t-43.5 -67.5q-25 -28 -56 -50
t-65 -37q-8 -11 -17 -24.5t-14 -27.5q-8 -19 -10 -36.5t5.5 -31t26.5 -22t53 -8.5q6 0 4 -13.5t-10.5 -30t-22 -29.5t-30.5 -11q-26 2 -45 16t-30.5 35t-15 46.5t2.5 49.5q4 17 13 34t21 32q-40 -8 -76 -8q-25 0 -49.5 3.5t-47.5 9.5q-112 32 -170 128q-50 86 -27 193
q10 45 32.5 89.5t55.5 83.5q27 32 67 60.5t89 50.5q-5 8 -8.5 16.5t-6.5 18.5q-14 45 -11.5 92.5t19.5 93.5q17 45 46 81.5t67 59.5q18 11 43.5 21.5t55.5 15.5t64 3.5t70 -13.5z" />
    <glyph glyph-name="Uogonek" unicode="&#x172;" horiz-adv-x="1342" 
d="M1251 743q9 9 28.5 14t42 6t45 -1.5t36.5 -9t17 -17t-13 -23.5q-56 -47 -102 -119.5t-81.5 -158.5t-59.5 -181t-36 -187.5t-11 -176.5t16 -149t45 -105.5t75 -44.5q10 -1 14 -7.5t2.5 -13.5t-7.5 -13t-15 -6h-34q-8 -11 -15 -22.5t-12 -23.5q-8 -19 -10 -36.5t5.5 -31
t26.5 -22t53 -8.5q6 0 4 -13.5t-10.5 -30t-22 -29.5t-30.5 -11q-26 2 -45 16t-30.5 35t-15 46.5t2.5 49.5q6 25 20.5 47.5t33.5 39.5q-61 13 -101.5 51t-64.5 94t-33 126.5t-6 148.5q3 77 14.5 158t32.5 162l-36 -57q-98 -154 -193 -267q-108 -128 -202 -189
q-74 -48 -134 -48q-8 0 -15.5 1t-15.5 3q-41 9 -50 43q-7 22 -0.5 54t28.5 78q18 39 43 83.5t54 92.5q24 42 49 86t48 88.5t42 88.5t31 86q50 181 -77 253q-42 23 -100 23.5t-121 -22.5q-50 -18 -91.5 -50.5t-73.5 -73t-53 -84t-30 -82.5q-10 -42 -5.5 -76t20 -56t41.5 -30
t59 3q14 4 15 -10.5t-11 -35t-37 -40.5t-63 -26q-51 -8 -83 12.5t-46 58.5t-11.5 89.5t20.5 105.5q26 78 78 142.5t127 115.5q77 54 157 81t160 32q49 3 98 -4t90.5 -26t72.5 -51t44 -79q19 -65 -7 -159q-12 -42 -30.5 -85t-41.5 -86.5t-48 -86t-49 -82.5q-24 -41 -47 -80
t-39.5 -72.5t-24.5 -60.5t-3 -44q8 -26 34 -16t62 43t78.5 82t83 102t76 103t57.5 84q38 59 72.5 119t65.5 118q35 78 81.5 143.5t91.5 111.5z" />
    <glyph glyph-name="Zacute" unicode="&#x179;" horiz-adv-x="883" 
d="M1212 -119q-69 -63 -134.5 -94.5t-127.5 -40.5t-121 1.5t-115 33.5t-109 54t-103 63q-66 42 -126.5 79t-115.5 58q-1 0 -1.5 0.5t-1.5 0.5q63 67 140 143t155 151t152.5 145t133 124.5t95.5 89t41 39.5q9 13 2.5 21t-22.5 12.5t-37.5 5.5t-42 0t-36 -4t-18.5 -7
q-77 -27 -140.5 -38t-117 -12.5t-97.5 4.5t-81.5 13t-69 13t-59.5 5q-48 -2 -92.5 -24.5t-78.5 -58.5t-56 -83t-25 -98q-2 -28 7.5 -51t28.5 -39t44.5 -24t55.5 -6q33 3 62.5 21.5t49 39.5t27 37t-2.5 14q-28 -5 -52 1t-41 20t-26 35.5t-7 47.5q1 22 12 42t27.5 35.5
t37.5 25.5t44 12q41 3 88.5 -4t107 -11.5t133.5 1t168 33.5l-85 -80t-112.5 -106.5t-129 -124t-134 -131.5t-129 -130t-112.5 -118q-6 -7 -6.5 -15t4.5 -13t14 -4.5t15 6.5q7 7 16.5 13t23 9.5t32 3t43.5 -7.5q4 -4 12 -4h2l21 -8q51 -20 110.5 -55.5t125.5 -77.5
q51 -33 110 -73t124 -73.5t136 -54.5t146 -15.5t153.5 43t159.5 120.5q10 10 1.5 27.5t-25 31t-37 19t-34.5 -7.5zM514 1004q-2 7 11.5 8t30.5 -4t31.5 -16t14.5 -28q1 -28 -12 -58.5t-32.5 -53.5t-40.5 -35t-35 -3q-9 6 -4.5 32t13.5 57.5t17.5 60t5.5 40.5z" />
    <glyph glyph-name="eogonek" unicode="&#x119;" horiz-adv-x="370" 
d="M396 325q12 -8 6 -22q-17 -36 -41 -76t-53.5 -77t-62.5 -69t-69 -52q-8 -11 -18 -26t-16 -30q-8 -19 -10 -36.5t5.5 -31t26.5 -22t53 -8.5q6 0 4 -13.5t-10.5 -30t-22 -29.5t-30.5 -11q-26 2 -45 16t-30.5 35t-15 46.5t2.5 49.5q9 36 34 66q-18 -2 -36 -0.5t-36 9.5
q-40 16 -57.5 46.5t-20.5 67.5t6 76.5t22 72.5q24 61 53.5 103.5t62.5 69.5t68 40t71 13q37 0 54.5 -18t17.5 -47t-16 -64t-45.5 -68.5t-71.5 -61t-94 -41.5q-7 -26 -10 -51.5t-1 -46.5t9.5 -35t22.5 -17q22 -4 47.5 6.5t52 31.5t52 49t48 59t40 61.5t27.5 56.5q3 8 10.5 11
t15.5 -2zM103 262q-5 -11 -8 -20q60 21 98.5 57.5t57.5 72t19.5 61.5t-17.5 27q-27 1 -68 -52t-82 -146z" />
    <glyph glyph-name="uogonek" unicode="&#x173;" horiz-adv-x="459" 
d="M492 305q-8 -17 -23 -46.5t-35.5 -63t-44.5 -67.5t-49.5 -62t-51.5 -46t-50 -18q-8 -11 -18.5 -26.5t-16.5 -30.5q-8 -19 -10 -36.5t5.5 -31t26.5 -22t53 -8.5q6 0 4 -13.5t-10.5 -30t-22 -29.5t-30.5 -11q-26 2 -45 16t-30.5 35t-15 46.5t2.5 49.5q8 31 28 58.5t43 42.5
q-21 14 -30 44t-4 71q0 5 1 9.5t2 9.5q-19 -28 -39.5 -53.5t-41.5 -45.5t-42 -32t-40 -12q-20 -1 -34.5 8t-23.5 25.5t-12 40t0 50.5q4 33 15.5 70t26.5 74t30.5 71.5t27 62.5t16 47t-2.5 26q-7 6 6.5 14t33.5 9t41.5 -9t30.5 -40q9 -29 -3 -70.5t-33.5 -86.5t-46 -89
t-41 -78.5t-19 -55t20.5 -18.5q12 1 35 25t48.5 59.5t50 75t40.5 70.5q15 35 29.5 67t25 58.5t14.5 44.5t-3 24t6.5 14t33.5 9t41.5 -9t30.5 -40q9 -29 -3 -70.5t-33.5 -86.5t-46 -89t-41 -78.5t-19 -55t20.5 -18.5q9 1 25 16t35 38.5t39 52.5t38 58t32 55t20 43q3 8 10 10
t13 0t9.5 -8t-0.5 -13z" />
    <glyph glyph-name="aogonek" unicode="&#x105;" horiz-adv-x="523" 
d="M253 421q0 8 4.5 15t11.5 12q-5 12 -16 12q-14 1 -31 -12.5t-36.5 -39t-40.5 -63t-42 -83.5q-13 -29 -21.5 -62.5t-9.5 -64t6 -53.5t25 -30q14 -6 29.5 3t31 28t32 46t32 56.5t30 59t27.5 54.5q14 33 27.5 62.5t22.5 53t12 40t-3 22.5q-7 6 6.5 14t33.5 9t41.5 -9
t30.5 -40q9 -29 -3 -70.5t-33.5 -86.5t-46 -89t-41 -78.5t-19 -55t20.5 -18.5q9 1 25 16t35 38.5t39.5 52.5t38 58t31.5 55t20 43q3 8 10 10t13 0t9.5 -8t-0.5 -13q-8 -17 -23 -45.5t-34.5 -61.5t-43.5 -67t-49 -62t-50.5 -46.5t-49.5 -20.5q-8 -11 -17.5 -25.5t-15.5 -29.5
q-8 -19 -10 -36.5t5.5 -31t26.5 -22t53 -8.5q6 0 4 -13.5t-10.5 -30t-22 -29.5t-30.5 -11q-26 2 -45 16t-30.5 35t-15 46.5t2.5 49.5q7 29 25.5 55.5t41.5 42.5q-21 12 -31 40.5t-6 66.5q-19 -31 -40 -56.5t-45.5 -40.5t-52 -18t-60.5 11q-40 16 -57.5 47t-20.5 67.5t6 76
t22 72.5q24 61 53.5 104.5t62.5 71t68 39.5t71 11q12 -1 25.5 -4.5t25 -11.5t19.5 -21.5t8 -33.5q0 -22 -10 -30q-8 -9 -21 -9q-12 0 -21.5 8t-9.5 21z" />
    <glyph glyph-name="iogonek" unicode="&#x12f;" 
d="M262 305q4 7 0.5 13t-9.5 8t-13 0t-10 -10q-6 -17 -20 -43t-32 -55t-38 -58t-39 -52.5t-34.5 -38.5t-25.5 -16q-23 -2 -20.5 18.5t19 55t41 78.5t46 89t33.5 86.5t3 70.5q-9 30 -30.5 40t-41.5 9t-33.5 -9t-6.5 -14q7 -7 2.5 -26t-16 -47t-27 -62.5t-30.5 -71.5
t-26.5 -74t-15.5 -70q-5 -39 3.5 -69t28.5 -44q-23 -16 -42 -43t-27 -56q-6 -24 -2.5 -49.5t15 -46.5t30.5 -35t45 -16q17 -2 30.5 11t22 29.5t10.5 30t-4 13.5q-34 0 -53 8.5t-26.5 22t-5.5 31t10 36.5q6 14 15 28t17 25h3q24 0 50 18t51.5 46t49.5 62t44.5 67.5t35.5 63
t23 46.5zM190 551q0 -8 -16 -8t-34.5 7.5t-34.5 24t-16 41.5q0 7 6 18.5t13.5 24.5t13.5 24t6 17q0 7 15 7t33.5 -8t33.5 -24t15 -41q0 -6 -5.5 -17t-12 -23t-12 -24t-5.5 -19z" />
    <glyph glyph-name="Iogonek" unicode="&#x12e;" horiz-adv-x="715" 
d="M660 489q-9 -81 -24.5 -159t-38.5 -147q-54 -172 -143 -280q-105 -129 -248 -161q-4 0 -6 -1q-8 -11 -18 -26t-16 -30q-8 -19 -10 -36.5t5.5 -31t26.5 -22t53 -8.5q6 0 4 -13.5t-10.5 -30t-22 -29.5t-30.5 -11q-26 2 -45 16t-30.5 35t-15 46.5t2.5 49.5t20.5 46.5
t32.5 39.5q-38 1 -70 13.5t-52 37.5q-21 24 -24 58q-3 17 0.5 36t11.5 39q8 21 22.5 42t32.5 40q24 22 63 40t77.5 23t68 -7.5t32.5 -49.5q1 -17 -13 -29t-31.5 -16.5t-33 -0.5t-16.5 21q-2 31 -15 39.5t-31 3t-38 -20.5t-37 -31q-16 -14 -27 -30.5t-17 -33.5
q-7 -17 -7.5 -38t6 -39t20.5 -30.5t38 -12.5q55 -1 101.5 26.5t85.5 76t71.5 115.5t58.5 145q21 62 36.5 131.5t24.5 146.5q9 66 11.5 121.5t2.5 97.5q-78 -35 -148.5 -79t-118.5 -104q-17 -22 -30.5 -52.5t-11.5 -57.5q3 -28 24 -42q16 -12 34.5 -11.5t35 9.5t28 25
t14.5 36q2 12 15.5 14.5t28 -3t26 -17.5t8.5 -27q-4 -23 -30 -41.5t-59.5 -28t-68.5 -8t-58 17.5q-33 24 -38 68q-2 19 2.5 38.5t12 38t17.5 35t20 28.5q60 78 178 143q12 7 38 22t58 32.5t65.5 34t61.5 26t45.5 8.5t18.5 -17q2 -54 1 -117.5t-8 -131.5z" />
    <glyph glyph-name="Y" unicode="Y" horiz-adv-x="1232" 
d="M1255 151q-1 -8 -7 -14.5t-14 -7.5q-1 0 -17.5 -2.5t-45 -7t-67 -12t-84.5 -17.5q0 -2 -1 -4q-71 -200 -184 -330q-133 -152 -319 -193q-26 -6 -51 -6q-31 0 -53 7q-47 14 -74 50q-25 33 -25 79q-2 47 26 100q25 49 76 94t129 85q114 60 287 110q15 40 27 78t22 73
q31 107 49 205.5t26 179.5q-26 -57 -60.5 -124t-77.5 -138q-27 -46 -60.5 -96.5t-70.5 -98t-77 -87.5t-79 -64q-50 -30 -90 -30q-12 0 -24 3q-33 6 -45 34q-15 34 7 102q9 29 23 62t30 69q13 31 27.5 64t26.5 66t21.5 65.5t13.5 62.5q9 68 -11 113t-71 71q-39 19 -86 16.5
t-91.5 -22.5t-80.5 -54.5t-54 -78.5q-15 -38 -15.5 -76.5t10 -69t30 -48t44.5 -12.5q10 2 8 -10.5t-14.5 -28.5t-36 -29.5t-54.5 -13.5q-39 0 -64 26.5t-30.5 70.5t11 100t58.5 115q26 36 64.5 69t83 58t91.5 40t91 15q57 0 107.5 -13.5t86 -42.5t52.5 -75t9 -111
q-8 -63 -35 -128.5t-55 -126.5q-14 -30 -26 -58.5t-20.5 -53t-12 -44t1.5 -31.5q9 -15 28 -6t44.5 33.5t54 60t56 73.5t51 74t39.5 62q33 55 62 109t52 102t39.5 88t25.5 67q4 12 29 18t53.5 6.5t51.5 -5t23 -18.5q-1 -19 -1.5 -48t-2 -66.5t-4.5 -82t-10 -95.5
q-11 -85 -27.5 -163.5t-39.5 -150.5q43 9 79.5 15.5t63 11t42 6.5l15.5 2q8 2 14 -3.5t6 -13.5zM372 -360q20 -16 49 -16t62 13.5t69 38.5t70 59q32 31 61 69t53.5 77.5t44 79.5t32.5 76q-180 -54 -290 -118.5t-148 -137.5q-10 -21 -15 -43t-5.5 -41.5t4 -34.5t13.5 -22z
" />
    <glyph glyph-name="Yacute" unicode="&#xdd;" horiz-adv-x="1232" 
d="M1255 151q0 8 -6 13.5t-14 3.5l-15.5 -2t-42 -6.5t-63 -11t-79.5 -15.5q23 72 39.5 150.5t27.5 163.5q7 51 10 95.5t4.5 82t2 66.5t1.5 48q0 13 -23 18.5t-51.5 5t-53.5 -6.5t-29 -18q-9 -27 -25.5 -67t-39.5 -88t-52 -102t-62 -109q-16 -26 -39.5 -62t-51 -74t-56 -73.5
t-54 -60t-44.5 -33.5t-28 6q-5 12 -1.5 31.5t12 44t20.5 53t26 58.5q28 61 55 126.5t35 128.5q8 65 -9 111t-52.5 75t-86 42.5t-107.5 13.5q-44 0 -91 -15t-91.5 -40t-83 -58t-64.5 -69q-42 -59 -58.5 -115t-11 -100t30.5 -70.5t64 -26.5q31 0 54.5 13.5t36 29.5t14.5 28.5
t-8 10.5q-25 -5 -44.5 12.5t-30 48t-10 69t15.5 76.5q18 44 54 78.5t80.5 54.5t91.5 22.5t86 -16.5q51 -26 71 -71t11 -113q-4 -30 -13.5 -62.5t-21.5 -65.5t-26.5 -66t-27.5 -64q-16 -36 -30 -69t-23 -62q-22 -68 -7 -102q12 -28 45 -34q12 -3 24 -3q40 0 90 30
q39 24 79 64t77 87.5t70.5 98t60.5 96.5q43 71 77.5 138t60.5 124q-8 -81 -26 -179.5t-49 -205.5q-10 -35 -22 -73t-27 -78q-173 -50 -287 -110q-78 -40 -129 -85t-76 -94q-28 -53 -26 -100q0 -46 25 -79q27 -36 74 -50q22 -7 53 -7q25 0 51 6q186 41 319 193
q113 130 184 330q1 2 1 4q46 10 84.5 17.5t67 12t45 7t17.5 2.5q8 1 14 7.5t7 14.5zM372 -360q-9 7 -13.5 22t-4 34.5t5.5 41.5t15 43q38 73 148 137.5t290 118.5q-13 -36 -32.5 -76t-44 -79.5t-53.5 -77.5t-61 -69q-34 -34 -70 -59t-69 -38.5t-62 -13.5t-49 16zM779 984
q-2 7 11.5 8t30.5 -4t31.5 -16t14.5 -28q1 -28 -12 -58.5t-32.5 -53.5t-40.5 -35t-35 -3q-9 6 -4.5 32t13.5 57.5t17.5 60t5.5 40.5z" />
    <glyph glyph-name="Ydieresis" unicode="&#x178;" horiz-adv-x="1232" 
d="M1255 151q-1 -8 -7 -14.5t-14 -7.5q-1 0 -17.5 -2.5t-45 -7t-67 -12t-84.5 -17.5q0 -2 -1 -4q-71 -200 -184 -330q-133 -152 -319 -193q-26 -6 -51 -6q-31 0 -53 7q-47 14 -74 50q-25 33 -25 79q-2 47 26 100q25 49 76 94t129 85q114 60 287 110q15 40 27 78t22 73
q31 107 49 205.5t26 179.5q-26 -57 -60.5 -124t-77.5 -138q-27 -46 -60.5 -96.5t-70.5 -98t-77 -87.5t-79 -64q-50 -30 -90 -30q-12 0 -24 3q-33 6 -45 34q-15 34 7 102q9 29 23 62t30 69q13 31 27.5 64t26.5 66t21.5 65.5t13.5 62.5q9 68 -11 113t-71 71q-39 19 -86 16.5
t-91.5 -22.5t-80.5 -54.5t-54 -78.5q-15 -38 -15.5 -76.5t10 -69t30 -48t44.5 -12.5q10 2 8 -10.5t-14.5 -28.5t-36 -29.5t-54.5 -13.5q-39 0 -64 26.5t-30.5 70.5t11 100t58.5 115q26 36 64.5 69t83 58t91.5 40t91 15q57 0 107.5 -13.5t86 -42.5t52.5 -75t9 -111
q-8 -63 -35 -128.5t-55 -126.5q-14 -30 -26 -58.5t-20.5 -53t-12 -44t1.5 -31.5q9 -15 28 -6t44.5 33.5t54 60t56 73.5t51 74t39.5 62q33 55 62 109t52 102t39.5 88t25.5 67q4 12 29 18t53.5 6.5t51.5 -5t23 -18.5q-1 -19 -1.5 -48t-2 -66.5t-4.5 -82t-10 -95.5
q-11 -85 -27.5 -163.5t-39.5 -150.5q43 9 79.5 15.5t63 11t42 6.5l15.5 2q8 2 14 -3.5t6 -13.5zM372 -360q20 -16 49 -16t62 13.5t69 38.5t70 59q32 31 61 69t53.5 77.5t44 79.5t32.5 76q-180 -54 -290 -118.5t-148 -137.5q-10 -21 -15 -43t-5.5 -41.5t4 -34.5t13.5 -22z
M661 845q0 17 13 29t32 12t32 -12t13 -29t-13 -29t-32 -12t-32 12t-13 29zM801 845q0 17 13 29t32 12t32 -12t13 -29t-13 -29t-32 -12t-32 12t-13 29z" />
    <glyph glyph-name="T" unicode="T" horiz-adv-x="640" 
d="M227 -198q-6 18 2 59t24 96t38.5 120t46 130t46 126.5t38.5 110.5t23 81t1 38q-5 4 2.5 9.5t21.5 9t32 4.5t34 -3t28 -15t14 -31q4 -38 -12.5 -100.5t-43.5 -137t-59.5 -154.5t-60 -152t-45.5 -129.5t-16 -87.5q0 -9 -14 -17.5t-33 -8.5t-38.5 11t-28.5 41zM1229 676
q1 -18 -3 -37.5t-17 -36.5t-38 -29t-65 -13q-42 -2 -109.5 10t-148.5 29.5t-167 37.5t-165 36t-143 24t-99 2q-27 -5 -51 -17t-42 -29t-29 -37.5t-12 -42.5q-2 -26 7 -47.5t26 -35.5t41 -20t52 -1q10 2 2.5 -14t-27 -37t-49 -39.5t-62.5 -21.5q-30 -2 -55.5 6t-44.5 24
t-28.5 39t-7.5 51q3 51 22.5 94.5t51 78t72 59t87.5 37.5q38 10 93 8.5t118.5 -10t130.5 -21.5t129 -25.5t115 -22t87 -10.5q45 -2 85 3t69.5 16t45 28.5t11.5 41.5q-2 10 15.5 10t40 -10t41.5 -29.5t21 -48.5z" />
    <glyph glyph-name="uni0162" unicode="&#x162;" horiz-adv-x="640" 
d="M235 -298q-3 6 9.5 10.5t29.5 4t32 -7.5t18 -24q6 -38 -5.5 -73.5t-31 -61.5t-43 -38t-43.5 -2q-10 5 1.5 21.5t25 42t20 58t-12.5 70.5zM227 -198q-6 18 2 59t24 96t38.5 120t46 130t46 126.5t38.5 110.5t23 81t1 38q-5 4 2.5 9.5t21.5 9t32 4.5t34 -3t28 -15t14 -31
q4 -38 -12.5 -100.5t-43.5 -137t-59.5 -154.5t-60 -152t-45.5 -129.5t-16 -87.5q0 -9 -14 -17.5t-33 -8.5t-38.5 11t-28.5 41zM1229 676q1 -18 -3 -37.5t-17 -36.5t-38 -29t-65 -13q-42 -2 -109.5 10t-148.5 29.5t-167 37.5t-165 36t-143 24t-99 2q-27 -5 -51 -17t-42 -29
t-29 -37.5t-12 -42.5q-2 -26 7 -47.5t26 -35.5t41 -20t52 -1q10 2 2.5 -14t-27 -37t-49 -39.5t-62.5 -21.5q-30 -2 -55.5 6t-44.5 24t-28.5 39t-7.5 51q3 51 22.5 94.5t51 78t72 59t87.5 37.5q38 10 93 8.5t118.5 -10t130.5 -21.5t129 -25.5t115 -22t87 -10.5q45 -2 85 3
t69.5 16t45 28.5t11.5 41.5q-2 10 15.5 10t40 -10t41.5 -29.5t21 -48.5z" />
    <glyph glyph-name="Tcaron" unicode="&#x164;" horiz-adv-x="640" 
d="M227 -198q-6 18 2 59t24 96t38.5 120t46 130t46 126.5t38.5 110.5t23 81t1 38q-5 4 2.5 9.5t21.5 9t32 4.5t34 -3t28 -15t14 -31q4 -38 -12.5 -100.5t-43.5 -137t-59.5 -154.5t-60 -152t-45.5 -129.5t-16 -87.5q0 -9 -14 -17.5t-33 -8.5t-38.5 11t-28.5 41zM1229 676
q1 -18 -3 -37.5t-17 -36.5t-38 -29t-65 -13q-42 -2 -109.5 10t-148.5 29.5t-167 37.5t-165 36t-143 24t-99 2q-27 -5 -51 -17t-42 -29t-29 -37.5t-12 -42.5q-2 -26 7 -47.5t26 -35.5t41 -20t52 -1q10 2 2.5 -14t-27 -37t-49 -39.5t-62.5 -21.5q-30 -2 -55.5 6t-44.5 24
t-28.5 39t-7.5 51q3 51 22.5 94.5t51 78t72 59t87.5 37.5q38 10 93 8.5t118.5 -10t130.5 -21.5t129 -25.5t115 -22t87 -10.5q45 -2 85 3t69.5 16t45 28.5t11.5 41.5q-2 10 15.5 10t40 -10t41.5 -29.5t21 -48.5zM607 825q-5 -1 -21 18t-34.5 43t-36 44.5t-24.5 21.5
q-12 1 -9 6.5t14.5 10.5t27.5 6.5t31 -4.5q20 -9 37 -22t35 -34q29 26 49 36t41 20q17 7 32 1.5t24 -15t11 -18t-7 -6.5q-4 1 -17.5 -6.5t-31 -19t-38 -25.5t-38 -26.5t-30 -21t-15.5 -9.5z" />
    <glyph glyph-name="F" unicode="F" horiz-adv-x="887" 
d="M126 113q-1 -14 -8 -18.5t-15.5 1t-14 21t-3.5 41.5q3 37 26 58t59.5 31t84 10.5t100.5 -3.5q21 58 40 111.5t32 95.5t19 69t0 33q-5 4 2.5 9.5t21.5 9t32 4.5t34 -3t28 -15t14 -31q2 -23 -3.5 -54.5t-16 -70t-26 -82.5t-32.5 -90q48 -3 98 -2.5t91.5 5.5t68.5 14.5
t30 25.5q2 15 11.5 15.5t18 -7.5t11 -21t-9.5 -24t-37.5 -22.5t-67 -21.5t-100.5 -16t-138 -7q-25 -63 -49.5 -124.5t-44 -115.5t-31.5 -96.5t-10 -66.5q0 -9 -14 -17.5t-33 -8.5t-38.5 11t-28.5 41q-6 17 1 55t21.5 89t35 111.5t43.5 122.5q-42 -1 -78.5 -4t-63.5 -10.5
t-43 -20t-17 -32.5zM1229 676q1 -18 -3 -37.5t-17 -36.5t-38 -29t-65 -13q-42 -2 -109.5 10t-148.5 29.5t-167 37.5t-165 36t-143 24t-99 2q-27 -5 -51 -17t-42 -29t-29 -37.5t-12 -42.5q-2 -26 7 -47.5t26 -35.5t41 -20t52 -1q10 2 2.5 -14t-27 -37t-49 -39.5t-62.5 -21.5
q-30 -2 -55.5 6t-44.5 24t-28.5 39t-7.5 51q3 51 22.5 94.5t51 78t72 59t87.5 37.5q38 10 93 8.5t118.5 -10t130.5 -21.5t129 -25.5t115 -22t87 -10.5q45 -2 85 3t69.5 16t45 28.5t11.5 41.5q-2 10 15.5 10t40 -10t41.5 -29.5t21 -48.5z" />
    <glyph glyph-name="V" unicode="V" horiz-adv-x="1288" 
d="M1731 753q4 -12 -6 -26t-27 -26.5t-37 -22t-36.5 -12.5t-25.5 1.5t-3 21.5q8 22 5.5 41t-13 31.5t-26.5 18t-34 1.5q-95 -21 -218 -158q-48 -54 -88 -108t-75 -108.5t-68.5 -109t-69.5 -110.5t-78 -112.5t-93 -114.5q-99 -109 -177 -166q-84 -58 -142 -58q-13 0 -25 3
q-41 9 -57 42q-10 23 -7.5 55t16.5 78q12 38 30.5 83t39.5 93q37 85 71 175t45 174q12 92 -17.5 153.5t-98.5 99.5q-48 26 -100 27t-102 -19q-23 -9 -49 -24.5t-51 -37t-47.5 -49t-37.5 -60.5q-24 -53 -33 -109t2.5 -99.5t44.5 -67t92 -9.5q13 3 12.5 -16t-14.5 -42.5
t-40.5 -42t-65.5 -14.5q-46 5 -77 28.5t-47.5 59.5t-19.5 81t6.5 92.5t31 95t54.5 87.5q29 36 60 62t60 45t55.5 31.5t47.5 20.5q46 18 94.5 28t96.5 10t94 -10t87 -32q84 -46 118 -119q14 -34 17.5 -73t-1.5 -86q-5 -42 -17 -85t-28 -86.5t-34.5 -86t-36.5 -82.5
q-18 -41 -35 -80t-28.5 -72.5t-15.5 -60.5t4 -44q7 -17 21 -17t32 10.5t38.5 28.5t40 38t36.5 39t28 31q52 58 93.5 115t78 112t69.5 109.5t68 108.5t75 108.5t90 109.5q60 69 114 110q67 50 129 64q22 5 53 6t61.5 -5.5t55.5 -22.5t35 -45z" />
    <glyph glyph-name="X" unicode="X" horiz-adv-x="900" 
d="M1212 -345q15 5 26 -1.5t17 -20t7 -30.5t-3 -33t-13.5 -28t-25.5 -15q-40 -8 -83.5 -12t-87.5 -3.5t-86.5 7t-80.5 21.5q-68 25 -117 66.5t-84 96t-58.5 119t-39.5 135.5q-17 67 -27.5 135t-19.5 136l-4 28l-4 28l-495 -423q-6 -6 -14 -6t-14 6q-5 6 -3.5 14.5t8.5 14.5
l511 437q-16 99 -35 181t-48 135.5t-70.5 74.5t-102.5 -1q-17 -6 -29.5 -2t-17 12t1 18.5t25.5 17.5q112 39 195.5 12t132.5 -122q24 -47 39.5 -103.5t27.5 -120.5l301 258q7 5 15.5 5t13.5 -6q4 -6 3 -14t-8 -14l-318 -271q15 -104 30.5 -207t39.5 -194.5t60.5 -165.5
t94 -120.5t140.5 -60t200 15.5z" />
    <glyph glyph-name="K" unicode="K" horiz-adv-x="1228" 
d="M915 666q9 -26 1 -64q-4 -15 -10 -31.5t-16 -33.5q-16 -27 -35 -50.5t-42 -41.5q-26 -20 -55 -34t-60 -21q-8 -2 -15 -3t-15 -2q-7 -45 -17.5 -89t-25.5 -89q72 2 140.5 30t129 72.5t111 100.5t86 114.5t54.5 114t17 98.5q0 6 14.5 9t35 1.5t43 -8.5t37.5 -21.5t19 -37
t-12 -54.5q-39 -77 -101 -154.5t-136.5 -140t-154.5 -102t-155 -39.5q66 -5 113.5 -28t82.5 -56.5t60 -74.5t45 -83t37.5 -82t37.5 -71t45 -50t60 -20q6 0 6.5 -12.5t-4 -31t-13.5 -40t-22.5 -40t-31 -30.5t-38.5 -11q-35 1 -61 27t-46.5 68t-38.5 95.5t-38 109.5t-44 109
t-56.5 94.5t-76.5 67t-103 25.5q-11 0 -30 -2.5t-34 -5.5q-42 -99 -107.5 -181t-159.5 -130q-63 -32 -128 -37q-32 0 -58.5 6t-48.5 23q-20 17 -30.5 41.5t-9.5 53.5q-1 30 12 61.5t34 60.5q12 16 34 36.5t50.5 35.5t63 20t72.5 -8q10 -4 8 -19t-11 -29t-21.5 -22t-22.5 3
q-14 15 -34 16t-40.5 -6.5t-39 -20.5t-29.5 -26q-37 -45 -37 -94q-1 -22 6 -42t25 -28q41 -18 84.5 6.5t84.5 74.5t77.5 117.5t65.5 137.5q13 33 24.5 66t20 63.5t14.5 56t8 43.5q-10 4 -30 25t-45.5 46.5t-55 50.5t-59.5 37q-54 22 -94 16t-66.5 -29t-40 -59t-13.5 -73
q0 -8 -16.5 -13t-37 -5t-37 6t-16.5 22q0 33 15.5 63t41.5 55t60.5 42.5t72.5 25.5t77.5 5t76.5 -19q24 -10 49 -29t49 -41t45 -43.5t37 -35.5q8 32 18 59.5t25 50.5q39 65 82.5 95.5t76.5 41.5q20 7 42 9t42 0t36.5 -7.5t30.5 -13.5q28 -13 39 -43zM854 550q9 14 14 27
t8 25q6 26 0 44t-24 26q-9 3 -18 3q-12 0 -27 -5q-8 -3 -16 -8t-16 -12q-18 -13 -28 -30q-13 -17 -21 -36t-15 -37q-10 -30 -18.5 -60.5t-14.5 -61.5q4 1 9 1.5t10 2.5q53 11 95 45q17 15 33.5 34t28.5 42z" />
    <glyph glyph-name="uni0136" unicode="&#x136;" horiz-adv-x="1228" 
d="M915 666q9 -26 1 -64q-4 -15 -10 -31.5t-16 -33.5q-16 -27 -35 -50.5t-42 -41.5q-26 -20 -55 -34t-60 -21q-8 -2 -15 -3t-15 -2q-7 -45 -17.5 -89t-25.5 -89q72 2 140.5 30t129 72.5t111 100.5t86 114.5t54.5 114t17 98.5q0 6 14.5 9t35 1.5t43 -8.5t37.5 -21.5t19 -37
t-12 -54.5q-39 -77 -101 -154.5t-136.5 -140t-154.5 -102t-155 -39.5q66 -5 113.5 -28t82.5 -56.5t60 -74.5t45 -83t37.5 -82t37.5 -71t45 -50t60 -20q6 0 6.5 -12.5t-4 -31t-13.5 -40t-22.5 -40t-31 -30.5t-38.5 -11q-35 1 -61 27t-46.5 68t-38.5 95.5t-38 109.5t-44 109
t-56.5 94.5t-76.5 67t-103 25.5q-11 0 -30 -2.5t-34 -5.5q-42 -99 -107.5 -181t-159.5 -130q-63 -32 -128 -37q-32 0 -58.5 6t-48.5 23q-20 17 -30.5 41.5t-9.5 53.5q-1 30 12 61.5t34 60.5q12 16 34 36.5t50.5 35.5t63 20t72.5 -8q10 -4 8 -19t-11 -29t-21.5 -22t-22.5 3
q-14 15 -34 16t-40.5 -6.5t-39 -20.5t-29.5 -26q-37 -45 -37 -94q-1 -22 6 -42t25 -28q41 -18 84.5 6.5t84.5 74.5t77.5 117.5t65.5 137.5q13 33 24.5 66t20 63.5t14.5 56t8 43.5q-10 4 -30 25t-45.5 46.5t-55 50.5t-59.5 37q-54 22 -94 16t-66.5 -29t-40 -59t-13.5 -73
q0 -8 -16.5 -13t-37 -5t-37 6t-16.5 22q0 33 15.5 63t41.5 55t60.5 42.5t72.5 25.5t77.5 5t76.5 -19q24 -10 49 -29t49 -41t45 -43.5t37 -35.5q8 32 18 59.5t25 50.5q39 65 82.5 95.5t76.5 41.5q20 7 42 9t42 0t36.5 -7.5t30.5 -13.5q28 -13 39 -43zM854 550q9 14 14 27
t8 25q6 26 0 44t-24 26q-9 3 -18 3q-12 0 -27 -5q-8 -3 -16 -8t-16 -12q-18 -13 -28 -30q-13 -17 -21 -36t-15 -37q-10 -30 -18.5 -60.5t-14.5 -61.5q4 1 9 1.5t10 2.5q53 11 95 45q17 15 33.5 34t28.5 42zM645 -218q-3 6 9.5 10.5t29.5 4t32 -7.5t18 -24q6 -38 -5.5 -73.5
t-31 -61.5t-43 -38t-43.5 -2q-10 5 1.5 21.5t25 42t20 58t-12.5 70.5z" />
    <glyph glyph-name="ring" unicode="&#x2da;" horiz-adv-x="289" 
d="M144 502q-20 0 -38 7.5t-31.5 21t-21.5 31.5t-8 39q0 20 8 38t21.5 31.5t31.5 21.5t38 8q21 0 39 -8t31.5 -21.5t21.5 -31.5t8 -38q0 -42 -29 -70.5t-71 -28.5zM144 660q-24 0 -41.5 -17.5t-17.5 -41.5q0 -25 17.5 -42t41.5 -17q25 0 42.5 17t17.5 42q0 24 -17.5 41.5
t-42.5 17.5z" />
    <glyph glyph-name="Aring" unicode="&#xc5;" horiz-adv-x="927" 
d="M956 320q-8 2 -15 -3t-10 -13v-1q-1 -1 -2 -1q-4 -2 -13.5 -4.5t-32.5 -0.5q-17 1 -38 4.5t-48 8.5q29 74 54.5 141.5t42.5 125.5q20 69 21.5 111.5t-14.5 67.5q-20 30 -63 30q-54 0 -106 -32q-23 -14 -44.5 -34t-44.5 -47q-46 -54 -88.5 -127t-84.5 -145q-36 11 -67 18
t-64 15v3q-5 45 -40 73q-40 31 -109 28q-64 -2 -114 -28q-50 -24 -86 -66q-34 -39 -54.5 -88.5t-24.5 -101.5q-4 -48 6.5 -89.5t34.5 -73.5q55 -73 156 -73h2q126 1 239 131q38 45 72.5 97t66.5 108q40 -12 81 -24.5t82 -23.5q-35 -87 -66.5 -173t-53.5 -167
q-24 -95 -24 -161q-2 -61 22.5 -109t65 -78t92.5 -39t105 8q9 3 12.5 9t2 11.5t-7.5 9t-16 2.5q-37 -6 -61.5 9t-39.5 43t-21 64.5t-6.5 74.5t4 73t10.5 59q20 78 50 161.5t64 168.5h1q64 -14 103 -15t59 11q18 9 24 28q5 19 -14 24zM147 64q-38 0 -59 20.5t-30 50.5
t-9.5 65t2.5 64q4 36 17 76.5t36 75t56.5 56.5t77.5 21q26 -1 40.5 -18.5t18.5 -34.5q-34 4 -53 -2q-27 -8 -46.5 -24.5t-25.5 -36.5q-9 -30 9 -47q7 -7 25.5 -13t53.5 5q37 11 61 46q7 11 12 26q29 -7 57 -14t59 -16q-31 -53 -67 -106t-75 -96.5t-79.5 -70.5t-80.5 -27z
M508 390q18 33 41 71.5t48 77t50.5 74t48.5 61.5t42.5 40.5t33.5 10.5q9 -2 10.5 -13t-1.5 -27.5t-9 -38.5t-13 -46q-15 -54 -39.5 -119t-52.5 -137q-40 11 -79.5 23t-79.5 23zM850 808q-20 0 -38 7.5t-31.5 21t-21.5 31.5t-8 39q0 20 8 38t21.5 31.5t31.5 21.5t38 8
q21 0 39 -8t31.5 -21.5t21.5 -31.5t8 -38q0 -42 -29 -70.5t-71 -28.5zM850 966q-24 0 -41.5 -17.5t-17.5 -41.5q0 -25 17.5 -42t41.5 -17q25 0 42.5 17t17.5 42q0 24 -17.5 41.5t-42.5 17.5z" />
    <glyph glyph-name="aring" unicode="&#xe5;" horiz-adv-x="523" 
d="M253 421q0 -13 9.5 -21t21.5 -8q13 0 21 9q10 8 10 30q0 20 -8 33.5t-19.5 21.5t-25 11.5t-25.5 4.5q-36 1 -71 -11t-68 -39.5t-62.5 -71t-53.5 -104.5q-13 -33 -22 -72.5t-6 -76t20.5 -67.5t57.5 -47q33 -14 60.5 -11t52 18t45.5 40.5t40 56.5q-5 -51 14 -84t57 -31
q24 0 50 18t51.5 46t49.5 62t44.5 67.5t35.5 63t23 46.5q4 7 0.5 13t-9.5 8t-13 0t-10 -10q-6 -17 -20 -43t-31.5 -55t-38 -58t-39.5 -52.5t-35 -38.5t-25 -16q-23 -2 -20.5 18.5t19 55t41 78.5t46 89t33.5 86.5t3 70.5q-9 30 -30.5 40t-41.5 9t-33.5 -9t-6.5 -14
q6 -6 3 -22.5t-12 -40t-22.5 -53t-27.5 -62.5q-13 -25 -27.5 -54.5t-30 -59t-32 -56.5t-32 -46t-31 -28t-29.5 -3q-18 7 -25 30t-6 53.5t9.5 64t21.5 62.5q21 46 42 83.5t40.5 63t36.5 39t31 12.5q11 0 16 -12q-7 -5 -11.5 -12t-4.5 -15zM271 527q-20 0 -38 7.5t-31.5 21
t-21.5 31.5t-8 39q0 20 8 38t21.5 31.5t31.5 21.5t38 8q21 0 39 -8t31.5 -21.5t21.5 -31.5t8 -38q0 -42 -29 -70.5t-71 -28.5zM271 685q-24 0 -41.5 -17.5t-17.5 -41.5q0 -25 17.5 -42t41.5 -17q25 0 42.5 17t17.5 42q0 24 -17.5 41.5t-42.5 17.5z" />
    <glyph glyph-name="cedilla" unicode="&#xb8;" horiz-adv-x="224" 
d="M118 -55q10 -2 24 -6t26 -13.5t21 -26.5t9 -44q0 -26 -13.5 -47t-35 -35.5t-49 -21.5t-55.5 -4q-12 1 -18.5 15t-8 29.5t2.5 27.5t14 9q34 -11 56 -1t29.5 26t0 31.5t-33.5 17.5q-11 2 -15 10q-5 8 -2 17l61 117q3 7 5 3.5t2 -17t-4.5 -35.5t-15.5 -52z" />
    <glyph glyph-name="Ccedilla" unicode="&#xc7;" horiz-adv-x="767" 
d="M162 -308q10 -2 24 -6t26 -13.5t21 -26.5t9 -44q0 -26 -13.5 -47t-35 -35.5t-49 -21.5t-55.5 -4q-12 1 -18.5 15t-8 29.5t2.5 27.5t14 9q34 -11 56 -1t29.5 26t0 31.5t-33.5 17.5q-11 2 -15 10q-5 8 -2 17l35 68q-32 8 -59 25q-46 27 -73 70t-38 93.5t-7.5 105.5
t17.5 106q25 88 55 163.5t69.5 141t89.5 124t114 112.5q21 18 55.5 36t75 27t82.5 3t78 -37q28 -24 45 -69.5t17 -98t-19.5 -106t-63.5 -92.5q-14 -12 -37 -8.5t-42.5 15t-28.5 27t6 27.5q28 22 49.5 57t33.5 73t13 73.5t-11 58.5q-11 19 -36 14.5t-59.5 -29t-74.5 -66.5
t-80 -98q-30 -42 -56 -90.5t-46.5 -96t-36 -91.5t-24.5 -78q-18 -66 -18 -123t14.5 -100.5t42.5 -71t66 -34t84.5 9.5t99.5 59q40 33 81.5 78t82 99.5t79 117t73.5 130.5q10 18 28 10q8 -3 10 -10.5t-3 -15.5q-18 -36 -39 -73t-43 -72.5t-44 -68t-43 -59.5
q-77 -101 -158 -167q-76 -61 -150 -88q-26 -11 -54.5 -16t-55.5 -5q-9 0 -17.5 0.5t-16.5 1.5q-4 -18 -14 -46z" />
    <glyph glyph-name="ccedilla" unicode="&#xe7;" horiz-adv-x="373" 
d="M70 -55q10 -2 24 -6t26 -13.5t21 -26.5t9 -44q0 -26 -13.5 -47t-35 -35.5t-49 -21.5t-55.5 -4q-12 1 -18.5 15t-8 29.5t2.5 27.5t14 9q34 -11 56 -1t29.5 26t0 31.5t-33.5 17.5q-11 2 -15 10q-5 8 -2 17l39 76q-13 1 -26 8q-40 16 -57.5 47t-20.5 67.5t6 76t22 72.5
q24 61 53.5 104.5t62.5 71t68 39.5t71 11q12 -1 25.5 -4.5t25 -11.5t19.5 -21.5t8 -33.5t-9 -29q-8 -10 -22 -10q-12 0 -21.5 8t-9.5 21q0 8 4.5 15t11.5 12q-5 12 -16 12q-14 1 -31 -12.5t-36.5 -39t-40.5 -63t-42 -83.5q-13 -29 -21.5 -64t-10 -66t5.5 -53.5t26 -26.5
q22 -4 47.5 6.5t52 31.5t52 49t48 59t40 61.5t27.5 56.5q3 8 10 10.5t15 -1.5q13 -7 7 -21q-21 -47 -55 -100t-76.5 -98t-90.5 -74.5t-97 -29.5q-2 -11 -6 -25.5t-10 -31.5z" />
    </font>
</defs>
</svg>
