<svg xmlns="http://www.w3.org/2000/svg" width="1051" height="589" viewBox="0 0 1051 589" preserveAspectRatio="none"><defs><style>.cls-1{fill:#ff3900;fill-rule:evenodd}</style></defs><path class="cls-1" d="M128.639 315.3H267.56c-16.88-21.1-12.829-94.7-12.829-120.691V69.187c-35.279 6.583-73.6 16.2-127.78 16.2 12.66 9.284 16.542 62.287 16.542 109.213 0 27.012 1.35 99.6-14.854 120.7zm154.23 0h138.922c-16.88-21.1-12.829-94.7-12.829-120.691V69.187c-35.279 6.583-73.6 16.2-127.781 16.2 12.66 9.284 16.543 62.287 16.543 109.213 0 27.012 1.35 99.6-14.855 120.7zm197.821 2.988c25.463 0 46.264-16.736 46.264-36.58 0-20.322-20.8-36.7-46.264-36.7s-46.263 16.378-46.263 36.7c0 19.84 20.801 36.576 46.263 36.576zm60.621-2.988h138.921c-16.88-21.1-12.829-94.7-12.829-120.691V69.187c-35.279 6.583-73.6 16.2-127.78 16.2 12.659 9.284 16.542 62.287 16.542 109.213 0 27.012 1.35 99.6-14.854 120.7zm154.23 0h138.922c-16.88-21.1-12.829-94.7-12.829-120.691V69.187c-35.279 6.583-73.6 16.2-127.781 16.2 12.66 9.284 16.543 62.287 16.543 109.213.004 27.012 1.35 99.6-14.855 120.7z"/><path class="cls-1" d="M988.974 69.943v57.244h17.566c-9.925-11.018-10.853-31.155-10.853-36.179 4.473 24.95 18.233 37.992 30.693 37.992 17.52 0 24.02-12.453 24.14-31.239.17-24.316-10.3-28.369-17.85-28.369-6.8 0-13.47 5.53-13.47 14.86 0 9.752 7.35 13.214 12.41 13.214 5.95 0 11.78-5.193 11.78-12.96a7.01 7.01 0 011.18 4.264c0 5.4-4.05 12.876-15.41 12.5-20.56-.676-33.684-24.443-33.684-31.324h-6.5zm-1.055 93.72c0 20.939 14.011 33.054 31.321 33.054 17.27 0 31.28-12.115 31.28-33.054 0-20.981-14.01-33.013-31.28-33.013-17.31 0-31.321 12.032-31.321 33.013zm5.4-.169c0-5.53 11.147-5.108 25.837-5.108 14.61 0 26-.422 26 5.108 0 6.079-11.39 5.361-26 5.361-14.686 0-25.833.718-25.833-5.361zm-4.349 32.824v57.244h17.566c-9.925-11.018-10.853-31.155-10.853-36.179 4.473 24.95 18.233 37.994 30.693 37.994 17.52 0 24.02-12.453 24.14-31.239.17-24.316-10.3-28.369-17.85-28.369-6.8 0-13.47 5.53-13.47 14.86 0 9.752 7.35 13.213 12.41 13.213 5.95 0 11.78-5.192 11.78-12.96a7.011 7.011 0 011.18 4.264c0 5.4-4.05 12.876-15.41 12.5-20.56-.676-33.684-24.443-33.684-31.324h-6.5zm0 61.256v57.244h17.566c-9.925-11.018-10.853-31.155-10.853-36.178 4.473 24.949 18.233 37.994 30.693 37.994 17.52 0 24.02-12.454 24.14-31.24.17-24.316-10.3-28.369-17.85-28.369-6.8 0-13.47 5.531-13.47 14.86 0 9.752 7.35 13.214 12.41 13.214 5.95 0 11.78-5.193 11.78-12.96a7.007 7.007 0 011.18 4.263c0 5.4-4.05 12.876-15.41 12.5-20.56-.675-33.684-24.443-33.684-31.324h-6.5z"/><path class="cls-1" d="M875.7 68.484v55.456c1.1-1.168 1.993-3.367 8.864-4.261 11-1.237 33.054-1.649 49.478-1.374-.687 11.82-3.642 20.272-7.353 23.364h24.189c-3.642-3.092-6.46-11.407-7.284-23.227 8.109.275 16.836.688 21.784 1.237.137 9.346-5.635 27.625-13.813 34.36h22.677V68.484c-1.168.962-1.993 3.3-8.864 4.054-17.455 1.924-63.359 2.062-80.814 0-6.874-.824-7.764-3.092-8.864-4.054zm0 85.036v55.387c1.1-.962 2.68-2.474 8.383-3.986 7.766-1.924 31.061-1.443 40.2-1.58L875.7 216.466v51.883c10.789-10.927 25.082-14.431 34.29-17.936 12.3-4.673 10.171-15.049 10.171-22.4 0-14.225 3.023-14.843 4.81-14.843 0 18.829 3.436 39.1 25.082 39.1 27.419 0 24.189-34.565 24.189-60.2v-38.55c-1.168.962-1.993 3.23-8.864 4.054-9.14 1.031-26.045 1.581-42.606 1.512-15.049-.069-29.893-.481-38.208-1.512-6.874-.824-7.764-3.092-8.864-4.054zm57.655 49.958c3.367.069 7.421.069 11.476 0l20.821-.068c0 5.909-5.978 10.376-15.6 10.376-7.152 0-16.7-2.749-16.7-10.308zm-57.655 62.3v55.452c1.1-1.169 1.993-3.368 8.864-4.261 17.455-1.924 63.359-1.924 80.814 0 6.871.893 7.7 3.092 8.864 4.261v-55.456c-1.168.962-1.993 3.3-8.864 4.054-17.455 1.924-63.359 2.062-80.814 0-6.874-.828-7.764-3.092-8.864-4.054z"/><path class="cls-1" d="M23.618.576H.816v50.352h22.8c18.055 0 29.636-9.855 29.636-25.176S41.673.576 23.618.576zm-.072 48.194H3.117V2.734h20.429c15.825 0 27.334 8.128 27.334 23.018S39.371 48.77 23.546 48.77zm93.862 2.158H120L91.513.576h-2.59L60.439 50.928h2.59l8.848-15.753h36.613zM73.1 33.017L90.146 2.806l17.12 30.211H73.1zM176.165.576H123.8v2.158h25.032v48.194h2.3V2.734h25.032V.576zm13.648 48.194V26.4h37.62v-2.158h-37.62V2.734h43.519V.576h-45.821v50.352h46.54V48.77h-44.238z"/><path class="cls-1" d="M920.987 369.505c0 6.823 3.761 10.844 9.624 10.844s9.625-4.021 9.625-10.844-3.762-10.844-9.625-10.844-9.624 4.021-9.624 10.844zm1.271 0c0-5.733 3.035-9.469 8.353-9.469s8.354 3.736 8.354 9.469c0 5.708-3.035 9.443-8.354 9.443s-8.353-3.735-8.353-9.443zm17.433 27.737V385.36h-18.16v1.349h6.979v10.533c0 4.125 2.127 6.745 5.6 6.745 3.454 0 5.581-2.62 5.581-6.745zm-9.936-.078v-10.455h8.691v10.455c0 3.373-1.557 5.448-4.332 5.448-2.802 0-4.359-2.075-4.359-5.448zM922.8 409.8h7.341v13.282h1.272V409.8h7.03v15.488h1.245v-16.833h-18.16v17.1h1.272V409.8zm16.888 37.987h-16.159l16.162-15.9v-1.5h-18.16v1.323h16.448l-16.448 16.21v1.194h18.16v-1.323zM921.531 475.9v1.349h18.16v-1.038a12.369 12.369 0 01-3.139-6.045h-1.219a11.276 11.276 0 002.672 5.734h-16.474zm9.7 19.68c.182 2.543 1.556 5.241 4.2 5.241 3.009 0 4.8-4.021 4.8-8.925s-1.79-8.9-4.8-8.9c-2.647 0-4.021 2.7-4.2 5.241-.234-2.517-1.557-5.941-4.825-5.941-3.243 0-5.422 3.865-5.422 9.6s2.179 9.625 5.422 9.625c3.271.002 4.594-3.421 4.828-5.939zm4.177-11.207c2.412 0 3.632 3.5 3.632 7.523 0 4.047-1.22 7.55-3.632 7.55-2.672 0-3.684-3.5-3.684-7.55.003-4.019 1.015-7.521 3.687-7.521zM922.18 491.9c0-4.9 1.66-8.2 4.2-8.2 2.8 0 4.228 3.294 4.228 8.2s-1.427 8.2-4.228 8.2c-2.618 0-4.2-3.3-4.2-8.2zm11.6 20.392a1.039 1.039 0 101.038-1.089 1.023 1.023 0 00-1.042 1.087zm-12.452 0a1.039 1.039 0 101.038-1.089 1.023 1.023 0 00-1.042 1.087zm-.341 21.108c0 6.563 3.787 10.325 9.624 10.325s9.625-3.762 9.625-10.325-3.788-10.325-9.625-10.325-9.624 3.758-9.624 10.325zm1.271 0c0-5.474 2.957-8.95 8.353-8.95s8.354 3.476 8.354 8.95c0 5.448-2.958 8.924-8.354 8.924s-8.353-3.479-8.353-8.924zm-1.271 24.261c0 6.564 3.787 10.325 9.624 10.325s9.625-3.761 9.625-10.325-3.788-10.325-9.625-10.325-9.624 3.764-9.624 10.322zm1.271 0c0-5.474 2.957-8.95 8.353-8.95s8.354 3.476 8.354 8.95c0 5.448-2.958 8.924-8.354 8.924s-8.353-3.479-8.353-8.927zm-34.685-189.038c.415-4.54 1.09-8.327 3.606-8.327 2.672 0 3.892 4.177 3.866 7.679-.026 3.217-.856 5.967-2.8 7.782l.882 1.064c1.92-1.894 3.191-4.955 3.191-8.9 0-4.67-1.842-9.028-5.163-9.028-3.424 0-4.41 4.566-4.851 9.261-.493 5.215-1.193 8.25-3.71 8.25-2.464 0-4.254-2.776-4.254-7.783 0-3.865 1.115-7.16 3.58-9.391l-.96-.986c-2.568 2.361-3.891 6.123-3.891 10.325 0 5.941 2.438 9.21 5.6 9.21 3.4.002 4.437-3.734 4.904-9.156zm8.2 30.23v-19.068h-1.219v8.847h-16.943v1.349h16.941v8.872h1.219zm-18.16 21.514v1.5l18.16-10.169v-1.5l-18.16-10.169v1.5l5.371 2.984v12.841zm6.616-15.176l10.3 5.733-10.3 5.76v-11.493zm-6.616 39.672l7.316-6.459c.26 3.554 2.231 5.888 5.422 5.888 3.4 0 5.422-2.7 5.422-6.745V425.64h-18.16v1.375h7.29v9.728l-7.29 6.356v1.764zm8.536-17.874h8.379v10.481c0 3.346-1.479 5.448-4.177 5.448-2.724 0-4.2-2.1-4.2-5.448v-10.481zm9.624 38.971v-19.068h-1.219v8.846h-16.943v1.349h16.941v8.873h1.219zm-5.915 12.194a1.039 1.039 0 101.038-1.09 1.022 1.022 0 00-1.04 1.09zm-12.452 0a1.039 1.039 0 101.038-1.09 1.022 1.022 0 00-1.044 1.09zm.207 18.173v1.349h18.16v-1.038a12.369 12.369 0 01-3.139-6.045h-1.219a11.276 11.276 0 002.672 5.734h-16.476zm18.705 15.244c0-5.474-2.516-9.054-6.019-9.054-4.021 0-5.863 3.632-5.863 8.224 0 4.254 1.764 7.809 4.307 9.521a10.449 10.449 0 01-2.05.181c-5.551 0-8.431-3.606-8.431-8.924a8.9 8.9 0 012.932-7.16l-.805-1.064c-2.127 1.816-3.32 4.54-3.32 8.276 0 6.486 3.813 10.273 9.624 10.273s9.623-3.787 9.623-10.273zm-10.714-.6c0-4.125 1.478-7.082 4.7-7.082 2.932 0 4.826 3.061 4.826 7.679 0 4.177-1.764 7.264-5.215 8.4-2.705-1.808-4.315-5.388-4.315-8.994zm4.254 21.637a1.039 1.039 0 101.038-1.089 1.023 1.023 0 00-1.04 1.092zm-12.452 0a1.039 1.039 0 101.038-1.089 1.023 1.023 0 00-1.044 1.092zm-.337 21.107c0 6.564 3.787 10.325 9.624 10.325s9.625-3.761 9.625-10.325-3.788-10.325-9.625-10.325-9.626 3.765-9.626 10.328zm1.271 0c0-5.474 2.957-8.95 8.353-8.95s8.354 3.476 8.354 8.95c0 5.448-2.958 8.924-8.354 8.924s-8.355-3.473-8.355-8.921zm-1.271 24.261c0 6.564 3.787 10.325 9.624 10.325s9.625-3.761 9.625-10.325-3.788-10.325-9.625-10.325-9.626 3.765-9.626 10.328zm1.271 0c0-5.474 2.957-8.95 8.353-8.95s8.354 3.476 8.354 8.95c0 5.448-2.958 8.925-8.354 8.925s-8.355-3.474-8.355-8.922z"/></svg>