<svg fill="#fff" xmlns="http://www.w3.org/2000/svg" viewBox="0 0 523.5 257.25"><title>Asset 10</title><g id="Layer_2" data-name="Layer 2"><g id="Layer_1-2" data-name="Layer 1"><path d="M7.79,134.29a35.58,35.58,0,0,0,17.74,10.24,60.54,60.54,0,0,0,12.11,2.09c4.41.33,8.6.5,12.54.5a56.55,56.55,0,0,0,22.34-4.47,42.42,42.42,0,0,0,13.55-8.94A32.92,32.92,0,0,0,94,121.32q4.91-13.41,1.88-31.14A113.12,113.12,0,0,0,92.2,74.83q-2.39-7.58-4.83-14.93-.72-2.16-2.09-6.84T82.54,42.75q-1.37-5.62-2.38-11.61A79.21,79.21,0,0,1,79,20.33a21.66,21.66,0,0,1,1-8A4.22,4.22,0,0,1,84.2,9.16a14.08,14.08,0,0,1,8.72,3.32,22.66,22.66,0,0,1,6.7,8.72,27.7,27.7,0,0,1,2.31,12.18,27,27,0,0,1-4.61,13.84A2.19,2.19,0,0,0,98,50.46a11.19,11.19,0,0,0,4.75,1.95,15.46,15.46,0,0,0,5.91,0,5.64,5.64,0,0,0,4.11-2.6,23.63,23.63,0,0,0,3-13.62,34.44,34.44,0,0,0-4.11-13.69,43.76,43.76,0,0,0-9.37-11.83A45.43,45.43,0,0,0,89.68,2.53,30.45,30.45,0,0,0,83.55.73,40.3,40.3,0,0,0,76.7,0,28,28,0,0,0,70,.66a15.94,15.94,0,0,0-5.41,2.16A19.72,19.72,0,0,0,60.2,6.71a18.62,18.62,0,0,0-3.1,5.19A29.14,29.14,0,0,0,54.65,26a70.86,70.86,0,0,0,2.81,17.3q2.52,8.79,5.69,18.3Q65.6,69,67.84,76.34A127.85,127.85,0,0,1,71.37,91a73.67,73.67,0,0,1,1.15,14.42,44.47,44.47,0,0,1-2.59,14,28.22,28.22,0,0,1-9.37,12.69,38.89,38.89,0,0,1-15.86,7.21,37.64,37.64,0,0,1-18.24-.44,29.68,29.68,0,0,1-14.34-8.65,22.79,22.79,0,0,1-6-12.83,33.21,33.21,0,0,1,1.8-15.85A32.74,32.74,0,0,1,16.3,88.38a22.55,22.55,0,0,1,12.25-6.13,10.41,10.41,0,0,1,6,.94,11.31,11.31,0,0,1,4.83,4.32,13.89,13.89,0,0,1,2,7.06,18.88,18.88,0,0,1-2.3,9q-1.15,2.16,1.08,3.74a12.67,12.67,0,0,0,5.48,2.09,16.85,16.85,0,0,0,6.41-.21,5.06,5.06,0,0,0,4-3.32q2.59-7.64.14-13.41a23.68,23.68,0,0,0-7.35-9.58,30.15,30.15,0,0,0-10.81-5.41,25.14,25.14,0,0,0-10.38-.86,27.38,27.38,0,0,0-15.57,7.78A38.92,38.92,0,0,0,2.46,99.69a37.53,37.53,0,0,0-2.16,18A29.65,29.65,0,0,0,7.79,134.29Z"/><path d="M97.36,110.07a20.86,20.86,0,0,0,2.68,8.81,14.45,14.45,0,0,0,7.5,6.07,17.21,17.21,0,0,0,9.52,1.17,28.52,28.52,0,0,0,9.46-3.39,45.13,45.13,0,0,0,8.93-6.72,85,85,0,0,0,8.15-9c.91-1.15,1.77-2.31,2.61-3.49A30.22,30.22,0,0,0,146,110a21.21,21.21,0,0,0,2.67,8.8,14.32,14.32,0,0,0,7.5,6.14,17.41,17.41,0,0,0,9.59,1.17,27.55,27.55,0,0,0,9.52-3.46,45.66,45.66,0,0,0,9-6.91,90.09,90.09,0,0,0,8.15-9.07c.84-1.06,1.64-2.14,2.42-3.23a30.86,30.86,0,0,0-.2,6.56,21.21,21.21,0,0,0,2.67,8.8,14.36,14.36,0,0,0,7.5,6.14,17.42,17.42,0,0,0,9.59,1.17,27.47,27.47,0,0,0,9.52-3.46,45.66,45.66,0,0,0,9-6.91,90.19,90.19,0,0,0,8.16-9.07q1.45-1.86,2.8-3.78a45,45,0,0,0-.33,6.39,20,20,0,0,0,4,11.74,14.07,14.07,0,0,0,10.24,5.48,14.94,14.94,0,0,0,9.33-2.35,35.39,35.39,0,0,0,8-7,57.43,57.43,0,0,0,6.46-9.19q2.81-5,4.63-9a29,29,0,0,0,7.24-.66,28.39,28.39,0,0,0,6.2-2.07c-.63,1.55-1.25,3.09-1.83,4.62a84.08,84.08,0,0,0-3.4,10.89q-1.17,5.08-.13,8.22,1.19,3.92,3.46,5.35a8,8,0,0,0,4.44,1.37,5.77,5.77,0,0,0,3.52-1.18c.91-.74,1.19-1.45.84-2.15q-.9-1.83.07-5.22a53,53,0,0,1,3.07-7.83q2.08-4.42,4.76-9.45t5.15-10.11q2.47-3.66,5.61-7.63t6.19-7.31a61,61,0,0,1,5.68-5.48c1.74-1.43,3.08-2.19,4-2.28,1.83-.08,2.85.39,3.07,1.44a9.07,9.07,0,0,1-.72,4.5,56.06,56.06,0,0,1-3.13,6.91q-2.08,4-4.24,8.74t-4,10a50.52,50.52,0,0,0-2.48,10.57,20.66,20.66,0,0,0,.07,5.93,17.74,17.74,0,0,0,1.63,5.28,10.19,10.19,0,0,0,3,3.72,6.6,6.6,0,0,0,4.44,1.24,11.51,11.51,0,0,0,6.52-2.35,39.23,39.23,0,0,0,6.71-6,82.68,82.68,0,0,0,6.46-8.09q1.69-2.4,3.26-4.79a30.33,30.33,0,0,0,0,4.86,21.22,21.22,0,0,0,2.68,8.8,14.32,14.32,0,0,0,7.5,6.14,15.44,15.44,0,0,0,7.82,1.43,15.76,15.76,0,0,0,6.79-2.35,25.89,25.89,0,0,0,5.87-5.15,56.35,56.35,0,0,0,5.21-7.24c-.34,4.35.28,7.94,1.9,10.76a7.42,7.42,0,0,0,7.37,4,11.54,11.54,0,0,0,6.52-2.35,39.65,39.65,0,0,0,6.72-6,84.14,84.14,0,0,0,6.45-8.09q3.14-4.43,5.81-8.8T437,92.92c1.3-2.56,2.3-4.59,3-6.06a1.61,1.61,0,0,0,.06-1.7,2.18,2.18,0,0,0-1.24-1,2.71,2.71,0,0,0-1.69,0,2,2,0,0,0-1.31,1.3A41.19,41.19,0,0,1,433.24,91q-1.82,3.39-4.17,7.17t-5,7.57c-1.74,2.52-3.43,4.81-5.08,6.85a58.88,58.88,0,0,1-4.5,5,6.58,6.58,0,0,1-3.33,2.09q-2.22.26-1.89-3a35.53,35.53,0,0,1,2.48-8.81q2.15-5.53,5.61-12.91t7.3-15.33q3.84-8,7.63-16.11t6.59-15.2a107.77,107.77,0,0,0,4.24-12.58c.95-3.7,1.13-6.5.52-8.42q-1.17-3.9-4-5.21A11.5,11.5,0,0,0,434.29,21a9.36,9.36,0,0,0-4.37,1.18c-1.18.69-1.46,1.3-.85,1.82.43.44.37,1.72-.2,3.85s-1.47,4.87-2.73,8.22-2.79,7.15-4.57,11.41-3.65,8.7-5.61,13.31-3.93,9.28-5.93,14-3.83,9.24-5.48,13.5q-2.49,5-5.42,11a116.75,116.75,0,0,1-6.06,11,44.14,44.14,0,0,1-6.13,7.89c-2,2-3.92,2.54-5.74,1.76a5.57,5.57,0,0,1-3.26-3.92,21.64,21.64,0,0,1-.79-7,39.26,39.26,0,0,1,1.24-8.35,50.49,50.49,0,0,1,2.81-8.16c1.82-4,3.65-7.63,5.48-10.89A68.73,68.73,0,0,1,392,73.35a28.79,28.79,0,0,1,4.76-5.08,6,6,0,0,1,4-1.63,2.19,2.19,0,0,1,2.09,1.56,5.74,5.74,0,0,0-1.5,1.57,3.56,3.56,0,0,0-.59,2A3.41,3.41,0,0,0,402,74.46a4.23,4.23,0,0,0,2.81,1.05,3.48,3.48,0,0,0,2.87-1.31,5.19,5.19,0,0,0,1.17-3.78,8.49,8.49,0,0,0-1-4.37,8.87,8.87,0,0,0-2.55-2.8,9.87,9.87,0,0,0-3.26-1.5,19.56,19.56,0,0,0-3.32-.59,26.1,26.1,0,0,0-9.26,1.43,28.3,28.3,0,0,0-8.87,5.16A44.23,44.23,0,0,0,372.39,77a70.35,70.35,0,0,0-6.88,13.38c-.12.24-.23.46-.36.7q-1.81,3.47-4.17,7.24T356,106q-2.68,3.84-5.15,6.91a45.69,45.69,0,0,1-4.57,5c-1.39,1.26-2.48,1.89-3.26,1.89-1.74,0-2.67-.63-2.81-1.89a11.81,11.81,0,0,1,1-5,76.35,76.35,0,0,1,3.33-7.37q2.14-4.23,4.3-8.93t3.85-9.59a35,35,0,0,0,2-9.33q.92-7.17-1.57-11.74a7.82,7.82,0,0,0-7.56-4.43,11.26,11.26,0,0,0-4.83,1.17,30.75,30.75,0,0,0-5.09,3.13,45.42,45.42,0,0,0-5.15,4.57c-1.69,1.74-3.37,3.57-5,5.48a25.87,25.87,0,0,0,.65-4.24,10.2,10.2,0,0,0-.39-3.72c-.78-2.61-2.09-4.35-3.91-5.22a11.21,11.21,0,0,0-5.42-1.17,9.6,9.6,0,0,0-4.43,1.17c-1.18.7-1.46,1.31-.85,1.83.7.7.7,2.26,0,4.7a73.43,73.43,0,0,1-3.26,8.74q-2.2,5-4.92,11.07a10.61,10.61,0,0,1-1.67,1.84,17.47,17.47,0,0,1-4.89,2.87,23.52,23.52,0,0,1-8.35,1.43,26,26,0,0,0,1.44-7.95,6.65,6.65,0,0,0-1.18-4,3.58,3.58,0,0,0-2.47-1.37c-1-.09-1.74-.13-2.35-.13a5.32,5.32,0,0,0-4.31,2.08A9.73,9.73,0,0,0,277,88.55a10.5,10.5,0,0,0,.65,5.41,6.66,6.66,0,0,0,3.78,3.85c-1.13,2.27-2.46,4.72-4,7.37s-3.08,5.11-4.69,7.37a33.08,33.08,0,0,1-4.83,5.55c-1.61,1.43-3.06,2-4.37,1.76a5.14,5.14,0,0,1-3.91-3.07,14.63,14.63,0,0,1-1.11-6.46,39.3,39.3,0,0,1,1.24-8.67A72.08,72.08,0,0,1,262.89,92a84.36,84.36,0,0,1,4.5-9.52,61.59,61.59,0,0,1,5.28-8.16c1.05-1.3,2.11-2.58,3.2-3.84a17.81,17.81,0,0,1,3.19-3A5.2,5.2,0,0,1,282,66.38c.91,0,1.71.61,2.41,1.82a5.74,5.74,0,0,0-1.5,1.57,3.56,3.56,0,0,0-.59,2,3.41,3.41,0,0,0,1.24,2.74,4.23,4.23,0,0,0,2.81,1.05,3.47,3.47,0,0,0,3.26-2,4.61,4.61,0,0,0,.78-3,23,23,0,0,0-.78-3.06,10,10,0,0,0-1.57-3,9.23,9.23,0,0,0-2.67-2.34A8.77,8.77,0,0,0,281.28,61a25.27,25.27,0,0,0-10.5,1.69,31.93,31.93,0,0,0-9.26,5.61,45.24,45.24,0,0,0-7.63,8.55,58,58,0,0,0-4.62,7.92,2.62,2.62,0,0,0-.34.62c-.14.37-.3.75-.46,1.12s-.22.47-.32.71l-.18.44q-1.09,2.41-2.62,5.1a92.46,92.46,0,0,1-5.22,8,90.17,90.17,0,0,1-6.26,7.7,58.17,58.17,0,0,1-6.79,6.39A28.18,28.18,0,0,1,220.3,119a11,11,0,0,1-6.19.85,4.52,4.52,0,0,1-3.4-3.46,20.28,20.28,0,0,1-.71-7,46,46,0,0,1,1.3-8.61,47.81,47.81,0,0,1,2.81-8.35c1.82-4,3.65-7.63,5.47-10.89a70,70,0,0,1,5.29-8.22,28.79,28.79,0,0,1,4.76-5.08,6,6,0,0,1,4-1.63,2.19,2.19,0,0,1,2.09,1.56,5.74,5.74,0,0,0-1.5,1.57,3.56,3.56,0,0,0-.59,2,3.38,3.38,0,0,0,1.24,2.74,4.23,4.23,0,0,0,2.81,1.05,3.46,3.46,0,0,0,2.86-1.31,5.14,5.14,0,0,0,1.18-3.78,8.49,8.49,0,0,0-1-4.37,8.87,8.87,0,0,0-2.55-2.8,10,10,0,0,0-3.26-1.5,19.49,19.49,0,0,0-3.33-.59,26.13,26.13,0,0,0-9.26,1.43,28.41,28.41,0,0,0-8.87,5.16A43.92,43.92,0,0,0,205.3,77a61.35,61.35,0,0,0-4.19,7.29,2.32,2.32,0,0,0-.83,1.12,54.06,54.06,0,0,1-3.59,7.37,90,90,0,0,1-5.21,8,88.4,88.4,0,0,1-6.27,7.7,58.11,58.11,0,0,1-6.78,6.39,28.18,28.18,0,0,1-6.78,4.11,11,11,0,0,1-6.2.85,4.52,4.52,0,0,1-3.39-3.46,20.27,20.27,0,0,1-.72-7,46.09,46.09,0,0,1,1.31-8.61,48.66,48.66,0,0,1,2.8-8.35c1.83-4,3.65-7.63,5.48-10.89a71.32,71.32,0,0,1,5.28-8.22A28.8,28.8,0,0,1,181,68.27a6,6,0,0,1,4-1.63,2.2,2.2,0,0,1,2.09,1.56,5.74,5.74,0,0,0-1.5,1.57,3.48,3.48,0,0,0-.59,2,3.38,3.38,0,0,0,1.24,2.74,4.21,4.21,0,0,0,2.8,1.05,3.47,3.47,0,0,0,2.87-1.31,5.19,5.19,0,0,0,1.18-3.78,8.39,8.39,0,0,0-1.05-4.37,8.72,8.72,0,0,0-2.54-2.8,10,10,0,0,0-3.26-1.5,19.67,19.67,0,0,0-3.33-.59,26.1,26.1,0,0,0-9.26,1.43,28.41,28.41,0,0,0-8.87,5.16A43.92,43.92,0,0,0,156.65,77a58.54,58.54,0,0,0-4.18,7.28,2.32,2.32,0,0,0-.84,1.13A54.06,54.06,0,0,1,148,92.79a92.32,92.32,0,0,1-11.48,15.72,58.91,58.91,0,0,1-6.78,6.39A28.42,28.42,0,0,1,123,119a11,11,0,0,1-6.19.85,4.1,4.1,0,0,1-2.94-2.22,12.24,12.24,0,0,1-1.24-4.57,29.07,29.07,0,0,1,.13-6.06,46.58,46.58,0,0,1,1.31-6.72,42.36,42.36,0,0,0,12.26-5.41,45.89,45.89,0,0,0,9.33-8A36.74,36.74,0,0,0,141.58,78a20.37,20.37,0,0,0,2.09-8.35,8.42,8.42,0,0,0-2.28-6.13q-2.29-2.35-7.11-2.35A26.4,26.4,0,0,0,125,62.85a31.31,31.31,0,0,0-8.87,5.22A44.17,44.17,0,0,0,108,77.14a66.26,66.26,0,0,0-7,13.5,67.7,67.7,0,0,0-2.87,9.46A32.87,32.87,0,0,0,97.36,110.07ZM116.8,92.46q5.34-12.12,10.69-19t8.87-6.78c1.57.08,2.33,1.26,2.29,3.52a18.51,18.51,0,0,1-2.55,8,37.71,37.71,0,0,1-7.5,9.39,35.18,35.18,0,0,1-12.85,7.5A26.35,26.35,0,0,1,116.8,92.46Z"/><path d="M279.75,167.7q2.14-8.14,1.63-13.11a6.07,6.07,0,0,0-1.83-4,8.27,8.27,0,0,0-3.65-2,15.29,15.29,0,0,0-4.43-.39,22.25,22.25,0,0,0-4.18.59,8.12,8.12,0,0,0-2.8,1.17c-.65.48-.76.89-.33,1.24.52.52.48,2.18-.13,5s-1.61,6.3-3,10.56-3.06,9.07-5,14.42-4,10.85-6,16.5-4,11.3-6,17-3.63,10.87-5,15.65-2.44,9-3.13,12.52-.79,6.13-.26,7.7q1.17,3.92,3.71,5.35a10.24,10.24,0,0,0,5,1.43,8.13,8.13,0,0,0,4.31-1.11q1.83-1.11,1.83-2.28-.27-3.92,2.08-11.41c1.57-5,3.54-10.63,5.94-16.9s5-12.87,7.82-19.82,5.42-13.68,7.77-20.16S278.32,173.14,279.75,167.7Z"/><path d="M522.46,172.75a2.11,2.11,0,0,0-2-.26,2.34,2.34,0,0,0-1.37,1.43,54.06,54.06,0,0,1-3.59,7.37A92.32,92.32,0,0,1,504,197a58.91,58.91,0,0,1-6.78,6.39,28.42,28.42,0,0,1-6.79,4.11,11,11,0,0,1-6.19.85,4.12,4.12,0,0,1-2.94-2.22,12.24,12.24,0,0,1-1.24-4.57,29.07,29.07,0,0,1,.13-6.06,46.58,46.58,0,0,1,1.31-6.72,42.36,42.36,0,0,0,12.26-5.41,45.89,45.89,0,0,0,9.33-8,36.74,36.74,0,0,0,5.93-8.93,20.37,20.37,0,0,0,2.09-8.35,8.42,8.42,0,0,0-2.28-6.13q-2.29-2.35-7.11-2.35a26.4,26.4,0,0,0-9.26,1.69,31.31,31.31,0,0,0-8.87,5.22,44.17,44.17,0,0,0-8.16,9.07,66.26,66.26,0,0,0-7,13.5l-.21.58c-.62,1.19-1.33,2.47-2.13,3.85q-3.41,5.88-7.83,12.07a139.3,139.3,0,0,1-9.52,11.87,52.55,52.55,0,0,1-9.79,8.8,58.29,58.29,0,0,1,2.61-6.13q2.09-4.43,4.83-10.37t5.74-12.65q3-6.72,5.35-12.85a112.71,112.71,0,0,0,3.65-11q1.31-4.89.65-7.11-1.17-4-3.85-5.48a10.27,10.27,0,0,0-5.41-1.3,10.13,10.13,0,0,0-4.56,1.17c-1.22.7-1.62,1.31-1.18,1.83.7,1,.41,3.39-.85,7.3s-3.06,8.66-5.41,14.22a.74.74,0,0,0-.13.52q-2.61,4.83-5.67,11.16t-6.33,11.8a47.38,47.38,0,0,1-6.52,8.81q-3.27,3.31-6.13,2.15a5.6,5.6,0,0,1-3.27-3.92,21.66,21.66,0,0,1-.78-7,39.26,39.26,0,0,1,1.24-8.35,49.54,49.54,0,0,1,2.81-8.16c1.82-4,3.65-7.63,5.47-10.89a70,70,0,0,1,5.29-8.22,28.79,28.79,0,0,1,4.76-5.08,6,6,0,0,1,4-1.63,2.19,2.19,0,0,1,2.09,1.56,5.74,5.74,0,0,0-1.5,1.57,3.56,3.56,0,0,0-.59,1.95,3.38,3.38,0,0,0,1.24,2.74,4.23,4.23,0,0,0,2.81,1,3.49,3.49,0,0,0,2.87-1.31,5.19,5.19,0,0,0,1.17-3.78,8.49,8.49,0,0,0-1-4.37,8.87,8.87,0,0,0-2.55-2.8,9.87,9.87,0,0,0-3.26-1.5,19.56,19.56,0,0,0-3.32-.59,26.15,26.15,0,0,0-9.27,1.43,28.41,28.41,0,0,0-8.87,5.16,43.92,43.92,0,0,0-8.15,9.26,68.84,68.84,0,0,0-6.78,13.15c-.15.29-.29.57-.46.87q-1.83,3.39-4.11,7.17t-5,7.57c-1.79,2.52-3.51,4.81-5.16,6.85a50,50,0,0,1-4.56,5c-1.39,1.3-2.48,2-3.26,2.09-2,.17-2.89-.63-2.68-2.42a25.31,25.31,0,0,1,2.48-7.17q2.16-4.5,5.35-10.24t6-11.61a73.32,73.32,0,0,0,4.37-11.28q1.56-5.41.39-9.2t-4-5.22a11.36,11.36,0,0,0-5.41-1.17,9.48,9.48,0,0,0-4.37,1.17c-1.17.7-1.46,1.31-.85,1.83s.65,1.5.39,2.93a30.07,30.07,0,0,1-1.56,5.22c-.78,2.05-1.76,4.35-2.94,6.92s-2.37,5.28-3.58,8.15c-1.14,2.17-2.33,4.54-3.59,7.11s-2.57,5.13-3.91,7.69-2.74,5-4.18,7.37a54.49,54.49,0,0,1-4.17,6,15.41,15.41,0,0,1-4.05,3.66,4.13,4.13,0,0,1-3.85.39,5.61,5.61,0,0,1-3.26-3.92,21.38,21.38,0,0,1-.78-7,39.26,39.26,0,0,1,1.24-8.35,50.47,50.47,0,0,1,2.8-8.16c1.83-4,3.66-7.63,5.48-10.89a70,70,0,0,1,5.29-8.22,28.79,28.79,0,0,1,4.76-5.08,6,6,0,0,1,4-1.63,2.19,2.19,0,0,1,2.09,1.56,5.74,5.74,0,0,0-1.5,1.57,3.56,3.56,0,0,0-.59,1.95,3.38,3.38,0,0,0,1.24,2.74,4.23,4.23,0,0,0,2.81,1,3.46,3.46,0,0,0,2.73-1.18c.87-.69,1.31-2,1.31-3.91a8.49,8.49,0,0,0-1-4.37,8.87,8.87,0,0,0-2.55-2.8,10,10,0,0,0-3.26-1.5,19.49,19.49,0,0,0-3.33-.59,26.13,26.13,0,0,0-9.26,1.43,28.41,28.41,0,0,0-8.87,5.16,43.92,43.92,0,0,0-8.15,9.26,62.63,62.63,0,0,0-4.9,8.78q.09-1.11.12-2.22a37.91,37.91,0,0,0-2.22-13.43,40.16,40.16,0,0,0-3.06-6.72,45.14,45.14,0,0,0-4.37-6.33,53,53,0,0,0-9.85-9.06,50.09,50.09,0,0,0-10.57-5.68,51.85,51.85,0,0,0-11.09-2.93,66,66,0,0,0-11.41-.72,52.47,52.47,0,0,0-15.85,2.87,73.88,73.88,0,0,0-15.65,7.43,80.54,80.54,0,0,0-13.89,11A61.23,61.23,0,0,0,225.55,162a52.84,52.84,0,0,0-4.43,10.11,37.55,37.55,0,0,0-1.83,10.56A27,27,0,0,0,221.05,193a25.07,25.07,0,0,0,6.2,9.19,6.26,6.26,0,0,0,4.37,1.31,12.91,12.91,0,0,0,4.69-1.11,8.91,8.91,0,0,0,3.33-2.41c.78-1,.91-1.78.39-2.48a22,22,0,0,1-4.63-11.28,39.05,39.05,0,0,1,.78-13.77,55,55,0,0,1,5.48-14.21,52.78,52.78,0,0,1,9.52-12.59A49.58,49.58,0,0,1,264,136.59a35.77,35.77,0,0,1,15.39-3.65q11.08.66,18.59,5.81a33.76,33.76,0,0,1,11.35,12.94,39,39,0,0,1,3.91,17.24A47.66,47.66,0,0,1,303,198.4a47.48,47.48,0,0,1-9.07,8.68,51.33,51.33,0,0,1-10.82,6.08,37.17,37.17,0,0,1-11.74,2.74,2.43,2.43,0,0,0-2.35,2.3,2.28,2.28,0,0,0,.39,1.73,2.58,2.58,0,0,0,1.43,1,33.87,33.87,0,0,0,10.83,1.66c.7,0,1.41,0,2.15-.06s1.46-.11,2.16-.2a45.88,45.88,0,0,0,15-4.3,57,57,0,0,0,13.69-8.81A61.15,61.15,0,0,0,325.47,197q1.51-2.2,2.76-4.47a30.91,30.91,0,0,0-.13,6,21.21,21.21,0,0,0,2.67,8.8,14.36,14.36,0,0,0,7.5,6.14,16,16,0,0,0,7.9,1.43,16.13,16.13,0,0,0,6.78-2.35,23.66,23.66,0,0,0,5.93-5.28,64.12,64.12,0,0,0,5.22-7.37q-.66,6.65,1.83,11a7.54,7.54,0,0,0,7.43,4,11.49,11.49,0,0,0,6.52-2.35,39.27,39.27,0,0,0,6.72-6,82.68,82.68,0,0,0,6.46-8.09q1.69-2.4,3.26-4.79a30.33,30.33,0,0,0,0,4.86,21.21,21.21,0,0,0,2.67,8.8,14.4,14.4,0,0,0,7.5,6.14q5.61,2.2,10.11,1a19.18,19.18,0,0,0,8.29-4.89q-2.1,4.83-3.85,9.26T418,226.88a27.86,27.86,0,0,1-5.28,3.59c-2,1.08-4.13,2.15-6.26,3.19s-4.18,2.13-6.13,3.26a24,24,0,0,0-5,3.79,8.36,8.36,0,0,0-2.29,3.45,7.57,7.57,0,0,0-.32,2.81,10.28,10.28,0,0,0,3.06,5.8,14,14,0,0,0,5.68,3.26,20.44,20.44,0,0,0,7,.79,23.21,23.21,0,0,0,7.31-1.57,20.39,20.39,0,0,0,6.32-3.91,15.08,15.08,0,0,0,4.11-6.2c.35-.87.89-2.22,1.63-4s1.57-3.78,2.48-5.87,1.8-4.15,2.67-6.2,1.57-3.71,2.09-5a52.59,52.59,0,0,0,11.48-8.28,105.84,105.84,0,0,0,11.22-12.2c2.48-3.15,4.83-6.41,7-9.75a30.64,30.64,0,0,0,0,4.79,20.86,20.86,0,0,0,2.68,8.81,14.45,14.45,0,0,0,7.5,6.07,17.21,17.21,0,0,0,9.52,1.17,28.44,28.44,0,0,0,9.46-3.39,45.13,45.13,0,0,0,8.93-6.72,85,85,0,0,0,8.15-9,93.67,93.67,0,0,0,6.92-10q3.06-5.15,5.28-9.84A2.1,2.1,0,0,0,522.46,172.75ZM484.24,181q5.34-12.12,10.69-19t8.87-6.78c1.57.08,2.33,1.26,2.29,3.52a18.51,18.51,0,0,1-2.55,8,37.71,37.71,0,0,1-7.5,9.39,35.18,35.18,0,0,1-12.85,7.5C483.46,182.79,483.8,181.92,484.24,181Zm-70.38,57.53c-.74,1.65-1.37,3.09-1.89,4.3a19.56,19.56,0,0,1-3.65,6.2,8.83,8.83,0,0,1-3.78,2.54,4.78,4.78,0,0,1-3.33-.13,6.28,6.28,0,0,1-2.48-1.89,5.58,5.58,0,0,1-1.17-2.8,4,4,0,0,1,.72-2.87,13.06,13.06,0,0,1,3.71-3.39,44.62,44.62,0,0,1,4.76-2.61l5-2.35a22.76,22.76,0,0,0,4.44-2.74C415.36,234.92,414.6,236.84,413.86,238.49Z"/></g></g></svg>