<svg fill="#fff" xmlns="http://www.w3.org/2000/svg" viewBox="0 0 395.35 217.28"><title>Asset 11</title><g id="Layer_2" data-name="Layer 2"><g id="Layer_1-2" data-name="Layer 1"><path d="M60.47,127.73q2.14-8.15,1.63-13.11a6.07,6.07,0,0,0-1.83-4,8.27,8.27,0,0,0-3.65-2,15,15,0,0,0-4.43-.39,22.25,22.25,0,0,0-4.18.59,7.93,7.93,0,0,0-2.8,1.17c-.66.48-.77.89-.33,1.24.52.52.48,2.18-.13,5s-1.61,6.3-3,10.56-3.07,9.07-5,14.42-4,10.85-6,16.5-4.05,11.3-6,17-3.63,10.86-5,15.65-2.43,8.95-3.13,12.52-.78,6.13-.26,7.7q1.19,3.92,3.72,5.35a10.24,10.24,0,0,0,5,1.43,8.16,8.16,0,0,0,4.31-1.11c1.21-.74,1.82-1.5,1.82-2.28q-.25-3.91,2.09-11.41t5.94-16.9q3.59-9.39,7.82-19.82t7.76-20.16Q58.32,135.88,60.47,127.73Z"/><path d="M303.18,132.78a2.12,2.12,0,0,0-2-.26,2.37,2.37,0,0,0-1.37,1.43,53.91,53.91,0,0,1-3.58,7.37,88,88,0,0,1-5.22,8,89.82,89.82,0,0,1-6.26,7.7,58.91,58.91,0,0,1-6.78,6.39,28.42,28.42,0,0,1-6.79,4.11,11,11,0,0,1-6.19.85,4.1,4.1,0,0,1-2.94-2.22,12.24,12.24,0,0,1-1.24-4.57,29.07,29.07,0,0,1,.13-6.06,46.58,46.58,0,0,1,1.31-6.72,42.36,42.36,0,0,0,12.26-5.41,45.89,45.89,0,0,0,9.33-8,36.6,36.6,0,0,0,5.93-8.94,20.29,20.29,0,0,0,2.09-8.34,8.42,8.42,0,0,0-2.28-6.13q-2.3-2.36-7.11-2.35a26.49,26.49,0,0,0-9.27,1.69,31.21,31.21,0,0,0-8.87,5.22,44.43,44.43,0,0,0-8.15,9.07,66.26,66.26,0,0,0-7,13.5l-.21.58q-.94,1.78-2.14,3.85-3.39,5.88-7.82,12.07a139.3,139.3,0,0,1-9.52,11.87,53.19,53.19,0,0,1-9.79,8.8,58.29,58.29,0,0,1,2.61-6.13q2.08-4.43,4.83-10.37t5.74-12.65q3-6.72,5.35-12.85a113.6,113.6,0,0,0,3.65-11c.87-3.26,1.08-5.63.65-7.11-.78-2.69-2.07-4.52-3.85-5.48a10.27,10.27,0,0,0-5.41-1.3,10.09,10.09,0,0,0-4.57,1.17c-1.21.7-1.61,1.31-1.17,1.83.69.95.41,3.39-.85,7.3s-3.06,8.66-5.41,14.22a.74.74,0,0,0-.13.52q-2.61,4.83-5.68,11.15t-6.32,11.81a46.52,46.52,0,0,1-6.53,8.8q-3.25,3.33-6.13,2.16a5.61,5.61,0,0,1-3.26-3.92,21.45,21.45,0,0,1-.78-7,39.26,39.26,0,0,1,1.24-8.34,50.14,50.14,0,0,1,2.8-8.16q2.75-6,5.48-10.89a70,70,0,0,1,5.29-8.22A28.79,28.79,0,0,1,212,116.8a6,6,0,0,1,4-1.63,2.19,2.19,0,0,1,2.09,1.56,5.74,5.74,0,0,0-1.5,1.57,3.56,3.56,0,0,0-.59,2,3.39,3.39,0,0,0,1.24,2.74,4.21,4.21,0,0,0,2.8,1.05,3.47,3.47,0,0,0,2.87-1.31,5.14,5.14,0,0,0,1.18-3.78,8.39,8.39,0,0,0-1-4.37,8.87,8.87,0,0,0-2.54-2.81,10.39,10.39,0,0,0-3.26-1.5,20.45,20.45,0,0,0-3.33-.58,26.1,26.1,0,0,0-9.26,1.43,28.22,28.22,0,0,0-8.87,5.16,43.92,43.92,0,0,0-8.15,9.26,68.46,68.46,0,0,0-6.78,13.14c-.15.3-.3.57-.46.88q-1.83,3.39-4.11,7.17t-5,7.57c-1.78,2.52-3.5,4.81-5.15,6.85a50,50,0,0,1-4.56,5c-1.4,1.3-2.48,2-3.26,2.09-2,.17-2.9-.63-2.68-2.42a25.31,25.31,0,0,1,2.48-7.17q2.15-4.5,5.35-10.24t6-11.61a74.36,74.36,0,0,0,4.37-11.28q1.56-5.42.39-9.2t-4-5.22a11.36,11.36,0,0,0-5.41-1.17,9.48,9.48,0,0,0-4.37,1.17c-1.18.7-1.46,1.31-.85,1.83s.65,1.5.39,2.93a30.07,30.07,0,0,1-1.56,5.22c-.79,2.05-1.76,4.35-2.94,6.91s-2.37,5.29-3.59,8.16q-1.69,3.26-3.58,7.11c-1.27,2.56-2.57,5.13-3.92,7.69s-2.74,5-4.17,7.37a54.46,54.46,0,0,1-4.18,6,15,15,0,0,1-4,3.65,4.11,4.11,0,0,1-3.85.4,5.61,5.61,0,0,1-3.26-3.92,21.45,21.45,0,0,1-.78-7,39.26,39.26,0,0,1,1.24-8.34,50.14,50.14,0,0,1,2.8-8.16q2.75-6,5.48-10.89a70,70,0,0,1,5.29-8.22,28.79,28.79,0,0,1,4.76-5.08,6,6,0,0,1,4-1.63,2.19,2.19,0,0,1,2.09,1.56,5.74,5.74,0,0,0-1.5,1.57,3.56,3.56,0,0,0-.59,2,3.39,3.39,0,0,0,1.24,2.74,4.21,4.21,0,0,0,2.8,1.05,3.46,3.46,0,0,0,2.74-1.18c.87-.69,1.31-2,1.31-3.91a8.39,8.39,0,0,0-1-4.37,8.87,8.87,0,0,0-2.54-2.81,10.39,10.39,0,0,0-3.26-1.5,20.45,20.45,0,0,0-3.33-.58,26.1,26.1,0,0,0-9.26,1.43,28.22,28.22,0,0,0-8.87,5.16,43.92,43.92,0,0,0-8.15,9.26,61.64,61.64,0,0,0-4.9,8.78q.09-1.11.12-2.22a37.91,37.91,0,0,0-2.22-13.43,40.22,40.22,0,0,0-3.07-6.72,43.51,43.51,0,0,0-4.37-6.33,52.92,52.92,0,0,0-9.84-9.06A49.63,49.63,0,0,0,84.6,90.88,51.85,51.85,0,0,0,73.51,88a66,66,0,0,0-11.41-.72A52.41,52.41,0,0,0,46.25,90.1,73.65,73.65,0,0,0,30.6,97.53a80.13,80.13,0,0,0-13.9,11,61.48,61.48,0,0,0-10.43,13.5,53.23,53.23,0,0,0-4.44,10.11A37.53,37.53,0,0,0,0,142.73,27.08,27.08,0,0,0,1.77,153,25.07,25.07,0,0,0,8,162.23a6.26,6.26,0,0,0,4.37,1.31A12.91,12.91,0,0,0,17,162.43,9.11,9.11,0,0,0,20.36,160c.78-1,.91-1.78.39-2.48a22,22,0,0,1-4.63-11.29,39,39,0,0,1,.78-13.76,55.15,55.15,0,0,1,5.48-14.22,52.93,52.93,0,0,1,9.52-12.58,49.41,49.41,0,0,1,12.85-9.07A35.77,35.77,0,0,1,60.14,93q11.08.65,18.59,5.81a33.68,33.68,0,0,1,11.35,12.94A39,39,0,0,1,94,129a46.14,46.14,0,0,1-3.85,18.62,45.5,45.5,0,0,1-6.45,10.84,47.83,47.83,0,0,1-9.07,8.69,51.15,51.15,0,0,1-10.83,6.08,37,37,0,0,1-11.73,2.74,2.43,2.43,0,0,0-2.35,2.3A2.28,2.28,0,0,0,50.1,180a2.55,2.55,0,0,0,1.43,1,33.87,33.87,0,0,0,10.83,1.66c.7,0,1.41,0,2.15-.06s1.46-.11,2.15-.2a45.87,45.87,0,0,0,15-4.3,57,57,0,0,0,13.69-8.81A61.43,61.43,0,0,0,106.19,157q1.52-2.21,2.76-4.47a30.91,30.91,0,0,0-.13,6,21.21,21.21,0,0,0,2.67,8.8,14.26,14.26,0,0,0,7.5,6.13,15.84,15.84,0,0,0,7.89,1.44,16.22,16.22,0,0,0,6.79-2.35,23.66,23.66,0,0,0,5.93-5.28,65,65,0,0,0,5.22-7.37q-.66,6.65,1.83,11a7.53,7.53,0,0,0,7.43,4,11.49,11.49,0,0,0,6.52-2.35,39.65,39.65,0,0,0,6.72-6,82.68,82.68,0,0,0,6.46-8.09q1.69-2.4,3.26-4.79a30.33,30.33,0,0,0,0,4.86,21.21,21.21,0,0,0,2.67,8.8,14.26,14.26,0,0,0,7.5,6.13q5.61,2.22,10.11,1a19.1,19.1,0,0,0,8.28-4.89q-2.08,4.83-3.84,9.26c-1.18,3-2.2,5.65-3.07,8.09a27.86,27.86,0,0,1-5.28,3.59c-2,1.08-4.13,2.15-6.26,3.19S183,195.82,181,197a24,24,0,0,0-5,3.79,8.42,8.42,0,0,0-2.28,3.45,7.55,7.55,0,0,0-.32,2.81,10.28,10.28,0,0,0,3.06,5.8,14,14,0,0,0,5.68,3.26,20.44,20.44,0,0,0,7,.79,23.37,23.37,0,0,0,7.3-1.57,20.32,20.32,0,0,0,6.33-3.91,15.08,15.08,0,0,0,4.11-6.2c.35-.87.89-2.22,1.63-4s1.56-3.79,2.48-5.87,1.8-4.16,2.67-6.2,1.57-3.72,2.09-5a52.59,52.59,0,0,0,11.48-8.28,105.84,105.84,0,0,0,11.22-12.2c2.48-3.15,4.82-6.41,7-9.75a29.46,29.46,0,0,0,0,4.79,20.85,20.85,0,0,0,2.67,8.81,14.46,14.46,0,0,0,7.5,6.06,17.17,17.17,0,0,0,9.53,1.18,28.39,28.39,0,0,0,9.45-3.39,44.9,44.9,0,0,0,8.94-6.72,85,85,0,0,0,8.15-9,93.67,93.67,0,0,0,6.92-10q3.06-5.15,5.28-9.84A2.1,2.1,0,0,0,303.18,132.78ZM265,141q5.34-12.12,10.69-19t8.87-6.78c1.57.08,2.33,1.26,2.29,3.52a18.55,18.55,0,0,1-2.55,8,37.71,37.71,0,0,1-7.5,9.39,35.18,35.18,0,0,1-12.85,7.5A26.35,26.35,0,0,1,265,141Zm-70.38,57.53q-1.11,2.47-1.89,4.3A19.56,19.56,0,0,1,189,209a9,9,0,0,1-3.78,2.54,4.78,4.78,0,0,1-3.33-.13,6.21,6.21,0,0,1-2.48-1.89,5.58,5.58,0,0,1-1.17-2.8,4,4,0,0,1,.71-2.87,13.24,13.24,0,0,1,3.72-3.39,44.62,44.62,0,0,1,4.76-2.61l5-2.35a22.76,22.76,0,0,0,4.44-2.74C196.08,195,195.32,196.87,194.58,198.52Z"/><path d="M363.1,87q2.16-5.53,5.61-12.91T376,58.71q3.84-8,7.63-16.11t6.58-15.2a105.92,105.92,0,0,0,4.24-12.58c1-3.7,1.13-6.5.52-8.42-.78-2.61-2.1-4.34-4-5.21A11.56,11.56,0,0,0,385.6,0a9.4,9.4,0,0,0-4.37,1.18c-1.17.69-1.45,1.3-.84,1.82.43.44.36,1.72-.2,3.85s-1.48,4.87-2.74,8.22-2.78,7.15-4.56,11.41-3.66,8.7-5.61,13.31-3.94,9.28-5.94,14-3.83,9.24-5.48,13.5q-2.48,5-5.41,11a115.28,115.28,0,0,1-6.07,11,43.44,43.44,0,0,1-6.13,7.9q-3,2.93-5.74,1.76A5.61,5.61,0,0,1,329.25,95a21.45,21.45,0,0,1-.78-7,39.26,39.26,0,0,1,1.24-8.34,50.14,50.14,0,0,1,2.8-8.16q2.75-6,5.48-10.89a71.32,71.32,0,0,1,5.28-8.22A29.17,29.17,0,0,1,348,47.3a6,6,0,0,1,4-1.63,2.19,2.19,0,0,1,2.09,1.56,5.74,5.74,0,0,0-1.5,1.57,3.56,3.56,0,0,0-.59,2,3.39,3.39,0,0,0,1.24,2.74,4.21,4.21,0,0,0,2.8,1A3.47,3.47,0,0,0,359,53.23a5.14,5.14,0,0,0,1.18-3.78,8.39,8.39,0,0,0-1.05-4.37,8.87,8.87,0,0,0-2.54-2.81,10.39,10.39,0,0,0-3.26-1.5,20.64,20.64,0,0,0-3.33-.58,26.1,26.1,0,0,0-9.26,1.43,28.22,28.22,0,0,0-8.87,5.16A43.92,43.92,0,0,0,323.71,56a69.5,69.5,0,0,0-7,13.63c-.06.15-.12.32-.18.48q-1.82,3.34-4.12,7.08t-5,7.57c-1.74,2.52-3.44,4.81-5.09,6.85a50,50,0,0,1-4.56,5c-1.4,1.3-2.48,2-3.26,2.09-2,.17-2.9-.63-2.68-2.42a25,25,0,0,1,2.48-7.17q2.14-4.5,5.35-10.24t6-11.61A74.36,74.36,0,0,0,310.08,56q1.56-5.41.39-9.2c-.78-2.52-2.05-4.22-3.78-5.09a11.57,11.57,0,0,0-5.22-1.3,6.48,6.48,0,0,0-3.13.65c-.78.44-1.57.89-2.35,1.37a18.29,18.29,0,0,1-2.8,1.37,12.38,12.38,0,0,1-4.5.65,20.09,20.09,0,0,1-2.42-.13,3.3,3.3,0,0,1-1.76-.65,26.11,26.11,0,0,0,.72-5c.13-2,.19-3.56.19-4.69a8.1,8.1,0,0,0-2-5.16,5.81,5.81,0,0,0-4.5-2.15,7.25,7.25,0,0,0-6.26,2.87,11.47,11.47,0,0,0-2.09,6.92,11,11,0,0,0,2.16,6.26,13.1,13.1,0,0,0,5.15,4.56,27.94,27.94,0,0,1-1.44,4.24c-.69,1.7-1.39,3.44-2.08,5.22s-1.4,3.48-2.09,5.09c-.31.7-.56,1.31-.78,1.86a2.24,2.24,0,0,0-.39.68,43.8,43.8,0,0,1-2.61,5.61q-1.83,3.39-4.18,7.17c-1.56,2.53-3.22,5-5,7.57s-3.44,4.81-5.09,6.85a55.66,55.66,0,0,1-4.5,5,6.58,6.58,0,0,1-3.33,2.09c-2,.17-2.89-.63-2.67-2.42a24.68,24.68,0,0,1,2.48-7.17q2.15-4.5,5.34-10.24t6-11.61A73.32,73.32,0,0,0,261.94,56q1.57-5.41.4-9.2c-.79-2.61-2.11-4.35-4-5.22a11.4,11.4,0,0,0-5.42-1.17,9.52,9.52,0,0,0-4.37,1.17q-1.75,1.05-.84,1.83c.6.61.71,1.74.32,3.39A43.53,43.53,0,0,1,246,53c-1,2.44-2.18,5.15-3.53,8.15-1.1,2.46-2.19,5-3.26,7.62l-.71,1.38q-1.83,3.47-4.18,7.24t-5,7.63q-2.67,3.86-5.15,6.92a45.69,45.69,0,0,1-4.57,5c-1.39,1.26-2.48,1.89-3.26,1.89-1.74,0-2.67-.63-2.8-1.89a11.77,11.77,0,0,1,1-5,78.89,78.89,0,0,1,3.33-7.37q2.16-4.23,4.31-8.93T225.94,66a34.63,34.63,0,0,0,2-9.33q.91-7.17-1.57-11.74a7.82,7.82,0,0,0-7.56-4.43c-2.79.09-5.76,1.3-8.94,3.65a63.06,63.06,0,0,0-9.32,8.61Q204,45.27,207.29,38c1.46-3.27,2.77-6.37,4-9.31q7.32,1.52,13.72,2.66a66.76,66.76,0,0,0,14.28,1.3,20.89,20.89,0,0,0,8.48-1.69,13.43,13.43,0,0,0,5-3.79c.06-.06.1-.14.15-.2a7.13,7.13,0,0,0,1.94,3.79,13.07,13.07,0,0,0,4.5,3.13,12.09,12.09,0,0,0,4.5,1c1.39,0,2.09-.35,2.09-1a6.42,6.42,0,0,1,.72-2.48c.47-1.05,1-2.09,1.56-3.13s1.09-2.05,1.57-3a5.65,5.65,0,0,0,.71-2.22,7.53,7.53,0,0,0-1.95-5.35,13.22,13.22,0,0,0-4.37-3.13,11.09,11.09,0,0,0-4.37-1c-1.31,0-2,.3-2,.91a5.24,5.24,0,0,1-.78,2.22c-.51.93-1.08,2-1.72,3.05a17,17,0,0,0,0-2.14,9.73,9.73,0,0,0-2.74-6.33,17.45,17.45,0,0,0-5.41-3.84A13.14,13.14,0,0,0,241.92,6c-1.52,0-2.19.44-2,1.31a6.21,6.21,0,0,1-1.5,5.41,14.49,14.49,0,0,1-5.87,3.72,40,40,0,0,1-9.06,2.08,63.26,63.26,0,0,1-8.63.46c.63-1.94,1.17-3.75,1.58-5.41q1.17-4.7.39-7.18c-.78-2.61-2.08-4.34-3.91-5.21A11.3,11.3,0,0,0,207.49,0a9.52,9.52,0,0,0-4.44,1.18c-1.17.69-1.46,1.3-.85,1.82s.39,2.13-.39,4.83q-1.08,3.73-3.29,9.26Q192.67,16,186,14.69q-8.09-1.63-16.83-3.33t-17-2.8a147.25,147.25,0,0,0-15.46-1.31,43.64,43.64,0,0,0-12.13,1.11,45.13,45.13,0,0,0-11.41,4.89,42.15,42.15,0,0,0-9.4,7.7,38.18,38.18,0,0,0-6.65,10.17A35,35,0,0,0,94.2,43.45a14.5,14.5,0,0,0,1,6.65,13.16,13.16,0,0,0,3.72,5.09,16.7,16.7,0,0,0,5.81,3.13,19.41,19.41,0,0,0,7.24.78,18.27,18.27,0,0,0,8.15-2.8,31.39,31.39,0,0,0,6.39-5.16A19.8,19.8,0,0,0,130,46.32c.65-1.39.55-2-.32-1.83a16.07,16.07,0,0,1-6.79-.13,13.29,13.29,0,0,1-5.34-2.61,11.79,11.79,0,0,1-3.4-4.63,13.27,13.27,0,0,1-.91-6.19,12.87,12.87,0,0,1,1.57-5.55,19,19,0,0,1,3.78-4.89,22.39,22.39,0,0,1,5.48-3.78,24.79,24.79,0,0,1,6.65-2.22q4.56-.78,12.91.26,3,.38,6.29.89l-.19.12c-.57.42-.66.78-.28,1.08q.68.69-.12,4.32t-2.61,9.21q-1.83,5.58-4.38,12.56t-5.23,14.39q-2.67,7.4-5.23,14.78T127.5,85.74q-1.81,6.26-2.73,10.92c-.6,3.1-.68,5.34-.22,6.7a7.45,7.45,0,0,0,3.24,4.66,8.77,8.77,0,0,0,4.37,1.26,7.18,7.18,0,0,0,3.76-1c1.06-.65,1.59-1.31,1.59-2q-.24-3.41,1.82-9.95t5.17-14.72q3.12-8.19,6.82-17.28t6.77-17.57q3.06-8.47,4.94-15.58t1.42-11.42a6.44,6.44,0,0,0-.34-1.54q9.46,1.95,19.7,4.32,5.79,1.35,11.39,2.6c-.89,2.13-1.83,4.37-2.85,6.72q-3.32,7.77-6.91,16t-7,16.31q-3.39,8.09-5.93,15.06a112.5,112.5,0,0,0-3.79,12.2q-1.23,5.22-.45,7.57,1.17,3.92,3.45,5.35a8,8,0,0,0,4.44,1.37,5.74,5.74,0,0,0,3.52-1.18c.91-.74,1.2-1.45.85-2.15-.7-1.31-.24-4.13,1.37-8.48s3.8-9.61,6.59-15.78l.26-.53v-.13L190.46,74a80.07,80.07,0,0,1,5.48-8.41q3.39-4.64,6.91-8.74A63.75,63.75,0,0,1,209.57,50c2.13-1.83,3.76-2.78,4.89-2.87,1.83-.08,2.85.39,3.07,1.44a9,9,0,0,1-.72,4.5A54.6,54.6,0,0,1,213.68,60q-2.09,4-4.24,8.74t-4,10A49.93,49.93,0,0,0,203,89.23a20.72,20.72,0,0,0,.06,5.94,17.74,17.74,0,0,0,1.63,5.28,10.19,10.19,0,0,0,3,3.72,6.62,6.62,0,0,0,4.44,1.24,11.51,11.51,0,0,0,6.52-2.35,39.65,39.65,0,0,0,6.72-6A82.62,82.62,0,0,0,231.81,89c.53-.75,1.05-1.5,1.56-2.24-.15.84-.28,1.68-.38,2.5a27.9,27.9,0,0,0,0,6.59,14.78,14.78,0,0,0,1.56,5.22,8.83,8.83,0,0,0,3.07,3.33,7.61,7.61,0,0,0,4.5,1,11.49,11.49,0,0,0,6.52-2.35,39.65,39.65,0,0,0,6.72-6A82.62,82.62,0,0,0,261.81,89q3.13-4.43,5.81-8.8T272.25,72c.8-1.56,1.46-2.9,2-4.06a2,2,0,0,0,.58-.7q.78-1.44,1.95-4.11t2.35-5.48c.79-1.87,1.5-3.61,2.15-5.22s1.11-2.71,1.37-3.32a21.5,21.5,0,0,0,6.85.72,21.12,21.12,0,0,0,6.2-1.24,68.87,68.87,0,0,1-3.26,8.21q-2.22,4.83-4.57,10.37t-4.3,11.29a49.11,49.11,0,0,0-2.48,10.82,27.9,27.9,0,0,0,0,6.59,14.78,14.78,0,0,0,1.56,5.22,8.91,8.91,0,0,0,3.07,3.33,7.61,7.61,0,0,0,4.5,1,11.49,11.49,0,0,0,6.52-2.35,39.65,39.65,0,0,0,6.72-6A82.68,82.68,0,0,0,310,89q1.62-2.3,3.12-4.58a28.86,28.86,0,0,0,0,4.65,21.21,21.21,0,0,0,2.67,8.8,14.26,14.26,0,0,0,7.5,6.13,15.37,15.37,0,0,0,7.83,1.44,15.76,15.76,0,0,0,6.78-2.35,25.68,25.68,0,0,0,5.87-5.15A55.44,55.44,0,0,0,349,90.67q-.52,6.52,1.89,10.76a7.43,7.43,0,0,0,7.37,4,11.49,11.49,0,0,0,6.52-2.35,39.65,39.65,0,0,0,6.72-6A82.68,82.68,0,0,0,377.91,89q3.12-4.43,5.8-8.8T388.34,72c1.31-2.56,2.31-4.59,3-6.07a1.59,1.59,0,0,0,.07-1.69,2.24,2.24,0,0,0-1.24-1,2.74,2.74,0,0,0-1.7,0,1.92,1.92,0,0,0-1.3,1.3,41.19,41.19,0,0,1-2.61,5.61q-1.83,3.39-4.17,7.17t-5,7.57c-1.74,2.52-3.44,4.81-5.09,6.85a55.66,55.66,0,0,1-4.5,5,6.6,6.6,0,0,1-3.32,2.09c-1.48.17-2.12-.83-1.9-3A36.44,36.44,0,0,1,363.1,87Z"/></g></g></svg>