<svg xmlns="http://www.w3.org/2000/svg" viewBox="0 0 441.6 236.28"><title>Asset 12</title><g id="Layer_2" data-name="Layer 2"><g id="Layer_1-2" data-name="Layer 1"><path d="M197.85,146.73q2.15-8.14,1.63-13.11a6.07,6.07,0,0,0-1.83-4,8.27,8.27,0,0,0-3.65-2,15,15,0,0,0-4.43-.39,22.25,22.25,0,0,0-4.18.59,7.93,7.93,0,0,0-2.8,1.17c-.66.48-.77.89-.33,1.24.52.52.48,2.18-.13,5s-1.61,6.3-3,10.56-3.07,9.07-5,14.42-4,10.85-6,16.5-4.05,11.3-6,17-3.63,10.86-5,15.65-2.43,8.95-3.12,12.52-.79,6.13-.27,7.7q1.19,3.92,3.72,5.35a10.24,10.24,0,0,0,5,1.43,8.16,8.16,0,0,0,4.31-1.11c1.22-.74,1.82-1.5,1.82-2.28q-.26-3.91,2.09-11.41t5.94-16.9q3.58-9.39,7.82-19.82t7.76-20.16Q195.7,154.88,197.85,146.73Z"/><path d="M440.56,151.78a2.11,2.11,0,0,0-2-.26,2.31,2.31,0,0,0-1.37,1.43,55.26,55.26,0,0,1-3.59,7.37,88,88,0,0,1-5.22,8,89.82,89.82,0,0,1-6.26,7.7,58.91,58.91,0,0,1-6.78,6.39,28.42,28.42,0,0,1-6.79,4.11,11,11,0,0,1-6.19.85,4.1,4.1,0,0,1-2.94-2.22,12.24,12.24,0,0,1-1.24-4.57,29.07,29.07,0,0,1,.13-6.06,46.58,46.58,0,0,1,1.31-6.72,42.36,42.36,0,0,0,12.26-5.41,45.89,45.89,0,0,0,9.33-8,36.6,36.6,0,0,0,5.93-8.94,20.29,20.29,0,0,0,2.09-8.34,8.42,8.42,0,0,0-2.28-6.13q-2.3-2.35-7.11-2.35a26.49,26.49,0,0,0-9.27,1.69,31.21,31.21,0,0,0-8.87,5.22,44.43,44.43,0,0,0-8.15,9.07,66.26,66.26,0,0,0-7,13.5l-.21.58c-.63,1.19-1.33,2.47-2.13,3.85q-3.4,5.88-7.83,12.07a139.3,139.3,0,0,1-9.52,11.87,53.19,53.19,0,0,1-9.79,8.8,58.29,58.29,0,0,1,2.61-6.13q2.08-4.43,4.83-10.37t5.74-12.65q3-6.72,5.35-12.85a113.6,113.6,0,0,0,3.65-11c.87-3.26,1.08-5.63.65-7.11-.78-2.69-2.07-4.52-3.85-5.48a10.27,10.27,0,0,0-5.41-1.3,10.09,10.09,0,0,0-4.57,1.17c-1.21.7-1.61,1.31-1.17,1.83.69.95.41,3.39-.85,7.3S361,147.39,358.64,153a.74.74,0,0,0-.13.52q-2.61,4.83-5.68,11.15t-6.32,11.81a47,47,0,0,1-6.52,8.8c-2.18,2.22-4.22,2.94-6.14,2.16a5.61,5.61,0,0,1-3.26-3.92,21.45,21.45,0,0,1-.78-7,39.26,39.26,0,0,1,1.24-8.34,50.14,50.14,0,0,1,2.8-8.16q2.75-6,5.48-10.89a70,70,0,0,1,5.29-8.22,28.79,28.79,0,0,1,4.76-5.08,6,6,0,0,1,4-1.63,2.19,2.19,0,0,1,2.09,1.56,5.74,5.74,0,0,0-1.5,1.57,3.56,3.56,0,0,0-.59,1.95,3.39,3.39,0,0,0,1.24,2.74,4.22,4.22,0,0,0,2.8,1,3.47,3.47,0,0,0,2.87-1.31,5.14,5.14,0,0,0,1.18-3.78,8.39,8.39,0,0,0-1.05-4.37,8.87,8.87,0,0,0-2.54-2.81,10.39,10.39,0,0,0-3.26-1.5,20.45,20.45,0,0,0-3.33-.58,26.13,26.13,0,0,0-9.26,1.43,28.22,28.22,0,0,0-8.87,5.16,43.92,43.92,0,0,0-8.15,9.26,68.46,68.46,0,0,0-6.78,13.14c-.15.3-.3.57-.46.88Q316,162,313.7,165.73t-4.95,7.57c-1.79,2.52-3.51,4.81-5.16,6.85a50,50,0,0,1-4.56,5c-1.4,1.3-2.48,2-3.26,2.09-2,.17-2.9-.63-2.68-2.42a25.31,25.31,0,0,1,2.48-7.17q2.15-4.5,5.35-10.24t6-11.61a73.32,73.32,0,0,0,4.37-11.28q1.56-5.41.39-9.2t-4-5.22a11.36,11.36,0,0,0-5.41-1.17,9.48,9.48,0,0,0-4.37,1.17c-1.18.7-1.46,1.31-.85,1.83s.65,1.5.39,2.93a30.07,30.07,0,0,1-1.56,5.22c-.79,2.05-1.76,4.35-2.94,6.91s-2.37,5.29-3.59,8.16q-1.69,3.26-3.58,7.11c-1.26,2.56-2.57,5.13-3.92,7.69s-2.74,5-4.17,7.37a55.9,55.9,0,0,1-4.17,6,15.18,15.18,0,0,1-4,3.65,4.11,4.11,0,0,1-3.85.4,5.61,5.61,0,0,1-3.26-3.92,21.45,21.45,0,0,1-.78-7,39.26,39.26,0,0,1,1.24-8.34,50.14,50.14,0,0,1,2.8-8.16q2.75-6,5.48-10.89a70,70,0,0,1,5.29-8.22,28.79,28.79,0,0,1,4.76-5.08,6,6,0,0,1,4-1.63,2.19,2.19,0,0,1,2.09,1.56,5.74,5.74,0,0,0-1.5,1.57,3.56,3.56,0,0,0-.59,1.95,3.39,3.39,0,0,0,1.24,2.74,4.21,4.21,0,0,0,2.8,1,3.46,3.46,0,0,0,2.74-1.18c.87-.69,1.31-2,1.31-3.91a8.39,8.39,0,0,0-1.05-4.37,8.87,8.87,0,0,0-2.54-2.81,10.39,10.39,0,0,0-3.26-1.5,20.45,20.45,0,0,0-3.33-.58,26.1,26.1,0,0,0-9.26,1.43,28.22,28.22,0,0,0-8.87,5.16,43.92,43.92,0,0,0-8.15,9.26,61.64,61.64,0,0,0-4.9,8.78q.09-1.11.12-2.22a37.91,37.91,0,0,0-2.22-13.43,40.22,40.22,0,0,0-3.07-6.72,43.51,43.51,0,0,0-4.37-6.33,52.92,52.92,0,0,0-9.84-9.06A49.63,49.63,0,0,0,222,109.88,51.85,51.85,0,0,0,210.89,107a66,66,0,0,0-11.41-.72,52.41,52.41,0,0,0-15.85,2.87A73.65,73.65,0,0,0,168,116.53a80.13,80.13,0,0,0-13.9,11,61.48,61.48,0,0,0-10.43,13.5,53.23,53.23,0,0,0-4.44,10.11,37.53,37.53,0,0,0-1.82,10.56A27.08,27.08,0,0,0,139.15,172a25.07,25.07,0,0,0,6.2,9.19,6.26,6.26,0,0,0,4.37,1.31,12.91,12.91,0,0,0,4.69-1.11,9,9,0,0,0,3.33-2.41c.78-1,.91-1.78.39-2.48a22,22,0,0,1-4.63-11.29,39,39,0,0,1,.78-13.76,55.15,55.15,0,0,1,5.48-14.22,52.93,52.93,0,0,1,9.52-12.58,49.41,49.41,0,0,1,12.85-9.07A35.77,35.77,0,0,1,197.52,112q11.08.65,18.59,5.81a33.68,33.68,0,0,1,11.35,12.94A39,39,0,0,1,231.37,148a46,46,0,0,1-3.85,18.62,45.5,45.5,0,0,1-6.45,10.84,47.83,47.83,0,0,1-9.07,8.69,51.15,51.15,0,0,1-10.83,6.08,37,37,0,0,1-11.73,2.74,2.43,2.43,0,0,0-2.35,2.3,2.28,2.28,0,0,0,.39,1.73,2.58,2.58,0,0,0,1.43,1,33.87,33.87,0,0,0,10.83,1.66c.7,0,1.41,0,2.15-.06s1.46-.11,2.15-.2a45.87,45.87,0,0,0,15-4.3,57,57,0,0,0,13.69-8.81A61.43,61.43,0,0,0,243.57,176q1.52-2.21,2.76-4.47a30.91,30.91,0,0,0-.13,6,21.21,21.21,0,0,0,2.67,8.8,14.26,14.26,0,0,0,7.5,6.13,15.84,15.84,0,0,0,7.89,1.44,16.13,16.13,0,0,0,6.79-2.35,23.66,23.66,0,0,0,5.93-5.28,65,65,0,0,0,5.22-7.37q-.66,6.65,1.83,11a7.54,7.54,0,0,0,7.43,4,11.49,11.49,0,0,0,6.52-2.35,39.65,39.65,0,0,0,6.72-6,82.68,82.68,0,0,0,6.46-8.09q1.69-2.4,3.26-4.79a30.33,30.33,0,0,0,0,4.86,21.21,21.21,0,0,0,2.67,8.8,14.3,14.3,0,0,0,7.5,6.13q5.61,2.22,10.11,1a19.18,19.18,0,0,0,8.29-4.89q-2.1,4.83-3.85,9.26c-1.18,3-2.2,5.65-3.07,8.09a27.86,27.86,0,0,1-5.28,3.59c-2,1.08-4.13,2.15-6.26,3.19s-4.18,2.13-6.13,3.26a24,24,0,0,0-5,3.79,8.42,8.42,0,0,0-2.28,3.45,7.55,7.55,0,0,0-.32,2.81,10.28,10.28,0,0,0,3.06,5.8,14,14,0,0,0,5.68,3.26,20.44,20.44,0,0,0,7,.79,23.37,23.37,0,0,0,7.3-1.57,20.32,20.32,0,0,0,6.33-3.91,15.08,15.08,0,0,0,4.11-6.2c.35-.87.89-2.22,1.63-4s1.57-3.79,2.48-5.87,1.8-4.16,2.67-6.2,1.57-3.72,2.09-5a52.59,52.59,0,0,0,11.48-8.28,105.84,105.84,0,0,0,11.22-12.2c2.48-3.15,4.82-6.41,7-9.75a29.46,29.46,0,0,0,0,4.79,20.72,20.72,0,0,0,2.68,8.81,14.38,14.38,0,0,0,7.5,6.06,17.13,17.13,0,0,0,9.52,1.18,28.39,28.39,0,0,0,9.45-3.39,44.9,44.9,0,0,0,8.94-6.72,85,85,0,0,0,8.15-9,93.67,93.67,0,0,0,6.92-10q3.06-5.15,5.28-9.84A2.1,2.1,0,0,0,440.56,151.78ZM402.34,160q5.34-12.12,10.69-19t8.87-6.78c1.57.08,2.33,1.26,2.29,3.52a18.55,18.55,0,0,1-2.55,8,37.71,37.71,0,0,1-7.5,9.39,35.18,35.18,0,0,1-12.85,7.5A26.35,26.35,0,0,1,402.34,160ZM332,217.52q-1.11,2.47-1.89,4.3a19.56,19.56,0,0,1-3.65,6.2,8.92,8.92,0,0,1-3.78,2.54,4.78,4.78,0,0,1-3.33-.13,6.21,6.21,0,0,1-2.48-1.89,5.58,5.58,0,0,1-1.17-2.8,4,4,0,0,1,.71-2.87,13.24,13.24,0,0,1,3.72-3.39,44.62,44.62,0,0,1,4.76-2.61l5-2.35a22.76,22.76,0,0,0,4.44-2.74C333.46,214,332.7,215.87,332,217.52Z"/><path d="M50.59,113.63q2.55-7,5.74-15.07l6.46-16.24q10.31-.12,18-.91A99.87,99.87,0,0,0,93.9,79.32a50.79,50.79,0,0,0,8.74-2.8,18.68,18.68,0,0,0,4.89-2.94,3.28,3.28,0,0,0,1.24-3.13,5,5,0,0,0-1.44-2.74,3.17,3.17,0,0,0-2.34-1c-.83,0-1.33.72-1.5,2s-1.57,2.51-3.92,3.33A42.33,42.33,0,0,1,90.64,74a107.33,107.33,0,0,1-11.94.72q-6.53.06-12.78-.33,2.22-6,4.24-11.74t3.39-10.76c.91-3.34,1.61-6.39,2.09-9.13a28,28,0,0,0,.45-7.11,6.07,6.07,0,0,0-1.82-4,8.38,8.38,0,0,0-3.65-2,15,15,0,0,0-4.44-.39,22.14,22.14,0,0,0-4.17.59A8,8,0,0,0,59.2,31c-.65.48-.76.89-.33,1.24.53.52.53,2,0,4.31s-1.34,5.34-2.47,9S53.87,53.34,52.22,58,48.83,67.49,47,72.54q-6.91-.53-13.1-.46a43.57,43.57,0,0,0-11,1.37,18.11,18.11,0,0,0-7.7,4,11.09,11.09,0,0,0-3.32,7.57,13.54,13.54,0,0,0,.44,5.41,5.2,5.2,0,0,0,1.78,2.74,1.67,1.67,0,0,0,2,.13,2.93,2.93,0,0,0,1-2.41,5.53,5.53,0,0,1,2.22-4.24A15.92,15.92,0,0,1,25,84.08a45.17,45.17,0,0,1,8.28-1.37q4.77-.39,10.24-.52-3,8.09-5.67,16t-4.57,14.54q-1.89,6.66-2.8,11.61t-.13,7.18q1.17,3.92,3.72,5.35a10.18,10.18,0,0,0,5,1.43,8.12,8.12,0,0,0,4.3-1.11q1.83-1.11,1.83-2.28a26.11,26.11,0,0,1,1.3-8.68Q48.06,120.68,50.59,113.63Z"/><path d="M17.79,59.1a18.27,18.27,0,0,0,8.15-2.8,31.67,31.67,0,0,0,6.39-5.16,19.8,19.8,0,0,0,3.52-4.82c.65-1.39.54-2-.32-1.83a16.07,16.07,0,0,1-6.79-.13,13.39,13.39,0,0,1-5.35-2.61A11.87,11.87,0,0,1,20,37.12a13.27,13.27,0,0,1-.91-6.19,12.87,12.87,0,0,1,1.57-5.55,19,19,0,0,1,3.78-4.89,22.39,22.39,0,0,1,5.48-3.78,24.79,24.79,0,0,1,6.65-2.22q4.56-.78,12.91.26t18.66,3.13Q78.43,20,89.66,22.58t21.78,4.89q10.57,2.28,19.37,3.85a66.89,66.89,0,0,0,14.29,1.3,20.92,20.92,0,0,0,8.48-1.69,13.43,13.43,0,0,0,4.95-3.79,11.58,11.58,0,0,0,2.22-4.76,18.77,18.77,0,0,0,.39-4.89,9.73,9.73,0,0,0-2.74-6.33A17.45,17.45,0,0,0,153,7.32,13.14,13.14,0,0,0,147.77,6c-1.52,0-2.2.44-2,1.31a6.21,6.21,0,0,1-1.5,5.41,14.49,14.49,0,0,1-5.87,3.72,40.07,40.07,0,0,1-9.07,2.08,65.62,65.62,0,0,1-11.08.4,81.71,81.71,0,0,1-11.35-1.37q-6.91-1.24-15-2.87T75.05,11.36q-8.74-1.69-17-2.8A147.25,147.25,0,0,0,42.57,7.25,43.64,43.64,0,0,0,30.44,8.36,45.13,45.13,0,0,0,19,13.25,42.15,42.15,0,0,0,9.63,21,38.18,38.18,0,0,0,3,31.12,35.23,35.23,0,0,0,0,43.45,14.63,14.63,0,0,0,1,50.1a13.16,13.16,0,0,0,3.72,5.09,16.7,16.7,0,0,0,5.81,3.13A19.41,19.41,0,0,0,17.79,59.1Z"/><path d="M319.89,78.15l.26-.53v-.13L321.84,74a80.07,80.07,0,0,1,5.48-8.41q3.39-4.64,6.92-8.74A62.81,62.81,0,0,1,341,50c2.13-1.83,3.76-2.78,4.89-2.87,1.83-.08,2.85.39,3.07,1.44a9,9,0,0,1-.72,4.5A54.6,54.6,0,0,1,345.06,60q-2.08,4-4.24,8.74t-4,10a49.93,49.93,0,0,0-2.47,10.56,20.72,20.72,0,0,0,.06,5.94,17.74,17.74,0,0,0,1.63,5.28,10.19,10.19,0,0,0,3,3.72,6.62,6.62,0,0,0,4.44,1.24,11.51,11.51,0,0,0,6.52-2.35,39.65,39.65,0,0,0,6.72-6A81.16,81.16,0,0,0,363.19,89q3.13-4.43,5.81-8.8T373.63,72c1.3-2.56,2.3-4.59,3-6.07a1.59,1.59,0,0,0,.07-1.69,2.24,2.24,0,0,0-1.24-1,2.74,2.74,0,0,0-1.7,0,1.92,1.92,0,0,0-1.3,1.3,46.59,46.59,0,0,1-2.61,5.67q-1.83,3.47-4.18,7.24t-5,7.63q-2.67,3.86-5.15,6.92a45.69,45.69,0,0,1-4.57,5c-1.39,1.26-2.48,1.89-3.26,1.89-1.74,0-2.67-.63-2.8-1.89a11.77,11.77,0,0,1,1-5,78.89,78.89,0,0,1,3.33-7.37q2.16-4.23,4.31-8.93T357.32,66a34.63,34.63,0,0,0,2-9.33q.92-7.17-1.57-11.74a7.82,7.82,0,0,0-7.56-4.43q-4.17.13-8.94,3.65a63.06,63.06,0,0,0-9.32,8.61q3.53-7.44,6.78-14.74t5.61-13.5c.44-1.18.85-2.3,1.23-3.39l1.05-.39a16.41,16.41,0,0,0,5.42-3.2,3,3,0,0,0,1.11-3.13,5.54,5.54,0,0,0-1.63-2.74,3.33,3.33,0,0,0-2.35-1,1,1,0,0,0-.8.43,10.54,10.54,0,0,0-.12-4.67c-.78-2.61-2.08-4.34-3.91-5.21A11.3,11.3,0,0,0,338.87,0a9.52,9.52,0,0,0-4.44,1.18c-1.17.69-1.46,1.3-.85,1.82s.39,2.13-.39,4.83-2,6.09-3.65,10.17c0,.09-.08.19-.11.28l-2,.11q-5.74.27-11.48,0a57,57,0,0,0,1.7-7,10.21,10.21,0,0,0-.13-5c-.78-2.61-2.11-4.34-4-5.21A11.5,11.5,0,0,0,308.15,0a9.36,9.36,0,0,0-4.37,1.18c-1.18.69-1.46,1.3-.85,1.82q.65.66-.39,4.44t-3.26,9.65q-8.1-.78-15.59-1a68.28,68.28,0,0,0-13.44.71,21.33,21.33,0,0,0-9.65,3.85A11.31,11.31,0,0,0,256.36,29a13.91,13.91,0,0,0,.44,5.41,5.21,5.21,0,0,0,1.79,2.74,1.67,1.67,0,0,0,2,.13,2.93,2.93,0,0,0,1-2.41,5.72,5.72,0,0,1,2.93-4.76A22,22,0,0,1,272,27.4a69.43,69.43,0,0,1,10.76-1.11q6.14-.2,12.91-.19-3.39,8.08-7.36,17.41t-7.51,18.14c-1,2.6-2,5.1-2.92,7.51-.15.3-.3.59-.47.9q-1.83,3.39-4.17,7.17t-5,7.57c-1.74,2.52-3.43,4.81-5.08,6.85a51.19,51.19,0,0,1-4.57,5c-1.39,1.3-2.48,2-3.26,2.09-2,.17-2.89-.63-2.68-2.42a25.31,25.31,0,0,1,2.48-7.17q2.16-4.5,5.35-10.24t6-11.61A73.32,73.32,0,0,0,270.84,56c1-3.61,1.18-6.68.39-9.2s-2-4.22-3.78-5.09a11.57,11.57,0,0,0-5.22-1.3,6.5,6.5,0,0,0-3.13.65c-.78.44-1.56.89-2.35,1.37a17.85,17.85,0,0,1-2.8,1.37,12.38,12.38,0,0,1-4.5.65,19.92,19.92,0,0,1-2.41-.13,3.3,3.3,0,0,1-1.76-.65,27,27,0,0,0,.71-5c.13-2,.2-3.56.2-4.69a8.15,8.15,0,0,0-2-5.16,5.84,5.84,0,0,0-4.5-2.15,7.25,7.25,0,0,0-6.27,2.87,11.47,11.47,0,0,0-2.08,6.92,11,11,0,0,0,2.15,6.26,13.1,13.1,0,0,0,5.15,4.56,28.89,28.89,0,0,1-1.43,4.24q-1,2.55-2.09,5.22c-.7,1.78-1.39,3.48-2.09,5.09-.6,1.38-1,2.44-1.3,3.21a44,44,0,0,1-2.35,4.94q-1.83,3.39-4.17,7.17t-5,7.57c-1.74,2.52-3.44,4.81-5.09,6.85a50,50,0,0,1-4.56,5c-1.39,1.3-2.48,2-3.26,2.09-2,.17-2.9-.63-2.68-2.42a25.31,25.31,0,0,1,2.48-7.17q2.16-4.5,5.35-10.24t6-11.61A74.36,74.36,0,0,0,222.84,56q1.56-5.41.39-9.2t-4-5.22a11.36,11.36,0,0,0-5.41-1.17,9.48,9.48,0,0,0-4.37,1.17c-1.18.7-1.46,1.31-.85,1.83s.74,1.56.39,3.13a40.5,40.5,0,0,1-1.89,5.8q-1.37,3.46-3.26,7.63T200,68.75q-2.08,4.05-5.28,9.2t-6.52,9.78a71.19,71.19,0,0,1-6.33,7.76q-3,3.14-4.57,3.27c-2,.17-2.89-.63-2.67-2.42a25,25,0,0,1,2.48-7.17q2.15-4.5,5.35-10.24t6-11.61A74.36,74.36,0,0,0,192.84,56q1.56-5.41.39-9.2t-4-5.22a11.36,11.36,0,0,0-5.41-1.17,9.48,9.48,0,0,0-4.37,1.17c-1.18.7-1.46,1.31-.85,1.83s.72,1.74.33,3.39A43.76,43.76,0,0,1,176.86,53c-1,2.44-2.18,5.15-3.52,8.15-1,2.27-2,4.61-3,7a11.3,11.3,0,0,1-1.56,1.68,17.47,17.47,0,0,1-4.89,2.87,23.52,23.52,0,0,1-8.35,1.43A26,26,0,0,0,157,66.15a6.62,6.62,0,0,0-1.18-4,3.58,3.58,0,0,0-2.48-1.37c-.95-.09-1.74-.13-2.34-.13a5.32,5.32,0,0,0-4.31,2.08,9.8,9.8,0,0,0-2.09,4.83,10.5,10.5,0,0,0,.66,5.41A6.66,6.66,0,0,0,149,76.84q-1.69,3.39-4,7.37t-4.69,7.37a33.49,33.49,0,0,1-4.83,5.55q-2.41,2.15-4.37,1.76a5.14,5.14,0,0,1-3.91-3.07,14.63,14.63,0,0,1-1.11-6.46,38.71,38.71,0,0,1,1.24-8.67A72.08,72.08,0,0,1,130.49,71a85.33,85.33,0,0,1,4.5-9.53,61.1,61.1,0,0,1,5.28-8.15q1.56-1.95,3.2-3.85a18.18,18.18,0,0,1,3.19-3,5.23,5.23,0,0,1,2.94-1.1c.91,0,1.71.6,2.41,1.82a5.74,5.74,0,0,0-1.5,1.57,3.56,3.56,0,0,0-.59,2,3.39,3.39,0,0,0,1.24,2.74,4.23,4.23,0,0,0,2.81,1,3.48,3.48,0,0,0,3.26-2,4.61,4.61,0,0,0,.78-3,25.18,25.18,0,0,0-.78-3.07,10,10,0,0,0-1.57-3A9.5,9.5,0,0,0,153,41.17a8.65,8.65,0,0,0-4.11-1.11,25.27,25.27,0,0,0-10.5,1.69,31.93,31.93,0,0,0-9.26,5.61,44.93,44.93,0,0,0-7.63,8.55,57.62,57.62,0,0,0-5.74,10.37,58.38,58.38,0,0,0-3.53,11.15,48.32,48.32,0,0,0-1,10.89,20,20,0,0,0,4,11.74,14.07,14.07,0,0,0,10.24,5.48,15,15,0,0,0,9.33-2.35,35.39,35.39,0,0,0,8-7A58.07,58.07,0,0,0,149.21,87q2.79-5,4.63-9a29,29,0,0,0,7.24-.66,28.38,28.38,0,0,0,6.48-2.2c-.59,1.65-1.15,3.3-1.66,4.94a52.16,52.16,0,0,0-2,9.13,27.9,27.9,0,0,0,0,6.59,14.78,14.78,0,0,0,1.56,5.22,8.91,8.91,0,0,0,3.07,3.33,7.61,7.61,0,0,0,4.5,1,10.52,10.52,0,0,0,5.22-1.57,28.73,28.73,0,0,0,5.48-4.17,61,61,0,0,0,5.41-5.94q2.67-3.32,5.15-7c-.09.43-.17.84-.26,1.23a5.61,5.61,0,0,0-.13,1.24,27.9,27.9,0,0,0,0,6.59,14.57,14.57,0,0,0,1.57,5.22,8.81,8.81,0,0,0,3.06,3.33,7.61,7.61,0,0,0,4.5,1,11.49,11.49,0,0,0,6.52-2.35,39.65,39.65,0,0,0,6.72-6A82.68,82.68,0,0,0,222.71,89q3.12-4.43,5.8-8.8T233.14,72c.85-1.67,1.56-3.08,2.15-4.29a2.32,2.32,0,0,0,.33-.47c.52-1,1.18-2.33,2-4.11s1.56-3.61,2.35-5.48,1.5-3.61,2.15-5.22,1.11-2.71,1.37-3.32a21.47,21.47,0,0,0,6.85.72,21,21,0,0,0,6.19-1.24,67.2,67.2,0,0,1-3.26,8.21q-2.22,4.83-4.56,10.37t-4.31,11.29a49.69,49.69,0,0,0-2.48,10.82,27.9,27.9,0,0,0,0,6.59,14.78,14.78,0,0,0,1.57,5.22,8.81,8.81,0,0,0,3.06,3.33,7.61,7.61,0,0,0,4.5,1,11.54,11.54,0,0,0,6.53-2.35,39.23,39.23,0,0,0,6.71-6A82.68,82.68,0,0,0,270.71,89L272,87.14c-.16.76-.28,1.46-.37,2.09a27.9,27.9,0,0,0,0,6.59,14.78,14.78,0,0,0,1.57,5.22,8.89,8.89,0,0,0,3.06,3.33,7.64,7.64,0,0,0,4.5,1,11.54,11.54,0,0,0,6.53-2.35,39.23,39.23,0,0,0,6.71-6A81.21,81.21,0,0,0,300.45,89l.53-.76c-.32,1.13-.61,2.22-.86,3.24q-1.23,5.22-.45,7.57,1.17,3.92,3.45,5.35a8,8,0,0,0,4.44,1.37,5.72,5.72,0,0,0,3.52-1.18c.92-.74,1.2-1.45.85-2.15-.7-1.31-.24-4.13,1.37-8.48S317.1,84.32,319.89,78.15ZM298,84.8c-1.74,2.52-3.43,4.81-5.08,6.85a58.88,58.88,0,0,1-4.5,5,6.58,6.58,0,0,1-3.33,2.09q-2.35.26-1.89-3.13a43.23,43.23,0,0,1,2.61-9.07q2.14-5.67,5.74-13.17T299,57.73q3.85-8.15,7.7-16.37t6.58-15.26a125.69,125.69,0,0,0,13-.91l.32-.05c-.9,2.15-1.85,4.39-2.87,6.76q-3.32,7.77-6.91,16t-6.95,16.25a2.39,2.39,0,0,0-.16.32c-.09.25-.2.53-.31.81l-.3.73c-.51,1.18-1.16,2.53-2,4.07-1.22,2.26-2.6,4.65-4.17,7.17S299.71,82.28,298,84.8Z"/></g></g></svg>