<svg fill="#fff" xmlns="http://www.w3.org/2000/svg" viewBox="0 0 447.29 241.67"><title>Asset 13</title><g id="Layer_2" data-name="Layer 2"><g id="Layer_1-2" data-name="Layer 1"><path d="M203.54,152.12q2.15-8.15,1.63-13.11a6.07,6.07,0,0,0-1.83-4,8.27,8.27,0,0,0-3.65-2,15,15,0,0,0-4.44-.39,22.26,22.26,0,0,0-4.17.59,7.93,7.93,0,0,0-2.8,1.17c-.66.48-.77.89-.33,1.24.52.52.48,2.18-.13,5s-1.61,6.3-3,10.56-3.07,9.07-5,14.42-4,10.85-6,16.5-4.05,11.3-6,17-3.63,10.87-5,15.65-2.43,9-3.13,12.52-.78,6.13-.26,7.7q1.19,3.92,3.72,5.35a10.24,10.24,0,0,0,5,1.43,8.16,8.16,0,0,0,4.31-1.11c1.21-.74,1.82-1.5,1.82-2.28q-.25-3.92,2.09-11.41t5.94-16.9q3.58-9.39,7.82-19.82T197.86,170Q201.39,160.27,203.54,152.12Z"/><path d="M446.25,157.17a2.12,2.12,0,0,0-2-.26,2.37,2.37,0,0,0-1.37,1.43,53.91,53.91,0,0,1-3.58,7.37,88,88,0,0,1-5.22,8,89.82,89.82,0,0,1-6.26,7.7,58.91,58.91,0,0,1-6.78,6.39,28.42,28.42,0,0,1-6.79,4.11,11,11,0,0,1-6.19.85,4.1,4.1,0,0,1-2.94-2.22,12.24,12.24,0,0,1-1.24-4.57,29.07,29.07,0,0,1,.13-6.06,46.58,46.58,0,0,1,1.31-6.72,42.36,42.36,0,0,0,12.26-5.41,45.55,45.55,0,0,0,9.32-8,36.37,36.37,0,0,0,5.94-8.94,20.29,20.29,0,0,0,2.09-8.34,8.42,8.42,0,0,0-2.28-6.13q-2.3-2.35-7.11-2.35a26.45,26.45,0,0,0-9.27,1.69,31.21,31.21,0,0,0-8.87,5.22,44.14,44.14,0,0,0-8.15,9.07,66.26,66.26,0,0,0-7,13.5l-.21.58c-.63,1.19-1.34,2.47-2.14,3.85q-3.39,5.88-7.82,12.07a139.3,139.3,0,0,1-9.52,11.87,53.19,53.19,0,0,1-9.79,8.8,58.29,58.29,0,0,1,2.61-6.13q2.08-4.42,4.83-10.37t5.74-12.65q3-6.72,5.35-12.85a113.6,113.6,0,0,0,3.65-11c.87-3.26,1.08-5.63.65-7.11-.78-2.69-2.07-4.52-3.85-5.48a10.27,10.27,0,0,0-5.41-1.3,10.09,10.09,0,0,0-4.57,1.17q-1.83,1-1.17,1.83c.69,1,.41,3.39-.85,7.3s-3.06,8.66-5.41,14.22a.74.74,0,0,0-.13.52q-2.61,4.83-5.68,11.15t-6.32,11.81a46.52,46.52,0,0,1-6.53,8.8q-3.26,3.33-6.13,2.16a5.61,5.61,0,0,1-3.26-3.92,21.42,21.42,0,0,1-.78-7,39.26,39.26,0,0,1,1.24-8.35,50.14,50.14,0,0,1,2.8-8.16c1.83-4,3.66-7.63,5.48-10.89a70,70,0,0,1,5.29-8.22,28.79,28.79,0,0,1,4.76-5.08,6,6,0,0,1,4-1.63,2.19,2.19,0,0,1,2.09,1.56,5.74,5.74,0,0,0-1.5,1.57,3.56,3.56,0,0,0-.59,1.95,3.39,3.39,0,0,0,1.24,2.74,4.21,4.21,0,0,0,2.8,1.05,3.47,3.47,0,0,0,2.87-1.31,5.14,5.14,0,0,0,1.18-3.78,8.39,8.39,0,0,0-1.05-4.37,8.87,8.87,0,0,0-2.54-2.81,10.39,10.39,0,0,0-3.26-1.5,20.45,20.45,0,0,0-3.33-.58,26.1,26.1,0,0,0-9.26,1.43,28.22,28.22,0,0,0-8.87,5.16,43.92,43.92,0,0,0-8.15,9.26A68.46,68.46,0,0,0,324,163.07c-.15.3-.3.57-.46.88q-1.83,3.39-4.11,7.17t-5,7.57c-1.78,2.52-3.5,4.81-5.15,6.85a50,50,0,0,1-4.56,5c-1.4,1.3-2.48,2-3.26,2.09-2,.17-2.9-.63-2.68-2.42a25.31,25.31,0,0,1,2.48-7.17q2.14-4.5,5.35-10.24t6-11.61A74.36,74.36,0,0,0,317,149.93q1.56-5.42.39-9.2t-4-5.22a11.36,11.36,0,0,0-5.41-1.17,9.48,9.48,0,0,0-4.37,1.17c-1.18.7-1.46,1.31-.85,1.83s.65,1.5.39,2.93a30.07,30.07,0,0,1-1.56,5.22c-.79,2-1.76,4.35-2.94,6.91s-2.37,5.29-3.59,8.16q-1.69,3.25-3.58,7.11c-1.27,2.56-2.57,5.13-3.92,7.69s-2.74,5-4.17,7.37a54.46,54.46,0,0,1-4.18,6,15.23,15.23,0,0,1-4,3.66,4.13,4.13,0,0,1-3.85.39,5.61,5.61,0,0,1-3.26-3.92,21.42,21.42,0,0,1-.78-7,39.26,39.26,0,0,1,1.24-8.35,50.14,50.14,0,0,1,2.8-8.16c1.83-4,3.66-7.63,5.48-10.89a71.32,71.32,0,0,1,5.28-8.22,29.17,29.17,0,0,1,4.77-5.08,6,6,0,0,1,4-1.63,2.19,2.19,0,0,1,2.09,1.56,5.74,5.74,0,0,0-1.5,1.57,3.48,3.48,0,0,0-.59,1.95,3.39,3.39,0,0,0,1.24,2.74,4.21,4.21,0,0,0,2.8,1.05,3.46,3.46,0,0,0,2.74-1.18c.87-.69,1.31-2,1.31-3.91a8.39,8.39,0,0,0-1.05-4.37,8.87,8.87,0,0,0-2.54-2.81,10.39,10.39,0,0,0-3.26-1.5,20.45,20.45,0,0,0-3.33-.58,26.1,26.1,0,0,0-9.26,1.43,28.22,28.22,0,0,0-8.87,5.16,43.92,43.92,0,0,0-8.15,9.26,61.64,61.64,0,0,0-4.9,8.78q.09-1.11.12-2.22a38.13,38.13,0,0,0-2.22-13.43,40.22,40.22,0,0,0-3.07-6.72,43.51,43.51,0,0,0-4.37-6.33,52.92,52.92,0,0,0-9.84-9.06,49.63,49.63,0,0,0-10.57-5.68,51.85,51.85,0,0,0-11.09-2.93,66,66,0,0,0-11.41-.72,52.41,52.41,0,0,0-15.85,2.87,73.65,73.65,0,0,0-15.65,7.43,80.13,80.13,0,0,0-13.9,11,61.48,61.48,0,0,0-10.43,13.5,53.23,53.23,0,0,0-4.44,10.11,37.53,37.53,0,0,0-1.82,10.56,27.08,27.08,0,0,0,1.76,10.31,25.07,25.07,0,0,0,6.2,9.19,6.26,6.26,0,0,0,4.37,1.31,12.91,12.91,0,0,0,4.69-1.11,9.11,9.11,0,0,0,3.33-2.41c.78-1,.91-1.78.39-2.48a22,22,0,0,1-4.63-11.29,39,39,0,0,1,.78-13.76,55.15,55.15,0,0,1,5.48-14.22A52.93,52.93,0,0,1,175,130.08,49.41,49.41,0,0,1,187.82,121a35.77,35.77,0,0,1,15.39-3.65q11.08.65,18.59,5.81a33.68,33.68,0,0,1,11.35,12.94,39,39,0,0,1,3.91,17.24A46.14,46.14,0,0,1,233.21,172a45.5,45.5,0,0,1-6.45,10.84,47.83,47.83,0,0,1-9.07,8.69,51.15,51.15,0,0,1-10.83,6.08,37,37,0,0,1-11.74,2.74,2.43,2.43,0,0,0-2.34,2.3,2.28,2.28,0,0,0,.39,1.73,2.55,2.55,0,0,0,1.43,1A33.87,33.87,0,0,0,205.43,207c.69,0,1.41,0,2.15-.06s1.46-.11,2.15-.2a45.87,45.87,0,0,0,15-4.3,57,57,0,0,0,13.69-8.81,61.43,61.43,0,0,0,10.83-12.19q1.52-2.21,2.76-4.47a30.91,30.91,0,0,0-.13,6,21.21,21.21,0,0,0,2.67,8.8,14.26,14.26,0,0,0,7.5,6.13A15.84,15.84,0,0,0,270,199.3a16.22,16.22,0,0,0,6.79-2.35,23.66,23.66,0,0,0,5.93-5.28,65,65,0,0,0,5.22-7.37q-.66,6.64,1.83,11a7.53,7.53,0,0,0,7.43,4,11.49,11.49,0,0,0,6.52-2.35,39.65,39.65,0,0,0,6.72-6,82.68,82.68,0,0,0,6.46-8.09c1.13-1.6,2.21-3.2,3.26-4.79a30.33,30.33,0,0,0,0,4.86,21.21,21.21,0,0,0,2.67,8.8,14.26,14.26,0,0,0,7.5,6.13q5.61,2.22,10.11,1a19.1,19.1,0,0,0,8.28-4.89q-2.09,4.83-3.84,9.26c-1.18,3-2.2,5.65-3.07,8.09a27.86,27.86,0,0,1-5.28,3.59c-2.05,1.08-4.13,2.15-6.26,3.19s-4.18,2.13-6.13,3.26a24,24,0,0,0-5,3.79,8.42,8.42,0,0,0-2.28,3.45,7.55,7.55,0,0,0-.32,2.81,10.28,10.28,0,0,0,3.06,5.8,14,14,0,0,0,5.68,3.26,20.44,20.44,0,0,0,7,.79,23.37,23.37,0,0,0,7.3-1.57,20.32,20.32,0,0,0,6.33-3.91,15.08,15.08,0,0,0,4.11-6.2c.35-.87.89-2.22,1.63-4s1.56-3.79,2.48-5.87,1.8-4.16,2.67-6.2,1.57-3.72,2.09-5a52.59,52.59,0,0,0,11.48-8.28A105.84,105.84,0,0,0,381.55,188c2.48-3.15,4.82-6.41,7-9.75a29.46,29.46,0,0,0,0,4.79,20.85,20.85,0,0,0,2.67,8.81,14.46,14.46,0,0,0,7.5,6.06,17.17,17.17,0,0,0,9.53,1.18,28.39,28.39,0,0,0,9.45-3.39,44.9,44.9,0,0,0,8.94-6.72,85,85,0,0,0,8.15-9,93.67,93.67,0,0,0,6.92-10.05q3.06-5.15,5.28-9.84A2.1,2.1,0,0,0,446.25,157.17ZM408,165.38q5.34-12.12,10.69-19t8.87-6.78c1.57.08,2.33,1.26,2.29,3.52a18.55,18.55,0,0,1-2.55,8,37.71,37.71,0,0,1-7.5,9.39A35.18,35.18,0,0,1,407,168,26.35,26.35,0,0,1,408,165.38Zm-70.38,57.53q-1.11,2.47-1.89,4.3a19.56,19.56,0,0,1-3.65,6.2,9,9,0,0,1-3.78,2.54,4.78,4.78,0,0,1-3.33-.13,6.21,6.21,0,0,1-2.48-1.89,5.58,5.58,0,0,1-1.17-2.8,4,4,0,0,1,.71-2.87,13.24,13.24,0,0,1,3.72-3.39,44.62,44.62,0,0,1,4.76-2.61l5-2.35a22.76,22.76,0,0,0,4.44-2.74C339.15,219.34,338.39,221.26,337.65,222.91Z"/><path d="M108.77,70.84a5,5,0,0,0-1.44-2.74,3.17,3.17,0,0,0-2.34-1c-.83,0-1.33.72-1.5,2s-1.57,2.51-3.92,3.33a42.33,42.33,0,0,1-8.93,1.89,107.33,107.33,0,0,1-11.94.72q-6.53.06-12.78-.33,2.22-6,4.24-11.74t3.39-10.76c.91-3.34,1.61-6.39,2.09-9.13A28,28,0,0,0,76.09,36a6.07,6.07,0,0,0-1.82-4,8.38,8.38,0,0,0-3.65-2,15,15,0,0,0-4.44-.39,22.14,22.14,0,0,0-4.17.59,8,8,0,0,0-2.81,1.17c-.65.48-.76.89-.33,1.24.53.52.53,2,0,4.31s-1.34,5.34-2.47,9-2.53,7.8-4.18,12.45S48.83,67.89,47,72.93q-6.91-.53-13.1-.46a43.57,43.57,0,0,0-11,1.37,18.11,18.11,0,0,0-7.7,4,11.09,11.09,0,0,0-3.32,7.57,13.54,13.54,0,0,0,.44,5.41,5.2,5.2,0,0,0,1.78,2.74,1.67,1.67,0,0,0,2,.13,2.93,2.93,0,0,0,1-2.41,5.53,5.53,0,0,1,2.22-4.24A15.92,15.92,0,0,1,25,84.47a45.17,45.17,0,0,1,8.28-1.37q4.77-.39,10.24-.52-3,8.08-5.67,16T33.24,113.1q-1.89,6.66-2.8,11.61t-.13,7.18q1.17,3.92,3.72,5.35a10.18,10.18,0,0,0,5,1.43,8.12,8.12,0,0,0,4.3-1.11q1.83-1.11,1.83-2.28a26.11,26.11,0,0,1,1.3-8.68q1.58-5.53,4.11-12.58T56.33,99l6.46-16.24q10.31-.12,18-.91A99.87,99.87,0,0,0,93.9,79.71a50.79,50.79,0,0,0,8.74-2.8A18.68,18.68,0,0,0,107.53,74,3.28,3.28,0,0,0,108.77,70.84Z"/><path d="M275.15,63.54a2.74,2.74,0,0,0-1.7,0,1.92,1.92,0,0,0-1.3,1.3,46.59,46.59,0,0,1-2.61,5.67q-1.83,3.46-4.18,7.24t-5,7.64q-2.67,3.84-5.15,6.91a44.7,44.7,0,0,1-4.57,5c-1.39,1.26-2.48,1.89-3.26,1.89-1.74,0-2.67-.63-2.8-1.89a11.66,11.66,0,0,1,1-5,76,76,0,0,1,3.32-7.37q2.16-4.23,4.31-8.93T257,66.34A34.63,34.63,0,0,0,259,57q.91-7.17-1.56-11.74a7.84,7.84,0,0,0-7.57-4.43q-4.17.13-8.94,3.65a63.06,63.06,0,0,0-9.32,8.61q3.53-7.44,6.78-14.74T244,24.86c.45-1.18.85-2.3,1.23-3.39l1.05-.39a16.41,16.41,0,0,0,5.42-3.2,3,3,0,0,0,1.11-3.13A5.49,5.49,0,0,0,251.14,12a3.29,3.29,0,0,0-2.34-1,1,1,0,0,0-.8.43,10.54,10.54,0,0,0-.12-4.67c-.78-2.61-2.08-4.34-3.91-5.21A11.3,11.3,0,0,0,238.56.4a9.49,9.49,0,0,0-4.44,1.18c-1.17.69-1.46,1.3-.85,1.82s.4,2.13-.39,4.83-2,6.09-3.65,10.17c0,.09-.08.19-.11.28l-2,.11q-5.73.27-11.48,0a57,57,0,0,0,1.7-7,10.21,10.21,0,0,0-.13-5c-.78-2.61-2.11-4.34-4-5.21A11.5,11.5,0,0,0,207.84.4a9.36,9.36,0,0,0-4.37,1.18c-1.18.69-1.46,1.3-.85,1.82q.65.66-.39,4.44T199,17.49q-7.5-.72-14.48-1c.09-.43.18-.86.26-1.28a21.24,21.24,0,0,0,.13-8.42q-.91-3.92-3.46-5.41A9.15,9.15,0,0,0,176.27,0a9.88,9.88,0,0,0-4.43,1.17c-1.22.7-1.66,1.44-1.31,2.22s.07,2.76-.85,5.68q-1.14,3.64-3.24,8.89a19.38,19.38,0,0,0-5.35,2.47,16.94,16.94,0,0,0,0-2.56,9.73,9.73,0,0,0-2.74-6.33A17.45,17.45,0,0,0,153,7.71a13.14,13.14,0,0,0-5.22-1.31c-1.52,0-2.2.44-2,1.31a6.21,6.21,0,0,1-1.5,5.41A12.21,12.21,0,0,1,141,15.64a14.47,14.47,0,0,0-1.46-.76,11.05,11.05,0,0,0-4.37-1c-1.3,0-2,.3-2,.91a5.28,5.28,0,0,1-.79,2.22c-.28.51-.58,1.06-.9,1.62-.72.12-1.46.24-2.23.33a65.62,65.62,0,0,1-11.08.4A81.71,81.71,0,0,1,106.88,18q-6.91-1.24-15-2.87T75.05,11.75Q66.31,10.06,58,9A147.25,147.25,0,0,0,42.57,7.64,43.64,43.64,0,0,0,30.44,8.75,45.13,45.13,0,0,0,19,13.64a42.15,42.15,0,0,0-9.4,7.7A38.18,38.18,0,0,0,3,31.51,35.23,35.23,0,0,0,0,43.84a14.63,14.63,0,0,0,1,6.65,13.16,13.16,0,0,0,3.72,5.09,16.7,16.7,0,0,0,5.81,3.13,19.41,19.41,0,0,0,7.24.78,18.27,18.27,0,0,0,8.15-2.8,31.67,31.67,0,0,0,6.39-5.16,19.8,19.8,0,0,0,3.52-4.82c.65-1.39.54-2-.32-1.83a16.07,16.07,0,0,1-6.79-.13,13.39,13.39,0,0,1-5.35-2.61A11.87,11.87,0,0,1,20,37.51a13.27,13.27,0,0,1-.91-6.19,12.87,12.87,0,0,1,1.57-5.55,19,19,0,0,1,3.78-4.89,22.39,22.39,0,0,1,5.48-3.78,24.79,24.79,0,0,1,6.65-2.22q4.56-.78,12.91.26t18.66,3.13Q78.43,20.36,89.66,23t21.78,4.89q10.57,2.28,19.37,3.85h.05a12.6,12.6,0,0,0,3.87,2.53,12,12,0,0,0,4.5,1c1.39,0,2.08-.35,2.08-1a4.26,4.26,0,0,1,.22-1.19c1.28.06,2.48.06,3.57,0a20.92,20.92,0,0,0,8.48-1.69A16.85,16.85,0,0,0,156,29.87a13.18,13.18,0,0,0,.46,4.9,5.31,5.31,0,0,0,1.75,2.71q-3.35,7.77-7.14,16.4t-7.62,17.38q-1.66,3-3.73,6.36-2.35,3.8-5,7.57c-1.74,2.52-3.43,4.81-5.08,6.85a57.15,57.15,0,0,1-4.51,5,6.52,6.52,0,0,1-3.32,2.09c-2,.17-2.89-.63-2.68-2.42a25.31,25.31,0,0,1,2.48-7.17q2.16-4.5,5.35-10.24t6-11.61a73.32,73.32,0,0,0,4.37-11.28q1.56-5.41.39-9.2t-4-5.22a11.36,11.36,0,0,0-5.41-1.17A9.48,9.48,0,0,0,124,42c-1.17.7-1.46,1.31-.85,1.83s.72,1.74.33,3.39a42.49,42.49,0,0,1-2.09,6.13c-1,2.44-2.17,5.15-3.52,8.15s-2.67,6.11-4,9.33-2.46,6.44-3.46,9.65a52.16,52.16,0,0,0-2,9.13,27.9,27.9,0,0,0,0,6.59,14.57,14.57,0,0,0,1.57,5.22,8.81,8.81,0,0,0,3.06,3.33,7.61,7.61,0,0,0,4.5,1,11.54,11.54,0,0,0,6.53-2.35,39.23,39.23,0,0,0,6.71-6c.89-1,1.76-2,2.62-3l-.07.18q-4.19,9.92-7.44,18.85a124.13,124.13,0,0,0-4.76,15.85,33,33,0,0,0-.85,11.35q.66,4.43,4.44,5.21,4.69,1,9.32-2.28a36.57,36.57,0,0,0,8.68-9.26,86.6,86.6,0,0,0,7.5-13.76,154.6,154.6,0,0,0,5.93-15.65A134.3,134.3,0,0,0,160,90a62.5,62.5,0,0,0,1.37-11.6,32,32,0,0,0,8.35-.92,24.4,24.4,0,0,0,5.62-2.08c-.34,1-.68,1.89-1,2.8a62.57,62.57,0,0,0-3.07,11.41,27.9,27.9,0,0,0,0,6.59,14.78,14.78,0,0,0,1.57,5.22,8.89,8.89,0,0,0,3.06,3.33,7.66,7.66,0,0,0,4.51,1,11.51,11.51,0,0,0,6.52-2.35,39.23,39.23,0,0,0,6.71-6,82.68,82.68,0,0,0,6.46-8.09l.53-.76c-.32,1.13-.61,2.22-.85,3.24q-1.24,5.22-.46,7.57,1.17,3.91,3.46,5.35a7.94,7.94,0,0,0,4.43,1.37,5.72,5.72,0,0,0,3.52-1.18c.92-.74,1.2-1.45.85-2.15-.7-1.31-.24-4.13,1.37-8.48s3.8-9.61,6.59-15.78l.26-.53v-.13l1.69-3.52A80.07,80.07,0,0,1,227,66q3.39-4.64,6.92-8.74a62.81,62.81,0,0,1,6.71-6.85c2.13-1.83,3.76-2.78,4.9-2.87,1.82-.08,2.84.39,3.06,1.44a9,9,0,0,1-.72,4.5,54.6,54.6,0,0,1-3.13,6.91q-2.08,4-4.24,8.74t-4,10a50,50,0,0,0-2.48,10.56,20.72,20.72,0,0,0,.06,5.94,18,18,0,0,0,1.63,5.28,10.29,10.29,0,0,0,3,3.72,6.62,6.62,0,0,0,4.44,1.24,11.51,11.51,0,0,0,6.52-2.35,39.65,39.65,0,0,0,6.72-6,82.62,82.62,0,0,0,6.45-8.09q3.14-4.42,5.81-8.8t4.63-8.22c1.3-2.56,2.3-4.59,3-6.07a1.57,1.57,0,0,0,.06-1.69A2.19,2.19,0,0,0,275.15,63.54ZM156,89.82a100.1,100.1,0,0,1-3.72,13.63q-2.47,7.17-5.74,14.35a119.52,119.52,0,0,1-6.59,12.65,49.73,49.73,0,0,1-6.13,8.42c-1.87,1.95-3.32,2.54-4.37,1.76-.69-.26-.78-1.44-.26-3.53a54.08,54.08,0,0,1,2.87-7.95q2.08-4.83,5.09-11t6.39-12.92q3.39-6.72,6.78-13.37t6.14-12.52A28.87,28.87,0,0,1,156,89.82ZM177.51,69a12.4,12.4,0,0,1-3.06,2.67q-5.74,3.66-15.27,2.74L162.45,69q1.56-3.26,4-8.28T171.71,50c1.82-3.83,3.65-7.8,5.48-11.94q2.56-5.82,4.45-11.31l.76,0q6.14-.2,12.92-.19-3.4,8.09-7.37,17.41T180.45,62c-.87,2.16-1.68,4.23-2.45,6.27C177.84,68.53,177.68,68.74,177.51,69Zm39-20.68q-3.57,8.19-6.95,16.24c-.05.11-.11.21-.16.33s-.2.54-.32.83l-.28.69c-.51,1.18-1.17,2.54-2,4.09q-1.81,3.39-4.17,7.17t-5,7.57c-1.74,2.52-3.43,4.81-5.08,6.85a58.88,58.88,0,0,1-4.5,5,6.58,6.58,0,0,1-3.33,2.09q-2.35.25-1.89-3.13A43.23,43.23,0,0,1,185.47,87q2.15-5.67,5.74-13.17t7.43-15.66q3.86-8.15,7.7-16.37t6.58-15.26A125.88,125.88,0,0,0,226,25.58l.32,0c-.9,2.15-1.85,4.39-2.86,6.76Q220.1,40.06,216.51,48.27Z"/></g></g></svg>