<svg xmlns="http://www.w3.org/2000/svg" viewBox="0 0 1024.03 233.82"><title>Asset 1</title><g id="Layer_2" data-name="Layer 2"><g id="Layer_1-2" data-name="Layer 1"><path d="M505.76,82.69a3.2,3.2,0,0,0-3-.39,3.5,3.5,0,0,0-2,2.13,80.3,80.3,0,0,1-5.31,10.9,134.93,134.93,0,0,1-7.72,11.87,133,133,0,0,1-9.27,11.39,86,86,0,0,1-10,9.46,42.52,42.52,0,0,1-10,6.08,16.22,16.22,0,0,1-9.17,1.25,6.06,6.06,0,0,1-4.34-3.28,17.78,17.78,0,0,1-1.84-6.75,42.23,42.23,0,0,1,.2-9,68.83,68.83,0,0,1,1.93-9.94,62.41,62.41,0,0,0,18.14-8,67.49,67.49,0,0,0,13.8-11.78,54.13,54.13,0,0,0,8.78-13.22A30,30,0,0,0,489,61.07,12.46,12.46,0,0,0,485.59,52q-3.37-3.48-10.52-3.48A39.12,39.12,0,0,0,461.37,51a46.25,46.25,0,0,0-13.12,7.72,65.37,65.37,0,0,0-12.07,13.42,94.45,94.45,0,0,0-9.41,17.73q-2.53,4.44-5.83,9.48a156.37,156.37,0,0,1-11.49,15.35,105.65,105.65,0,0,1-14.19,14.19,40.24,40.24,0,0,1-17.08,8.2,65,65,0,0,0,12.93-13.9A101.88,101.88,0,0,0,402.31,102a97.75,97.75,0,0,0,4.25-14,48.21,48.21,0,0,0,1.15-14.67,30.68,30.68,0,0,0-3.95-12.94q-3.39-5.88-11.1-9.16-10.82-4.24-19.5-.1a47.66,47.66,0,0,0-16,13A18.2,18.2,0,0,0,357,58q-1.74-5.79-5.79-7.72a16.76,16.76,0,0,0-8-1.74,14.05,14.05,0,0,0-6.56,1.74Q334,51.81,335.33,53q1.16,1.17-.58,7.15t-5.4,15q-3.15,7.78-7.21,17.33a2.53,2.53,0,0,0-.12.23c-1.81,3.35-3.86,6.89-6.18,10.62s-4.76,7.47-7.34,11.2-5.08,7.11-7.52,10.13a75.17,75.17,0,0,1-6.76,7.43q-3.09,2.9-4.82,3.09c-3,.26-4.28-.93-4-3.57s1.54-6.18,3.67-10.62,4.76-9.49,7.91-15.15,6.11-11.39,8.88-17.18A110.66,110.66,0,0,0,312.37,72q2.31-8,.57-13.61t-5.59-7.53a17.25,17.25,0,0,0-7.72-1.93,9.5,9.5,0,0,0-4.64,1c-1.15.64-2.31,1.32-3.47,2a27.25,27.25,0,0,1-4.15,2,18.56,18.56,0,0,1-6.66,1,30.31,30.31,0,0,1-3.57-.19,5.1,5.1,0,0,1-2.61-1,39.13,39.13,0,0,0,1.07-7.34c.19-3,.29-5.27.29-6.95a12,12,0,0,0-3-7.62,8.56,8.56,0,0,0-6.66-3.19q-6.18,0-9.26,4.25a16.91,16.91,0,0,0-3.09,10.23,16.19,16.19,0,0,0,3.19,9.26,19.38,19.38,0,0,0,7.62,6.76,42.81,42.81,0,0,1-2.12,6.27c-1,2.51-2.06,5.09-3.09,7.72s-2.06,5.15-3.09,7.53c-.45,1-.83,2-1.16,2.76a3.52,3.52,0,0,0-.58,1,61.92,61.92,0,0,1-3.86,8.29q-2.7,5-6.08,10.62t-7.33,11.2q-4,5.59-7.63,10.13A74,74,0,0,1,223,132.1q-3.09,2.9-4.83,3.09-4.44.39-3.95-3.57T217.88,121q3.19-6.66,7.92-15.15t8.88-17.18A109.51,109.51,0,0,0,241.14,72q2.33-8,.58-13.61-1.74-5.79-5.89-7.72a16.82,16.82,0,0,0-8-1.74,13.9,13.9,0,0,0-6.46,1.74q-2.61,1.55-1.26,2.7,1.17,1.15.58,4.34a44.5,44.5,0,0,1-2.31,7.72Q216.63,70,214,75.64t-5.3,12.07q-2.52,4.82-5.31,10.52t-5.79,11.38q-3,5.7-6.18,10.91a79.42,79.42,0,0,1-6.18,8.88,22.81,22.81,0,0,1-6,5.4,6.08,6.08,0,0,1-5.69.58q-3.48-1.35-4.83-5.79a31.92,31.92,0,0,1-1.16-10.33,57.73,57.73,0,0,1,1.84-12.35,72.73,72.73,0,0,1,4.15-12.06q4-8.88,8.1-16.12a104.38,104.38,0,0,1,7.82-12.16A43.05,43.05,0,0,1,196.56,59c2.18-1.73,4.18-2.54,6-2.41A3.24,3.24,0,0,1,205.63,59a8.4,8.4,0,0,0-2.22,2.31,5.26,5.26,0,0,0-.87,2.9,5,5,0,0,0,1.83,4,6.28,6.28,0,0,0,4.15,1.55A5.19,5.19,0,0,0,212.58,68c1.28-1,1.93-3,1.93-5.79A12.52,12.52,0,0,0,213,55.76a13.15,13.15,0,0,0-3.76-4.15,15.15,15.15,0,0,0-4.83-2.22,29.34,29.34,0,0,0-4.92-.87,38.68,38.68,0,0,0-13.7,2.13,41.58,41.58,0,0,0-13.13,7.62A65.58,65.58,0,0,0,160.56,72a102.3,102.3,0,0,0-10.22,19.91q-5.67,10.67-11.78,20.62-7.44,12.06-15.25,22.58a234,234,0,0,1-15.83,19.21,160.83,160.83,0,0,1-15.73,15q-10.23,8.29-19.21,11.39t-16.31,1.83A23.41,23.41,0,0,1,43.49,176a33.91,33.91,0,0,1-8.2-13.7,61.25,61.25,0,0,1-2.8-19.4A90.36,90.36,0,0,1,36,119.17q1.72-6.56,4.73-15.06t6.94-17.66q4-9.17,9-18.53A160.19,160.19,0,0,1,67.43,50.45,173.23,173.23,0,0,1,82.87,31.54,101.8,101.8,0,0,1,97.25,18.7q6.66-4.72,11.48-5.59c3.22-.58,5.53.35,7,2.79,1.55,3,2.25,6.73,2.13,11.3a52.14,52.14,0,0,1-2.51,14.18,63.26,63.26,0,0,1-6.47,14.09,41,41,0,0,1-9.55,11q-2.9,2.32-1.16,5.31a14.76,14.76,0,0,0,5.5,5.21,22.7,22.7,0,0,0,8.2,2.9q4.44.67,7.14-1.64a43.48,43.48,0,0,0,12.26-17.86A59.38,59.38,0,0,0,135,39.93,53.57,53.57,0,0,0,131.7,21Q128.42,12.25,123,7.6A29.32,29.32,0,0,0,108,.46,44.07,44.07,0,0,0,92,1,59,59,0,0,0,77.56,6.25a57.63,57.63,0,0,0-10.71,7,189.37,189.37,0,0,0-22,21.72A177.89,177.89,0,0,0,27.57,58.85,184.66,184.66,0,0,0,14.16,86.07,329.68,329.68,0,0,0,3.54,117.62,102.38,102.38,0,0,0,.16,138.08a73.64,73.64,0,0,0,1.45,20.37,56.33,56.33,0,0,0,7.33,18A40.65,40.65,0,0,0,23,190a36.83,36.83,0,0,0,11,4.82,48.37,48.37,0,0,0,12.16,1.54,62.3,62.3,0,0,0,10.71-1,48.49,48.49,0,0,0,10.52-3.09q14.28-5.2,28.95-17a189.78,189.78,0,0,0,30.5-32.24q4.05-5.21,8.3-11.48t8.49-13.13c.34-.55.68-1.12,1-1.68,0,1.35,0,2.68.14,4a31.34,31.34,0,0,0,3.95,13q3.39,6,11.1,9.07A23.44,23.44,0,0,0,171.56,145a24,24,0,0,0,10-3.47,35.45,35.45,0,0,0,8.78-7.82,96.85,96.85,0,0,0,7.72-10.9q-1,9.84,2.7,16.21a11.14,11.14,0,0,0,11,6,17.08,17.08,0,0,0,9.65-3.47,59.65,59.65,0,0,0,10-8.88,123.14,123.14,0,0,0,9.55-12q4.63-6.55,8.59-13t6.85-12.16q1.75-3.45,3-6a3,3,0,0,0,.85-1c.77-1.42,1.74-3.44,2.9-6.08s2.31-5.34,3.47-8.11,2.22-5.34,3.19-7.72,1.64-4,2-4.92A32,32,0,0,0,282,62.71a30.4,30.4,0,0,0,9.16-1.83A103.55,103.55,0,0,1,286.31,73q-3.29,7.14-6.76,15.34t-6.37,16.7a72.59,72.59,0,0,0-3.66,16,40.73,40.73,0,0,0,0,9.75,21.71,21.71,0,0,0,2.31,7.72,13,13,0,0,0,4.54,4.92A11.22,11.22,0,0,0,283,145q4.62,0,9.65-3.47a59.61,59.61,0,0,0,9.94-8.88c1.47-1.62,2.92-3.33,4.36-5.1q-3.45,8-6.78,15.91-5,12-8.78,22.29a166.75,166.75,0,0,0-5.6,18.05c-1.22,5.14-1.44,8.88-.67,11.19q1.74,5.79,5.11,7.92a11.66,11.66,0,0,0,6.57,2,8.44,8.44,0,0,0,5.21-1.73c1.35-1.1,1.77-2.16,1.25-3.19q-1.16-2.31.87-8.88a169,169,0,0,1,6.08-16q4-9.45,9.46-20.84t11.1-23.45q5.68-12.06,11-23.75T351,85.39q3.27-5.6,6.85-10.81a73.22,73.22,0,0,1,7.14-9,29.25,29.25,0,0,1,7.14-5.7A9.58,9.58,0,0,1,379,58.75q3.68,1,5,5.31A29.9,29.9,0,0,1,385,74.39,65.61,65.61,0,0,1,383.1,87,71.09,71.09,0,0,1,379,99.29q-4.05,9.08-8.1,16.21A106.23,106.23,0,0,1,363,127.56a40.69,40.69,0,0,1-7.14,7.53c-2.25,1.74-4.22,2.54-5.89,2.41a3.58,3.58,0,0,1-3.28-2.31A5.34,5.34,0,0,0,350,130a5.08,5.08,0,0,0-1.83-4.06,6.28,6.28,0,0,0-4.15-1.54,5.89,5.89,0,0,0-4.25,1.93c-1.16.9-1.73,2.77-1.73,5.6a12.46,12.46,0,0,0,1.54,6.46,13,13,0,0,0,3.76,4.15,14.94,14.94,0,0,0,4.83,2.22,29.7,29.7,0,0,0,4.92.87H356a71.32,71.32,0,0,0,18.14,0,54.39,54.39,0,0,0,14.76-4.15A51.29,51.29,0,0,0,401,133.93,98.7,98.7,0,0,0,411.19,124q5-5.64,9.38-11.56a46.34,46.34,0,0,0-.12,8.48,30.88,30.88,0,0,0,4,13q3.38,5.9,11.1,9a25.42,25.42,0,0,0,14.09,1.74,42.49,42.49,0,0,0,14-5,66.51,66.51,0,0,0,13.22-9.94,127.79,127.79,0,0,0,12.07-13.32,139.83,139.83,0,0,0,10.22-14.86q4.54-7.62,7.82-14.58A3.1,3.1,0,0,0,505.76,82.69ZM449.21,94.85q7.91-18,15.83-28.18t13.12-10c2.32.13,3.44,1.87,3.38,5.21s-1.32,7.31-3.76,11.87a56.41,56.41,0,0,1-11.1,13.9,52.27,52.27,0,0,1-19,11.1A37.17,37.17,0,0,1,449.21,94.85Z"/><path d="M621.86,60.78q-4.33,9.36-9.65,20.36t-9.65,21.43a164.59,164.59,0,0,0-6.75,19.11q-2.43,8.69-.87,13.32,1.72,5.79,5.11,7.91a12.55,12.55,0,0,0,6.76,2.12,10,10,0,0,0,5.79-1.64c1.6-1.09,2.41-2.22,2.41-3.38q-.39-5.79,2.51-13.31a154.18,154.18,0,0,1,7.33-16q4.44-8.5,9.56-17.57t9.46-18a122.68,122.68,0,0,0,6.94-17.46,39.76,39.76,0,0,0,1.84-15.83,9.58,9.58,0,0,0-2.51-6,11.1,11.1,0,0,0-5-2.89,19.1,19.1,0,0,0-6.08-.58,28.73,28.73,0,0,0-5.69.87,10.7,10.7,0,0,0-3.86,1.74q-1.37,1.06-.39,1.83,1.54,1.55-.68,8.11A163.09,163.09,0,0,1,621.86,60.78Z"/><path d="M790.75,39.16a17.71,17.71,0,0,0,6.66,1.45c2.06,0,3.09-.51,3.09-1.54a9.5,9.5,0,0,1,1.06-3.67c.7-1.55,1.48-3.09,2.31-4.63s1.61-3,2.32-4.44a8.14,8.14,0,0,0,1.06-3.28,11.12,11.12,0,0,0-2.89-7.92,19.53,19.53,0,0,0-6.47-4.63A16.49,16.49,0,0,0,791.43,9c-1.94,0-2.9.45-2.9,1.35a7.75,7.75,0,0,1-1.16,3.28q-1.15,2.13-2.6,4.63T782.16,23A8.39,8.39,0,0,0,781,26.52a11,11,0,0,0,3.09,8A19.51,19.51,0,0,0,790.75,39.16Z"/><path d="M1023.72,84a3.27,3.27,0,0,0-1.83-1.54,4.13,4.13,0,0,0-2.51,0,2.85,2.85,0,0,0-1.93,1.93,67.91,67.91,0,0,1-3.86,8.39q-2.72,5.12-6.18,10.71t-7.43,11.3q-4,5.69-7.63,10.23a66,66,0,0,1-6.75,7.33q-3.09,2.81-4.83,2.8-3.85,0-4.15-2.8a17.38,17.38,0,0,1,1.45-7.43A112.11,112.11,0,0,1,983,114.05q3.19-6.27,6.37-13.22t5.7-14.19A51.54,51.54,0,0,0,998,72.84q1.35-10.61-2.31-17.27a12,12,0,0,0-11.2-6.66,16.69,16.69,0,0,0-8.69,2.7A49.7,49.7,0,0,0,966.68,59a91.26,91.26,0,0,0-9.07,10.71q-4.44,6.07-8.68,12.64a37.07,37.07,0,0,0,1.15-4.92c.26-1.61.52-3.18.77-4.73Q952.2,62,948.54,55.28a11.6,11.6,0,0,0-11.2-6.56q-6.18.2-12.93,5.5a84.52,84.52,0,0,0-12.93,12.83,17.62,17.62,0,0,0-.19-8.68q-1.74-5.79-5.79-7.72a16.58,16.58,0,0,0-8-1.74,14.13,14.13,0,0,0-6.57,1.74q-2.59,1.55-1.25,2.7,1.55,1.55,0,6.95a106.83,106.83,0,0,1-4.83,12.93c-1.34,3.09-2.8,6.38-4.34,9.83a3.83,3.83,0,0,0-.87,1.37,80.3,80.3,0,0,1-5.31,10.9,136.13,136.13,0,0,1-17,23.26,85.31,85.31,0,0,1-10,9.46,42.13,42.13,0,0,1-10,6.08,16.19,16.19,0,0,1-9.16,1.25,6.1,6.1,0,0,1-4.35-3.28,18,18,0,0,1-1.83-6.75,42.85,42.85,0,0,1,.19-9,70.21,70.21,0,0,1,1.93-9.94,62.59,62.59,0,0,0,18.15-8A67.49,67.49,0,0,0,856,86.64a54.13,54.13,0,0,0,8.78-13.22,30,30,0,0,0,3.09-12.35A12.46,12.46,0,0,0,864.48,52q-3.37-3.48-10.52-3.48A39.12,39.12,0,0,0,840.26,51a46.44,46.44,0,0,0-13.13,7.72,65.34,65.34,0,0,0-12.06,13.42,97.11,97.11,0,0,0-10,19.27c-.22.42-.43.84-.67,1.28-1.81,3.35-3.86,6.89-6.18,10.62s-4.76,7.47-7.33,11.2-5.09,7.11-7.53,10.13a85.66,85.66,0,0,1-6.66,7.43q-3,2.9-4.92,3.09-4.44.39-4-3.57T771.45,121q3.18-6.66,7.91-15.15t8.88-17.18A109.6,109.6,0,0,0,794.71,72q2.31-8,.58-13.61-1.74-5.79-5.89-7.72a16.87,16.87,0,0,0-8-1.74,13.91,13.91,0,0,0-6.47,1.74c-1.74,1-2.15,1.93-1.25,2.7s1.06,2.58.48,5a63.38,63.38,0,0,1-3.09,9.07q-2.22,5.4-5.21,12.06T760,93.3q-2.9,7.15-5.11,14.29a83.17,83.17,0,0,0-2.29,9.11l-21.93,5.17q1-4.05,1.83-8.2t1.45-8.59q4.64-32-.29-53.56T716.44,17.74Q704.19,5.49,685.56,1.91T644.35,2A107.87,107.87,0,0,0,610.28,13.4a122,122,0,0,0-27,19.59,116,116,0,0,0-19.4,24.32,101.61,101.61,0,0,0-11,25.19,57.12,57.12,0,0,0-1.93,22.39q1.35,10.23,7.91,16.21a15.31,15.31,0,0,0,9.17,4.25,17.8,17.8,0,0,0,8.49-1.16,9,9,0,0,0,4.83-4.15q1.24-2.61-1.84-4.93-2.9-2.11-3.76-7.62a47,47,0,0,1,.1-13.12,98.66,98.66,0,0,1,3.76-16.7,138.4,138.4,0,0,1,7.24-18.43,135.08,135.08,0,0,1,10.42-18.15,91.65,91.65,0,0,1,13.51-15.73,60.62,60.62,0,0,1,20.46-12.83A55.77,55.77,0,0,1,653.71,9a47.45,47.45,0,0,1,21.42,6.37A49.47,49.47,0,0,1,692.41,32.5q8.1,12.95,10,31.76a161.84,161.84,0,0,1-1.55,41.2c-.64,4.51-1.42,8.85-2.31,13s-2,8.34-3.28,12.45q-12.55,3.28-24.81,6.85t-23.84,7.43q-31.45,10.62-51.34,21.24Q572,179.39,564.05,192.9t-1.35,26.83q3.28,7.34,13.9,11.19a44.83,44.83,0,0,0,11,2.32q6.18.58,12.55.58a114.39,114.39,0,0,0,26.15-4,148.86,148.86,0,0,0,26.93-10.23,145.67,145.67,0,0,0,28.37-17.95,152.78,152.78,0,0,0,23.55-23.74,129.23,129.23,0,0,0,13.41-21.91,163.12,163.12,0,0,0,9.94-26l23.11-5.47a38.65,38.65,0,0,0,.25,6.34,21.71,21.71,0,0,0,2.31,7.72,13,13,0,0,0,4.54,4.92,11.26,11.26,0,0,0,6.66,1.54q4.64,0,9.65-3.47a59.61,59.61,0,0,0,9.94-8.88,121.65,121.65,0,0,0,9.55-12q2.52-3.55,4.83-7.1a44.48,44.48,0,0,0,0,7.3,30.72,30.72,0,0,0,3.95,13q3.39,5.9,11.1,9a25.43,25.43,0,0,0,14.09,1.74,42.46,42.46,0,0,0,14-5,66.8,66.8,0,0,0,13.22-9.94,127.41,127.41,0,0,0,11-12c-.57,1.94-1.09,3.86-1.51,5.7q-1.74,7.53-.2,12.16,1.74,5.79,5.12,7.92a11.55,11.55,0,0,0,6.56,2,8.44,8.44,0,0,0,5.21-1.73c1.35-1.09,1.77-2.16,1.26-3.19q-1.56-2.9.29-8.39a107.51,107.51,0,0,1,5.3-12.65q3.48-7.12,7.82-15.34t8-16.12q3.29-5.2,7.05-10.42T919,68.31a67.81,67.81,0,0,1,6.85-6.85c2.12-1.8,3.83-2.77,5.11-2.9,3-.26,4.31.94,4.06,3.57s-1.42,6.21-3.48,10.71-4.63,9.59-7.72,15.25-6,11.42-8.68,17.28a110.07,110.07,0,0,0-6.28,16.79q-2.22,8-.48,13.61,1.74,5.79,5.89,7.72a16.8,16.8,0,0,0,8,1.73,13.82,13.82,0,0,0,6.47-1.73q2.6-1.55,1.25-2.7-1.93-1.54,0-7.53t5.4-14.48q2.7-5.59,6.37-12.16T949.6,93.4q4.15-6.66,8.3-12.93t8-11.1A67.25,67.25,0,0,1,973,61.65q3.18-2.9,5.11-2.9c2.7,0,4.21.78,4.54,2.32s0,3.76-1.07,6.66A81.24,81.24,0,0,1,976.91,78q-3.09,5.9-6.27,12.83t-5.89,14.67a74.41,74.41,0,0,0-3.66,15.64,30.73,30.73,0,0,0,.09,8.78,26.71,26.71,0,0,0,2.41,7.82,15.31,15.31,0,0,0,4.44,5.5A9.78,9.78,0,0,0,974.6,145q4.62,0,9.65-3.47a59.61,59.61,0,0,0,9.94-8.88,123.14,123.14,0,0,0,9.55-12q4.63-6.55,8.59-13t6.85-12.16q2.9-5.68,4.44-9A2.36,2.36,0,0,0,1023.72,84ZM828.1,94.85q7.9-18,15.82-28.18t13.13-10c2.32.13,3.44,1.87,3.38,5.21s-1.32,7.31-3.77,11.87a55.94,55.94,0,0,1-11.1,13.9,52.18,52.18,0,0,1-19,11.1A39.82,39.82,0,0,1,828.1,94.85ZM669.54,179.68a144.93,144.93,0,0,1-36,29.43c-2.58,1.55-5.66,3.25-9.27,5.12s-7.46,3.63-11.58,5.31a109,109,0,0,1-12.64,4.24,47.24,47.24,0,0,1-12.26,1.74,23.54,23.54,0,0,1-10.52-2.32,16.24,16.24,0,0,1-7.43-7.91,19.53,19.53,0,0,1,.78-19.49q12.54-21.83,77.2-43.24,10.62-3.48,21.91-6.85t23.07-6.47A123.51,123.51,0,0,1,669.54,179.68Z"/></g></g></svg>