<svg id="countdown_NOW" xmlns="http://www.w3.org/2000/svg" width="139" height="1284" viewBox="0 0 139 1284">
  <defs>
    <style>
      .cls-1 {
        fill: #fff;
        fill-rule: evenodd;
      }
    </style>
  </defs>
  <path id="LIVE_TOUR_in" data-name="LIVE TOUR in" class="cls-1" d="M16.737,18.891H63.9V0.939H2.306v59.4H16.737V18.891ZM2.306,99.363H63.9V81.412H2.306V99.363Zm61.6,19.313-61.6,30.095V167.6l61.6,30.183V178.6L19.553,158.363,63.9,138.035V118.676ZM16.033,234.611H26.945v38.807H40.057V234.611h10.12V281.69H63.9V216.923H2.306v65.735H16.033V234.611ZM63.9,401.89V332.9H49.56v25.431H2.306v17.951H49.56V401.89H63.9ZM0.282,457.458c0,24.376,11.968,40.215,32.823,40.215s32.823-15.839,32.823-40.215S53.96,417.332,33.1,417.332,0.282,433.083.282,457.458Zm14.608,0c0-13.551,6.6-21.911,18.216-21.911S51.32,444,51.32,457.458c0,13.552-6.6,21.912-18.215,21.912S14.889,471.01,14.889,457.458ZM63.9,573.482H32.753c-10.736,0-17.687-5.9-17.687-17.776s6.952-17.863,17.687-17.863H63.9V519.892H31.345c-18.743,0-31.063,12.847-31.063,35.814s12.32,35.727,31.063,35.727H63.9V573.482ZM2.306,690.3L23.249,672.17c2.816,9.68,9.328,16.191,19.623,16.191,14.08,0,21.031-12.231,21.031-27.983V617.171H2.306v17.864H21.753v18.127L2.306,669.442V690.3Zm32.471-55.35H50.264v24.111c0,6.424-1.76,11.088-7.744,11.088s-7.744-4.664-7.744-11.088V634.947Zm5.267,89.276a3.314,3.314,0,0,0,3.18,3.48,3.494,3.494,0,0,0,0-6.96A3.314,3.314,0,0,0,40.044,724.223ZM35,726.683v-4.92H2.306v4.92H35Zm-32.7,13.38H22.825a15.517,15.517,0,0,1,9,14.64c0,7.379-4.02,11.039-11.4,11.039H2.306v4.92H20.785c8.94,0,15.419-4.86,15.419-15,0-7.02-3.06-12.54-7.98-15.6H35v-4.919H2.306v4.919Z"/>
  <path id="_2023" data-name="2023" class="cls-1" d="M1.537,887.177c0,25.519,25.232,36.169,47.3,43.268l0.1-.767c-9.211-3.55-12.952-10.554-12.952-21.394,0-20.34,12.376-38.281,12.376-57.085,0-12.28-4.125-23.7-17.077-31.564l-0.1-.1C54.3,833.451,58.333,856.187,64.09,880.845c8.346,35.21,25.712,56.124,46.819,56.124,17.653,0,28.014-17.653,28.014-53.918,0-19.38-7.675-55.646-34.922-55.646-9.785,0-15.735,6.141-15.735,16.886a22.1,22.1,0,0,0,17.27,21.682c2.11-3.454,5.181-6.139,10.649-6.139,12.185,0,21.779,10.073,21.779,23.121,0,11.322-7.1,15.638-16.693,15.638-21.3,0-39.144-15.638-51.616-35.3C54.879,840.07,39.721,812.822,3.073,809.944v0.96a62.385,62.385,0,0,1,9.306,1.247C24.562,818.579,1.537,865.782,1.537,887.177Zm0,98.791c0,41.542,36.841,75.6,81.933,75.6,32.044,0,55.453-19.86,55.453-53.92,0-41.542-36.841-75.6-81.932-75.6C24.851,932.049,1.537,952.005,1.537,985.968Zm0.96,0.1c0-9.211,8.826-13.432,26.863-13.432,52.383,0,108.6,18.037,108.6,34.918,0,9.21-8.73,13.53-26.864,13.53C58.718,1021.08,2.5,1002.95,2.5,986.064Zm-0.96,136.7c0,25.52,25.232,36.17,47.3,43.27l0.1-.77c-9.211-3.55-12.952-10.55-12.952-21.39,0-20.34,12.376-38.28,12.376-57.09,0-12.28-4.125-23.69-17.077-31.56l-0.1-.1c23.121,13.91,27.151,36.65,32.907,61.31,8.346,35.21,25.712,56.12,46.819,56.12,17.653,0,28.014-17.65,28.014-53.91,0-19.38-7.675-55.65-34.922-55.65-9.785,0-15.735,6.14-15.735,16.89a22.105,22.105,0,0,0,17.27,21.68c2.11-3.46,5.181-6.14,10.649-6.14,12.185,0,21.779,10.07,21.779,23.12,0,11.32-7.1,15.64-16.693,15.64-21.3,0-39.144-15.64-51.616-35.31-14.776-23.22-29.934-50.46-66.583-53.34v0.96a61.717,61.717,0,0,1,9.306,1.25C24.562,1054.16,1.537,1101.37,1.537,1122.76Zm0,86.51c0,40.68,17.653,67.54,44.516,67.54,23.314,0,27.919-28.11,27.919-54.68h0.287c2.207,39.43,16.5,61.59,39.336,61.59,20.532,0,25.328-25.04,25.328-51.23,0-31.66-12.472-52.19-31.66-52.19-10.17,0-14.583,7.29-14.583,15.35a20.609,20.609,0,0,0,16.118,20.34,10.725,10.725,0,0,1,9.979-5.95c9.306,0,19.187,8.15,19.187,22.16,0,9.6-6.811,14.3-18.038,14.3-25.039,0-45.378-14.39-45.378-32.05v-6.04l-0.96-.19v6.33c0,16.21-10.265,20.63-22.834,20.63-27.631,0-48.257-10.94-48.257-25.81,0-11.61,5.661-18.52,15.063-18.52,7.771,0,14.1,3.84,17.364,10.56,11.129,0.95,17.27-6.72,17.27-16.12,0-13.05-10.553-23.22-23.889-23.22C5.567,1162.07,1.537,1193.63,1.537,1209.27Z"/>
  <path id="NEW_ALBUM_" data-name="NEW ALBUM &amp; " class="cls-1" d="M138.9,56.466H101.241L138.9,19.947V0.939h-61.6V18.275h40.479L77.306,58.05V73.8h61.6V56.466ZM91.033,105.923h10.912V144.73h13.112V105.923h10.119V153H138.9V88.236h-61.6V153.97H91.033V105.923Zm47.871,143.7L96.577,236.161,138.9,221.466V204.922L96.577,190.227,138.9,176.763V158.372L77.306,180.9v17.688l42.855,14.431L77.306,227.362v17.863l61.6,22.44v-18.04Zm-61.6,100.321v19.095l61.6-31.855V317.563l-61.6-31.855v18.831L89.1,310.347v33.791Zm24.551-33.439,21.823,10.736L101.857,337.89V316.507Zm-10.12,77.264H138.9V375.82h-61.6v59.4H91.737V393.771Zm17.688,104.895c0.528,9.24,6.6,14.079,13.551,14.079,9.856,0,15.928-9.591,15.928-24.727V443.932h-61.6v47.606c0,15.136,6.248,24.727,16.9,24.727C103.705,516.265,108.809,508.346,109.425,498.666Zm16.983-36.959v23.319c0,5.984-1.32,9.944-5.983,9.944-4.752,0-6.072-3.96-6.072-9.944V461.707h12.055ZM89.8,487.754V461.707h12.936v26.047c0,6.336-1.408,10.12-6.424,10.12S89.8,494.09,89.8,487.754Zm49.1,91.608H107.753c-10.736,0-17.688-5.9-17.688-17.775s6.952-17.864,17.688-17.864H138.9V525.772H106.345c-18.743,0-31.063,12.847-31.063,35.815s12.32,35.726,31.063,35.726H138.9V579.362Zm0,97.416-29.567-23.32L138.9,630.315V610.691h-61.6v17.336h39.335l-30.1,24.551v0.88l30.1,24.552H77.306v17.863h61.6v-19.1Zm-61.6,94.76,6.6-9a21.276,21.276,0,0,0,13.079,4.14v-4.92q-6.39-.09-10.26-3.06l12.84-17.519c3.84-5.22,6.12-8.82,9.839-8.82,3.96,0,6.54,3.78,6.54,10.2,0,6.9-2.94,11.039-8.339,13.379l1.8,4.44c5.76-2.46,11.1-7.8,11.1-17.759,0-9.06-4.5-15.42-11.34-15.42-3.239,0-5.459,1.44-7.5,3.6-2.22-5.34-6.72-8.7-11.58-8.7-7.92,0-13.98,9-13.98,21,0,6.9,1.62,12.239,4.5,16.079l-3.3,4.5v7.86Zm3.36-28.079c0-8.46,3-16.14,9.72-16.14,3.42,0,6.66,2.04,8.58,6.9-0.48.6-.9,1.2-1.38,1.86l-14.1,19.139C81.626,752.218,80.666,748.258,80.666,743.459Z"/>
</svg>
